<svg width="28" height="28" viewBox="0 0 28 28" fill="none" xmlns="http://www.w3.org/2000/svg">
<g id="Frame">
<path id="Rectangle 34624146" d="M3 1H19L25 8V27H3V1Z" fill="#1F79FF"/>
<path id="Rectangle 34624147" d="M19 1L25 8H19V1Z" fill="#99C1FF"/>
<path id="Vector" d="M17.1223 23.2683C18.4424 23.2683 19.6375 22.7332 20.5026 21.8681C21.3677 21.003 21.9028 19.8078 21.9028 18.4878C21.9028 17.1677 21.3677 15.9726 20.5026 15.1074C19.6375 14.2424 18.4424 13.7073 17.1223 13.7073C15.8022 13.7073 14.6071 14.2424 13.742 15.1074C12.8769 15.9726 12.3418 17.1677 12.3418 18.4878C12.3418 19.8078 12.8769 21.003 13.742 21.8681C14.6071 22.7332 15.8022 23.2683 17.1223 23.2683Z" stroke="white" stroke-width="1.5" stroke-linejoin="round"/>
<path id="Vector_2" d="M15.0732 18.4879L16.6667 19.8538L19.8537 17.1221" stroke="white" stroke-width="1.5" stroke-linecap="square" stroke-linejoin="round"/>
<path id="Rectangle 825" d="M15.2244 5.99976H6.24414V7.64038H15.2244V5.99976Z" fill="white"/>
<path id="Rectangle 827" d="M12.1027 11.7419H6.24414V13.3826H12.1027V11.7419Z" fill="#99C1FF"/>
</g>
</svg>
