<?xml version="1.0" standalone="no"?><!DOCTYPE svg PUBLIC "-//W3C//DTD SVG 1.1//EN" "http://www.w3.org/Graphics/SVG/1.1/DTD/svg11.dtd"><svg class="icon" width="200px" height="172.25px" viewBox="0 0 1189 1024" version="1.1" xmlns="http://www.w3.org/2000/svg"><path d="M487.5603 1023.980774a41.795134 41.795134 0 0 1-30.092496-13.374443L11.095776 527.454587a42.631036 42.631036 0 0 1 0-57.677285L458.303706 12.53854a41.795134 41.795134 0 0 1 71.051728 29.256594v240.739969a657.855404 657.855404 0 0 1 436.341195 199.780739 793.271637 793.271637 0 0 1 224.021916 490.674869 43.466939 43.466939 0 0 1-25.07708 43.466939 42.631036 42.631036 0 0 1-48.482355-12.53854c-128.729012-157.149702-242.411775-246.591288-334.361069-266.652953a774.881778 774.881778 0 0 0-250.770802-14.210345v259.129829a41.795134 41.795134 0 0 1-25.912983 39.287425 52.661868 52.661868 0 0 1-17.553956 2.507708zM99.70146 501.541604l346.063706 375.3203V686.276094a41.795134 41.795134 0 0 1 35.107913-40.959231 844.2617 844.2617 0 0 1 315.97121 10.030833A595.162703 595.162703 0 0 1 1079.379392 835.902673a685.440192 685.440192 0 0 0-173.867756-295.909546 566.742012 566.742012 0 0 0-417.951336-177.211367 41.795134 41.795134 0 0 1-41.795134-41.795134V144.611162z" /></svg>