<?xml version="1.0" standalone="no"?><!DOCTYPE svg PUBLIC "-//W3C//DTD SVG 1.1//EN" "http://www.w3.org/Graphics/SVG/1.1/DTD/svg11.dtd"><svg class="icon" width="200px" height="200.00px" viewBox="0 0 1024 1024" version="1.1" xmlns="http://www.w3.org/2000/svg"><path d="M971.058706 884.332833H41.321647a41.321647 41.321647 0 0 1-41.321647-41.321647 41.321647 41.321647 0 0 1 41.321647-41.321647h98.34552V378.555873a366.936226 366.936226 0 1 1 733.046019 0v423.133666h98.34552a41.321647 41.321647 0 0 1 41.321647 41.321647 41.321647 41.321647 0 0 1-41.321647 41.321647z m-748.748245-82.643294h567.759431V378.555873a284.292932 284.292932 0 1 0-567.759431 0zM506.603393 1024a157.848692 157.848692 0 0 1-157.848692-157.848692v-23.140122a41.321647 41.321647 0 0 1 41.321647-41.321647h232.227657a41.321647 41.321647 0 0 1 41.321647 41.321647v23.140122a157.848692 157.848692 0 0 1-157.022259 157.848692z m-72.726099-139.667167a74.378965 74.378965 0 0 0 144.625765 0z" /></svg>