<?xml version="1.0" standalone="no"?><!DOCTYPE svg PUBLIC "-//W3C//DTD SVG 1.1//EN" "http://www.w3.org/Graphics/SVG/1.1/DTD/svg11.dtd"><svg class="icon" width="200px" height="200.00px" viewBox="0 0 1024 1024" version="1.1" xmlns="http://www.w3.org/2000/svg"><path d="M508.299833 454.242196a36.339376 36.339376 0 0 1-36.339376-36.339375V36.339376a36.339376 36.339376 0 1 1 72.678752 0v382.471929a36.339376 36.339376 0 0 1-36.339376 35.430891zM681.820352 120.828424a36.339376 36.339376 0 0 0 19.078172 31.796954 422.445243 422.445243 0 1 1-384.288898 0 36.339376 36.339376 0 0 0 19.078173-31.796954A36.339376 36.339376 0 0 0 286.629641 90.848439a494.21551 494.21551 0 1 0 454.242197 0 36.339376 36.339376 0 0 0-59.051486 29.979985z" /></svg>