<?xml version="1.0" standalone="no"?><!DOCTYPE svg PUBLIC "-//W3C//DTD SVG 1.1//EN" "http://www.w3.org/Graphics/SVG/1.1/DTD/svg11.dtd"><svg t="1674982733176" class="icon" viewBox="0 0 1135 1024" version="1.1" xmlns="http://www.w3.org/2000/svg" p-id="3146" xmlns:xlink="http://www.w3.org/1999/xlink" width="221.6796875" height="200"><path d="M567.524231 451.254237a225.627119 225.627119 0 1 1 225.627118-225.627118 226.494915 226.494915 0 0 1-225.627118 225.627118z m0-364.474576a138.847458 138.847458 0 1 0 138.847457 138.847458A138.847458 138.847458 0 0 0 567.524231 86.779661zM263.795417 425.220339a41.654237 41.654237 0 0 1-22.562712-6.074576A225.627119 225.627119 0 0 1 229.951349 40.786441a43.389831 43.389831 0 0 1 60.745763 10.413559 44.257627 44.257627 0 0 1-10.413559 60.745763A138.847458 138.847458 0 0 0 220.405586 225.627119 136.244068 136.244068 0 0 0 288.093722 347.118644a44.257627 44.257627 0 0 1 14.752542 59.877966 45.125424 45.125424 0 0 1-39.050847 18.223729zM879.93101 418.277966a42.522034 42.522034 0 0 1-35.579661-18.223729 44.257627 44.257627 0 0 1 10.413559-60.745762 137.979661 137.979661 0 0 0 0-227.362712 44.257627 44.257627 0 0 1-10.413559-60.745763 43.389831 43.389831 0 0 1 60.745763-10.413559 225.627119 225.627119 0 0 1 0 369.681356 45.125424 45.125424 0 0 1-25.166102 7.810169zM879.93101 1024H255.117451a43.389831 43.389831 0 0 1-43.389831-43.389831v-52.067796a537.166102 537.166102 0 0 1 19.091526-200.461017 252.528814 252.528814 0 0 1 136.244068-136.244068A537.166102 537.166102 0 0 1 567.524231 572.745763a537.166102 537.166102 0 0 1 200.461016 19.091525 252.528814 252.528814 0 0 1 136.244068 136.244068 537.166102 537.166102 0 0 1 19.091526 200.461017v52.067796a43.389831 43.389831 0 0 1-43.389831 43.389831z m-581.423729-86.779661h538.033899v-8.677966a498.115254 498.115254 0 0 0-13.016949-167.484746 162.277966 162.277966 0 0 0-86.779662-86.779661A531.959322 531.959322 0 0 0 567.524231 659.525424a531.959322 531.959322 0 0 0-167.484746 12.149152 166.616949 166.616949 0 0 0-86.779661 86.779661 531.959322 531.959322 0 0 0-14.752543 170.088136zM1088.202197 1024a43.389831 43.389831 0 0 1-43.389831-43.389831v-31.240677a502.454237 502.454237 0 0 0-18.223729-199.593221 160.542373 160.542373 0 0 0-68.555932-72.027118 45.125424 45.125424 0 0 1-19.091525-59.01017 44.257627 44.257627 0 0 1 59.010169-18.223729 246.454237 246.454237 0 0 1 109.342373 109.342373 529.355932 529.355932 0 0 1 24.298305 239.511865v31.240677a43.389831 43.389831 0 0 1-43.38983 43.389831zM46.846264 1024a43.389831 43.389831 0 0 1-43.38983-43.389831v-31.240677a529.355932 529.355932 0 0 1 27.769491-239.511865 246.454237 246.454237 0 0 1 109.342373-109.342373 44.257627 44.257627 0 0 1 59.01017 18.223729 45.125424 45.125424 0 0 1-22.562712 59.01017 160.542373 160.542373 0 0 0-72.027119 72.027118 502.454237 502.454237 0 0 0-14.752542 199.593221v31.240677a43.389831 43.389831 0 0 1-43.389831 43.389831z" p-id="3147"></path></svg>