<svg width="30" height="30" viewBox="0 0 30 30" fill="none" xmlns="http://www.w3.org/2000/svg">
<g id="&#230;&#136;&#145;&#231;&#154;&#132;&#229;&#174;&#162;&#230;&#136;&#183;">
<g id="Group 4277">
<path id="Subtract" fill-rule="evenodd" clip-rule="evenodd" d="M9.04822 10.2524C9.04822 9.58715 9.15735 8.94741 9.3587 8.35008C8.91894 8.12621 8.42114 8 7.89386 8C6.10814 8 4.66052 9.44762 4.66052 11.2333C4.66052 13.0191 6.10814 14.4667 7.89386 14.4667C8.73948 14.4667 9.50927 14.1421 10.0854 13.6106C9.70066 13.0486 9.40979 12.4173 9.23541 11.7391C9.03095 12.2812 8.50743 12.6667 7.89386 12.6667C7.10225 12.6667 6.46052 12.025 6.46052 11.2333C6.46052 10.4417 7.10225 9.8 7.89386 9.8C8.36824 9.8 8.78879 10.0304 9.04968 10.3855C9.04871 10.3412 9.04822 10.2969 9.04822 10.2524ZM22.1064 14.4667C21.2608 14.4667 20.4911 14.1421 19.9149 13.6107C20.2997 13.0487 20.5905 12.4174 20.7649 11.7393C20.9694 12.2812 21.4929 12.6667 22.1064 12.6667C22.898 12.6667 23.5397 12.025 23.5397 11.2333C23.5397 10.4417 22.898 9.8 22.1064 9.8C21.6321 9.8 21.2116 10.0304 20.9507 10.3853C20.9517 10.3411 20.9522 10.2968 20.9522 10.2524C20.9522 9.58713 20.843 8.94736 20.6417 8.35002C21.0814 8.12619 21.5792 8 22.1064 8C23.8921 8 25.3397 9.44762 25.3397 11.2333C25.3397 13.0191 23.8921 14.4667 22.1064 14.4667ZM7.88781 15.3333H7.12335C6.40816 15.3333 5.81723 15.3333 5.33571 15.3726C4.83538 15.4135 4.37444 15.5013 3.94121 15.722C3.27009 16.064 2.72446 16.6097 2.38252 17.2808C2.16178 17.714 2.07398 18.1749 2.0331 18.6752C1.99376 19.1568 1.99376 19.7477 1.99377 20.4628V20.4629V20.4629V21.8H5.56812C5.56929 21.151 5.57586 20.5403 5.6119 20H3.7943C3.79589 19.5009 3.80218 19.1271 3.82712 18.8218C3.8589 18.4328 3.91643 18.2351 3.98633 18.0979C4.15571 17.7655 4.42597 17.4952 4.75837 17.3259C4.89558 17.256 5.09329 17.1984 5.48228 17.1667C5.7282 17.1466 6.01866 17.1386 6.38327 17.1354C6.7707 16.4441 7.28177 15.8338 7.88781 15.3333ZM24.432 21.8H28.0063V20.4629V20.4628C28.0063 19.7476 28.0063 19.1567 27.967 18.6752C27.9261 18.1749 27.8383 17.714 27.6176 17.2808C27.2756 16.6096 26.73 16.064 26.0589 15.722C25.6256 15.5013 25.1647 15.4135 24.6644 15.3726C24.1829 15.3333 23.5919 15.3333 22.8767 15.3333H22.1123C22.7184 15.8338 23.2295 16.4441 23.6169 17.1354C23.9815 17.1386 24.2719 17.1466 24.5178 17.1667C24.9068 17.1984 25.1045 17.256 25.2417 17.3259C25.5741 17.4952 25.8444 17.7655 26.0138 18.0979C26.0837 18.2351 26.1412 18.4328 26.173 18.8218C26.1979 19.1271 26.2042 19.5009 26.2058 20H24.3883C24.4243 20.5403 24.4309 21.151 24.432 21.8Z" fill="currentColor"/>
</g>
<g id="Group 4278">
<path id="Vector (Stroke)" fill-rule="evenodd" clip-rule="evenodd" d="M10.989 10.1111C10.989 7.89582 12.7848 6.09998 15.0001 6.09998C17.2154 6.09998 19.0113 7.89582 19.0113 10.1111C19.0113 12.3264 17.2154 14.1222 15.0001 14.1222C12.7848 14.1222 10.989 12.3264 10.989 10.1111ZM15.0001 7.89998C13.779 7.89998 12.789 8.88993 12.789 10.1111C12.789 11.3323 13.779 12.3222 15.0001 12.3222C16.2213 12.3222 17.2113 11.3323 17.2113 10.1111C17.2113 8.88993 16.2213 7.89998 15.0001 7.89998Z" fill="currentColor"/>
<path id="Vector (Stroke)_2" fill-rule="evenodd" clip-rule="evenodd" d="M13.9838 15.8777H16.0163C16.9793 15.8777 17.7567 15.8777 18.3864 15.9292C19.0349 15.9822 19.6056 16.0942 20.1339 16.3633C20.9723 16.7905 21.6539 17.4722 22.0811 18.3105C22.3503 18.8388 22.4623 19.4095 22.5153 20.0581C22.5667 20.6878 22.5667 21.4652 22.5667 22.4282V23.9H7.43335L7.43335 22.4282C7.43334 21.4652 7.43333 20.6878 7.48478 20.0581C7.53777 19.4095 7.64979 18.8388 7.91898 18.3105C8.34614 17.4722 9.02775 16.7905 9.86613 16.3634C10.3944 16.0942 10.9651 15.9822 11.6137 15.9292C12.2434 15.8777 13.0208 15.8777 13.9838 15.8777ZM10.6833 17.9672C10.1836 18.2218 9.77739 18.628 9.52279 19.1277C9.40445 19.36 9.3227 19.6674 9.2788 20.2047C9.23967 20.6836 9.23422 21.2818 9.23347 22.1H20.7666C20.7658 21.2818 20.7604 20.6836 20.7213 20.2047C20.6774 19.6674 20.5956 19.36 20.4773 19.1277C20.2227 18.628 19.8164 18.2218 19.3168 17.9672M10.6833 17.9672C10.9156 17.8488 11.223 17.7671 11.7603 17.7232C12.308 17.6784 13.0118 17.6777 14.0223 17.6777H15.9778C16.9883 17.6777 17.6921 17.6784 18.2398 17.7232C18.777 17.7671 19.0845 17.8488 19.3168 17.9672" fill="currentColor"/>
</g>
</g>
</svg>
