<svg width="30" height="30" viewBox="0 0 30 30" fill="none" xmlns="http://www.w3.org/2000/svg">
<g id="Frame">
<path id="Vector (Stroke)" fill-rule="evenodd" clip-rule="evenodd" d="M5.625 4.75C5.14175 4.75 4.75 5.14175 4.75 5.625V24.375C4.75 24.8582 5.14175 25.25 5.625 25.25H24.375C24.8582 25.25 25.25 24.8582 25.25 24.375V5.625C25.25 5.14175 24.8582 4.75 24.375 4.75H5.625ZM2.75 5.625C2.75 4.03718 4.03718 2.75 5.625 2.75H24.375C25.9628 2.75 27.25 4.03718 27.25 5.625V24.375C27.25 25.9628 25.9628 27.25 24.375 27.25H5.625C4.03718 27.25 2.75 25.9628 2.75 24.375V5.625Z" fill="currentColor"/>
<path id="Vector (Stroke)_2" fill-rule="evenodd" clip-rule="evenodd" d="M26.25 11.625H3.75V9.625H26.25V11.625Z" fill="currentColor"/>
<path id="Vector (Stroke)_3" fill-rule="evenodd" clip-rule="evenodd" d="M11.625 10.625V26.25H9.625V10.625H11.625Z" fill="currentColor"/>
</g>
</svg>
