<svg width="30" height="30" viewBox="0 0 30 30" fill="none" xmlns="http://www.w3.org/2000/svg">
<g id="&#233;&#161;&#185;&#231;&#155;&#174;&#228;&#191;&#161;&#230;&#129;&#175; ">
<g id="Group">
<path id="Vector" fill-rule="evenodd" clip-rule="evenodd" d="M26.2 6.50001H15.5L12.2 2.70001H3.8C2.6 2.70001 1.5 3.70001 1.5 5.00001V25C1.5 26.3 2.6 27.3 3.8 27.3H26.2C27.4 27.3 28.5 26.3 28.5 25V8.80001C28.5 7.50001 27.4 6.50001 26.2 6.50001ZM3.5 5.00001C3.5 4.90001 3.6 4.70001 3.8 4.70001H11.2L12.8 6.50001H3.5V5.00001ZM26.5 25C26.5 25.1 26.4 25.3 26.2 25.3H3.8C3.6 25.3 3.5 25.1 3.5 25V8.60001H24.2V8.50001H26.2C26.4 8.50001 26.5 8.70001 26.5 8.80001V25Z" fill="currentColor"/>
<path id="Vector_2" d="M14.2 13.1H8.59998V15.1H14.2V13.1Z" fill="currentColor"/>
<path id="Vector_3" d="M21.4 17.8H8.59998V19.8H21.4V17.8Z" fill="currentColor"/>
</g>
</g>
</svg>
