<svg width="30" height="30" viewBox="0 0 30 30" fill="none" xmlns="http://www.w3.org/2000/svg">
<g id="&#232;&#183;&#159;&#232;&#191;&#155;&#232;&#174;&#161;&#229;&#136;&#146;&#232;&#161;&#168;&#229;&#141;&#149;">
<path id="Union" fill-rule="evenodd" clip-rule="evenodd" d="M6.25 3.5C6.11193 3.5 6 3.61193 6 3.75V26.25C6 26.3881 6.11192 26.5 6.25 26.5H23.75C23.8881 26.5 24 26.3881 24 26.25V9.16422L18.3358 3.5H6.25ZM4 3.75C4 2.50736 5.00736 1.5 6.25 1.5H19.1642L26 8.33579V26.25C26 27.4927 24.9927 28.5 23.75 28.5H6.25C5.00737 28.5 4 27.4927 4 26.25V3.75ZM20.9142 10.5L13.5 17.9142L9.08582 13.5L10.5 12.0858L13.5 15.0858L19.5 9.08578L20.9142 10.5ZM10.5 22.8333H19.5V20.8333H10.5V22.8333Z" fill="currentColor"/>
</g>
</svg>
