<svg width="30" height="30" viewBox="0 0 30 30" fill="none" xmlns="http://www.w3.org/2000/svg">
<g id="&#229;&#188;&#128;&#231;&#165;&#168;&#232;&#174;&#176;&#229;&#189;&#149;&#232;&#161;&#168;&#229;&#141;&#149; ">
<g id="Group">
<path id="Vector" fill-rule="evenodd" clip-rule="evenodd" d="M26 2.8H4C2.9 2.8 2 3.7 2 4.8V8.8C2 9.9 2.9 10.8 4 10.8H6V27L11 24.9L15 26.6L19 24.9L24 27V10.8H26C27.1 10.8 28 9.9 28 8.8V4.8C28 3.7 27.1 2.8 26 2.8ZM22 24L19 22.8L15 24.5L11 22.8L8 24V8.5H22V24ZM26 8.8H24V6.5H6V8.8H4V4.8H26V8.8Z" fill="currentColor"/>
<path id="Vector_2" fill-rule="evenodd" clip-rule="evenodd" d="M12.7 17.5C12.5 17.5 12.3 17.6 12.2 17.7C12.1 17.8 12 18 12 18.2C12 18.4 12.1 18.6 12.2 18.7C12.3 18.8 12.5 18.9 12.7 18.9H14.3V20.6C14.3 20.7 14.3 20.8 14.4 20.9C14.4 21 14.5 21.1 14.6 21.1C14.7 21.2 14.7 21.2 14.8 21.2C14.9 21.2 15 21.3 15.1 21.3C15.3 21.3 15.5 21.2 15.6 21.1C15.7 21 15.8 20.8 15.8 20.6V18.9H17.4C17.6 18.9 17.8 18.8 17.9 18.7C18 18.6 18.1 18.4 18.1 18.2C18.1 18 18 17.8 17.9 17.7C17.8 17.6 17.6 17.5 17.4 17.5H15.8V16.5H17.4C17.6 16.5 17.8 16.4 17.9 16.3C18 16.2 18.1 16 18.1 15.8C18.1 15.7 18.1 15.6 18 15.5C18 15.4 17.9 15.3 17.9 15.3C17.8 15.2 17.8 15.2 17.7 15.2C17.6 15.2 17.5 15.1 17.4 15.1H15.7L17.7 13.1C17.8 13 17.8 13 17.8 12.9C17.8 12.8 17.9 12.7 17.9 12.6C17.9 12.5 17.9 12.4 17.8 12.3C17.8 12.2 17.7 12.1 17.7 12.1C17.6 12 17.4 11.9 17.2 11.9C17 11.9 16.8 12 16.7 12.1L15 13.8L13.3 12.1C13.2 12 13 11.9 12.8 11.9C12.6 11.9 12.4 12 12.3 12.1C12.2 12.2 12.1 12.4 12.1 12.6C12.1 12.8 12.2 13 12.3 13.1L13.9 14.7L14.3 15.1H12.6C12.4 15.1 12.2 15.2 12.1 15.3C12 15.4 11.9 15.6 11.9 15.8C11.9 16 12 16.2 12.1 16.3C12.2 16.4 12.4 16.5 12.6 16.5H14.2V17.5H12.7Z" fill="currentColor"/>
</g>
</g>
</svg>
