<svg width="30" height="30" viewBox="0 0 30 30" fill="none" xmlns="http://www.w3.org/2000/svg">
<g id="&#229;&#149;&#134;&#230;&#156;&#186;&#232;&#183;&#159;&#232;&#191;&#155;&#232;&#174;&#161;&#229;&#136;&#146; ">
<g id="Group">
<path id="Vector" fill-rule="evenodd" clip-rule="evenodd" d="M4.09998 25.6V12.9H26.9H27.9V6.30001C27.9 5.10001 26.9 4.00001 25.6 4.00001H21V2.10001H19V4.00001H11V2.10001H8.99998V4.00001H4.39998C3.09998 4.00001 2.09998 5.00001 2.09998 6.30001V10.9V12.9V25.7C2.09998 26.9 3.09998 28 4.39998 28H13V26H4.39998C4.19998 25.9 4.09998 25.8 4.09998 25.6ZM4.09998 6.30001C4.09998 6.10001 4.19998 6.00001 4.39998 6.00001H8.99998V9.10001H11V6.00001H19V9.10001H21V6.00001H25.6C25.7 6.00001 25.9 6.10001 25.9 6.30001V10.9H4.09998V6.30001Z" fill="currentColor"/>
<path id="Vector_2" fill-rule="evenodd" clip-rule="evenodd" d="M9.1 20L7.9 18.8L6.5 20.2L8.4 22.1C8.8 22.5 9.4 22.5 9.8 22.1L13.6 18.3L12.1 17L9.1 20Z" fill="currentColor"/>
<path id="Vector_3" fill-rule="evenodd" clip-rule="evenodd" d="M23.2999 13.8C20.6999 13.8 18.7 15.9 18.7 18.4C18.7 19.7 19.2 20.8 20.1 21.7C20.4 22 20.9 22.3 21.4 22.5C21.4 22.8 21.4 23.4 21.4 24.1V24.8H25.4V22.5C25.8 22.3 26.3 22 26.7 21.7C27.5 20.9 28.1 19.7 28.1 18.4C28 15.9 25.8999 13.8 23.2999 13.8ZM25.6 20.7C25.3 21 24.8 21.2 24.4 21.4L24 21.6V23.4H22.7999C22.7999 22.6 22.7999 22.2 22.7999 22V21.5L22.4 21.3C21.9 21.1 21.4 20.8 21.2 20.6C20.6 20 20.2999 19.2 20.2999 18.3C20.2999 16.5 21.8 15.1 23.5 15.1C25.3 15.1 26.7 16.6 26.7 18.3C26.6 19.3 26.2 20.1 25.6 20.7Z" fill="currentColor"/>
<path id="Vector_4" d="M25.6 26.1H21V27.9H25.6V26.1Z" fill="currentColor"/>
</g>
</g>
</svg>
