<svg width="30" height="30" viewBox="0 0 30 30" fill="none" xmlns="http://www.w3.org/2000/svg">
<g id="&#229;&#133;&#179;&#229;&#141;&#149;">
<path id="Union" fill-rule="evenodd" clip-rule="evenodd" d="M4.375 4.75C3.89175 4.75 3.5 5.14175 3.5 5.625V24.375C3.5 24.8582 3.89175 25.25 4.375 25.25H20.3125V27.25H4.375C2.78718 27.25 1.5 25.9628 1.5 24.375V5.625C1.5 4.03718 2.78718 2.75 4.375 2.75H25.625C27.2128 2.75 28.5 4.03718 28.5 5.625V10.125H26.5V5.625C26.5 5.14175 26.1082 4.75 25.625 4.75H4.375ZM28.5312 27.1379H23.7812V25.1379H28.5312V27.1379ZM23.7812 22.1536H28.5312V20.1536H23.7812V22.1536ZM28.5312 17.0286H23.7812V15.0286H28.5312V17.0286ZM13.5 19.4142L20.9142 12L19.5 10.5858L13.5 16.5858L10.5 13.5858L9.08582 15L13.5 19.4142Z" fill="currentColor"/>
</g>
</svg>
