<svg width="30" height="30" viewBox="0 0 30 30" fill="none" xmlns="http://www.w3.org/2000/svg">
<g id="&#231;&#186;&#191;&#231;&#180;&#162;&#231;&#153;&#187;&#232;&#174;&#176;">
<path id="Union" fill-rule="evenodd" clip-rule="evenodd" d="M3.5 5.625C3.5 5.31838 3.60025 5.07382 3.72021 4.92387C3.8387 4.77576 3.94398 4.75 4 4.75H21C21.056 4.75 21.1613 4.77576 21.2798 4.92387C21.3998 5.07382 21.5 5.31838 21.5 5.625V10.125H23.5V5.625C23.5 4.25695 22.5774 2.75 21 2.75H4C2.42259 2.75 1.5 4.25695 1.5 5.625V24.375C1.5 25.7431 2.42259 27.25 4 27.25H12.5V25.25H4C3.94398 25.25 3.8387 25.2242 3.72021 25.0761C3.60025 24.9262 3.5 24.6816 3.5 24.375V5.625ZM6.5 9.75H15.5V7.75H6.5V9.75ZM15.5 14.75H6.5V12.75H15.5V14.75ZM20.2687 14.35C19.6549 14.35 18.7359 14.5086 17.9407 15.0396C17.0956 15.6041 16.4437 16.5605 16.4437 17.9816C16.4437 19.4012 17.0939 20.3629 17.9341 20.935C18.7266 21.4746 19.6463 21.6449 20.2687 21.6449H24.3815C24.7369 21.6449 25.26 21.7496 25.6662 22.0306C26.0241 22.2783 26.3437 22.692 26.3437 23.4917C26.3437 24.2918 26.0235 24.7095 25.6637 24.9601C25.2565 25.2439 24.7337 25.35 24.3815 25.35H19.7342C19.4229 24.812 18.8412 24.45 18.175 24.45C17.1809 24.45 16.375 25.2559 16.375 26.25C16.375 27.2441 17.1809 28.05 18.175 28.05C18.8413 28.05 19.423 27.688 19.7342 27.15H24.3815C25.0044 27.15 25.9126 26.9806 26.6928 26.437C27.5203 25.8603 28.1437 24.8989 28.1437 23.4917C28.1437 22.0839 27.5198 21.1243 26.6903 20.5504C25.9092 20.0099 25.0012 19.8449 24.3815 19.8449H20.2687C19.9162 19.8449 19.3733 19.7373 18.9471 19.4471C18.5686 19.1894 18.2437 18.7694 18.2437 17.9816C18.2437 17.1954 18.5668 16.786 18.9405 16.5365C19.3641 16.2535 19.9076 16.15 20.2687 16.15H24.8839C25.2141 16.5471 25.7119 16.8 26.2687 16.8C27.2629 16.8 28.0688 15.9941 28.0688 15C28.0688 14.0059 27.2629 13.2 26.2687 13.2C25.5038 13.2 24.8504 13.6771 24.5897 14.35H20.2687Z" fill="currentColor"/>
</g>
</svg>
