<svg width="30" height="30" viewBox="0 0 30 30" fill="none" xmlns="http://www.w3.org/2000/svg">
<g id="&#231;&#186;&#191;&#231;&#180;&#162;&#232;&#183;&#159;&#232;&#191;&#155;&#232;&#174;&#176;&#229;&#189;&#149;">
<g id="Group">
<path id="Vector" fill-rule="evenodd" clip-rule="evenodd" d="M3.5 26.3V5.6C3.5 5.5 3.6 5.3 3.8 5.3H7.2V7.2H18V5.4H21.4C21.5 5.4 21.7 5.5 21.7 5.7V11.9H23.7V5.6C23.7 4.4 22.7 3.3 21.4 3.3H18V1.5H7.1V3.4H3.8C2.6 3.4 1.5 4.4 1.5 5.7V26.3C1.5 27.5 2.5 28.6 3.8 28.6H13.6V26.6H3.8C3.6 26.5 3.5 26.4 3.5 26.3ZM9.1 3.5H15.9V5.3H9.1V3.5Z" fill="currentColor"/>
<path id="Vector_2" fill-rule="evenodd" clip-rule="evenodd" d="M26.7 21.9C25.9 21.4 25 21.2 24.4 21.2H20.3C19.9 21.2 19.4 21.1 19 20.8C18.6 20.5 18.3 20.1 18.3 19.3C18.3 18.5 18.6 18.1 19 17.9C19.4 17.6 20 17.5 20.3 17.5H24.9C25.2 17.9 25.7 18.2 26.3 18.2C27.3 18.2 28.1 17.4 28.1 16.4C28.1 15.4 27.3 14.6 26.3 14.6C25.5 14.6 24.9 15.1 24.6 15.7H20.3C19.7 15.7 18.8 15.9 18 16.4C17.2 17 16.5 17.9 16.5 19.3C16.5 20.7 17.2 21.7 18 22.3C18.8 22.8 19.7 23 20.3 23H24.4C24.8 23 25.3 23.1 25.7 23.4C26.1 23.6 26.4 24.1 26.4 24.9C26.4 25.7 26.1 26.1 25.7 26.4C25.3 26.7 24.8 26.8 24.4 26.8H19.8C19.5 26.3 18.9 25.9 18.2 25.9C17.2 25.9 16.4 26.7 16.4 27.7C16.4 28.7 17.2 29.5 18.2 29.5C18.9 29.5 19.4 29.1 19.8 28.6H24.4C25 28.6 25.9 28.4 26.7 27.9C27.5 27.3 28.2 26.4 28.2 25C28.1 23.4 27.5 22.4 26.7 21.9Z" fill="currentColor"/>
<path id="Vector_3" fill-rule="evenodd" clip-rule="evenodd" d="M11.7 14L12.4 14.8H6.90002V16.6H12.5L11.7 17.4L12.9 18.6L15.9 15.7L12.9 12.7L11.7 14Z" fill="currentColor"/>
</g>
</g>
</svg>
