<svg width="30" height="30" viewBox="0 0 30 30" fill="none" xmlns="http://www.w3.org/2000/svg">
<g id="&#231;&#186;&#191;&#231;&#180;&#162;&#232;&#183;&#159;&#232;&#191;&#155;&#232;&#174;&#161;&#229;&#136;&#146; ">
<g id="Group">
<path id="Vector" fill-rule="evenodd" clip-rule="evenodd" d="M4.10004 25.6V12.9H26.9H27.9V6.30001C27.9 5.10001 26.9 4.00001 25.6 4.00001H21V2.10001H19V4.00001H11V2.10001H9.00004V4.00001H4.40004C3.10004 4.00001 2.10004 5.00001 2.10004 6.30001V10.9V12.9V25.7C2.10004 26.9 3.10004 28 4.40004 28H13V26H4.40004C4.20004 25.9 4.10004 25.8 4.10004 25.6ZM4.10004 6.30001C4.10004 6.10001 4.20004 6.00001 4.40004 6.00001H9.00004V9.10001H11V6.00001H19V9.10001H21V6.00001H25.6C25.7 6.00001 25.9 6.10001 25.9 6.30001V10.9H4.10004V6.30001Z" fill="currentColor"/>
<path id="Vector_2" fill-rule="evenodd" clip-rule="evenodd" d="M26.7 21.2C25.9 20.7 25 20.5 24.4 20.5H20.3C19.9 20.5 19.4 20.4 19 20.1C18.6 19.8 18.3 19.4 18.3 18.6C18.3 17.8 18.6 17.4 19 17.2C19.4 16.9 20 16.8 20.3 16.8H24.9C25.2 17.2 25.7 17.5 26.3 17.5C27.3 17.5 28.1 16.7 28.1 15.7C28.1 14.7 27.3 13.9 26.3 13.9C25.5 13.9 24.9 14.4 24.6 15H20.3C19.7 15 18.8 15.2 18 15.7C17.2 16.3 16.5 17.2 16.5 18.6C16.5 20 17.2 21 18 21.6C18.8 22.1 19.7 22.3 20.3 22.3H24.4C24.8 22.3 25.3 22.4 25.7 22.7C26.1 22.9 26.4 23.4 26.4 24.2C26.4 25 26.1 25.4 25.7 25.7C25.3 26 24.8 26.1 24.4 26.1H19.8C19.5 25.6 18.9 25.2 18.2 25.2C17.2 25.2 16.4 26 16.4 27C16.4 28 17.2 28.8 18.2 28.8C18.9 28.8 19.4 28.4 19.8 27.9H24.4C25 27.9 25.9 27.7 26.7 27.2C27.5 26.6 28.2 25.7 28.2 24.3C28.1 22.8 27.5 21.8 26.7 21.2Z" fill="currentColor"/>
<path id="Vector_3" fill-rule="evenodd" clip-rule="evenodd" d="M9.10006 20L7.90006 18.8L6.50006 20.2L8.40006 22.1C8.80006 22.5 9.40006 22.5 9.80006 22.1L13.6001 18.3L12.1001 17L9.10006 20Z" fill="currentColor"/>
</g>
</g>
</svg>
