<svg width="30" height="30" viewBox="0 0 30 30" fill="none" xmlns="http://www.w3.org/2000/svg">
<g id="&#229;&#141;&#143;&#228;&#189;&#156;&#231;&#148;&#179;&#232;&#175;&#183;&#232;&#161;&#168;&#229;&#141;&#149;">
<path id="Union" fill-rule="evenodd" clip-rule="evenodd" d="M6.25 3.5C6.11193 3.5 6 3.61193 6 3.75V26.25C6 26.3881 6.11192 26.5 6.25 26.5H23.75C23.8881 26.5 24 26.3881 24 26.25V9.16422L18.3358 3.5H6.25ZM4 3.75C4 2.50736 5.00736 1.5 6.25 1.5H19.1642L26 8.33579V26.25C26 27.4927 24.9927 28.5 23.75 28.5H6.25C5.00737 28.5 4 27.4927 4 26.25V3.75ZM13.3343 9.96536C13.3332 9.45772 13.1308 8.97126 12.7713 8.61283C12.4118 8.25439 11.9248 8.0533 11.4171 8.05371C10.9095 8.0533 10.4225 8.25439 10.063 8.61283C9.70353 8.97126 9.50104 9.45772 9.5 9.96536C9.5 10.4792 9.70429 10.9444 10.0359 11.2901C9.78888 12.3254 9.8747 13.4123 10.2811 14.3961C10.6875 15.3799 11.3938 16.2104 12.2995 16.7696L12.6845 15.1982C12.207 14.8004 11.842 14.2845 11.6259 13.7018C11.4097 13.1191 11.3499 12.49 11.4525 11.877C11.9542 11.8688 12.4325 11.6638 12.7845 11.3062C13.1365 10.9486 13.3339 10.4671 13.3343 9.96536ZM14.9788 8.89521C15.6411 8.89521 16.2634 9.0775 16.7961 9.38707C16.6847 9.67715 16.6456 9.98997 16.6821 10.2986C16.7185 10.6071 16.8295 10.9022 17.0054 11.1584C17.1814 11.4145 17.417 11.624 17.6919 11.7687C17.9669 11.9135 18.2729 11.9892 18.5836 11.9894C19.0907 11.9892 19.5771 11.788 19.9363 11.4301C20.2954 11.0721 20.4981 10.5864 20.5 10.0793C20.4994 9.82821 20.4493 9.57973 20.3526 9.34802C20.2559 9.11632 20.1145 8.90595 19.9364 8.72893C19.7584 8.5519 19.5472 8.4117 19.315 8.31634C19.0827 8.22097 18.8339 8.17231 18.5829 8.17314C18.3369 8.17314 18.0989 8.22028 17.8781 8.30671C17.0257 7.715 16.0125 7.39857 14.9749 7.4C14.2614 7.4 13.5574 7.54928 12.9186 7.83214L13.7979 9.10028C14.1769 8.96407 14.5768 8.89494 14.9796 8.896L14.9788 8.89521ZM18.5538 12.6274C18.526 13.2494 18.3355 13.8532 18.0013 14.3785C17.6671 14.9038 17.2009 15.3322 16.6492 15.6209C16.4885 15.3061 16.2438 15.042 15.9421 14.8578C15.6405 14.6736 15.2937 14.5766 14.9403 14.5775C14.6889 14.5771 14.44 14.6262 14.2076 14.722C13.9752 14.8178 13.764 14.9584 13.586 15.1359C13.4079 15.3133 13.2666 15.5241 13.17 15.7561C13.0735 15.9882 13.0236 16.237 13.0231 16.4884C13.0246 16.9959 13.2272 17.4821 13.5866 17.8404C13.946 18.1988 14.4328 18.4 14.9403 18.4C15.3173 18.3998 15.686 18.2889 16.0005 18.0811C16.3151 17.8732 16.5617 17.5776 16.7097 17.2309C18.6646 16.5237 20.0631 14.6561 20.0631 12.4631C20.0631 12.3516 20.0576 12.2392 20.0498 12.1276L18.553 12.6274H18.5538ZM10.5 22.8333H19.5V20.8333H10.5V22.8333Z" fill="currentColor"/>
</g>
</svg>
