<svg width="30" height="30" viewBox="0 0 30 30" fill="none" xmlns="http://www.w3.org/2000/svg">
<g id="&#233;&#148;&#128;&#229;&#148;&#174;&#228;&#186;&#167;&#229;&#147;&#129;&#232;&#161;&#168;&#229;&#141;&#149;">
<path id="Union" fill-rule="evenodd" clip-rule="evenodd" d="M6.25 3.5C6.11193 3.5 6 3.61193 6 3.75V26.25C6 26.3881 6.11192 26.5 6.25 26.5H23.75C23.8881 26.5 24 26.3881 24 26.25V9.16422L18.3358 3.5H6.25ZM4 3.75C4 2.50736 5.00736 1.5 6.25 1.5H19.1642L26 8.33579V26.25C26 27.4927 24.9927 28.5 23.75 28.5H6.25C5.00737 28.5 4 27.4927 4 26.25V3.75ZM16 11.25V18.25H14V11.25H16ZM21 18.25V8.75H19V18.25H21ZM11 13.75V18.25H9V13.75H11ZM8.875 22.8333H21.125V20.8333H8.875V22.8333Z" fill="currentColor"/>
</g>
</svg>
