<svg width="30" height="30" viewBox="0 0 30 30" fill="none" xmlns="http://www.w3.org/2000/svg">
<g id="&#229;&#149;&#134;&#230;&#156;&#186;&#232;&#183;&#159;&#232;&#191;&#155;&#232;&#174;&#176;&#229;&#189;&#149;">
<g id="Group">
<path id="Vector" fill-rule="evenodd" clip-rule="evenodd" d="M21.5 5.6V11.8H23.5V5.6C23.5 4.4 22.5 3.3 21.2 3.3H17.8V1.5H7.1V3.4H3.8C2.6 3.4 1.5 4.4 1.5 5.7V26.3C1.5 27.5 2.5 28.6 3.8 28.6H13.6V26.6H3.8C3.7 26.6 3.5 26.5 3.5 26.3V5.6C3.5 5.5 3.6 5.3 3.8 5.3H7.2V7.2H18V5.4H21.4C21.4 5.4 21.5 5.5 21.5 5.6ZM15.9 5.3H9.1V3.5H15.9V5.3Z" fill="currentColor"/>
<path id="Vector_2" fill-rule="evenodd" clip-rule="evenodd" d="M12.9 18.6L15.9 15.7L12.9 12.7L11.7 14L12.4 14.8H6.90002V16.6H12.5L11.7 17.4L12.9 18.6Z" fill="currentColor"/>
<path id="Vector_3" fill-rule="evenodd" clip-rule="evenodd" d="M23.2999 14.2C20.6999 14.2 18.7 16.3 18.7 18.8C18.7 20.1 19.2 21.2 20.1 22.1C20.4 22.4 20.9 22.7 21.4 22.9C21.4 23.2 21.4 23.8 21.4 24.5V25.2H25.4V22.9C25.8 22.7 26.3 22.4 26.7 22.1C27.5 21.3 28.1 20.1 28.1 18.8C28 16.3 25.8999 14.2 23.2999 14.2ZM25.6 21.1C25.3 21.4 24.8 21.6 24.4 21.8L24 22V23.8H22.7999C22.7999 23 22.7999 22.6 22.7999 22.4V21.9L22.4 21.7C21.9 21.5 21.4 21.2 21.2 21C20.6 20.4 20.2999 19.6 20.2999 18.7C20.2999 16.9 21.8 15.5 23.5 15.5C25.3 15.5 26.7 17 26.7 18.7C26.6 19.7 26.2 20.5 25.6 21.1Z" fill="currentColor"/>
<path id="Vector_4" d="M25.6 26.5H21V28.3H25.6V26.5Z" fill="currentColor"/>
</g>
</g>
</svg>
