<svg width="30" height="30" viewBox="0 0 30 30" fill="none" xmlns="http://www.w3.org/2000/svg">
<g id="&#229;&#188;&#128;&#231;&#165;&#168;&#232;&#174;&#176;&#229;&#189;&#149;&#229;&#136;&#151;&#232;&#161;&#168; ">
<g id="Group">
<path id="Vector" fill-rule="evenodd" clip-rule="evenodd" d="M26 2.8H4C2.9 2.8 2 3.7 2 4.8V8.8C2 9.9 2.9 10.8 4 10.8H6V27L11 24.9L15 26.6L19 24.9L24 27V10.8H26C27.1 10.8 28 9.9 28 8.8V4.8C28 3.7 27.1 2.8 26 2.8ZM22 24L19 22.8L15 24.5L11 22.8L8 24V8.5H22V24ZM26 8.8H24V6.5H6V8.8H4V4.8H26V8.8Z" fill="currentColor"/>
<path id="Vector_2" d="M20 12.2H14V14H20V12.2Z" fill="currentColor"/>
<path id="Vector_3" d="M20 17.4H14V19.2H20V17.4Z" fill="currentColor"/>
<path id="Vector_4" d="M12 12.2H10V14H12V12.2Z" fill="currentColor"/>
<path id="Vector_5" d="M12 17.4H10V19.2H12V17.4Z" fill="currentColor"/>
</g>
</g>
</svg>
