<svg width="30" height="30" viewBox="0 0 30 30" fill="none" xmlns="http://www.w3.org/2000/svg">
<g id="Frame">
<path id="Vector (Stroke)" fill-rule="evenodd" clip-rule="evenodd" d="M9.45718 5.08206L5.70718 8.83206C5.31666 9.22258 4.68349 9.22258 4.29297 8.83206L2.41797 6.95706L3.83218 5.54285L5.00008 6.71074L8.04297 3.66785L9.45718 5.08206Z" fill="currentColor"/>
<path id="Vector (Stroke)_2" fill-rule="evenodd" clip-rule="evenodd" d="M9.45718 13.8321L5.70718 17.5821C5.31666 17.9726 4.68349 17.9726 4.29297 17.5821L2.41797 15.7071L3.83218 14.2928L5.00008 15.4607L8.04297 12.4178L9.45718 13.8321Z" fill="currentColor"/>
<path id="Vector (Stroke)_3" fill-rule="evenodd" clip-rule="evenodd" d="M9.45718 22.5821L5.70718 26.3321C5.31666 26.7226 4.68349 26.7226 4.29297 26.3321L2.41797 24.4571L3.83218 23.0428L5.00008 24.2107L8.04297 21.1678L9.45718 22.5821Z" fill="currentColor"/>
<path id="Vector (Stroke)_4" fill-rule="evenodd" clip-rule="evenodd" d="M26.875 16H13.125V14H26.875V16Z" fill="currentColor"/>
<path id="Vector (Stroke)_5" fill-rule="evenodd" clip-rule="evenodd" d="M26.875 24.75H13.125V22.75H26.875V24.75Z" fill="currentColor"/>
<path id="Vector (Stroke)_6" fill-rule="evenodd" clip-rule="evenodd" d="M26.875 7.25H13.125V5.25H26.875V7.25Z" fill="currentColor"/>
</g>
</svg>
