<svg width="30" height="30" viewBox="0 0 30 30" fill="none" xmlns="http://www.w3.org/2000/svg">
<g id="&#230;&#136;&#145;&#231;&#154;&#132;&#229;&#141;&#143;&#228;&#189;&#156;">
<path id="Vector" d="M14.437 11.8889C15.7285 11.8889 16.7808 12.9412 16.7808 14.2327C16.7808 15.5242 15.7285 16.5764 14.437 16.5764C13.1455 16.5764 12.0933 15.5242 12.0933 14.2327C12.0933 12.9412 13.1455 11.8889 14.437 11.8889ZM14.437 10.3264C12.2788 10.3264 10.5308 12.0745 10.5308 14.2327C10.5308 16.3909 12.2788 18.1389 14.437 18.1389C16.5952 18.1389 18.3433 16.3909 18.3433 14.2327C18.3433 12.0745 16.5952 10.3264 14.437 10.3264ZM9.04394 4.58913C9.11719 4.57204 9.18066 4.6404 9.15869 4.71364L8.83398 5.75856L7.52783 9.97243C7.50586 10.0432 7.41309 10.0652 7.36182 10.009L6.3584 8.92506C6.18262 8.73463 5.87012 8.76637 5.73584 8.98854C5.48682 9.40114 5.26709 9.83327 5.07666 10.28C4.54932 11.53 4.28076 12.8606 4.28076 14.2327C4.28076 15.6048 4.54932 16.9353 5.0791 18.1853C5.46484 19.1008 5.97998 19.9456 6.60986 20.7048C6.85889 21.0051 6.84424 21.447 6.57812 21.7327C6.25586 22.0794 5.7041 22.0623 5.40381 21.6985C3.72656 19.6721 2.71826 17.0696 2.71826 14.2327C2.71826 11.784 3.47021 9.511 4.75439 7.63112C4.85693 7.48219 4.83984 7.27956 4.71777 7.14772L3.62646 5.96608C3.5752 5.90993 3.60449 5.82204 3.67773 5.80495L7.21777 5.00417L9.04394 4.58913ZM27.1665 9.14967C27.2397 9.13502 27.3008 9.20827 27.2764 9.27907L26.0581 12.7044L25.4331 14.4646C25.4087 14.5354 25.3159 14.5525 25.2671 14.4964L24.5811 13.6907L21.6953 10.3045C21.6465 10.2483 21.6782 10.158 21.7515 10.1458L23.0625 9.90407C23.3237 9.85524 23.4629 9.56471 23.3335 9.33034C22.8745 8.49538 22.2983 7.73366 21.6172 7.05006C20.6846 6.11745 19.5981 5.38502 18.3872 4.87233C17.1396 4.34499 15.8091 4.07643 14.437 4.07643C13.4312 4.07643 12.4473 4.22047 11.5024 4.50612C11.1289 4.61842 10.7285 4.43532 10.5674 4.07887C10.3745 3.64919 10.6016 3.14626 11.0532 3.01198C12.1226 2.68727 13.2603 2.51393 14.437 2.51393C19.1245 2.51393 23.1699 5.26784 25.0449 9.24489C25.1206 9.40358 25.2939 9.49391 25.4673 9.46217L27.1665 9.14967ZM25.123 15.7952C25.6235 15.7952 25.9922 16.2566 25.8848 16.7449C24.7349 22.011 20.0474 25.9514 14.437 25.9514C13.7217 25.9514 13.021 25.888 12.3398 25.7634C12.1641 25.7317 11.9907 25.8245 11.915 25.9856L11.2583 27.4285C11.2266 27.4968 11.1338 27.5066 11.0898 27.4456L9.11475 24.677L7.89404 22.9631C7.8501 22.9021 7.88916 22.8167 7.96484 22.8093L8.86084 22.7239L13.4434 22.282C13.519 22.2747 13.5728 22.3504 13.541 22.4187L12.9258 23.7688C12.8159 24.0105 12.9722 24.2888 13.2358 24.3181C13.6313 24.3645 14.0317 24.3865 14.4346 24.3865C15.8066 24.3865 17.1372 24.1179 18.3872 23.5882C19.5957 23.0779 20.6821 22.343 21.6172 21.4104C22.5498 20.4778 23.2822 19.3914 23.7949 18.1804C24.0391 17.6043 24.227 17.011 24.3589 16.4055C24.4395 16.0515 24.7568 15.7952 25.123 15.7952Z" fill="currentColor"/>
</g>
</svg>
