<svg width="30" height="30" viewBox="0 0 30 30" fill="none" xmlns="http://www.w3.org/2000/svg">
<g id="&#229;&#174;&#162;&#230;&#136;&#183;&#233;&#148;&#128;&#229;&#148;&#174;&#230;&#177;&#160;">
<g id="Group">
<path id="Vector" fill-rule="evenodd" clip-rule="evenodd" d="M3.7 25.1C3.6 25 3.5 24.7 3.5 24.4V10.6H23.5V10.1V8.60001V5.60001C23.5 4.20001 22.6 2.70001 21 2.70001H4C2.4 2.70001 1.5 4.20001 1.5 5.60001V24.4C1.5 25.8 2.4 27.3 4 27.3H12.5V25.3H4C3.9 25.3 3.8 25.2 3.7 25.1ZM3.5 5.60001C3.5 5.30001 3.6 5.00001 3.7 4.90001C3.8 4.80001 3.9 4.80001 4 4.80001H21C21.1 4.80001 21.2 4.80001 21.3 5.00001C21.4 5.10001 21.5 5.40001 21.5 5.70001V8.70001H3.5V5.60001Z" fill="currentColor"/>
<path id="Vector_2" fill-rule="evenodd" clip-rule="evenodd" d="M19.2 16.6C19.2 18.4 20.6 19.8 22.4 19.8C24.1999 19.8 25.6 18.4 25.6 16.6C25.6 14.8 24.1999 13.4 22.4 13.4C20.6 13.4 19.2 14.8 19.2 16.6ZM23.9 16.6C23.9 17.4 23.3 18 22.5 18C21.7 18 21.1 17.4 21.1 16.6C21.1 15.8 21.7 15.2 22.5 15.2C23.2 15.1 23.9 15.8 23.9 16.6Z" fill="currentColor"/>
<path id="Vector_3" fill-rule="evenodd" clip-rule="evenodd" d="M28.3 24C28.3 23.5 28.2 23 28 22.6C27.7 21.9 27.1 21.4 26.4 21C26 20.8 25.5 20.7 25 20.7C24.5 20.7 23.9 20.7 23.2 20.7H21.7C21 20.7 20.4 20.7 19.9 20.7C19.4 20.7 18.9 20.8 18.5 21C17.8 21.3 17.3 21.9 16.9 22.6C16.7 23 16.6 23.5 16.6 24C16.6 24.5 16.6 25.1 16.6 25.8V27.1H28.4V25.8C28.4 25.1 28.4 24.5 28.3 24ZM18.4 25.3C18.4 24.8 18.4 24.4 18.4 24.1C18.4 23.7 18.5 23.5 18.6 23.4C18.8 23.1 19 22.8 19.4 22.6C19.5 22.5 19.7 22.5 20.1 22.4C20.5 22.4 21 22.4 21.8 22.4H23.3C24.1 22.4 24.6 22.4 25 22.4C25.4 22.4 25.6 22.5 25.7 22.6C26 22.8 26.3 23 26.5 23.4C26.6 23.5 26.6 23.7 26.7 24.1C26.7 24.4 26.7 24.8 26.7 25.3H18.4Z" fill="currentColor"/>
<path id="Vector_4" fill-rule="evenodd" clip-rule="evenodd" d="M9.99998 18.2L8.29998 16.6L5.09998 19.7L6.29998 21L8.29998 19.1L9.99998 20.7L16 15L14.7 13.7L9.99998 18.2Z" fill="currentColor"/>
</g>
</g>
</svg>
