<svg width="30" height="30" viewBox="0 0 30 30" fill="none" xmlns="http://www.w3.org/2000/svg">
<g id="&#231;&#186;&#191;&#231;&#180;&#162;&#229;&#159;&#185;&#232;&#130;&#178;&#230;&#177;&#160; ">
<g id="Group">
<path id="Vector" fill-rule="evenodd" clip-rule="evenodd" d="M26.7 20.6C25.9 20.1 25 19.9 24.4 19.9H20.3C19.9 19.9 19.4 19.8 19 19.5C18.6 19.2 18.3 18.8 18.3 18C18.3 17.2 18.6 16.8 19 16.6C19.4 16.3 20 16.2 20.3 16.2H24.9C25.2 16.6 25.7 16.9 26.3 16.9C27.3 16.9 28.1 16.1 28.1 15.1C28.1 14.1 27.3 13.3 26.3 13.3C25.5 13.3 24.9 13.8 24.6 14.4H20.3C19.7 14.4 18.8 14.6 18 15.1C17.2 15.7 16.5 16.6 16.5 18C16.5 19.4 17.2 20.4 18 21C18.8 21.5 19.7 21.7 20.3 21.7H24.4C24.8 21.7 25.3 21.8 25.7 22.1C26.1 22.3 26.4 22.8 26.4 23.6C26.4 24.4 26.1 24.8 25.7 25.1C25.3 25.4 24.8 25.5 24.4 25.5H19.8C19.5 25 18.9 24.6 18.2 24.6C17.2 24.6 16.4 25.4 16.4 26.4C16.4 27.4 17.2 28.2 18.2 28.2C18.9 28.2 19.4 27.8 19.8 27.3H24.4C25 27.3 25.9 27.1 26.7 26.6C27.5 26 28.2 25.1 28.2 23.7C28.1 22.1 27.5 21.1 26.7 20.6Z" fill="currentColor"/>
<path id="Vector_2" fill-rule="evenodd" clip-rule="evenodd" d="M5.59998 20.5C5.59998 21.6 6.49998 22.5 7.59998 22.5C8.69998 22.5 9.59998 21.6 9.59998 20.5C9.59998 19.4 8.69998 18.5 7.59998 18.5C6.49998 18.5 5.59998 19.3 5.59998 20.5ZM8.39998 20.5C8.39998 20.9 7.99998 21.3 7.59998 21.3C7.19998 21.3 6.79998 20.9 6.79998 20.5C6.79998 20.1 7.19998 19.7 7.59998 19.7C7.99998 19.7 8.39998 20 8.39998 20.5Z" fill="currentColor"/>
<path id="Vector_3" fill-rule="evenodd" clip-rule="evenodd" d="M12.7 16.4C11.6 16.4 10.7 17.3 10.7 18.4C10.7 19.5 11.6 20.4 12.7 20.4C13.8 20.4 14.7 19.5 14.7 18.4C14.7 17.3 13.8 16.4 12.7 16.4ZM12.7 19.2C12.3 19.2 11.9 18.8 11.9 18.4C11.9 18 12.3 17.6 12.7 17.6C13.1 17.6 13.5 18 13.5 18.4C13.5 18.8 13.1 19.2 12.7 19.2Z" fill="currentColor"/>
<path id="Vector_4" fill-rule="evenodd" clip-rule="evenodd" d="M10.4 15.2C10.4 14.1 9.50002 13.2 8.40002 13.2C7.30002 13.2 6.40002 14.1 6.40002 15.2C6.40002 16.3 7.30002 17.2 8.40002 17.2C9.50002 17.2 10.4 16.3 10.4 15.2ZM8.40002 16C8.00002 16 7.60002 15.6 7.60002 15.2C7.60002 14.8 8.00002 14.4 8.40002 14.4C8.80002 14.4 9.20002 14.8 9.20002 15.2C9.20002 15.6 8.80002 16 8.40002 16Z" fill="currentColor"/>
<path id="Vector_5" fill-rule="evenodd" clip-rule="evenodd" d="M3.7 25.1C3.6 25 3.5 24.7 3.5 24.4V10.6H23.5V10.1V8.60001V5.60001C23.5 4.20001 22.6 2.70001 21 2.70001H4C2.4 2.70001 1.5 4.20001 1.5 5.60001V24.4C1.5 25.8 2.4 27.3 4 27.3H12.5V25.3H4C3.9 25.3 3.8 25.2 3.7 25.1ZM3.5 5.60001C3.5 5.30001 3.6 5.00001 3.7 4.90001C3.8 4.80001 3.9 4.80001 4 4.80001H21C21.1 4.80001 21.2 4.80001 21.3 5.00001C21.4 5.10001 21.5 5.40001 21.5 5.70001V8.70001H3.5V5.60001Z" fill="currentColor"/>
</g>
</g>
</svg>
