<svg width="18" height="18" viewBox="0 0 18 18" fill="none" xmlns="http://www.w3.org/2000/svg">
<g id="&#229;&#183;&#178;&#230;&#148;&#182;&#232;&#151;&#143;">
<path id="Vector" d="M9.45022 1.90827C9.26591 1.53691 8.73573 1.53828 8.55333 1.91057L6.67034 5.75406C6.59769 5.90235 6.45651 6.00521 6.29308 6.02891L2.00113 6.65127C1.59128 6.7107 1.42722 7.21411 1.72335 7.50362L4.83498 10.5457C4.95299 10.6611 5.00647 10.8272 4.97789 10.9898L4.23943 15.1896C4.16726 15.6 4.59936 15.9134 4.96709 15.7174L8.76425 13.6931C8.91125 13.6147 9.08763 13.6147 9.23464 13.693L13.0343 15.7183C13.4018 15.9141 13.8337 15.6013 13.7621 15.1911L13.0287 10.9892C13.0004 10.827 13.0537 10.6612 13.1714 10.546L16.2788 7.50277C16.5744 7.21327 16.4105 6.71048 16.0011 6.65078L11.7358 6.02884C11.5734 6.00517 11.433 5.90333 11.36 5.75636L9.45022 1.90827Z" fill="url(#paint0_linear_1387_5610)"/>
<path id="Ellipse 491" d="M7 10.0481C7.51017 10.6369 8.20888 11 8.97959 11C9.77106 11 10.4866 10.6171 11 10" stroke="white" stroke-linecap="round" stroke-linejoin="round" />
</g>
<defs>
<linearGradient id="paint0_linear_1387_5610" x1="9" y1="1" x2="9" y2="16.2" gradientUnits="userSpaceOnUse">
<stop stop-color="#FFF0A4"/>
<stop offset="1" stop-color="#FFBB0E"/>
</linearGradient>
</defs>
</svg>
