<svg width="30" height="30" viewBox="0 0 30 30" fill="none" xmlns="http://www.w3.org/2000/svg">
<g id="&#229;&#174;&#162;&#230;&#136;&#183;&#232;&#183;&#159;&#232;&#191;&#155;&#232;&#174;&#176;&#229;&#189;&#149;">
<g id="Group">
<path id="Vector" fill-rule="evenodd" clip-rule="evenodd" d="M3.5 26.3V5.6C3.5 5.5 3.6 5.3 3.8 5.3H7.2V7.2H18V5.4H21.4C21.5 5.4 21.7 5.5 21.7 5.7V11.9H23.7V5.6C23.7 4.4 22.7 3.3 21.4 3.3H18V1.5H7.1V3.4H3.8C2.6 3.4 1.5 4.4 1.5 5.7V26.3C1.5 27.5 2.5 28.6 3.8 28.6H13.6V26.6H3.8C3.6 26.5 3.5 26.4 3.5 26.3ZM9.1 3.5H15.9V5.3H9.1V3.5Z" fill="currentColor"/>
<path id="Vector_2" fill-rule="evenodd" clip-rule="evenodd" d="M19.2 17.8C19.2 19.6 20.6 21 22.4 21C24.2 21 25.6 19.6 25.6 17.8C25.6 16 24.2 14.6 22.4 14.6C20.6 14.6 19.2 16 19.2 17.8ZM23.9 17.8C23.9 18.6 23.3 19.2 22.5 19.2C21.7 19.2 21.1 18.6 21.1 17.8C21.1 17 21.7 16.4 22.5 16.4C23.2 16.4 23.9 17 23.9 17.8Z" fill="currentColor"/>
<path id="Vector_3" fill-rule="evenodd" clip-rule="evenodd" d="M28.3 25.3C28.3 24.8 28.2 24.3 28 23.9C27.7 23.2 27.1 22.7 26.4 22.3C26 22.1 25.5 22 25 22C24.5 22 23.9 22 23.2 22H21.7C21 22 20.4 22 19.9 22C19.4 22 18.9 22.1 18.5 22.3C17.8 22.6 17.3 23.2 16.9 23.9C16.7 24.3 16.6 24.8 16.6 25.3C16.6 25.8 16.6 26.4 16.6 27.1V28.4H28.4V27.1C28.4 26.3 28.4 25.8 28.3 25.3ZM18.4 26.6C18.4 26.1 18.4 25.7 18.4 25.4C18.4 25 18.5 24.8 18.6 24.7C18.8 24.4 19 24.1 19.4 23.9C19.5 23.8 19.7 23.8 20.1 23.7C20.5 23.7 21 23.7 21.8 23.7H23.3C24.1 23.7 24.6 23.7 25 23.7C25.4 23.7 25.6 23.8 25.7 23.9C26 24.1 26.3 24.3 26.5 24.7C26.6 24.8 26.6 25 26.7 25.4C26.7 25.7 26.7 26.1 26.7 26.6H18.4Z" fill="currentColor"/>
<path id="Vector_4" fill-rule="evenodd" clip-rule="evenodd" d="M11.7 14L12.4 14.8H6.90002V16.6H12.5L11.7 17.4L12.9 18.6L15.9 15.7L12.9 12.7L11.7 14Z" fill="currentColor"/>
</g>
</g>
</svg>
