<svg width="30" height="30" viewBox="0 0 30 30" fill="none" xmlns="http://www.w3.org/2000/svg">
<g id="&#229;&#174;&#162;&#230;&#136;&#183;&#231;&#153;&#187;&#232;&#174;&#176;">
<path id="Union" fill-rule="evenodd" clip-rule="evenodd" d="M3.72021 4.92387C3.60025 5.07382 3.5 5.31838 3.5 5.625V24.375C3.5 24.6816 3.60025 24.9262 3.72021 25.0761C3.8387 25.2242 3.94398 25.25 4 25.25H12.5V27.25H4C2.42259 27.25 1.5 25.7431 1.5 24.375V5.625C1.5 4.25695 2.42259 2.75 4 2.75H21C22.5774 2.75 23.5 4.25695 23.5 5.625V10.125H21.5V5.625C21.5 5.31838 21.3998 5.07382 21.2798 4.92387C21.1613 4.77576 21.056 4.75 21 4.75H4C3.94398 4.75 3.8387 4.77576 3.72021 4.92387ZM15.5 9.75H6.5V7.75H15.5V9.75ZM6.5 14.75H15.5V12.75H6.5V14.75ZM19.225 16.5833C19.225 14.7976 20.6726 13.35 22.4583 13.35C24.244 13.35 25.6916 14.7976 25.6916 16.5833C25.6916 18.369 24.244 19.8166 22.4583 19.8166C20.6726 19.8166 19.225 18.369 19.225 16.5833ZM22.4583 15.15C21.6667 15.15 21.025 15.7917 21.025 16.5833C21.025 17.3749 21.6667 18.0166 22.4583 18.0166C23.2499 18.0166 23.8916 17.3749 23.8916 16.5833C23.8916 15.7917 23.2499 15.15 22.4583 15.15ZM23.2288 20.6833H21.6879C20.9727 20.6833 20.3818 20.6833 19.9003 20.7226C19.4 20.7635 18.939 20.8513 18.5058 21.072C17.8347 21.414 17.289 21.9596 16.9471 22.6307C16.7263 23.064 16.6385 23.5249 16.5977 24.0252C16.5583 24.5067 16.5583 25.0977 16.5583 25.8129L16.5584 27.15H28.3584V25.8128C28.3584 25.0977 28.3584 24.5067 28.319 24.0252C28.2782 23.5249 28.1903 23.064 27.9696 22.6307C27.6277 21.9596 27.082 21.414 26.4109 21.072C25.9777 20.8513 25.5167 20.7635 25.0164 20.7226C24.5349 20.6833 23.944 20.6833 23.2288 20.6833ZM18.5509 23.4479C18.7203 23.1155 18.9905 22.8452 19.3229 22.6758C19.4602 22.6059 19.6579 22.5484 20.0468 22.5166C20.4464 22.484 20.9634 22.4833 21.725 22.4833H23.1917C23.9533 22.4833 24.4703 22.484 24.8699 22.5166C25.2588 22.5484 25.4565 22.6059 25.5937 22.6758C25.9262 22.8452 26.1964 23.1155 26.3658 23.4479C26.4357 23.5851 26.4932 23.7828 26.525 24.1718C26.5499 24.477 26.5562 24.8509 26.5578 25.35H18.3589C18.3605 24.8509 18.3668 24.477 18.3917 24.1718C18.4235 23.7828 18.481 23.5851 18.5509 23.4479Z" fill="currentColor"/>
</g>
</svg>
