<svg width="30" height="30" viewBox="0 0 30 30" fill="none" xmlns="http://www.w3.org/2000/svg">
<g id="&#230;&#136;&#145;&#231;&#148;&#179;&#232;&#175;&#183;&#231;&#154;&#132;&#229;&#141;&#143;&#228;&#189;&#156;">
<path id="Union" fill-rule="evenodd" clip-rule="evenodd" d="M3.5 5.625C3.5 5.31838 3.60025 5.07382 3.72021 4.92387C3.8387 4.77576 3.94398 4.75 4 4.75H21C21.056 4.75 21.1613 4.77576 21.2798 4.92387C21.3998 5.07382 21.5 5.31838 21.5 5.625V10.125H23.5V5.625C23.5 4.25695 22.5774 2.75 21 2.75H4C2.42259 2.75 1.5 4.25695 1.5 5.625V24.375C1.5 25.7431 2.42259 27.25 4 27.25H12.5V25.25H4C3.94398 25.25 3.8387 25.2242 3.72021 25.0761C3.60025 24.9262 3.5 24.6816 3.5 24.375V5.625ZM6.75 11.5833H15.75V9.58331H6.75V11.5833ZM12.5625 16.9583H6.75V14.9583H12.5625V16.9583ZM20.2308 16.7182C20.5968 17.0832 20.803 17.5785 20.804 18.0953C20.8037 18.6062 20.6027 19.0965 20.2443 19.4606C19.8859 19.8246 19.3988 20.0333 18.888 20.0417C18.7836 20.6659 18.8445 21.3064 19.0645 21.8997C19.2846 22.493 19.6562 23.0183 20.1424 23.4233L19.7504 25.0233C18.8283 24.454 18.1091 23.6083 17.6953 22.6067C17.2815 21.605 17.1942 20.4983 17.4456 19.4441C17.108 19.0921 16.9 18.6185 16.9 18.0953C16.9011 17.5785 17.1073 17.0832 17.4733 16.7182C17.8393 16.3533 18.3352 16.1485 18.852 16.1489C19.3689 16.1485 19.8648 16.3533 20.2308 16.7182ZM24.3288 17.5065C23.7864 17.1913 23.1528 17.0057 22.4784 17.0057L22.4792 17.0065C22.0691 17.0055 21.662 17.0759 21.276 17.2145L20.3808 15.9233C21.0312 15.6353 21.748 15.4833 22.4744 15.4833C23.5309 15.4819 24.5625 15.8041 25.4304 16.4065C25.6552 16.3185 25.8976 16.2705 26.148 16.2705C26.4037 16.2697 26.657 16.3192 26.8934 16.4163C27.1299 16.5134 27.3449 16.6562 27.5262 16.8364C27.7075 17.0167 27.8515 17.2309 27.9499 17.4668C28.0484 17.7027 28.0994 17.9557 28.1 18.2113C28.0981 18.7277 27.8917 19.2222 27.526 19.5867C27.1603 19.9512 26.6651 20.1559 26.1488 20.1561C25.8324 20.156 25.5208 20.0789 25.2409 19.9315C24.9609 19.7841 24.7211 19.5708 24.5419 19.31C24.3628 19.0493 24.2498 18.7488 24.2127 18.4346C24.1755 18.1204 24.2154 17.8019 24.3288 17.5065ZM25.5559 22.5887C25.8962 22.0539 26.0902 21.4391 26.1184 20.8057H26.1176L27.6416 20.2969C27.6496 20.4105 27.6552 20.5249 27.6552 20.6385C27.6552 22.8713 26.2312 24.7729 24.2408 25.4929C24.0901 25.846 23.839 26.147 23.5187 26.3586C23.1985 26.5702 22.8231 26.6831 22.4392 26.6833C21.9225 26.6833 21.4268 26.4785 21.0609 26.1136C20.695 25.7487 20.4887 25.2537 20.4872 24.7369C20.4876 24.481 20.5385 24.2277 20.6368 23.9914C20.7351 23.7551 20.879 23.5405 21.0603 23.3599C21.2415 23.1792 21.4566 23.036 21.6932 22.9385C21.9298 22.8409 22.1833 22.7909 22.4392 22.7913C22.7991 22.7904 23.1522 22.8892 23.4593 23.0767C23.7664 23.2643 24.0156 23.5332 24.1792 23.8537C24.7409 23.5598 25.2156 23.1236 25.5559 22.5887Z" fill="currentColor"/>
</g>
</svg>
