<svg width="30" height="30" viewBox="0 0 30 30" fill="none" xmlns="http://www.w3.org/2000/svg">
<g id="&#231;&#186;&#191;&#231;&#180;&#162;&#233;&#148;&#128;&#229;&#148;&#174;&#230;&#177;&#160;">
<path id="Union" fill-rule="evenodd" clip-rule="evenodd" d="M26.2688 16.8C27.2629 16.8 28.0688 15.9941 28.0688 15C28.0688 14.0059 27.2629 13.2 26.2688 13.2C25.5038 13.2 24.8504 13.6771 24.5897 14.35H20.2687C19.6549 14.35 18.7359 14.5086 17.9407 15.0397C17.0956 15.6041 16.4437 16.5605 16.4437 17.9817C16.4437 19.4012 17.0939 20.3629 17.9341 20.935C18.7266 21.4746 19.6463 21.6449 20.2687 21.6449H24.3815C24.7369 21.6449 25.26 21.7496 25.6662 22.0307C26.0241 22.2783 26.3437 22.6921 26.3437 23.4917C26.3437 24.2918 26.0235 24.7095 25.6637 24.9602C25.2565 25.2439 24.7337 25.35 24.3815 25.35H19.7342C19.423 24.812 18.8413 24.45 18.175 24.45C17.1809 24.45 16.375 25.2559 16.375 26.25C16.375 27.2441 17.1809 28.05 18.175 28.05C18.8413 28.05 19.423 27.688 19.7342 27.15H24.3815C25.0044 27.15 25.9126 26.9806 26.6928 26.437C27.5203 25.8604 28.1437 24.8989 28.1437 23.4917C28.1437 22.084 27.5198 21.1243 26.6903 20.5504C25.9092 20.01 25.0012 19.8449 24.3815 19.8449H20.2687C19.9162 19.8449 19.3733 19.7373 18.9471 19.4471C18.5686 19.1894 18.2437 18.7695 18.2437 17.9817C18.2437 17.1954 18.5668 16.7861 18.9405 16.5365C19.3641 16.2536 19.9076 16.15 20.2687 16.15H24.8839C25.2141 16.5472 25.7119 16.8 26.2688 16.8Z" fill="currentColor"/>
<path id="Union_2" fill-rule="evenodd" clip-rule="evenodd" d="M3.5 24.4C3.5 24.7 3.6 25 3.7 25.1C3.8 25.2 3.9 25.3 4 25.3H12.5V27.3H4C2.4 27.3 1.5 25.8 1.5 24.4V5.60001C1.5 4.20001 2.4 2.70001 4 2.70001H21C22.6 2.70001 23.5 4.20001 23.5 5.60001V8.60001V10.1V10.6H3.5V24.4ZM3.7 4.90001C3.6 5.00001 3.5 5.30001 3.5 5.60001V8.70001H21.5V5.70001C21.5 5.40001 21.4 5.10001 21.3 5.00001C21.2 4.80001 21.1 4.80001 21 4.80001H4C3.9 4.80001 3.8 4.80001 3.7 4.90001ZM9.95667 20.7212L15.9786 15.0367L14.743 13.7277L9.98075 18.2231L8.32396 16.5976L5.06555 19.6788L6.30228 20.9867L8.30095 19.0967L9.95667 20.7212Z" fill="currentColor"/>
</g>
</svg>
