<svg width="24" height="24" viewBox="0 0 24 24" fill="none" xmlns="http://www.w3.org/2000/svg">
<path fill-rule="evenodd" clip-rule="evenodd" d="M7.55744 4.08125L4.10301 7.04228L7.56056 10.4999L6.49989 11.5606L2.46966 7.53024C2.32195 7.38252 2.24254 7.17989 2.25055 6.97114C2.25857 6.76239 2.35329 6.56644 2.5119 6.43048L6.58123 2.94238L7.55744 4.08125Z" fill="CurrentColor"/>
<path fill-rule="evenodd" clip-rule="evenodd" d="M3 6.25H14.4969C18.3412 6.25 21.5948 9.3784 21.7446 13.2208C21.903 17.282 18.5582 20.75 14.4969 20.75H5.2492V19.25H14.4969C17.7089 19.25 20.3709 16.4876 20.2458 13.2792C20.1273 10.242 17.5356 7.75 14.4969 7.75H3V6.25Z" fill="CurrentColor"/>
</svg>
