<svg width="30" height="30" viewBox="0 0 30 30" fill="none" xmlns="http://www.w3.org/2000/svg">
<g id="&#231;&#171;&#139;&#233;&#161;&#185;&#231;&#148;&#179;&#232;&#175;&#183;">
<path id="Union" fill-rule="evenodd" clip-rule="evenodd" d="M3.81579 4.75C3.59243 4.75 3.5 4.90964 3.5 5V25C3.5 25.0904 3.59242 25.25 3.81579 25.25H26.1842C26.4076 25.25 26.5 25.0904 26.5 25V8.75C26.5 8.65962 26.4076 8.5 26.1842 8.5H14.547L11.2575 4.75H3.81579ZM1.5 5C1.5 3.70965 2.58577 2.75 3.81579 2.75H12.1635L15.453 6.5H26.1842C27.4143 6.5 28.5 7.45963 28.5 8.75V25C28.5 26.2904 27.4143 27.25 26.1842 27.25H3.81579C2.58578 27.25 1.5 26.2904 1.5 25V5ZM14 17.75H10.5V15.75H14V12.25H16V15.75H19.5V17.75H16V21.25H14V17.75Z" fill="currentColor"/>
</g>
</svg>
