<svg width="30" height="30" viewBox="0 0 30 30" fill="none" xmlns="http://www.w3.org/2000/svg">
<g id="&#229;&#174;&#162;&#230;&#136;&#183;&#230;&#138;&#165;&#229;&#164;&#135;&#229;&#136;&#151;&#232;&#161;&#168;">
<path id="Union" fill-rule="evenodd" clip-rule="evenodd" d="M9.5 2V3.5H15.5834V2H17.5834V3.5H21C22.5774 3.5 23.5 5.00695 23.5 6.375V10.875H21.5V6.375C21.5 6.06838 21.3998 5.82382 21.2798 5.67387C21.1613 5.52576 21.056 5.5 21 5.5H17.5834V7H15.5834V5.5H9.5V7H7.5V5.5H4C3.94398 5.5 3.8387 5.52576 3.72021 5.67387C3.60025 5.82382 3.5 6.06838 3.5 6.375V25.125C3.5 25.4316 3.60025 25.6762 3.72021 25.8261C3.8387 25.9742 3.94398 26 4 26H12.5V28H4C2.42259 28 1.5 26.4931 1.5 25.125V6.375C1.5 5.00695 2.42259 3.5 4 3.5H7.5V2H9.5ZM19.225 17.3333C19.225 15.5476 20.6726 14.1 22.4583 14.1C24.244 14.1 25.6916 15.5476 25.6916 17.3333C25.6916 19.119 24.244 20.5666 22.4583 20.5666C20.6726 20.5666 19.225 19.119 19.225 17.3333ZM22.4583 15.9C21.6667 15.9 21.025 16.5417 21.025 17.3333C21.025 18.1249 21.6667 18.7666 22.4583 18.7666C23.2499 18.7666 23.8916 18.1249 23.8916 17.3333C23.8916 16.5417 23.2499 15.9 22.4583 15.9ZM23.2288 21.4333H21.6879C20.9727 21.4333 20.3818 21.4333 19.9003 21.4726C19.4 21.5135 18.939 21.6013 18.5058 21.822C17.8347 22.164 17.289 22.7096 16.9471 23.3807C16.7263 23.814 16.6385 24.2749 16.5977 24.7752C16.5583 25.2567 16.5583 25.8477 16.5583 26.5629L16.5584 27.9H28.3584V26.5628C28.3584 25.8477 28.3584 25.2567 28.319 24.7752C28.2782 24.2749 28.1903 23.814 27.9696 23.3807C27.6277 22.7096 27.082 22.164 26.4109 21.822C25.9777 21.6013 25.5167 21.5135 25.0164 21.4726C24.5349 21.4333 23.944 21.4333 23.2288 21.4333ZM18.5509 24.1979C18.7203 23.8655 18.9905 23.5952 19.3229 23.4258C19.4602 23.3559 19.6579 23.2984 20.0468 23.2666C20.4464 23.234 20.9634 23.2333 21.725 23.2333H23.1917C23.9533 23.2333 24.4703 23.234 24.8699 23.2666C25.2588 23.2984 25.4565 23.3559 25.5937 23.4258C25.9262 23.5952 26.1964 23.8655 26.3658 24.1979C26.4357 24.3351 26.4932 24.5328 26.525 24.9218C26.5499 25.227 26.5562 25.6009 26.5578 26.1H18.3589C18.3605 25.6009 18.3668 25.227 18.3917 24.9218C18.4235 24.5328 18.481 24.3351 18.5509 24.1979ZM16.75 18.7344H10.75V16.7344H16.75V18.7344ZM6.75 18.7344H8.75V16.7344H6.75V18.7344ZM16.75 13.75H10.75V11.75H16.75V13.75ZM6.75 13.75H8.75V11.75H6.75V13.75Z" fill="currentColor"/>
</g>
</svg>
