<svg width="30" height="30" viewBox="0 0 30 30" fill="none" xmlns="http://www.w3.org/2000/svg">
<g id="&#229;&#149;&#134;&#230;&#156;&#186;">
<path id="Union" fill-rule="evenodd" clip-rule="evenodd" d="M8.10053 5.11296L6.0848 3.09723L4.81201 4.37002L6.82774 6.38575L8.10053 5.11296ZM6.61445 16.2571L4.59872 18.2728L3.32593 17L5.34166 14.9843L6.61445 16.2571ZM24.6579 14.9843L26.6737 17L25.4009 18.2728L23.3851 16.2571L24.6579 14.9843ZM25.1878 4.37002L23.1721 6.38575L21.8993 5.11296L23.915 3.09723L25.1878 4.37002ZM27.0439 9.41345H24.501V11.2135H27.0439V9.41345ZM2.95593 9.41345H5.49887V11.2135H2.95593V9.41345ZM14.9999 3.37C10.6046 3.37 7.0415 6.9331 7.0415 11.3284C7.0415 13.5258 7.93343 15.5168 9.37244 16.9559C9.99466 17.5781 10.9133 18.0675 11.6835 18.4171C11.6842 19.0123 11.6832 19.9939 11.6804 21.368L11.6784 22.37H18.3134V18.4161C19.0839 18.0669 20.0055 17.5777 20.6274 16.9558C22.0664 15.5168 22.9583 13.5258 22.9583 11.3284C22.9583 6.9331 19.3952 3.37 14.9999 3.37ZM9.0415 11.3284C9.0415 8.03766 11.7091 5.37 14.9999 5.37C18.2907 5.37 20.9583 8.03766 20.9583 11.3284C20.9583 12.974 20.2925 14.4623 19.2131 15.5417C18.7321 16.0227 17.7993 16.4748 16.9304 16.8351L16.3134 17.0909V20.37H13.6823C13.6846 18.8483 13.6841 17.9679 13.6803 17.7421L13.6694 17.0863L13.0635 16.8351C12.197 16.4758 11.2684 16.0234 10.7867 15.5417C9.70735 14.4623 9.0415 12.974 9.0415 11.3284ZM19 26.75H11V24.75H19V26.75ZM14.4103 13.6063V15.0409C14.4103 15.1184 14.4256 15.1951 14.4553 15.2666C14.485 15.3381 14.5285 15.4031 14.5833 15.4578C14.6381 15.5126 14.7032 15.5559 14.7748 15.5855C14.8464 15.615 14.9231 15.6302 15.0005 15.6301C15.1568 15.6301 15.3067 15.568 15.4173 15.4574C15.5278 15.3469 15.5899 15.197 15.5899 15.0407V13.6061H16.9706C17.1269 13.6061 17.2768 13.544 17.3874 13.4335C17.4979 13.3229 17.56 13.173 17.56 13.0167C17.56 12.8604 17.4979 12.7105 17.3874 12.6C17.2768 12.4895 17.1269 12.4274 16.9706 12.4274H15.5899L15.5899 11.5484H16.9707C17.127 11.5484 17.2769 11.4863 17.3874 11.3758C17.4979 11.2653 17.56 11.1154 17.56 10.9591C17.56 10.8817 17.5448 10.8051 17.5151 10.7336C17.4855 10.6621 17.4421 10.5971 17.3874 10.5424C17.3326 10.4877 17.2677 10.4443 17.1962 10.4147C17.1247 10.3851 17.048 10.3699 16.9707 10.37H15.5414L17.2744 8.63604C17.3291 8.58134 17.3725 8.51639 17.4021 8.44491C17.4317 8.37343 17.447 8.29682 17.447 8.21946C17.447 8.14209 17.4317 8.06548 17.4021 7.994C17.3725 7.92252 17.3291 7.85758 17.2744 7.80287C17.1639 7.69237 17.014 7.63029 16.8577 7.63029C16.7014 7.63029 16.5515 7.69237 16.441 7.80287L15.0012 9.24335L13.5601 7.80265C13.4495 7.69214 13.2997 7.63007 13.1434 7.63007C12.9871 7.63007 12.8372 7.69214 12.7267 7.80265C12.6162 7.91317 12.5541 8.06306 12.5541 8.21934C12.5541 8.37563 12.6162 8.52552 12.7267 8.63604L14.1187 10.0296L14.4597 10.37H13.03C12.8737 10.37 12.7238 10.4321 12.6133 10.5426C12.5027 10.6531 12.4406 10.803 12.4406 10.9593C12.4406 11.1156 12.5027 11.2655 12.6133 11.376C12.7238 11.4866 12.8737 11.5487 13.03 11.5487H14.4103L14.4103 12.4276H13.0293C12.873 12.4276 12.7231 12.4897 12.6126 12.6002C12.502 12.7107 12.4399 12.8606 12.4399 13.017C12.4399 13.1733 12.502 13.3232 12.6126 13.4337C12.7231 13.5442 12.873 13.6063 13.0293 13.6063H14.4103Z" fill="currentColor"/>
</g>
</svg>
