<svg width="30" height="30" viewBox="0 0 30 30" fill="none" xmlns="http://www.w3.org/2000/svg">
<g id="&#233;&#161;&#185;&#231;&#155;&#174;&#229;&#136;&#151;&#232;&#161;&#168; ">
<g id="Group">
<path id="Vector" fill-rule="evenodd" clip-rule="evenodd" d="M25.6 2.79999H4.4C2.8 2.79999 1.5 3.99999 1.5 5.59999V24.4C1.5 26 2.8 27.3 4.4 27.3H25.7C27.3 27.3 28.6 26 28.6 24.4V5.59999C28.5 3.99999 27.2 2.79999 25.6 2.79999ZM26.5 24.4C26.5 24.9 26.1 25.3 25.6 25.3H4.4C3.9 25.3 3.5 24.9 3.5 24.4V9.79999H26.5V24.4ZM26.5 7.79999H3.5V5.59999C3.5 5.09999 3.9 4.69999 4.4 4.69999H25.7C26.2 4.69999 26.6 5.09999 26.6 5.59999V7.79999H26.5Z" fill="currentColor"/>
<path id="Vector_2" d="M22.5 14H12.5V16H22.5V14Z" fill="currentColor"/>
<path id="Vector_3" d="M22.5 19H12.5V21H22.5V19Z" fill="currentColor"/>
<path id="Vector_4" d="M9.3 14H7.5V16H9.3V14Z" fill="currentColor"/>
<path id="Vector_5" d="M9.3 19H7.5V21H9.3V19Z" fill="currentColor"/>
</g>
</g>
</svg>
