<svg width="30" height="30" viewBox="0 0 30 30" fill="none" xmlns="http://www.w3.org/2000/svg">
<g id="&#229;&#174;&#162;&#230;&#136;&#183;&#232;&#183;&#159;&#232;&#191;&#155;&#232;&#174;&#161;&#229;&#136;&#146; ">
<g id="Group">
<path id="Vector" fill-rule="evenodd" clip-rule="evenodd" d="M4.09998 25.6V12.9H26.9H27.9V6.30001C27.9 5.10001 26.9 4.00001 25.6 4.00001H21V2.10001H19V4.00001H11V2.10001H8.99998V4.00001H4.39998C3.09998 4.00001 2.09998 5.00001 2.09998 6.30001V10.9V12.9V25.7C2.09998 26.9 3.09998 28 4.39998 28H13V26H4.39998C4.19998 25.9 4.09998 25.8 4.09998 25.6ZM4.09998 6.30001C4.09998 6.10001 4.19998 6.00001 4.39998 6.00001H8.99998V9.10001H11V6.00001H19V9.10001H21V6.00001H25.6C25.7 6.00001 25.9 6.10001 25.9 6.30001V10.9H4.09998V6.30001Z" fill="currentColor"/>
<path id="Vector_2" fill-rule="evenodd" clip-rule="evenodd" d="M19.2 17.3C19.2 19.1 20.6 20.5 22.4 20.5C24.1999 20.5 25.6 19.1 25.6 17.3C25.6 15.5 24.1999 14.1 22.4 14.1C20.6 14.1 19.2 15.5 19.2 17.3ZM23.9 17.3C23.9 18.1 23.3 18.7 22.5 18.7C21.7 18.7 21.1 18.1 21.1 17.3C21.1 16.5 21.7 15.9 22.5 15.9C23.2 15.9 23.9 16.5 23.9 17.3Z" fill="currentColor"/>
<path id="Vector_3" fill-rule="evenodd" clip-rule="evenodd" d="M28.3 24.8C28.3 24.3 28.2 23.8 28 23.4C27.7 22.7 27.1 22.2 26.4 21.8C26 21.6 25.5 21.5 25 21.5C24.5 21.5 23.9 21.5 23.2 21.5H21.7C21 21.5 20.4 21.5 19.9 21.5C19.4 21.5 18.9 21.6 18.5 21.8C17.8 22.1 17.3 22.7 16.9 23.4C16.7 23.8 16.6 24.3 16.6 24.8C16.6 25.3 16.6 25.9 16.6 26.6V27.9H28.4V26.6C28.4 25.8 28.4 25.3 28.3 24.8ZM18.4 26.1C18.4 25.6 18.4 25.2 18.4 24.9C18.4 24.5 18.5 24.3 18.6 24.2C18.8 23.9 19 23.6 19.4 23.4C19.5 23.3 19.7 23.3 20.1 23.2C20.5 23.2 21 23.2 21.8 23.2H23.3C24.1 23.2 24.6 23.2 25 23.2C25.4 23.2 25.6 23.3 25.7 23.4C26 23.6 26.3 23.8 26.5 24.2C26.6 24.3 26.6 24.5 26.7 24.9C26.7 25.2 26.7 25.6 26.7 26.1H18.4Z" fill="currentColor"/>
<path id="Vector_4" fill-rule="evenodd" clip-rule="evenodd" d="M9.1 20L7.9 18.8L6.5 20.2L8.4 22.1C8.8 22.5 9.4 22.5 9.8 22.1L13.6 18.3L12.1 17L9.1 20Z" fill="currentColor"/>
</g>
</g>
</svg>
