<svg width="30" height="30" viewBox="0 0 30 30" fill="none" xmlns="http://www.w3.org/2000/svg">
<g id="&#232;&#183;&#159;&#232;&#191;&#155;&#232;&#174;&#176;&#229;&#189;&#149;&#232;&#161;&#168;&#229;&#141;&#149;">
<path id="Union" fill-rule="evenodd" clip-rule="evenodd" d="M6.25 3.5C6.11193 3.5 6 3.61193 6 3.75V26.25C6 26.3881 6.11192 26.5 6.25 26.5H23.75C23.8881 26.5 24 26.3881 24 26.25V9.16422L18.3358 3.5H6.25ZM4 3.75C4 2.50736 5.00736 1.5 6.25 1.5H19.1642L26 8.33579V26.25C26 27.4927 24.9927 28.5 23.75 28.5H6.25C5.00737 28.5 4 27.4927 4 26.25V3.75ZM19.5 22.8333H10.5V20.8333H19.5V22.8333ZM19.4744 10.107C19.4573 10.0251 19.4352 9.95346 19.4079 9.89204C19.3123 9.68731 19.1776 9.49112 19.0035 9.30346C18.8295 9.11579 18.6709 8.98443 18.5276 8.90936C18.4593 8.87524 18.3791 8.84453 18.287 8.81723C18.1949 8.78994 18.0993 8.77458 18.0004 8.77117C17.9014 8.76776 17.8008 8.78141 17.6984 8.81212C17.5961 8.84283 17.4971 8.89571 17.4016 8.97078C17.3265 9.0322 17.2327 9.11579 17.1201 9.22157C17.0075 9.32734 16.9102 9.41776 16.8283 9.49283L18.7425 11.407C18.7903 11.3661 18.8415 11.3183 18.8961 11.2637C18.9438 11.2159 19.0001 11.1613 19.065 11.0999C19.1298 11.0385 19.2031 10.9668 19.285 10.885C19.3601 10.8031 19.4147 10.7178 19.4488 10.629C19.4829 10.5403 19.5 10.4516 19.5 10.3629C19.5 10.2742 19.4915 10.1889 19.4744 10.107ZM11.7205 14.5956C11.5703 14.7491 11.4748 14.8464 11.4339 14.8873C11.3383 14.9829 11.265 15.0699 11.2138 15.1483C11.1626 15.2268 11.1165 15.3138 11.0756 15.4094C11.0415 15.4708 10.9971 15.5834 10.9425 15.7472C10.8879 15.9109 10.8316 16.0901 10.7736 16.2846C10.7156 16.479 10.661 16.6667 10.6098 16.8475C10.5587 17.0284 10.5262 17.1666 10.5126 17.2621C10.4853 17.4395 10.5024 17.5658 10.5638 17.6409C10.6252 17.7159 10.748 17.7432 10.9323 17.7227C11.021 17.7091 11.1558 17.6784 11.3366 17.6306C11.5175 17.5829 11.7085 17.5266 11.9098 17.4617C12.1112 17.3969 12.3039 17.3304 12.4882 17.2621C12.6724 17.1939 12.8123 17.1359 12.9079 17.0881C13.0034 17.0472 13.0955 16.9926 13.1843 16.9243C13.273 16.8561 13.3514 16.7913 13.4197 16.7298C13.447 16.7094 13.5323 16.6275 13.6756 16.4842C13.8189 16.3409 13.9997 16.1583 14.2181 15.9365C14.4365 15.7147 14.6822 15.4708 14.9551 15.2046L15.774 14.3755L17.9748 12.1747L16.0606 10.2503L13.8598 12.4511L13.0307 13.2802L12.2835 14.0275C12.0583 14.2527 11.8706 14.442 11.7205 14.5956Z" fill="currentColor"/>
</g>
</svg>
