<svg width="30" height="30" viewBox="0 0 30 30" fill="none" xmlns="http://www.w3.org/2000/svg">
<g id="&#229;&#149;&#134;&#230;&#156;&#186;&#230;&#138;&#165;&#229;&#164;&#135;">
<path id="Union" fill-rule="evenodd" clip-rule="evenodd" d="M9.5 2V3.5H15.5834V2H17.5834V3.5H21C22.5774 3.5 23.5 5.00695 23.5 6.375V10.875H21.5V6.375C21.5 6.06838 21.3998 5.82382 21.2798 5.67387C21.1613 5.52576 21.056 5.5 21 5.5H17.5834V7H15.5834V5.5H9.5V7H7.5V5.5H4C3.94398 5.5 3.8387 5.52576 3.72021 5.67387C3.60025 5.82382 3.5 6.06838 3.5 6.375V25.125C3.5 25.4316 3.60025 25.6762 3.72021 25.8261C3.8387 25.9742 3.94398 26 4 26H15.7812V28H4C2.42259 28 1.5 26.4931 1.5 25.125V6.375C1.5 5.00695 2.42259 3.5 4 3.5H7.5V2H9.5ZM15.75 14.0053H6.75V12.0053H15.75V14.0053ZM6.75 18.9584H15.75V16.9584H6.75V18.9584ZM19.2466 18.415C19.2466 15.8588 21.3188 13.7866 23.875 13.7866C26.4312 13.7866 28.5034 15.8588 28.5034 18.415C28.5034 19.6929 27.9846 20.8509 27.1478 21.6878C26.8015 22.0341 26.3031 22.3073 25.8773 22.5049V24.7866H21.8679L21.8694 24.0909C21.8708 23.3738 21.8714 22.8464 21.8711 22.5055C21.4455 22.3076 20.9487 22.0343 20.6022 21.6878C19.7654 20.851 19.2466 19.6929 19.2466 18.415ZM23.875 15.1751C22.0856 15.1751 20.6351 16.6256 20.6351 18.415C20.6351 19.3098 20.997 20.1189 21.584 20.7059C21.8359 20.9578 22.3376 21.2053 22.8295 21.4093L23.2502 21.5837L23.2578 22.039C23.2598 22.1614 23.2602 22.617 23.2591 23.398H24.4887V21.5869L24.9171 21.4093C25.4107 21.2046 25.9146 20.9573 26.1659 20.7059C26.753 20.1189 27.1149 19.3098 27.1149 18.415C27.1149 16.6256 25.6643 15.1751 23.875 15.1751ZM21.5625 26.1V27.9H26.1875V26.1H21.5625Z" fill="currentColor"/>
</g>
</svg>
