<svg width="30" height="30" viewBox="0 0 30 30" fill="none" xmlns="http://www.w3.org/2000/svg">
<g id="&#230;&#136;&#145;&#231;&#154;&#132;&#231;&#186;&#191;&#231;&#180;&#162;">
<path id="Union" fill-rule="evenodd" clip-rule="evenodd" d="M3.5 5.625C3.5 5.14175 3.89175 4.75 4.375 4.75H25.625C26.1082 4.75 26.5 5.14175 26.5 5.625V24.375C26.5 24.8582 26.1082 25.25 25.625 25.25H4.375C3.89175 25.25 3.5 24.8582 3.5 24.375V5.625ZM4.375 2.75C2.78718 2.75 1.5 4.03718 1.5 5.625V24.375C1.5 25.9628 2.78718 27.25 4.375 27.25H25.625C27.2128 27.25 28.5 25.9628 28.5 24.375V5.625C28.5 4.03718 27.2128 2.75 25.625 2.75H4.375ZM10.8636 7.84998C10.2335 7.84998 9.31016 8.03944 8.52242 8.65012C7.6928 9.29327 7.09998 10.3388 7.09998 11.8541C7.09998 13.3686 7.69175 14.4197 8.51581 15.0709C9.29985 15.6905 10.2235 15.8942 10.8636 15.8942H19.1978C19.5151 15.8942 20.0037 16.0031 20.3933 16.3159C20.7444 16.5979 21.1 17.111 21.1 18.1155C21.1 19.1203 20.7441 19.638 20.3909 19.9236C19.9999 20.2398 19.5113 20.35 19.1978 20.35H10.3279C10.0167 19.812 9.43499 19.45 8.76875 19.45C7.77464 19.45 6.96875 20.2559 6.96875 21.25C6.96875 22.2441 7.77464 23.05 8.76875 23.05C9.43502 23.05 10.0167 22.688 10.328 22.15H19.1978C19.8389 22.15 20.7514 21.9471 21.5228 21.3232C22.3321 20.6687 22.9 19.6191 22.9 18.1155C22.9 16.6117 22.3317 15.5641 21.5204 14.9125C20.7476 14.2918 19.8351 14.0942 19.1978 14.0942H10.8636C10.5492 14.0942 10.041 13.982 9.63187 13.6587C9.26275 13.367 8.89998 12.848 8.89998 11.8541C8.89998 10.8611 9.2617 10.3546 9.62525 10.0727C10.0307 9.75841 10.5392 9.64998 10.8636 9.64998H19.7095C20.0208 10.188 20.6025 10.55 21.2687 10.55C22.2629 10.55 23.0688 9.74413 23.0688 8.75001C23.0688 7.7559 22.2629 6.95001 21.2687 6.95001C20.6025 6.95001 20.0208 7.31197 19.7096 7.84998H10.8636Z" fill="currentColor"/>
</g>
</svg>
