<svg width="30" height="30" viewBox="0 0 30 30" fill="none" xmlns="http://www.w3.org/2000/svg">
<g id="&#229;&#149;&#134;&#230;&#156;&#186;&#228;&#191;&#161;&#230;&#129;&#175;">
<path id="Union" fill-rule="evenodd" clip-rule="evenodd" d="M3.5 5.625C3.5 5.14175 3.89175 4.75 4.375 4.75H25.625C26.1082 4.75 26.5 5.14175 26.5 5.625V10.125H28.5V5.625C28.5 4.03718 27.2128 2.75 25.625 2.75H4.375C2.78718 2.75 1.5 4.03718 1.5 5.625V24.375C1.5 25.9628 2.78718 27.25 4.375 27.25H20.3125V25.25H4.375C3.89175 25.25 3.5 24.8582 3.5 24.375V5.625ZM23.7812 27.1379H28.5312V25.1379H23.7812V27.1379ZM28.5312 22.1536H23.7812V20.1536H28.5312V22.1536ZM23.7812 17.0286H28.5312V15.0286H23.7812V17.0286ZM10.3716 12.5717C10.3716 10.0155 12.4438 7.9433 15 7.9433C17.5562 7.9433 19.6284 10.0155 19.6284 12.5717C19.6284 13.8496 19.1096 15.0077 18.2728 15.8445C17.9265 16.1908 17.4281 16.464 17.0023 16.6617V18.9433H12.9929L12.9943 18.2476C12.9958 17.5306 12.9964 17.0032 12.9961 16.6622C12.5705 16.4643 12.0737 16.191 11.7272 15.8445C10.8904 15.0077 10.3716 13.8496 10.3716 12.5717ZM15 9.33182C13.2106 9.33182 11.7601 10.7824 11.7601 12.5717C11.7601 13.4666 12.122 14.2756 12.709 14.8627C12.9609 15.1145 13.4626 15.362 13.9545 15.566L14.3752 15.7404L14.3828 16.1958C14.3848 16.3181 14.3852 16.7738 14.3841 17.5548H15.6137V15.7436L16.0421 15.566C16.5357 15.3613 17.0396 15.114 17.2909 14.8627C17.878 14.2756 18.2399 13.4666 18.2399 12.5717C18.2399 10.7824 16.7893 9.33182 15 9.33182ZM12.6875 20.2567V22.0567H17.3125V20.2567H12.6875Z" fill="currentColor"/>
</g>
</svg>
