<svg width="30" height="30" viewBox="0 0 30 30" fill="none" xmlns="http://www.w3.org/2000/svg">
<g id="&#230;&#136;&#145;&#231;&#154;&#132;&#229;&#174;&#162;&#230;&#136;&#183;&#232;&#129;&#148;&#231;&#179;&#187;&#228;&#186;&#186;">
<path id="Union" fill-rule="evenodd" clip-rule="evenodd" d="M5.95312 5.625C5.95312 5.04004 6.35743 4.75 6.64062 4.75H25.7656C26.0488 4.75 26.4531 5.04004 26.4531 5.625V24.375C26.4531 24.96 26.0488 25.25 25.7656 25.25H6.64062C6.35743 25.25 5.95312 24.96 5.95312 24.375V20.8333H7.45312V18.8333H2.45312V20.8333H3.95312V24.375C3.95312 25.8611 5.05986 27.25 6.64062 27.25H25.7656C27.3464 27.25 28.4531 25.8611 28.4531 24.375V5.625C28.4531 4.13889 27.3464 2.75 25.7656 2.75H6.64062C5.05986 2.75 3.95312 4.13889 3.95312 5.625V9.16669H2.45312V11.1667H7.45312V9.16669H5.95312V5.625ZM7.45312 15.8334H2.45312V13.8334H7.45312V15.8334ZM12.9697 11.3333C12.9697 9.54759 14.4173 8.09998 16.2031 8.09998C17.9888 8.09998 19.4364 9.54759 19.4364 11.3333C19.4364 13.119 17.9888 14.5666 16.2031 14.5666C14.4173 14.5666 12.9697 13.119 12.9697 11.3333ZM16.2031 9.89998C15.4115 9.89998 14.7697 10.5417 14.7697 11.3333C14.7697 12.1249 15.4114 12.7666 16.2031 12.7666C16.9947 12.7666 17.6364 12.1249 17.6364 11.3333C17.6364 10.5417 16.9947 9.89998 16.2031 9.89998ZM16.9735 15.4333H15.4327C14.7175 15.4333 14.1265 15.4333 13.645 15.4726C13.1447 15.5135 12.6838 15.6013 12.2505 15.822C11.5794 16.164 11.0338 16.7096 10.6918 17.3807C10.4711 17.814 10.3833 18.2749 10.3424 18.7752C10.3031 19.2567 10.3031 19.8477 10.3031 20.5629L10.3031 21.9H22.1031V20.5628C22.1031 19.8477 22.1031 19.2567 22.0638 18.7752C22.0229 18.2749 21.9351 17.814 21.7144 17.3807C21.3724 16.7096 20.8267 16.164 20.1556 15.822C19.7224 15.6013 19.2615 15.5135 18.7612 15.4726C18.2797 15.4333 17.6887 15.4333 16.9735 15.4333ZM12.2957 18.1979C12.465 17.8655 12.7353 17.5952 13.0677 17.4258C13.2049 17.3559 13.4026 17.2984 13.7916 17.2666C14.1911 17.234 14.7082 17.2333 15.4698 17.2333H16.9364C17.698 17.2333 18.2151 17.234 18.6146 17.2666C19.0036 17.2984 19.2013 17.3559 19.3385 17.4258C19.6709 17.5952 19.9412 17.8655 20.1106 18.1979C20.1805 18.3351 20.238 18.5328 20.2698 18.9218C20.2947 19.227 20.301 19.6009 20.3026 20.1H12.1036C12.1052 19.6009 12.1115 19.227 12.1364 18.9218C12.1682 18.5328 12.2258 18.3351 12.2957 18.1979Z" fill="currentColor"/>
</g>
</svg>
