<svg width="30" height="30" viewBox="0 0 30 30" fill="none" xmlns="http://www.w3.org/2000/svg">
<g id="&#229;&#133;&#179;&#229;&#141;&#149;&#228;&#191;&#161;&#230;&#129;&#175;">
<path id="Union" fill-rule="evenodd" clip-rule="evenodd" d="M3.72021 4.92387C3.60025 5.07382 3.5 5.31838 3.5 5.625V24.375C3.5 24.6816 3.60025 24.9262 3.72021 25.0761C3.8387 25.2242 3.94398 25.25 4 25.25H12.4375V27.25H4C2.42259 27.25 1.5 25.7431 1.5 24.375V5.625C1.5 4.25695 2.42259 2.75 4 2.75H21C22.5774 2.75 23.5 4.25695 23.5 5.625V10.125H21.5V5.625C21.5 5.31838 21.3998 5.07382 21.2798 4.92387C21.1613 4.77576 21.056 4.75 21 4.75H4C3.94398 4.75 3.8387 4.77576 3.72021 4.92387ZM18.125 11.7553H6.75V9.75531H18.125V11.7553ZM6.75 16.7084H12.375V14.7084H6.75V16.7084ZM20.3625 20.3625L19.1625 19.1625L17.7625 20.5625L19.6625 22.4625C20.0625 22.8625 20.6625 22.8625 21.0625 22.4625L24.8625 18.6625L23.3625 17.3625L20.3625 20.3625ZM16.2125 20.0625C16.2125 17.2458 18.4958 14.9625 21.3125 14.9625C24.1292 14.9625 26.4125 17.2458 26.4125 20.0625C26.4125 22.8792 24.1292 25.1625 21.3125 25.1625C18.4958 25.1625 16.2125 22.8792 16.2125 20.0625ZM21.3125 13.1625C17.5017 13.1625 14.4125 16.2517 14.4125 20.0625C14.4125 23.8733 17.5017 26.9625 21.3125 26.9625C25.1233 26.9625 28.2125 23.8733 28.2125 20.0625C28.2125 16.2517 25.1233 13.1625 21.3125 13.1625Z" fill="currentColor"/>
</g>
</svg>
