<svg width="30" height="30" viewBox="0 0 30 30" fill="none" xmlns="http://www.w3.org/2000/svg">
<g id="&#233;&#161;&#185;&#231;&#155;&#174; ">
<g id="Group">
<path id="Vector" fill-rule="evenodd" clip-rule="evenodd" d="M26.2 6.50001H15.5L12.2 2.70001H3.8C2.6 2.70001 1.5 3.70001 1.5 5.00001V25C1.5 26.3 2.6 27.3 3.8 27.3H26.2C27.4 27.3 28.5 26.3 28.5 25V8.80001C28.5 7.50001 27.4 6.50001 26.2 6.50001ZM26.5 25C26.5 25.1 26.4 25.3 26.2 25.3H3.8C3.6 25.3 3.5 25.1 3.5 25V13.5H26.5V25ZM26.5 11.5H3.5V5.00001C3.5 4.90001 3.6 4.70001 3.8 4.70001H11.2L14.5 8.50001H26.1C26.3 8.50001 26.4 8.70001 26.4 8.80001V11.5H26.5Z" fill="currentColor"/>
<path id="Vector_2" d="M17.5 16.7H11.9V18.7H17.5V16.7Z" fill="currentColor"/>
</g>
</g>
</svg>
