<svg width="30" height="30" viewBox="0 0 30 30" fill="none" xmlns="http://www.w3.org/2000/svg">
<g id="&#233;&#148;&#128;&#229;&#148;&#174;&#228;&#186;&#167;&#229;&#147;&#129;&#229;&#136;&#151;&#232;&#161;&#168; ">
<g id="Group">
<path id="Vector" fill-rule="evenodd" clip-rule="evenodd" d="M25.6 2.8H4.4C2.8 2.8 1.5 4 1.5 5.6V24.4C1.5 26 2.8 27.3 4.4 27.3H25.7C27.3 27.3 28.6 26 28.6 24.4V5.6C28.5 4 27.2 2.8 25.6 2.8ZM26.5 24.4C26.5 24.9 26.1 25.3 25.6 25.3H4.4C3.9 25.3 3.5 24.9 3.5 24.4V9.8H26.5V24.4ZM26.5 7.8H3.5V5.6C3.5 5.1 3.9 4.7 4.4 4.7H25.7C26.2 4.7 26.6 5.1 26.6 5.6V7.8H26.5Z" fill="currentColor"/>
<path id="Vector_2" d="M16 14.8H14V21.8H16V14.8Z" fill="currentColor"/>
<path id="Vector_3" d="M21 12.3H19V21.8H21V12.3Z" fill="currentColor"/>
<path id="Vector_4" d="M11 17.3H9V21.8H11V17.3Z" fill="currentColor"/>
</g>
</g>
</svg>
