<?xml version="1.0" standalone="no"?><!DOCTYPE svg PUBLIC "-//W3C//DTD SVG 1.1//EN" "http://www.w3.org/Graphics/SVG/1.1/DTD/svg11.dtd"><svg t="1674982717146" class="icon" viewBox="0 0 1024 1024" version="1.1" xmlns="http://www.w3.org/2000/svg" p-id="2580" xmlns:xlink="http://www.w3.org/1999/xlink" width="200" height="200"><path d="M915.439472 1024H108.560528A85.646368 85.646368 0 0 1 23.665444 939.104916v-118.702862a85.646368 85.646368 0 0 1 84.895084-84.895084h806.878944A85.646368 85.646368 0 0 1 1000.334556 820.402054v118.702862a85.646368 85.646368 0 0 1-84.895084 84.895084zM108.560528 810.635363a9.766691 9.766691 0 0 0-9.766691 9.766691v118.702862a9.766691 9.766691 0 0 0 9.766691 9.766691h806.878944a9.766691 9.766691 0 0 0 9.766691-9.766691v-118.702862a9.766691 9.766691 0 0 0-9.766691-9.766691z" p-id="2581"></path><path d="M915.439472 1024H108.560528A85.646368 85.646368 0 0 1 23.665444 939.104916V676.155539a84.895084 84.895084 0 0 1 84.895084-82.641232h806.878944A84.895084 84.895084 0 0 1 1000.334556 676.155539v262.949377a85.646368 85.646368 0 0 1-84.895084 84.895084zM108.560528 668.6427A9.766691 9.766691 0 0 0 98.793837 676.155539v262.949377a9.766691 9.766691 0 0 0 9.766691 9.766691h806.878944a9.766691 9.766691 0 0 0 9.766691-9.766691V676.155539a9.766691 9.766691 0 0 0-9.766691-9.766691z" p-id="2582"></path><path d="M749.405723 668.6427H274.594277a37.564197 37.564197 0 0 1-30.802641-16.528247 38.315481 38.315481 0 0 1-4.507703-33.807777L351.976522 300.513573a62.356566 62.356566 0 0 1 57.848863-41.320616h204.34923a60.102715 60.102715 0 0 1 57.097579 41.320616l113.443873 316.290536a38.315481 38.315481 0 0 1-4.507703 33.807777 37.564197 37.564197 0 0 1-30.802641 18.030814z m-421.470286-75.128393H699.820983L604.407924 335.823918H419.592076z m60.102714-279.477623z" p-id="2583"></path><path d="M597.646368 331.316214H426.353632a166.033749 166.033749 0 0 1 0-331.316214h171.292736a166.033749 166.033749 0 0 1 0 331.316214zM426.353632 75.128393a90.905356 90.905356 0 0 0 0 181.059428h171.292736a90.905356 90.905356 0 0 0 0-181.059428z" p-id="2584"></path></svg>