<?xml version="1.0" standalone="no"?><!DOCTYPE svg PUBLIC "-//W3C//DTD SVG 1.1//EN" "http://www.w3.org/Graphics/SVG/1.1/DTD/svg11.dtd"><svg class="icon" width="200px" height="200.00px" viewBox="0 0 1024 1024" version="1.1" xmlns="http://www.w3.org/2000/svg"><path d="M512 434.898824a217.449412 217.449412 0 1 1 217.449412-217.449412A217.449412 217.449412 0 0 1 512 434.898824zM512 60.235294a157.214118 157.214118 0 1 0 157.214118 157.214118A157.214118 157.214118 0 0 0 512 60.235294zM993.882353 1024H30.117647a30.117647 30.117647 0 0 1-30.117647-30.117647V963.764706c0-124.687059 0-187.331765 26.503529-240.941177a240.941176 240.941176 0 0 1 106.616471-106.61647c52.404706-26.503529 115.049412-26.503529 240.941176-26.50353h278.287059c124.687059 0 187.331765 0 240.941177 26.50353A240.941176 240.941176 0 0 1 997.496471 722.823529c26.503529 52.404706 26.503529 115.049412 26.503529 240.941177v31.924706a30.117647 30.117647 0 0 1-30.117647 28.310588zM60.235294 963.764706h903.529412c0-115.049412 0-172.875294-19.877647-212.028235a186.729412 186.729412 0 0 0-80.715294-80.715295c-39.152941-19.877647-96.978824-19.877647-212.028236-19.877647H372.856471c-115.049412 0-172.875294 0-212.028236 19.877647a186.729412 186.729412 0 0 0-80.715294 80.715295C60.235294 789.082353 60.235294 846.908235 60.235294 963.764706z" /></svg>