<?xml version="1.0" standalone="no"?><!DOCTYPE svg PUBLIC "-//W3C//DTD SVG 1.1//EN" "http://www.w3.org/Graphics/SVG/1.1/DTD/svg11.dtd"><svg t="1674982709268" class="icon" viewBox="0 0 1024 1024" version="1.1" xmlns="http://www.w3.org/2000/svg" p-id="2296" xmlns:xlink="http://www.w3.org/1999/xlink" width="200" height="200"><path d="M937.353846 1024H86.646154A86.646154 86.646154 0 0 1 0 937.353846V86.646154A86.646154 86.646154 0 0 1 86.646154 0h850.707692A86.646154 86.646154 0 0 1 1024 86.646154v850.707692a86.646154 86.646154 0 0 1-86.646154 86.646154zM86.646154 78.769231a7.089231 7.089231 0 0 0-7.876923 7.876923v850.707692a7.876923 7.876923 0 0 0 7.876923 7.876923h850.707692a8.664615 8.664615 0 0 0 7.876923-7.876923V86.646154a7.876923 7.876923 0 0 0-7.876923-7.876923z" p-id="2297"></path><path d="M181.169231 504.123077a39.384615 39.384615 0 0 1-13.390769-78.769231l661.661538-236.307692a39.384615 39.384615 0 1 1 26.781538 74.043077l-661.661538 236.307692a40.172308 40.172308 0 0 1-13.390769 4.726154zM181.169231 669.538462a39.384615 39.384615 0 0 1-13.390769-78.769231l89.796923-32.295385a39.384615 39.384615 0 1 1 26.781538 74.043077l-89.796923 32.295385a40.172308 40.172308 0 0 1-13.390769 4.726154z m358.4-127.606154a40.172308 40.172308 0 0 1-13.390769-78.769231l89.796923-31.507692a39.384615 39.384615 0 1 1 26.781538 74.043077L551.384615 539.569231zM181.169231 834.953846a39.384615 39.384615 0 0 1-13.390769-78.769231l661.661538-236.307692a39.384615 39.384615 0 0 1 26.781538 74.043077l-661.661538 236.307692a40.172308 40.172308 0 0 1-13.390769 4.726154z" p-id="2298"></path><path d="M322.953846 433.230769a40.172308 40.172308 0 0 1-37.021538-25.206154l-70.892308-189.046153A40.172308 40.172308 0 0 1 236.307692 167.778462a40.96 40.96 0 0 1 51.2 22.843076l70.892308 189.046154a40.96 40.96 0 0 1-23.630769 51.2 37.021538 37.021538 0 0 1-11.815385 2.363077zM819.2 834.953846a39.384615 39.384615 0 0 1-37.021538-25.993846L708.923077 620.701538a39.384615 39.384615 0 1 1 78.769231-28.356923l70.892307 189.046154a40.96 40.96 0 0 1-23.630769 51.2 37.021538 37.021538 0 0 1-15.753846 2.363077z" p-id="2299"></path></svg>