<?xml version="1.0" standalone="no"?><!DOCTYPE svg PUBLIC "-//W3C//DTD SVG 1.1//EN" "http://www.w3.org/Graphics/SVG/1.1/DTD/svg11.dtd"><svg class="icon" width="200px" height="200.00px" viewBox="0 0 1024 1024" version="1.1" xmlns="http://www.w3.org/2000/svg"><path d="M941.696 832H155.52V118.976a9.152 9.152 0 0 0-9.152-9.152h-64a9.152 9.152 0 0 0-9.152 9.152v786.24c0 5.056 4.096 9.152 9.152 9.152h859.392a9.152 9.152 0 0 0 9.152-9.152v-64a9.152 9.152 0 0 0-9.152-9.088z m-704-73.088h612.608a9.152 9.152 0 0 0 9.152-9.152V251.456a9.216 9.216 0 0 0-15.68-6.528L603.52 485.312l-143.36-141.76a9.152 9.152 0 0 0-12.864 0L231.232 560.256a8.96 8.96 0 0 0-2.624 6.4v183.04c0 5.12 4.096 9.216 9.152 9.216z" fill="#002851" /></svg>