<svg width="28" height="28" viewBox="0 0 28 28" fill="none" xmlns="http://www.w3.org/2000/svg">
<g id="Frame 4245">
<path id="Rectangle 34624146" d="M25 27L9 27L3 20L3 0.999998L25 1L25 27Z" fill="#8454FD"/>
<path id="Rectangle 34624147" d="M9 27L3 20L9 20L9 27Z" fill="#D4BDEC"/>
<path id="Rectangle 829" d="M18 11H7V13H18V11Z" fill="#D4BDEC"/>
<path id="Rectangle 830" d="M7 8L21 8L21 6L7 6L7 8Z" fill="#D4BDEC"/>
<g id="Frame">
<path id="Vector" d="M17.177 16.3912L13.4647 20.1035C12.586 20.9822 12.586 22.4068 13.4647 23.2855C14.3433 24.1642 15.768 24.1642 16.6466 23.2855L21.0661 18.8661C21.6518 18.2803 21.6518 17.3306 21.0661 16.7448C20.4803 16.159 19.5305 16.159 18.9447 16.7448L14.5253 21.1642C14.2324 21.4571 14.2324 21.932 14.5253 22.2248C14.8182 22.5177 15.2931 22.5177 15.586 22.2248L19.2983 18.5125" stroke="white" stroke-width="1.2" stroke-linecap="square" stroke-linejoin="round"/>
</g>
</g>
</svg>
