<?xml version="1.0" standalone="no"?><!DOCTYPE svg PUBLIC "-//W3C//DTD SVG 1.1//EN" "http://www.w3.org/Graphics/SVG/1.1/DTD/svg11.dtd"><svg class="icon" width="200px" height="200.00px" viewBox="0 0 1024 1024" version="1.1" xmlns="http://www.w3.org/2000/svg"><path d="M187.733333 99.555556a2.844444 2.844444 0 0 0-2.844444 2.844444v819.2c0 1.592889 1.251556 2.844444 2.844444 2.844444H824.888889a2.844444 2.844444 0 0 0 2.844444-2.844444V302.08L625.208889 99.555556H187.733333zM99.555556 102.4C99.555556 53.703111 139.036444 14.222222 187.733333 14.222222h455.111111a42.666667 42.666667 0 0 1 30.151112 12.515556l227.555555 227.555555c8.021333 7.964444 12.515556 18.830222 12.515556 30.151111v637.155556A88.177778 88.177778 0 0 1 824.888889 1009.777778H187.733333A88.177778 88.177778 0 0 1 99.555556 921.6V102.4zM281.6 420.977778a42.666667 42.666667 0 0 1 42.666667-42.666667h364.088889a42.666667 42.666667 0 0 1 0 85.333333H324.266667a42.666667 42.666667 0 0 1-42.666667-42.666666zM281.6 603.022222a42.666667 42.666667 0 0 1 42.666667-42.666666h364.088889a42.666667 42.666667 0 0 1 0 85.333333H324.266667a42.666667 42.666667 0 0 1-42.666667-42.666667z" /></svg>