<?xml version="1.0" standalone="no"?><!DOCTYPE svg PUBLIC "-//W3C//DTD SVG 1.1//EN" "http://www.w3.org/Graphics/SVG/1.1/DTD/svg11.dtd"><svg class="icon" width="200px" height="200.00px" viewBox="0 0 1024 1024" version="1.1" xmlns="http://www.w3.org/2000/svg"><path d="M187.733333 99.555556a2.844444 2.844444 0 0 0-2.844444 2.844444v819.2c0 1.536 1.251556 2.787556 2.844444 2.787556H824.888889a2.844444 2.844444 0 0 0 2.844444-2.844445V102.4A2.844444 2.844444 0 0 0 824.888889 99.555556H187.733333zM99.555556 102.4C99.555556 53.703111 139.036444 14.222222 187.733333 14.222222H824.888889c48.64 0 88.177778 39.480889 88.177778 88.177778v819.2A88.177778 88.177778 0 0 1 824.888889 1009.664H187.733333a88.177778 88.177778 0 0 1-88.177777-88.177778V102.4zM324.266667 14.222222a42.666667 42.666667 0 0 1 42.666666 42.666667v910.165333a42.666667 42.666667 0 1 1-85.333333 0V56.888889A42.666667 42.666667 0 0 1 324.266667 14.222222zM463.644444 238.990222a42.666667 42.666667 0 0 1 42.666667-42.666666h182.044445a42.666667 42.666667 0 0 1 0 85.333333H506.311111a42.666667 42.666667 0 0 1-42.666667-42.666667zM463.644444 421.034667a42.666667 42.666667 0 0 1 42.666667-42.666667h182.044445a42.666667 42.666667 0 0 1 0 85.333333H506.311111a42.666667 42.666667 0 0 1-42.666667-42.666666zM145.066667 56.888889A42.666667 42.666667 0 0 1 187.733333 14.222222h273.066667a42.666667 42.666667 0 0 1 0 85.333334H187.733333A42.666667 42.666667 0 0 1 145.066667 56.888889zM145.066667 967.111111a42.666667 42.666667 0 0 1 42.666666-42.666667h273.066667a42.666667 42.666667 0 0 1 0 85.333334H187.733333a42.666667 42.666667 0 0 1-42.666666-42.666667z" /></svg>