<?xml version="1.0" standalone="no"?><!DOCTYPE svg PUBLIC "-//W3C//DTD SVG 1.1//EN" "http://www.w3.org/Graphics/SVG/1.1/DTD/svg11.dtd"><svg class="icon" width="200px" height="200.00px" viewBox="0 0 1024 1024" version="1.1" xmlns="http://www.w3.org/2000/svg"><path d="M132.721778 99.555556a33.166222 33.166222 0 0 0-33.166222 33.166222v758.556444c0 18.318222 14.848 33.166222 33.166222 33.166222h758.556444a33.166222 33.166222 0 0 0 33.166222-33.166222V132.721778a33.166222 33.166222 0 0 0-33.166222-33.166222H132.721778zM14.222222 132.721778C14.222222 67.299556 67.299556 14.222222 132.721778 14.222222h758.556444c65.422222 0 118.499556 53.077333 118.499556 118.499556v758.556444c0 65.422222-53.077333 118.499556-118.499556 118.499556H132.721778A118.499556 118.499556 0 0 1 14.222222 891.278222V132.721778zM14.222222 259.185778a42.666667 42.666667 0 0 1 42.666667-42.666667h859.648a42.666667 42.666667 0 0 1 0 85.333333H56.888889a42.666667 42.666667 0 0 1-42.666667-42.666666zM621.056 461.425778a42.666667 42.666667 0 0 1 42.666667-42.666667H967.111111a42.666667 42.666667 0 0 1 0 85.333333h-303.388444a42.666667 42.666667 0 0 1-42.666667-42.666666zM621.056 663.722667a42.666667 42.666667 0 0 1 42.666667-42.666667H967.111111a42.666667 42.666667 0 0 1 0 85.333333h-303.388444a42.666667 42.666667 0 0 1-42.666667-42.666666zM444.074667 461.425778a42.666667 42.666667 0 0 1 42.666666-42.666667H512a42.666667 42.666667 0 1 1 0 85.333333h-25.258667a42.666667 42.666667 0 0 1-42.666666-42.666666zM444.074667 663.722667a42.666667 42.666667 0 0 1 42.666666-42.666667H512a42.666667 42.666667 0 0 1 0 85.333333h-25.258667a42.666667 42.666667 0 0 1-42.666666-42.666666zM259.185778 14.222222a42.666667 42.666667 0 0 1 42.666666 42.666667v910.222222a42.666667 42.666667 0 0 1-85.333333 0V56.888889a42.666667 42.666667 0 0 1 42.666667-42.666667z" /></svg>