<?xml version="1.0" standalone="no"?><!DOCTYPE svg PUBLIC "-//W3C//DTD SVG 1.1//EN" "http://www.w3.org/Graphics/SVG/1.1/DTD/svg11.dtd"><svg class="icon" width="200px" height="200.00px" viewBox="0 0 1024 1024" version="1.1" xmlns="http://www.w3.org/2000/svg"><path d="M187.733333 99.555556a2.844444 2.844444 0 0 0-2.844444 2.844444v819.2c0 1.592889 1.251556 2.844444 2.844444 2.844444H824.888889a2.844444 2.844444 0 0 0 2.844444-2.844444V102.4a2.844444 2.844444 0 0 0-2.844444-2.844444H187.733333zM99.555556 102.4C99.555556 53.703111 139.036444 14.222222 187.733333 14.222222H824.888889c48.696889 0 88.177778 39.480889 88.177778 88.177778v819.2A88.177778 88.177778 0 0 1 824.888889 1009.777778H187.733333A88.177778 88.177778 0 0 1 99.555556 921.6V102.4zM395.377778 284.444444a42.666667 42.666667 0 0 1 42.666666-42.666666H711.111111a42.666667 42.666667 0 0 1 0 85.333333H438.044444A42.666667 42.666667 0 0 1 395.377778 284.444444zM395.377778 512.113778a42.666667 42.666667 0 0 1 42.666666-42.666667H711.111111a42.666667 42.666667 0 0 1 0 85.333333H438.044444a42.666667 42.666667 0 0 1-42.666666-42.666666zM395.377778 739.555556a42.666667 42.666667 0 0 1 42.666666-42.666667H711.111111a42.666667 42.666667 0 0 1 0 85.333333H438.044444a42.666667 42.666667 0 0 1-42.666666-42.666666zM301.511111 329.955556a45.511111 45.511111 0 1 0 0-91.022223 45.511111 45.511111 0 0 0 0 91.022223zM301.511111 557.568a45.511111 45.511111 0 1 0 0-91.022222 45.511111 45.511111 0 0 0 0 91.022222zM301.511111 785.123556a45.511111 45.511111 0 1 0 0-91.022223 45.511111 45.511111 0 0 0 0 91.022223z" /></svg>