<?xml version="1.0" standalone="no"?><!DOCTYPE svg PUBLIC "-//W3C//DTD SVG 1.1//EN" "http://www.w3.org/Graphics/SVG/1.1/DTD/svg11.dtd"><svg class="icon" width="200px" height="200.00px" viewBox="0 0 1024 1024" version="1.1" xmlns="http://www.w3.org/2000/svg"><path d="M138.688 112a26.688 26.688 0 0 0-26.688 26.688v746.624c0 14.72 11.968 26.688 26.688 26.688h746.624c14.72 0 26.688-11.968 26.688-26.688V138.688a26.688 26.688 0 0 0-26.688-26.688H138.688zM16 138.688C16 70.912 70.912 16 138.688 16h746.624c67.776 0 122.688 54.912 122.688 122.688v746.624a122.688 122.688 0 0 1-122.688 122.688H138.688A122.688 122.688 0 0 1 16 885.312V138.688zM190.272 238.272a48 48 0 0 1 48-48h199.04a48 48 0 0 1 48 48v199.04a48 48 0 0 1-48 48h-199.04a48 48 0 0 1-48-48v-199.04z m96 48v103.04h103.04v-103.04h-103.04zM538.688 238.272a48 48 0 0 1 48-48h199.104a48 48 0 0 1 0 96H586.688a48 48 0 0 1-48-48zM538.688 412.48a48 48 0 0 1 48-48h199.104a48 48 0 0 1 0 96H586.688a48 48 0 0 1-48-48zM190.272 611.52a48 48 0 0 1 48-48h547.52a48 48 0 0 1 0 96H238.272a48 48 0 0 1-48-48zM190.272 785.728a48 48 0 0 1 48-48h547.52a48 48 0 0 1 0 96H238.272a48 48 0 0 1-48-48z" /></svg>