<?xml version="1.0" standalone="no"?><!DOCTYPE svg PUBLIC "-//W3C//DTD SVG 1.1//EN" "http://www.w3.org/Graphics/SVG/1.1/DTD/svg11.dtd"><svg class="icon" width="200px" height="200.00px" viewBox="0 0 1024 1024" version="1.1" xmlns="http://www.w3.org/2000/svg"><path d="M941.696 832H155.392V118.976a9.152 9.152 0 0 0-9.152-9.152h-64a9.152 9.152 0 0 0-9.088 9.152v786.24c0 5.056 4.096 9.152 9.088 9.152h859.456a9.152 9.152 0 0 0 9.152-9.152v-64a9.152 9.152 0 0 0-9.152-9.088z" fill="#002851" /><path d="M310.848 722.368v64c0 4.992 4.096 9.152 9.152 9.152H484.48a9.152 9.152 0 0 0 9.152-9.152v-64a9.152 9.152 0 0 0-9.152-9.152H320a9.152 9.152 0 0 0-9.152 9.152zM310.848 548.672v64c0 4.992 4.096 9.088 9.152 9.088h365.696a9.152 9.152 0 0 0 9.152-9.088v-64a9.152 9.152 0 0 0-9.152-9.152H320a9.152 9.152 0 0 0-9.152 9.152zM310.848 374.912v64c0 5.056 4.096 9.152 9.152 9.152H596.48a9.152 9.152 0 0 0 9.152-9.152v-64a9.152 9.152 0 0 0-9.152-9.152H320a9.152 9.152 0 0 0-9.152 9.152zM310.848 201.216v64c0 5.056 4.096 9.152 9.152 9.152h457.152a9.152 9.152 0 0 0 9.152-9.152v-64a9.152 9.152 0 0 0-9.152-9.152H320a9.152 9.152 0 0 0-9.152 9.152z" fill="#002851" /></svg>