<?xml version="1.0" standalone="no"?><!DOCTYPE svg PUBLIC "-//W3C//DTD SVG 1.1//EN" "http://www.w3.org/Graphics/SVG/1.1/DTD/svg11.dtd"><svg class="icon" width="200px" height="200.00px" viewBox="0 0 1024 1024" version="1.1" xmlns="http://www.w3.org/2000/svg"><path d="M941.696 832H155.392V118.976a9.152 9.152 0 0 0-9.152-9.152h-64a9.152 9.152 0 0 0-9.088 9.152v786.24c0 5.056 4.096 9.152 9.088 9.152h859.456a9.152 9.152 0 0 0 9.152-9.152v-64a9.152 9.152 0 0 0-9.152-9.088z" fill="#002851" /><path d="M289.28 769.92a9.152 9.152 0 0 1-12.928 0l-45.184-45.312a9.216 9.216 0 0 1 0-12.928l210.048-208.768a9.152 9.152 0 0 1 12.928 0l145.6 146.496 262.848-262.784a9.152 9.152 0 0 1 12.928 0l45.248 45.312a9.152 9.152 0 0 1 0 12.864L606.08 759.488a9.152 9.152 0 0 1-12.864 0L447.296 612.672 289.28 769.92z" fill="#002851" /><path d="M289.28 513.92a9.152 9.152 0 0 1-12.928 0l-45.184-45.312a9.152 9.152 0 0 1 0-12.928l210.048-208.768a9.152 9.152 0 0 1 12.928 0l145.6 146.496 262.848-262.784a9.152 9.152 0 0 1 12.928 0l45.248 45.312a9.152 9.152 0 0 1 0 12.864L606.08 503.488a9.152 9.152 0 0 1-12.864 0L447.296 356.736 289.28 513.92z" fill="#002851" /><path d="M448 384a64 64 0 1 0 0-128 64 64 0 0 0 0 128z" fill="#FFFFFF" /><path d="M448 288a32 32 0 1 0 0 64 32 32 0 0 0 0-64zM352 320a96 96 0 1 1 192 0 96 96 0 0 1-192 0z" fill="#002851" /></svg>