<svg width="16" height="16" viewBox="0 0 16 16" fill="none" xmlns="http://www.w3.org/2000/svg">
<g id="Group">
<g id="Group 3293">
<path id="Rectangle 2118 (Stroke)" fill-rule="evenodd" clip-rule="evenodd" d="M5.8 12.8L3.2 12.8L3.2 1.2L5.8 1.2L5.8 12.8ZM7 13.6C7 13.8209 6.82091 14 6.6 14L2.4 14C2.17909 14 2 13.8209 2 13.6L2 0.4C2 0.179086 2.17909 5.74888e-08 2.4 5.48544e-08L6.6 4.76995e-09C6.82091 2.13558e-09 7 0.179086 7 0.4L7 13.6Z" fill="#333333"/>
<path id="Rectangle 2119 (Stroke)" fill-rule="evenodd" clip-rule="evenodd" d="M12.8 12.8L10.2 12.8L10.2 7.2L12.8 7.2L12.8 12.8ZM14 13.6C14 13.8209 13.8209 14 13.6 14L9.4 14C9.17909 14 9 13.8209 9 13.6L9 6.4C9 6.17909 9.17909 6 9.4 6L13.6 6C13.8209 6 14 6.17909 14 6.4L14 13.6Z" fill="#2778FF"/>
<path id="Vector" d="M15.3 16C15.4592 16 15.6118 15.9368 15.7243 15.8243C15.8368 15.7117 15.9 15.5591 15.9 15.4C15.9 15.2409 15.8368 15.0883 15.7243 14.9757C15.6118 14.8632 15.4592 14.8 15.3 14.8L0.700026 14.8C0.540895 14.8 0.388283 14.8632 0.275761 14.9757C0.163239 15.0883 0.100025 15.2409 0.100025 15.4C0.100025 15.5591 0.163239 15.7117 0.275761 15.8243C0.388283 15.9368 0.540895 16 0.700026 16L15.3 16Z" fill="#333333"/>
</g>
</g>
</svg>
