<?xml version="1.0" standalone="no"?><!DOCTYPE svg PUBLIC "-//W3C//DTD SVG 1.1//EN" "http://www.w3.org/Graphics/SVG/1.1/DTD/svg11.dtd"><svg class="icon" width="200px" height="200.00px" viewBox="0 0 1024 1024" version="1.1" xmlns="http://www.w3.org/2000/svg"><path d="M941.696 832H155.392V118.976a9.152 9.152 0 0 0-9.152-9.152h-64a9.152 9.152 0 0 0-9.088 9.152v786.24c0 5.056 4.096 9.152 9.088 9.152h859.456a9.152 9.152 0 0 0 9.152-9.152v-64a9.152 9.152 0 0 0-9.152-9.088z" fill="#002851" /><path d="M704 224a96 96 0 1 0 0 192 96 96 0 0 0 0-192zM544 320a160 160 0 1 1 320 0 160 160 0 0 1-320 0zM416 416a64 64 0 1 0 0 128 64 64 0 0 0 0-128z m-128 64a128 128 0 1 1 256 0 128 128 0 0 1-256 0zM640 608a32 32 0 1 0 0 64 32 32 0 0 0 0-64z m-96 32a96 96 0 1 1 192 0 96 96 0 0 1-192 0z" fill="#002851" /></svg>