<svg width="28" height="28" viewBox="0 0 28 28" fill="none" xmlns="http://www.w3.org/2000/svg">
<g id="Frame 4225">
<g id="Group 4278">
<rect id="Rectangle 2469" x="3" y="3.5" width="22" height="24" rx="1" fill="#1F79FF"/>
<path id="Rectangle 2470" d="M7.23047 3.78521C7.23047 3.34338 7.58864 2.98521 8.03047 2.98521H9.93047C10.3723 2.98521 10.7305 2.62703 10.7305 2.18521V1.3C10.7305 0.858172 11.0886 0.5 11.5305 0.5H16.9305C17.3723 0.5 17.7305 0.858172 17.7305 1.3V2.18521C17.7305 2.62703 18.0886 2.98521 18.5305 2.98521H20.4305C20.8723 2.98521 21.2305 3.34338 21.2305 3.78521V6.16154C21.2305 6.60337 20.8723 6.96154 20.4305 6.96154H8.03047C7.58864 6.96154 7.23047 6.60337 7.23047 6.16154V3.78521Z" fill="#98C0FE"/>
<rect id="Rectangle 2471" x="8.30762" y="12.5" width="11.8462" height="2.15385" fill="white"/>
<rect id="Rectangle 2472" x="8.30762" y="17.8845" width="7.53846" height="2.15385" fill="white"/>
</g>
</g>
</svg>
