<?xml version="1.0" standalone="no"?><!DOCTYPE svg PUBLIC "-//W3C//DTD SVG 1.1//EN" "http://www.w3.org/Graphics/SVG/1.1/DTD/svg11.dtd"><svg t="1674982783003" class="icon" viewBox="0 0 1074 1024" version="1.1" xmlns="http://www.w3.org/2000/svg" p-id="4135" xmlns:xlink="http://www.w3.org/1999/xlink" width="209.765625" height="200"><path d="M1038.288372 1024H35.72093a35.72093 35.72093 0 1 1 0-71.44186h1002.567442a35.72093 35.72093 0 1 1 0 71.44186z" p-id="4136"></path><path d="M286.362791 1024H186.344186a86.325581 86.325581 0 0 1-86.325581-85.730233V637.023256a86.325581 86.325581 0 0 1 86.325581-85.730233h100.018605a85.730233 85.730233 0 0 1 85.730232 85.730233v301.246511a85.730233 85.730233 0 0 1-85.730232 85.730233z m-100.018605-401.265116a14.883721 14.883721 0 0 0-14.883721 14.288372v301.246511a14.883721 14.883721 0 0 0 14.883721 14.288373h100.018605a14.288372 14.288372 0 0 0 14.288372-14.288373V637.023256a14.288372 14.288372 0 0 0-14.288372-14.288372z" p-id="4137"></path><path d="M261.35814 823.367442H238.139535a35.72093 35.72093 0 0 1 0-71.441861h25.004651a35.72093 35.72093 0 1 1 0 71.441861z" p-id="4138"></path><path d="M888.260465 1024H386.381395a86.325581 86.325581 0 0 1-85.730232-85.730233V85.730233A86.325581 86.325581 0 0 1 386.381395 0h501.87907a86.325581 86.325581 0 0 1 85.730233 85.730233v852.539534a86.325581 86.325581 0 0 1-85.730233 85.730233z m-501.87907-952.55814a14.288372 14.288372 0 0 0-14.288372 14.288373v852.539534a14.288372 14.288372 0 0 0 14.288372 14.288373h501.87907a14.288372 14.288372 0 0 0 14.288372-14.288373V85.730233a14.288372 14.288372 0 0 0-14.288372-14.288373z" p-id="4139"></path><path d="M587.013953 186.344186H486.995349v100.018605h100.018604zM787.646512 186.344186h-100.018605v100.018605h100.018605zM587.013953 361.376744H486.995349v100.613954h100.018604zM787.646512 361.376744h-100.018605v100.613954h100.018605zM787.646512 535.813953h-100.018605v100.613954h100.018605zM787.646512 714.418605h-100.018605v100.018604h100.018605z" p-id="4140"></path></svg>