<svg width="28" height="28" viewBox="0 0 28 28" fill="none" xmlns="http://www.w3.org/2000/svg">
<g id="Frame 4280">
<g id="Group">
<path id="Union" fill-rule="evenodd" clip-rule="evenodd" d="M2 10.8C2 4.8353 6.8353 0 12.8 0C18.7647 0 23.6 4.8353 23.6 10.8C23.6 15.0189 21.1812 18.6712 17.6569 20.4487L17.2499 25.3333C17.1675 26.3215 16.3415 27.0812 15.3502 27.0812H10.2504C9.25924 27.0812 8.43304 26.3216 8.35074 25.3333L7.94366 20.449C4.41903 18.6716 2 15.0191 2 10.8ZM10.5554 20.9335L10.8542 24.5187H14.7464L15.0451 20.9335H10.5554Z" fill="url(#paint0_linear_2912_6308)"/>
<path id="&#194;&#165;" d="M16.2998 6.4668L14.045 10.0562H15.6699V11.0788H13.7094V11.962H15.6699V12.9846H13.7094V14.4668H11.8549V12.9846H9.82966V11.962H11.8549V11.0788H9.82966V10.0562H11.4899L9.2998 6.4668H11.2544L12.8557 9.68436H12.8793C12.9303 9.56385 13.0108 9.38997 13.1207 9.16273L14.4453 6.4668H16.2998Z" fill="white"/>
<circle id="Ellipse 494" cx="20.2998" cy="20.8" r="6" fill="#FF5738" stroke="white"/>
<path id="Polygon 16" d="M20.2998 17.3L22.4649 19.55H18.1347L20.2998 17.3Z" fill="white"/>
<line id="Line 219" x1="20.4498" y1="19.3" x2="20.4498" y2="23.3" stroke="white" stroke-width="1.3"/>
</g>
</g>
<defs>
<linearGradient id="paint0_linear_2912_6308" x1="12.8" y1="0" x2="12.8" y2="27.0812" gradientUnits="userSpaceOnUse">
<stop stop-color="#FF7E66"/>
<stop offset="1" stop-color="#FF5738"/>
</linearGradient>
</defs>
</svg>
