<svg width="28" height="28" viewBox="0 0 28 28" fill="none" xmlns="http://www.w3.org/2000/svg">
<g id="Frame 4221" clip-path="url(#clip0_4111_10222)">
<g id="Frame 2551(6)">
<rect id="Rectangle 34624141" x="2" y="3" width="23" height="24" fill="#BFFDD8"/>
<path id="Rectangle 2480" d="M1 2C1 0.895431 1.89543 0 3 0H24C25.1046 0 26 0.895431 26 2V19L14.5 28H3C1.89543 28 1 27.1046 1 26V2Z" fill="#00C387"/>
<path id="Star 12" d="M13.3132 5.48898C13.3787 5.31749 13.6213 5.31749 13.6868 5.48898L15.3315 9.79345C15.3597 9.86745 15.429 9.91779 15.5081 9.92181L20.1101 10.1558C20.2935 10.1651 20.3685 10.3959 20.2256 10.5112L16.64 13.4055C16.5784 13.4552 16.5519 13.5367 16.5726 13.6131L17.7721 18.0622C17.8199 18.2395 17.6236 18.3821 17.4698 18.2818L13.6092 15.7662C13.5428 15.7229 13.4572 15.7229 13.3908 15.7662L9.53017 18.2818C9.37637 18.3821 9.18009 18.2395 9.22788 18.0622L10.4274 13.6131C10.4481 13.5367 10.4216 13.4552 10.36 13.4055L6.77439 10.5112C6.63154 10.3959 6.70651 10.1651 6.88986 10.1558L11.4919 9.92181C11.571 9.91779 11.6403 9.86745 11.6685 9.79345L13.3132 5.48898Z" fill="white"/>
</g>
</g>
<defs>
<clipPath id="clip0_4111_10222">
<rect width="28" height="28" fill="white"/>
</clipPath>
</defs>
</svg>
