<svg width="28" height="28" viewBox="0 0 28 28" fill="none" xmlns="http://www.w3.org/2000/svg">
<g id="Frame 4221">
<g id="Frame 2551(6)">
<path id="Rectangle 2480" d="M2.5 3C2.5 1.89543 3.39543 1 4.5 1H23.5C24.6046 1 25.5 1.89543 25.5 3V25C25.5 26.1046 24.6046 27 23.5 27H10.32H4.5C3.39543 27 2.5 26.1046 2.5 25V3Z" fill="#00C387"/>
<path id="Rectangle 825" d="M20.9642 6.8999H7.03564V8.0999H20.9642V6.8999Z" fill="white"/>
<path id="Rectangle 827" d="M20.9642 12.8999H7.03564V14.0999H20.9642V12.8999Z" fill="white"/>
<path id="Rectangle 827_2" d="M20.9642 18.8999H7.03564V20.0999H20.9642V18.8999Z" fill="white"/>
<circle id="Ellipse 497" cx="12.9644" cy="19.5" r="1.5" fill="white"/>
<circle id="Ellipse 497_2" cx="10.9644" cy="7.5" r="1.5" fill="white"/>
<circle id="Ellipse 497_3" cx="18.4019" cy="13.5" r="1.5" fill="white"/>
</g>
</g>
</svg>
