<svg width="28" height="28" viewBox="0 0 28 28" fill="none" xmlns="http://www.w3.org/2000/svg">
<g id="Frame 4219">
<g id="Group 4278">
<rect id="Rectangle 2469" x="3" y="4" width="22" height="24" rx="1" fill="#F58E24"/>
<path id="Rectangle 2470" d="M7 3.78521C7 3.34338 7.35817 2.98521 7.8 2.98521H9.7C10.1418 2.98521 10.5 2.62703 10.5 2.18521V1.3C10.5 0.858172 10.8582 0.5 11.3 0.5H16.7C17.1418 0.5 17.5 0.858172 17.5 1.3V2.18521C17.5 2.62703 17.8582 2.98521 18.3 2.98521H20.2C20.6418 2.98521 21 3.34338 21 3.78521V6.16154C21 6.60337 20.6418 6.96154 20.2 6.96154H7.8C7.35817 6.96154 7 6.60337 7 6.16154V3.78521Z" fill="#FDE4BF"/>
<path id="&#194;&#165;" d="M23 16L20.423 20.0381H22.2801V21.1885H20.0395V22.1821H22.2801V23.3325H20.0395V25H17.9201V23.3325H15.6056V22.1821H17.9201V21.1885H15.6056V20.0381H17.5029L15 16H17.2338L19.0639 19.6198H19.0908C19.1491 19.4842 19.2411 19.2886 19.3667 19.0329L20.8806 16H23Z" fill="white"/>
</g>
<path id="Rectangle 825" d="M15.2244 10H6.24414V11.6406H15.2244V10Z" fill="white"/>
<path id="Rectangle 827" d="M12.1027 15.7422H6.24414V17.3828H12.1027V15.7422Z" fill="#FDE4BF"/>
</g>
</svg>
