<svg width="14" height="14" viewBox="0 0 14 14" fill="none" xmlns="http://www.w3.org/2000/svg">
<g id="Frame 3056" clip-path="url(#clip0_2272_7044)">
<path id="Vector 929" d="M7 11C7 9.16667 7 11.7 7 10.5C7 9.11936 6.57641 7.31512 3 7.03673" stroke="#002851" stroke-linecap="round" stroke-linejoin="round"/>
<path id="Vector 931" d="M7 10C7 8.16667 7 10.7 7 9.5C7 8.11936 7.42359 6.31512 11 6.03673" stroke="#002851" stroke-linecap="round" stroke-linejoin="round"/>
<path id="Vector 930" d="M7 10C7 8.16667 7 7.7 7 6.5C7 5.11936 6.57641 3.31512 3 3.03673" stroke="#002851" stroke-linecap="round" stroke-linejoin="round"/>
<path id="Vector 932" d="M7 9C7 7.16667 7 6.7 7 5.5C7 4.11936 7.42359 2.31512 11 2.03673" stroke="#002851" stroke-linecap="round" stroke-linejoin="round"/>
<circle id="Ellipse 404" cx="1" cy="1" r="1" transform="matrix(-1 0 0 1 3 6)" stroke="#002851" stroke-linecap="round" stroke-linejoin="round"/>
<circle id="Ellipse 409" cx="12" cy="6" r="1" stroke="#002851" stroke-linecap="round" stroke-linejoin="round"/>
<circle id="Ellipse 408" cx="1" cy="1" r="1" transform="matrix(-1 0 0 1 3 2)" stroke="#002851" stroke-linecap="round" stroke-linejoin="round"/>
<circle id="Ellipse 410" cx="12" cy="2" r="1" stroke="#002851" stroke-linecap="round" stroke-linejoin="round"/>
<circle id="Ellipse 407" cx="7" cy="12.5" r="1" stroke="#002851" stroke-linecap="round" stroke-linejoin="round"/>
</g>
<defs>
<clipPath id="clip0_2272_7044">
<rect width="14" height="14" fill="white"/>
</clipPath>
</defs>
</svg>
