<svg width="28" height="28" viewBox="0 0 28 28" fill="none" xmlns="http://www.w3.org/2000/svg">
<g id="Frame 4217">
<g id="Group 427318764">
<path id="Vector 1168" d="M26 24.1429V1H10C6.68629 1 4 3.68629 4 7V26C4 27.1046 4.89087 28 5.99543 28H22.1436C24.2738 28 26 26.2731 26 24.1429Z" fill="#1F79FF"/>
<g id="Group">
<path id="Vector" d="M16.8574 17.3704L21.3345 22.0132" stroke="white" stroke-width="2" stroke-linecap="square" stroke-linejoin="round"/>
<path id="Vector_2" d="M16.8574 22.0132L21.3345 17.3704" stroke="white" stroke-width="2" stroke-linecap="square" stroke-linejoin="round"/>
</g>
<path id="Rectangle 34624128" d="M1 24H18.5769C18.3314 25.2158 18.8262 26.462 19.8387 27.1784L21 28H5C2.79086 28 1 26.2091 1 24Z" fill="#7FABF7"/>
</g>
<rect id="Rectangle 34624129" x="9" y="7" width="12" height="2" fill="white"/>
<rect id="Rectangle 34624130" x="9" y="13" width="9" height="2" fill="#7FABF7"/>
</g>
</svg>
