<svg width="28" height="28" viewBox="0 0 28 28" fill="none" xmlns="http://www.w3.org/2000/svg">
<g id="Frame 4227">
<g id="Frame 2551(6)">
<path id="Rectangle 794" d="M23.7497 2.40625H15.7637L21.5902 9.0625L23.7497 11.5469V2.40625Z" fill="#BFDAFD"/>
<path id="Rectangle 828" d="M14.5625 1H2V27H26V1H14.5625Z" fill="#00C387"/>
<path id="Rectangle 825" d="M25 7H3V9H25V7Z" fill="white"/>
<path id="Rectangle 827" d="M10.8586 3H5V5H10.8586V3Z" fill="white"/>
<path id="Rectangle 830" d="M6 16H4V18H6V16Z" fill="#96E3C4"/>
<path id="Rectangle 832" d="M6 11H4V13H6V11Z" fill="#96E3C4"/>
<path id="Rectangle 831" d="M6 21H4V23H6V21Z" fill="#96E3C4"/>
<path id="Rectangle 829" d="M16 3H13V5H16V3Z" fill="white"/>
</g>
<path id="Vector" d="M18.8692 14H13.25C12.5 14 11 14.3813 11 15.9867C11 17.592 12.5 17.9963 13.25 17.9963H19.7983C20.5483 17.9963 22 18.3886 22 19.994C22 21.5993 20.5483 22 19.7983 22H12.7769" stroke="white" stroke-width="1.6" stroke-linejoin="round"/>
<circle id="Ellipse 495" cx="21" cy="14" r="2" stroke="white" stroke-width="1.6" stroke-linejoin="round"/>
<circle id="Ellipse 496" cx="11" cy="22" r="2" stroke="white" stroke-width="1.6" stroke-linejoin="round"/>
</g>
</svg>
