<svg width="28" height="28" viewBox="0 0 28 28" fill="none" xmlns="http://www.w3.org/2000/svg">
<g id="Frame 4230">
<g id="Group 4278">
<rect id="Rectangle 2469" x="3" y="3.5" width="22" height="24" rx="1" fill="#8454FD"/>
<path id="Rectangle 2470" d="M7.23047 3.78521C7.23047 3.34338 7.58864 2.98521 8.03047 2.98521H9.93047C10.3723 2.98521 10.7305 2.62703 10.7305 2.18521V1.3C10.7305 0.858172 11.0886 0.5 11.5305 0.5H16.9305C17.3723 0.5 17.7305 0.858172 17.7305 1.3V2.18521C17.7305 2.62703 18.0886 2.98521 18.5305 2.98521H20.4305C20.8723 2.98521 21.2305 3.34338 21.2305 3.78521V6.16154C21.2305 6.60337 20.8723 6.96154 20.4305 6.96154H8.03047C7.58864 6.96154 7.23047 6.60337 7.23047 6.16154V3.78521Z" fill="#D4BDEC"/>
<rect id="Rectangle 2471" x="16.0625" y="11" width="6.9375" height="1.6" fill="#D4BDEC"/>
<rect id="Rectangle 2473" x="5" y="21" width="18" height="1.6" fill="#D4BDEC"/>
<rect id="Rectangle 2472" x="16.0625" y="16" width="4.33594" height="1.6" fill="#D4BDEC"/>
<path id="Vector" d="M11.0077 10.4807H7.43181C6.95455 10.4807 6 10.8144 6 12.219C6 13.6237 6.95455 13.9775 7.43181 13.9775H11.5989C12.0762 13.9775 13 14.3207 13 15.7254C13 17.1301 12.0762 17.4807 11.5989 17.4807H7.13077" stroke="white" stroke-width="1.6" stroke-linejoin="round"/>
<circle id="Ellipse 495" cx="11.5" cy="10.4807" r="1.5" fill="white"/>
<circle id="Ellipse 496" cx="6.5" cy="17.4807" r="1.5" fill="white"/>
</g>
</g>
</svg>
