<?xml version="1.0" standalone="no"?><!DOCTYPE svg PUBLIC "-//W3C//DTD SVG 1.1//EN" "http://www.w3.org/Graphics/SVG/1.1/DTD/svg11.dtd"><svg class="icon" width="200px" height="200.00px" viewBox="0 0 1024 1024" version="1.1" xmlns="http://www.w3.org/2000/svg"><path d="M941.696 832H155.392V118.976a9.152 9.152 0 0 0-9.152-9.152h-64a9.152 9.152 0 0 0-9.088 9.152v786.24c0 5.056 4.096 9.152 9.088 9.152h859.456a9.152 9.152 0 0 0 9.152-9.152v-64a9.152 9.152 0 0 0-9.152-9.088zM256 740.672h64a9.152 9.152 0 0 0 9.152-9.152V566.912A9.152 9.152 0 0 0 320 557.76H256a9.152 9.152 0 0 0-9.152 9.152v164.544c0 5.056 4.096 9.152 9.152 9.152z m173.696 0h64a9.152 9.152 0 0 0 9.152-9.152V365.76a9.152 9.152 0 0 0-9.152-9.152h-64a9.152 9.152 0 0 0-9.152 9.152v365.696c0 5.056 4.096 9.152 9.152 9.152z m173.696 0h64a9.152 9.152 0 0 0 9.152-9.152V454.912a9.152 9.152 0 0 0-9.152-9.152h-64a9.152 9.152 0 0 0-9.152 9.152v276.544c0 5.056 4.16 9.152 9.152 9.152z m173.76 0h64a9.152 9.152 0 0 0 9.088-9.152V274.304a9.152 9.152 0 0 0-9.088-9.152h-64a9.152 9.152 0 0 0-9.152 9.152v457.152c0 5.056 4.096 9.152 9.152 9.152z" fill="#002851" /></svg>