<svg width="20" height="20" viewBox="0 0 20 20" fill="none" xmlns="http://www.w3.org/2000/svg">
<g id="&#231;&#187;&#132;&#228;&#187;&#182;&#231;&#174;&#161;&#231;&#144;&#134;" clip-path="url(#clip0_5027_7881)">
<g id="Group 427318823">
<path id="Rectangle 2076" d="M0.6 0.6H5C6.87777 0.6 8.4 2.12223 8.4 4V8.4H4C2.12223 8.4 0.6 6.87777 0.6 5V0.6Z" stroke="#5C6677" stroke-width="1.2"/>
<path id="Rectangle 2078" d="M0.6 19.4H5C6.87777 19.4 8.4 17.8778 8.4 16V11.6H4C2.12223 11.6 0.6 13.1222 0.6 15V19.4Z" stroke="#5C6677" stroke-width="1.2"/>
<path id="Rectangle 2077" d="M19.4 0.6H15C13.1222 0.6 11.6 2.12223 11.6 4V8.4H16C17.8778 8.4 19.4 6.87777 19.4 5V0.6Z" stroke="#5C6677" stroke-width="1.2"/>
<path id="Rectangle 2079" d="M19.4 19.4H15C13.1222 19.4 11.6 17.8778 11.6 16V11.6H16C17.8778 11.6 19.4 13.1222 19.4 15V19.4Z" stroke="#5C6677" stroke-width="1.2"/>
</g>
</g>
<defs>
<clipPath id="clip0_5027_7881">
<rect width="20" height="20" fill="white"/>
</clipPath>
</defs>
</svg>
