<?xml version="1.0" standalone="no"?><!DOCTYPE svg PUBLIC "-//W3C//DTD SVG 1.1//EN" "http://www.w3.org/Graphics/SVG/1.1/DTD/svg11.dtd"><svg class="icon" width="200px" height="200.00px" viewBox="0 0 1024 1024" version="1.1" xmlns="http://www.w3.org/2000/svg"><path d="M707.047619 536.380952h-438.857143a24.380952 24.380952 0 0 1 0-48.761904h438.857143a24.380952 24.380952 0 0 1 0 48.761904zM268.190476 877.714286h-146.285714a24.380952 24.380952 0 0 1-24.380952-24.380953v-682.666666A24.380952 24.380952 0 0 1 121.904762 146.285714h146.285714a24.380952 24.380952 0 0 1 24.380953 24.380953v682.666666a24.380952 24.380952 0 0 1-24.380953 24.380953zM146.285714 828.952381h97.52381V195.047619H146.285714zM682.666667 926.47619a23.893333 23.893333 0 0 1-15.60381-5.851428l-170.666667-146.285714A23.405714 23.405714 0 0 1 487.619048 755.809524v-487.619048a25.35619 25.35619 0 0 1 8.289523-18.529524l170.666667-146.285714a24.868571 24.868571 0 0 1 34.620952 0 24.868571 24.868571 0 0 1-2.438095 34.620952L536.380952 279.893333v464.700953l162.377143 138.971428a24.868571 24.868571 0 0 1 2.438095 34.620953 25.35619 25.35619 0 0 1-18.529523 8.289523zM902.095238 1024h-195.047619a24.380952 24.380952 0 0 1-24.380952-24.380952v-195.047619a24.380952 24.380952 0 0 1 24.380952-24.380953h195.047619a24.380952 24.380952 0 0 1 24.380952 24.380953v195.047619a24.380952 24.380952 0 0 1-24.380952 24.380952zM731.428571 975.238095h146.285715v-146.285714h-146.285715zM902.095238 633.904762h-195.047619a24.380952 24.380952 0 0 1-24.380952-24.380952v-195.04762a24.380952 24.380952 0 0 1 24.380952-24.380952h195.047619a24.380952 24.380952 0 0 1 24.380952 24.380952v195.04762a24.380952 24.380952 0 0 1-24.380952 24.380952zM731.428571 585.142857h146.285715V438.857143h-146.285715zM902.095238 243.809524h-195.047619a24.380952 24.380952 0 0 1-24.380952-24.380953v-195.047619a24.380952 24.380952 0 0 1 24.380952-24.380952h195.047619a24.380952 24.380952 0 0 1 24.380952 24.380952v195.047619a24.380952 24.380952 0 0 1-24.380952 24.380953zM731.428571 195.047619h146.285715V48.761905h-146.285715z" /></svg>