<svg width="28" height="28" viewBox="0 0 28 28" fill="none" xmlns="http://www.w3.org/2000/svg">
<g id="Frame 4225">
<g id="Group 4278">
<rect id="Rectangle 2469" x="3" y="4" width="22" height="24" rx="1" fill="#1F79FF"/>
<path id="Rectangle 2470" d="M7.23096 4.28521C7.23096 3.84338 7.58913 3.48521 8.03096 3.48521H9.93096C10.3728 3.48521 10.731 3.12703 10.731 2.68521V1.8C10.731 1.35817 11.0891 1 11.531 1H16.931C17.3728 1 17.731 1.35817 17.731 1.8V2.68521C17.731 3.12703 18.0891 3.48521 18.531 3.48521H20.431C20.8728 3.48521 21.231 3.84338 21.231 4.28521V6.66154C21.231 7.10337 20.8728 7.46154 20.431 7.46154H8.03096C7.58913 7.46154 7.23096 7.10337 7.23096 6.66154V4.28521Z" fill="#98C0FE"/>
<path id="&#194;&#165;" d="M18 12L15.423 16.0381H17.2801V17.1885H15.0395V18.1821H17.2801V19.3325H15.0395V21H12.9201V19.3325H10.6056V18.1821H12.9201V17.1885H10.6056V16.0381H12.5029L10 12H12.2338L14.0639 15.6198H14.0908C14.1491 15.4842 14.2411 15.2886 14.3667 15.0329L15.8806 12H18Z" fill="white"/>
</g>
</g>
</svg>
