<svg width="28" height="28" viewBox="0 0 28 28" fill="none" xmlns="http://www.w3.org/2000/svg">
<g id="Frame 4221">
<path id="Rectangle 34624146" d="M3 1H19L25 8V27H3V1Z" fill="#1F79FF"/>
<path id="Rectangle 34624147" d="M19 1L25 8H19V1Z" fill="#99C1FF"/>
<path id="Star 13" d="M13.8111 8.54348C13.8733 8.36437 14.1267 8.36437 14.1889 8.54348L15.6001 12.6033C15.6276 12.6823 15.7013 12.7359 15.7849 12.7376L20.0821 12.8252C20.2717 12.829 20.35 13.0699 20.1989 13.1845L16.7739 15.7812C16.7072 15.8317 16.679 15.9184 16.7033 15.9985L17.9479 20.1124C18.0028 20.2939 17.7979 20.4428 17.6422 20.3345L14.1142 17.8795C14.0456 17.8317 13.9544 17.8317 13.8858 17.8795L10.3578 20.3345C10.2021 20.4428 9.99721 20.2939 10.0521 20.1124L11.2967 15.9985C11.321 15.9184 11.2928 15.8317 11.2261 15.7812L7.80111 13.1845C7.65 13.0699 7.72827 12.829 7.91786 12.8252L12.2151 12.7376C12.2987 12.7359 12.3724 12.6823 12.3999 12.6033L13.8111 8.54348Z" fill="white"/>
</g>
</svg>
