<svg width="28" height="28" viewBox="0 0 28 28" fill="none" xmlns="http://www.w3.org/2000/svg">
<g id="Frame 4214" clip-path="url(#clip0_4100_8883)">
<g id="Frame">
<path id="Vector" d="M4 21.2V24C4 25.1046 4.89543 26 6 26H23C24.1046 26 25 25.1046 25 24V4C25 2.89543 24.1046 2 23 2H6C4.89543 2 4 2.89543 4 4V6.8" fill="#1F79FF"/>
<path id="Vector_2" d="M3.5 20H5.83333" stroke="#7FABF7" stroke-width="2" stroke-linecap="square" stroke-linejoin="round"/>
<path id="Vector_3" d="M3.5 15H5.83333" stroke="#7FABF7" stroke-width="2" stroke-linecap="square" stroke-linejoin="round"/>
<path id="Vector_4" d="M3.5 10H5.83333" stroke="#7FABF7" stroke-width="2" stroke-linecap="square" stroke-linejoin="round"/>
<path id="Vector_5" d="M15 13C16.6569 13 18 11.6569 18 10C18 8.34315 16.6569 7 15 7C13.3431 7 12 8.34315 12 10C12 11.6569 13.3431 13 15 13Z" fill="white"/>
<path id="Vector_6" d="M21 21C21 17.6863 18.3137 15 15 15C11.6863 15 9 17.6863 9 21" fill="white"/>
</g>
</g>
<defs>
<clipPath id="clip0_4100_8883">
<rect width="28" height="28" fill="white"/>
</clipPath>
</defs>
</svg>
