<svg width="28" height="28" viewBox="0 0 28 28" fill="none" xmlns="http://www.w3.org/2000/svg">
<g id="Frame 4228">
<g id="Frame 2551(6)">
<path id="Rectangle 794" d="M23.7497 2.40625H15.7637L21.5902 9.0625L23.7497 11.5469V2.40625Z" fill="#D4BDEC"/>
<path id="Rectangle 828" d="M14.5226 1H2.85742V27H25.1431V11.3102L14.5226 1Z" fill="#8454FD"/>
<path id="Rectangle 825" d="M16.2244 7H7.24414V8.64062H16.2244V7Z" fill="white"/>
<path id="Rectangle 827" d="M13.1027 12.7422H7.24414V14.3828H13.1027V12.7422Z" fill="white"/>
</g>
<path id="Vector" d="M14.509 22.9171L12.083 20.4912L18.7887 13.7854L21.2147 16.2113L14.509 22.9171ZM22.7783 13.5105L21.4895 12.2218C21.1755 11.9077 20.6442 11.9299 20.3028 12.2713L19.092 13.4821L21.518 15.908L22.7288 14.6973C23.07 14.3558 23.0923 13.8245 22.7783 13.5105ZM11.8577 20.8728L11 24L14.1268 23.1423L11.8577 20.8728Z" fill="white"/>
</g>
</svg>
