<svg width="28" height="28" viewBox="0 0 28 28" fill="none" xmlns="http://www.w3.org/2000/svg">
<g id="Frame 4221">
<path id="Rectangle 34624146" d="M3 1H19L25 8V27H3V1Z" fill="#1F79FF"/>
<path id="Rectangle 830" d="M10 7H7V9H10V7Z" fill="white"/>
<path id="Rectangle 34624149" d="M10 11H7V13H10V11Z" fill="#8FBCFF"/>
<path id="Rectangle 34624148" d="M21 7H12V9H21V7Z" fill="white"/>
<path id="Rectangle 34624150" d="M21 11H12V13H21V11Z" fill="#8FBCFF"/>
<path id="Rectangle 34624147" d="M19 1L25 8H19V1Z" fill="#99C1FF"/>
<g id="Group">
<path id="Vector" d="M21.9168 24.1498C21.925 24.0165 21.925 23.8829 21.9168 23.7498C21.9165 22.3456 21.1319 21.0593 19.8836 20.4165C21.5679 19.5486 22.3403 17.5606 21.6835 15.7833C21.753 15.7503 21.8117 15.6984 21.853 15.6336C21.8943 15.5687 21.9164 15.4935 21.9168 15.4166C21.9168 15.3061 21.8729 15.2002 21.7947 15.122C21.756 15.0833 21.7101 15.0526 21.6596 15.0317C21.609 15.0107 21.5548 15 21.5001 15H14.8336C14.6035 15 14.4169 15.1866 14.4169 15.4166C14.4157 15.4949 14.4371 15.5719 14.4785 15.6384C14.5199 15.7049 14.5795 15.7581 14.6503 15.7916C13.9984 17.5666 14.77 19.5492 16.4502 20.4165C15.2019 21.0593 14.4172 22.3456 14.417 23.7498C14.4087 23.883 14.4087 24.0166 14.417 24.1498C14.3035 24.1497 14.1949 24.1958 14.1163 24.2776C14.0774 24.3181 14.0471 24.366 14.0272 24.4185C14.0072 24.471 13.9981 24.5269 14.0003 24.583C14.0003 24.8131 14.1869 24.9997 14.417 24.9997H21.9002C22.0136 25.0043 22.1238 24.9624 22.2056 24.8836C22.2461 24.8447 22.2783 24.798 22.3002 24.7464C22.3222 24.6947 22.3335 24.6392 22.3335 24.583C22.3357 24.5269 22.3266 24.4709 22.3067 24.4185C22.2867 24.366 22.2564 24.3181 22.2174 24.2776C22.1785 24.2372 22.1318 24.205 22.0802 24.183C22.0285 24.161 21.973 24.1497 21.9168 24.1498ZM15.2502 17.0833C15.25 16.6507 15.3469 16.2235 15.5335 15.8333H20.8001C21.3154 16.9153 21.1162 18.2024 20.2981 19.0782C19.48 19.954 18.2094 20.2401 17.0948 19.7996C15.9803 19.3592 15.2486 18.2817 15.2502 17.0833ZM21.0835 24.1498H15.2753C15.2667 24.0165 15.2667 23.8829 15.2753 23.7498C15.2753 22.139 16.5811 20.8331 18.1919 20.8331C19.8027 20.8331 21.1085 22.139 21.1085 23.7498C21.1005 23.8841 21.0838 24.0177 21.0585 24.1498H21.0835ZM20.3168 18.3665H16.0169C16.4673 19.1254 17.2843 19.5908 18.1668 19.5908C19.0493 19.5908 19.8665 19.1255 20.3168 18.3665Z" fill="white"/>
</g>
</g>
</svg>
