<svg width="28" height="28" viewBox="0 0 28 28" fill="none" xmlns="http://www.w3.org/2000/svg">
<g id="Frame 4228">
<g id="Frame 2551(6)">
<path id="Rectangle 794" d="M23.7497 2.40625H15.7637L21.5902 9.0625L23.7497 11.5469V2.40625Z" fill="#BFFDD8"/>
<path id="Rectangle 828" d="M14.5226 1H2.85742V27H25.1431V11.3102L14.5226 1Z" fill="#00C387"/>
<path id="Rectangle 825" d="M16.2244 6.99976H7.24414V8.64038H16.2244V6.99976Z" fill="white"/>
<path id="Rectangle 827" d="M13.1027 12.7419H7.24414V14.3826H13.1027V12.7419Z" fill="#BFFDD8"/>
<g id="Frame" clip-path="url(#clip0_4145_8809)">
<path id="Vector" fill-rule="evenodd" clip-rule="evenodd" d="M16 18V16.75L19.75 13L21 14.25L17.25 18H16Z" stroke="white" stroke-width="1.2" stroke-linecap="square" stroke-linejoin="round"/>
<path id="Vector_2" d="M14 18H12.25C11.5596 18 11 18.5597 11 19.25C11 19.9404 11.5596 20.5 12.25 20.5H19.75C20.4404 20.5 21 21.0597 21 21.75C21 22.4404 20.4404 23 19.75 23H14.5" stroke="white" stroke-width="1.2" stroke-linecap="square" stroke-linejoin="round"/>
</g>
</g>
</g>
<defs>
<clipPath id="clip0_4145_8809">
<rect width="12" height="12" fill="white" transform="translate(10 12)"/>
</clipPath>
</defs>
</svg>
