<svg width="28" height="28" viewBox="0 0 28 28" fill="none" xmlns="http://www.w3.org/2000/svg">
<g id="Frame 4227">
<g id="Frame 2551(6)" clip-path="url(#clip0_2922_6503)">
<path id="Rectangle 794" d="M23.7502 2.40625H15.7642L21.5906 9.0625L23.7502 11.5469V2.40625Z" fill="#BFDAFD"/>
<path id="Rectangle 828" d="M14.5282 1H2.7334V31H25.2667V1H14.5282Z" fill="#00C387"/>
<path id="Rectangle 825" d="M21 7H7V9H21V7Z" fill="white"/>
<path id="Rectangle 825_2" d="M14 12H7V14H14V12Z" fill="white"/>
<path id="Vector (Stroke)" fill-rule="evenodd" clip-rule="evenodd" d="M20.847 18.9501L17.7817 22.3985C17.6678 22.5266 17.5046 22.5999 17.3332 22.5999C17.1618 22.5999 16.9986 22.5266 16.8848 22.3985L15.1528 20.4501L16.0497 19.6528L17.3332 21.0968L19.9501 18.1528L20.847 18.9501Z" fill="white"/>
<path id="Ellipse 498 (Stroke)" fill-rule="evenodd" clip-rule="evenodd" d="M18 24C20.2091 24 22 22.2091 22 20C22 17.7909 20.2091 16 18 16C15.7909 16 14 17.7909 14 20C14 22.2091 15.7909 24 18 24ZM18 25C20.7614 25 23 22.7614 23 20C23 17.2386 20.7614 15 18 15C15.2386 15 13 17.2386 13 20C13 22.7614 15.2386 25 18 25Z" fill="white"/>
</g>
</g>
<defs>
<clipPath id="clip0_2922_6503">
<rect width="26" height="26" fill="white" transform="translate(1 1)"/>
</clipPath>
</defs>
</svg>
