<svg width="28" height="28" viewBox="0 0 28 28" fill="none" xmlns="http://www.w3.org/2000/svg">
<g id="Frame">
<g id="Group 427318775">
<path id="Vector" d="M27 19.96V3.2825C27 2.573 26.419 2 25.7 2H2.3C1.581 2 1 2.573 1 3.283V19.9595C1 20.6695 1.581 21.2425 2.3 21.2425H12.7V23.0265C12.7 23.1145 12.627 23.1865 12.5375 23.1865H8.15C7.7925 23.1865 7.5 23.4755 7.5 23.8285V25.111H20.5V23.8285C20.5 23.4755 20.2075 23.187 19.85 23.187H15.4625C15.4197 23.1871 15.3786 23.1703 15.3482 23.1403C15.3177 23.1102 15.3004 23.0693 15.3 23.0265V21.2425H25.7C26.419 21.2425 27 20.6695 27 19.9595V19.96Z" fill="#8454FD"/>
<path id="Vector_2" d="M16.5542 10.8493V9.29234H14.9852L17.6112 6.71234L16.4907 5.61084L14.0002 8.05784L11.5092 5.61084L10.3887 6.71184L13.0147 9.29184H11.4457V10.8498H13.2072V12.1043H11.3487V13.6613H13.2072V14.9998H14.7922V13.6608H16.4562V12.1038H14.7922V10.8488H16.5537L16.5542 10.8493Z" fill="white"/>
<path id="Vector_3" d="M1 17.8892V19.9597C1 20.6697 1.581 21.2427 2.3 21.2427H25.7C26.419 21.2427 27 20.6697 27 19.9597V17.8892H1ZM15.3 21.2427H12.7V23.0267C12.7 23.1147 12.627 23.1867 12.5375 23.1867H8.15C7.7925 23.1867 7.5 23.4757 7.5 23.8287V25.1112H20.5V23.8282C20.5 23.4757 20.2075 23.1872 19.85 23.1872H15.4625C15.4197 23.1873 15.3786 23.1705 15.3482 23.1404C15.3177 23.1103 15.3004 23.0695 15.3 23.0267V21.2427Z" fill="#C7B0FF"/>
</g>
</g>
</svg>
