<?xml version="1.0" standalone="no"?><!DOCTYPE svg PUBLIC "-//W3C//DTD SVG 1.1//EN" "http://www.w3.org/Graphics/SVG/1.1/DTD/svg11.dtd"><svg t="1672881279306" class="icon" viewBox="0 0 1024 1024" version="1.1" xmlns="http://www.w3.org/2000/svg" p-id="3053" xmlns:xlink="http://www.w3.org/1999/xlink" width="200" height="200"><path d="M615.8336 384H412.16A53.7088 53.7088 0 0 1 358.4 330.3424V126.6688a53.7088 53.7088 0 0 1 53.76-53.6064h203.6736a53.7088 53.7088 0 0 1 53.6064 53.6064v203.6736A53.7088 53.7088 0 0 1 615.8336 384zM414.72 327.68h198.2464V129.3824H414.72zM271.0528 870.4h-194.56a58.0096 58.0096 0 0 1-50.2272-87.04l97.28-168.96a57.9584 57.9584 0 0 1 100.4032 0l97.28 168.96a58.0096 58.0096 0 0 1-50.2272 87.04z m-97.28-228.4032a1.3824 1.3824 0 0 0-1.4336 0.8192l-97.28 168.96a1.3312 1.3312 0 0 0 0 1.6896 1.4336 1.4336 0 0 0 1.4336 0.8192h194.56a1.4336 1.4336 0 0 0 1.4336-0.8192 1.3312 1.3312 0 0 0 0-1.6896l-97.28-168.96a1.4848 1.4848 0 0 0-1.536-1.024zM855.7568 883.3024a155.4944 155.4944 0 1 1 155.4432-155.4432 155.648 155.648 0 0 1-155.4432 155.4432z m0-254.6176a99.1744 99.1744 0 1 0 99.1232 99.1744 99.2256 99.2256 0 0 0-99.1232-99.1744zM515.7376 957.0816a388.1472 388.1472 0 0 1-152.7296-31.488 28.16 28.16 0 1 1 22.1184-51.8144 328.2944 328.2944 0 0 0 288.768-13.824 28.16 28.16 0 0 1 27.0848 49.408 384.9728 384.9728 0 0 1-185.2416 47.7184zM867.072 528.0256A28.16 28.16 0 0 1 839.68 505.344a331.6736 331.6736 0 0 0-97.792-176.0256 28.16 28.16 0 0 1 38.656-40.96 390.656 390.656 0 0 1 54.784 64.4096 383.5904 383.5904 0 0 1 59.392 141.6192 28.1088 28.1088 0 0 1-22.1184 33.1264 28.928 28.928 0 0 1-5.5296 0.512zM160.512 546.048a28.2112 28.2112 0 0 1-27.904-32.256A385.9456 385.9456 0 0 1 263.936 275.968a28.16 28.16 0 1 1 36.5568 42.8544A329.9328 329.9328 0 0 0 188.3136 522.24a28.1088 28.1088 0 0 1-27.8016 23.808z" p-id="3054"></path></svg>