<svg width="28" height="28" viewBox="0 0 28 28" fill="none" xmlns="http://www.w3.org/2000/svg">
<g id="Frame 4230">
<g id="Frame 2551(6)" clip-path="url(#clip0_4121_1823)">
<path id="Rectangle 794" d="M23.7497 2.40625H15.7637L21.5902 9.0625L23.7497 11.5469V2.40625Z" fill="#96E3C4"/>
<path id="Rectangle 828" d="M14.5226 1H2.85742V29H25.1431V11.3102L14.5226 1Z" fill="#00C387"/>
<path id="Rectangle 825" d="M16.2234 6.99976H7.24316V8.64038H16.2234V6.99976Z" fill="white"/>
<path id="Rectangle 827" d="M13.1017 12.7419H7.24316V14.3826H13.1017V12.7419Z" fill="white"/>
</g>
<path id="Vector" d="M15.7173 15.911L15.7173 15.911L15.5851 16.3294L15.5851 16.3294L15.0534 18.0168L15.0534 18.0168C15.0212 18.1187 14.8902 18.1476 14.8174 18.0698L14.8176 18.0699L14.8904 18.0014L14.8171 18.0694L15.7173 15.911ZM15.7173 15.911L15.7176 15.91C15.7492 15.8063 15.6568 15.7099 15.5532 15.7335L15.7173 15.911ZM13.7468 16.9921L13.747 16.9918C13.7609 16.972 13.7593 16.9433 13.7412 16.9241L13.7411 16.924L13.2968 16.4508L13.2964 16.4504L13.2964 16.4504C13.2198 16.3678 13.2685 16.2433 13.3682 16.2204L13.3689 16.2203L13.3689 16.2203L14.81 15.8996L14.8101 15.8996L15.5529 15.7335L13.7468 16.9921ZM13.7468 16.9921C13.2128 17.761 12.9 18.691 12.9 19.6927C12.9 20.8533 13.3194 21.918 14.0167 22.7467L13.7468 16.9921ZM19.3789 15.9444C18.871 15.7332 18.3294 15.6257 17.7708 15.6257C17.3613 15.6257 16.9607 15.6834 16.5761 15.7978C16.424 15.8427 16.261 15.7694 16.1954 15.6267C16.1169 15.4546 16.2093 15.2532 16.3932 15.1994M19.3789 15.9444L19.3405 16.0367M19.3789 15.9444L19.3405 16.0367C19.3405 16.0367 19.3405 16.0367 19.3405 16.0367M19.3789 15.9444C19.8719 16.1497 20.3142 16.443 20.6939 16.8165C20.9712 17.0902 21.2057 17.3952 21.3926 17.7296L21.2642 17.861M19.3405 16.0367C18.8449 15.8307 18.3163 15.7257 17.7708 15.7257C17.3707 15.7257 16.9798 15.782 16.6046 15.8936L16.6045 15.8937C16.4054 15.9525 16.1912 15.8569 16.1046 15.6684L16.1045 15.6682C16.0004 15.4402 16.1234 15.1743 16.3649 15.1035M19.3405 16.0367C19.8217 16.2371 20.2532 16.5233 20.6237 16.8877C20.8946 17.1551 21.1233 17.4526 21.3053 17.7784L21.3054 17.7785C21.3233 17.8104 21.3056 17.8533 21.2643 17.861M16.3649 15.1035C16.3648 15.1036 16.3647 15.1036 16.3646 15.1036L16.3932 15.1994M16.3649 15.1035C16.365 15.1035 16.3651 15.1035 16.3652 15.1035L16.3932 15.1994M16.3649 15.1035C16.8094 14.9708 17.2821 14.9 17.7708 14.9C19.7184 14.9 21.3999 16.0256 22.1795 17.6522L22.0893 17.6954M16.3932 15.1994C16.8286 15.0694 17.2917 15 17.7708 15C19.6791 15 21.326 16.1028 22.0893 17.6954M22.0893 17.6954L22.1793 17.6518C22.1905 17.6749 22.217 17.6887 22.2435 17.684L22.0893 17.6954ZM21.2642 17.861L21.2823 17.9594L21.2644 17.861L21.2643 17.861M21.2642 17.861C21.2642 17.861 21.2643 17.861 21.2643 17.861M21.2642 17.861L21.2643 17.861M16.5675 25.0189L16.5671 25.0196C16.5224 25.1143 16.3909 25.1296 16.3274 25.0428L16.3272 25.0425L15.5231 23.9338L15.5231 23.9338L15.0264 23.2479C15.0263 23.2478 15.0262 23.2477 15.0262 23.2475L15.0261 23.2475L16.5675 25.0189ZM16.5675 25.0189L16.8343 24.4422C16.8344 24.4421 16.8344 24.442 16.8345 24.4418C16.8462 24.4177 16.8728 24.404 16.8993 24.4086C17.1826 24.4595 17.4737 24.4855 17.7708 24.4855C20.1016 24.4855 22.0506 22.8751 22.5289 20.7204C22.5868 20.4608 22.3871 20.2184 22.1211 20.2184C21.9262 20.2184 21.7561 20.3525 21.7126 20.5403L21.7124 20.5412C21.6601 20.7775 21.5855 21.0091 21.4886 21.234L21.4886 21.2341M16.5675 25.0189L21.4886 21.2341M17.2463 23.5534L17.4964 23.0135L20.6238 22.4957C20.2521 22.8603 19.8206 23.1474 19.3406 23.3467L19.3405 23.3468C18.8439 23.5538 18.3154 23.6588 17.7698 23.6588C17.6094 23.6588 17.4502 23.6502 17.2932 23.6321L17.2926 23.632C17.252 23.6276 17.2308 23.587 17.2463 23.5534ZM17.2463 23.5534L17.1556 23.5114L17.2463 23.5535L17.2463 23.5534ZM21.4886 21.2341C21.2851 21.7069 20.9943 22.1312 20.6239 22.4956L21.4886 21.2341ZM14.052 18.1495C14.052 18.1494 14.052 18.1494 14.052 18.1493L13.9601 18.1099L14.0519 18.1497C14.0519 18.1496 14.0519 18.1496 14.052 18.1495ZM22.9337 17.5591L22.2436 17.684L20.7324 17.9575L20.7485 18.0561L20.7307 17.9577L20.7313 17.9576C20.6254 17.9758 20.5788 18.1038 20.6504 18.1855C20.6505 18.1856 20.6506 18.1858 20.6508 18.1859L21.8249 19.5411L21.8249 19.5412L22.1042 19.8638L22.1049 19.8645C22.1734 19.9421 22.3051 19.9216 22.3415 19.8193C22.3416 19.8191 22.3417 19.8189 22.3417 19.8187L22.5959 19.1147L22.5959 19.1147L23.0918 17.7431L23.0921 17.7422C23.1271 17.6424 23.0413 17.5387 22.9347 17.559L22.9352 17.5589L22.953 17.6573L22.9337 17.5591ZM20.6939 22.567C21.0736 22.1936 21.3717 21.7585 21.5805 21.2736C21.6798 21.0429 21.7564 20.8053 21.81 20.5628L20.6939 22.567ZM15.4913 22.9934L15.4912 22.9935L17.4968 23.0128L17.4966 23.0131C17.5439 22.9122 17.4607 22.8066 17.3568 22.8165C17.3568 22.8165 17.3568 22.8165 17.3568 22.8165L15.4913 22.9934ZM17.7708 18.8542C18.2429 18.8542 18.6249 19.2323 18.6249 19.6927C18.6249 20.1531 18.2429 20.5313 17.7708 20.5313C17.2987 20.5313 16.9166 20.1531 16.9166 19.6927C16.9166 19.2323 17.2987 18.8542 17.7708 18.8542ZM17.7708 18.0285C16.8385 18.0285 16.0805 18.7717 16.0805 19.6927C16.0805 20.6138 16.8385 21.357 17.7708 21.357C18.7031 21.357 19.461 20.6138 19.461 19.6927C19.461 18.7717 18.7031 18.0285 17.7708 18.0285Z" fill="white" stroke="white" stroke-width="0.2"/>
</g>
<defs>
<clipPath id="clip0_4121_1823">
<rect width="26" height="26" fill="white" transform="translate(1 1)"/>
</clipPath>
</defs>
</svg>
