<svg width="20" height="20" viewBox="0 0 20 20" fill="none" xmlns="http://www.w3.org/2000/svg">
<g id="Frame">
<rect x="0.75" y="0.75" width="18.5" height="18.5" rx="9.25" fill="#DFDFE8"/>
<rect x="0.75" y="0.75" width="18.5" height="18.5" rx="9.25" stroke="white" stroke-width="1.5"/>
<g id="Group 4505">
<path id="Vector" d="M7.10547 6.95539V5.74002C7.10547 5.33132 7.43679 5 7.84549 5H14.259C14.6677 5 14.999 5.33132 14.999 5.74002V12.1535C14.999 12.5622 14.6677 12.8936 14.259 12.8936H13.0299" stroke="white" stroke-width="1.2" stroke-linecap="round" stroke-linejoin="round"/>
<path id="Vector_2" d="M12.1535 7.10547H5.74002C5.33132 7.10547 5 7.43679 5 7.84549V14.259C5 14.6677 5.33132 14.999 5.74002 14.999H12.1535C12.5622 14.999 12.8936 14.6677 12.8936 14.259V7.84549C12.8936 7.43679 12.5622 7.10547 12.1535 7.10547Z" stroke="white" stroke-width="1.2" stroke-linejoin="round"/>
</g>
</g>
</svg>
