<?xml version="1.0" standalone="no"?><!DOCTYPE svg PUBLIC "-//W3C//DTD SVG 1.1//EN" "http://www.w3.org/Graphics/SVG/1.1/DTD/svg11.dtd"><svg t="1674982727912" class="icon" viewBox="0 0 1391 1024" version="1.1" xmlns="http://www.w3.org/2000/svg" p-id="3006" xmlns:xlink="http://www.w3.org/1999/xlink" width="271.6796875" height="200"><path d="M938.342522 547.316797a125.817257 125.817257 0 0 1-65.041125-19.192462L607.805659 355.392168l-106.624794 20.258711a54.378645 54.378645 0 0 1-63.974876-41.58367 53.312397 53.312397 0 0 1 41.583669-62.908629l106.624795-21.324958a120.486017 120.486017 0 0 1 89.564827 15.993719l255.899506 172.732166L1173.983317 391.644598a11.728727 11.728727 0 0 0 8.529983-14.927471l-20.258711-95.962315a14.927471 14.927471 0 0 0-13.861223-9.596232l-134.347241 28.788695a120.486017 120.486017 0 0 1-89.564827-17.059967L656.853065 109.088893 65.085457 232.773655a53.312397 53.312397 0 0 1-63.974877-40.517422 54.378645 54.378645 0 0 1 41.58367-63.974877L624.865627 2.464099a119.41977 119.41977 0 0 1 89.564827 17.059967l265.495737 173.798415 142.877225-26.656199a119.41977 119.41977 0 0 1 140.744728 91.697323l20.258711 95.962315a118.353522 118.353522 0 0 1-91.697323 140.744728L960.733728 544.118054a97.028563 97.028563 0 0 1-22.391206 3.198743zM738.954156 1023.929628a116.221026 116.221026 0 0 1-65.041124-19.192463L408.417294 833.071246 265.54007 855.462453a118.353522 118.353522 0 0 1-140.744728-91.697323L107.735375 672.067807A117.287274 117.287274 0 0 1 196.233954 535.58807L427.609757 482.275673a120.486017 120.486017 0 0 1 89.564827 17.059967l263.363242 171.665919 106.624794-19.192463a53.312397 53.312397 0 1 1 22.391207 106.624794l-106.624794 22.391207a120.486017 120.486017 0 0 1-89.564827-17.059967L456.398452 588.900467 214.360169 635.815377v13.861223l14.927471 99.161059a10.662479 10.662479 0 0 0 13.861223 8.529983l134.347241-29.854942a120.486017 120.486017 0 0 1 89.564827 21.324959l264.42949 167.400926 591.767608-122.618513a53.312397 53.312397 0 0 1 21.324959 106.624794L763.477859 1021.797132a99.161059 99.161059 0 0 1-24.523703 2.132496z" p-id="3007"></path></svg>