<svg width="28" height="28" viewBox="0 0 28 28" fill="none" xmlns="http://www.w3.org/2000/svg">
<g id="Frame 4221">
<path id="Vector" d="M10.1345 8.63706H18.4891C19.0526 8.63706 19.5951 8.39858 19.9567 7.96617C20.8189 6.9415 21.6366 5.68358 21.82 4.5567C22.1895 2.30031 21.2225 1.15509 18.4184 1.15509C15.6143 1.15509 16.563 2.99479 15.4728 3.14678C14.6604 3.25947 14.6892 2.18763 13.4129 1.15771C12.4957 0.421304 11.4684 2.5021 10.2577 2.5152C8.84514 2.53355 6.85868 2.14307 6.85868 4.55669C6.85868 5.53158 7.71301 6.84977 8.64596 7.94258C9.02072 8.38023 9.56057 8.63706 10.1345 8.63706ZM20.5568 10.786C20.1113 10.2802 19.464 9.99718 18.7905 9.99718H9.87506C9.23038 9.99718 8.60928 10.2566 8.16377 10.7231C5.36228 13.6582 2.77832 17.8487 2.77832 20.9044C2.77832 23.5984 5.48546 27 8.82417 27H19.1758C22.5145 27 25.2216 23.6272 25.2216 20.9044C25.2216 17.7936 23.1434 13.7211 20.5568 10.786ZM17.834 14.4942L16.0415 17.7465C15.8842 18.0321 16.0913 18.3833 16.4162 18.3833H16.9246C17.1605 18.3833 17.3544 18.5746 17.3544 18.8131C17.3544 19.0489 17.1631 19.2429 16.9246 19.2429H15.6457C15.3968 19.2429 15.1976 19.442 15.195 19.691V19.9033C15.195 20.1391 15.3863 20.333 15.6248 20.333H16.9246C17.1605 20.333 17.3544 20.5244 17.3544 20.7628C17.3544 21.0013 17.1631 21.1926 16.9246 21.1926H15.6248C15.3889 21.1926 15.195 21.3839 15.195 21.6224V22.7152C15.195 22.9511 15.0037 23.145 14.7652 23.145H13.9869C13.751 23.145 13.5571 22.9537 13.5571 22.7152V21.6224C13.5571 21.3865 13.3658 21.1926 13.1273 21.1926H11.8406C11.6047 21.1926 11.4108 21.0013 11.4108 20.7628C11.4108 20.5244 11.6021 20.333 11.8406 20.333H13.1247C13.3632 20.333 13.5545 20.1417 13.5571 19.9033L13.5597 19.6936C13.5623 19.4446 13.3605 19.2402 13.1089 19.2402H11.8406C11.6047 19.2402 11.4108 19.0489 11.4108 18.8104C11.4108 18.5746 11.6021 18.3807 11.8406 18.3807H12.3359C12.6634 18.3807 12.8679 18.0295 12.7106 17.7438L10.9181 14.4916C10.7608 14.206 10.9679 13.8548 11.2928 13.8548H12.1472C12.3096 13.8548 12.459 13.9465 12.5298 14.0907L13.9895 17.0022C14.1467 17.3167 14.5975 17.3167 14.7573 17.0022L16.217 14.0907C16.2904 13.9465 16.4372 13.8548 16.5997 13.8548H17.454C17.7842 13.86 17.9912 14.2086 17.834 14.4942Z" fill="#00C387"/>
<g id="Group 427318780">
<path id="Vector_2" d="M26.3932 18.5H20.3762C19.8637 18.5 19.5001 18.9324 19.5001 19.4L19.5 26.6C19.5 27.0675 19.8636 27.5 20.3761 27.5H26.3932C26.9056 27.5 27.2692 27.0675 27.2692 26.6V19.4C27.2692 18.9325 26.9056 18.5 26.3932 18.5Z" fill="#00C387" stroke="white"/>
<path id="Vector_3" d="M25.3589 20.4873H21.4102V22.1027H25.3589V20.4873Z" fill="white"/>
<path id="Vector (Stroke)" fill-rule="evenodd" clip-rule="evenodd" d="M21.2297 23.3916L22.8124 24.9744L22.4861 25.3007L20.9033 23.718L21.2297 23.3916Z" fill="white"/>
<path id="Vector (Stroke)_2" fill-rule="evenodd" clip-rule="evenodd" d="M22.8124 23.718L21.2297 25.3007L20.9033 24.9744L22.4861 23.3916L22.8124 23.718Z" fill="white"/>
<path id="Vector (Stroke)_3" fill-rule="evenodd" clip-rule="evenodd" d="M23.8711 24.7434H25.7685V25.2049H23.8711V24.7434Z" fill="white"/>
<path id="Vector (Stroke)_4" fill-rule="evenodd" clip-rule="evenodd" d="M23.8711 23.667H25.7685V24.1285H23.8711V23.667Z" fill="white"/>
</g>
</g>
</svg>
