<svg width="28" height="28" viewBox="0 0 28 28" fill="none" xmlns="http://www.w3.org/2000/svg">
<g id="Frame 4215" clip-path="url(#clip0_4107_9488)">
<g id="Frame" clip-path="url(#clip1_4107_9488)">
<path id="Vector" d="M18.5 14C21.8137 14 24.5 11.3137 24.5 8C24.5 4.6863 21.8137 2 18.5 2C15.1863 2 12.5 4.6863 12.5 8C12.5 11.3137 15.1863 14 18.5 14Z" fill="#00C387" stroke="white" stroke-width="2" stroke-linecap="square" stroke-linejoin="round"/>
<path id="Vector_2" d="M8 25.2834C8 25.8357 8.44772 26.2834 9 26.2834H28C28.5523 26.2834 29 25.8357 29 25.2834V24.4263V24.3867C29 22.8201 29 21.59 28.9284 20.6009C28.8555 19.5949 28.7045 18.7564 28.3591 17.9918L28.3591 17.9918C27.7936 16.74 26.8808 15.6995 25.7318 15.0392L25.7318 15.0392C25.0155 14.6276 24.23 14.45 23.3128 14.3655C22.422 14.2834 21.3195 14.2834 19.9421 14.2834L19.8933 14.2834H17.1067L17.0579 14.2834C15.6805 14.2834 14.578 14.2834 13.6871 14.3655C12.77 14.45 11.9845 14.6276 11.2682 15.0392L11.2682 15.0392C10.1192 15.6995 9.20645 16.74 8.64092 17.9918C8.29552 18.7563 8.14452 19.5949 8.07164 20.6009C7.99999 21.59 7.99999 22.8201 8 24.3867V24.4263V25.2834Z" fill="#00C387" stroke="white" stroke-width="2" stroke-linecap="square" stroke-linejoin="round"/>
<path id="Vector_3" d="M12 15C15.866 15 19 11.866 19 8C19 4.13401 15.866 1 12 1C8.134 1 5 4.13401 5 8C5 11.866 8.134 15 12 15Z" fill="#00C387" stroke="white" stroke-width="2" stroke-linecap="square" stroke-linejoin="round"/>
<path id="Vector_4" d="M0 27C0 27.5523 0.447715 28 1 28H23C23.5523 28 24 27.5523 24 27V26.1429V26.0975C24 24.5358 24 23.3009 23.9166 22.3062C23.8313 21.2893 23.6536 20.4345 23.2467 19.6566L23.2467 19.6565C22.5847 18.3912 21.5311 17.3672 20.2413 16.727L20.2413 16.727C19.4517 16.3352 18.5839 16.1636 17.5459 16.081C16.5278 16 15.2628 16 13.6566 16H13.6133H10.3867H10.3434C8.73723 16 7.47217 16 6.45414 16.081C5.41606 16.1636 4.54832 16.3352 3.75873 16.727L3.7587 16.727C2.46886 17.3672 1.41528 18.3912 0.753343 19.6566C0.346395 20.4345 0.168723 21.2893 0.0834285 22.3062C-1.40667e-05 23.3009 -7.86781e-06 24.5358 -2.38419e-07 26.0975L0 26.1429V27Z" fill="#00C387" stroke="white" stroke-width="2" stroke-linecap="square" stroke-linejoin="round"/>
</g>
</g>
<defs>
<clipPath id="clip0_4107_9488">
<rect width="28" height="28" fill="white"/>
</clipPath>
<clipPath id="clip1_4107_9488">
<rect width="28" height="28" fill="white"/>
</clipPath>
</defs>
</svg>
