<svg width="28" height="28" viewBox="0 0 28 28" fill="none" xmlns="http://www.w3.org/2000/svg">
<g id="Frame 4229">
<g id="Group 4278">
<rect id="Rectangle 2469" x="3" y="3.5" width="22" height="24" rx="1" fill="#00C387"/>
<path id="Rectangle 2470" d="M7.23047 3.78521C7.23047 3.34338 7.58864 2.98521 8.03047 2.98521H9.93047C10.3723 2.98521 10.7305 2.62703 10.7305 2.18521V1.3C10.7305 0.858172 11.0886 0.5 11.5305 0.5H16.9305C17.3723 0.5 17.7305 0.858172 17.7305 1.3V2.18521C17.7305 2.62703 18.0886 2.98521 18.5305 2.98521H20.4305C20.8723 2.98521 21.2305 3.34338 21.2305 3.78521V6.16154C21.2305 6.60337 20.8723 6.96154 20.4305 6.96154H8.03047C7.58864 6.96154 7.23047 6.60337 7.23047 6.16154V3.78521Z" fill="#BFFDD8"/>
<rect id="Rectangle 2471" x="15" y="11" width="8" height="1.6" fill="#BFFDD8"/>
<rect id="Rectangle 2473" x="5" y="21" width="18" height="1.6" fill="#BFFDD8"/>
<rect id="Rectangle 2472" x="15" y="16" width="5" height="1.6" fill="#BFFDD8"/>
<path id="Vector" d="M9 13C10.1046 13 11 12.1046 11 11C11 9.89543 10.1046 9 9 9C7.89543 9 7 9.89543 7 11C7 12.1046 7.89543 13 9 13Z" fill="white"/>
<path id="Vector_2" d="M5 17.6571V18H13V17.6571C13 16.377 13 15.737 12.7675 15.248C12.563 14.8179 12.2366 14.4683 11.8352 14.2491C11.3788 14 10.7814 14 9.58667 14H8.41333C7.21856 14 6.62117 14 6.16482 14.2491C5.76341 14.4683 5.43705 14.8179 5.23252 15.248C5 15.737 5 16.377 5 17.6571Z" fill="white"/>
</g>
</g>
</svg>
