<svg width="28" height="28" viewBox="0 0 28 28" fill="none" xmlns="http://www.w3.org/2000/svg">
<g id="Frame 2584" clip-path="url(#clip0_2891_3814)">
<g id="Group 4849">
<g id="Group">
<path id="Union" d="M13.9997 1.052C10.7147 1.052 8.05176 3.71497 8.05176 6.99992C8.05176 10.2849 10.7147 12.9478 13.9997 12.9478C17.2846 12.9478 19.9476 10.2849 19.9476 6.99992C19.9476 3.71497 17.2846 1.052 13.9997 1.052Z" fill="#1F79FF"/>
<path id="Union_2" d="M14 13.8853C7.49341 13.8853 2.21875 19.1599 2.21875 25.6665C2.21875 26.3741 2.79239 26.9478 3.5 26.9478H24.5C25.2076 26.9478 25.7812 26.3741 25.7812 25.6665C25.7812 19.1599 20.5066 13.8853 14 13.8853Z" fill="#1F79FF"/>
<path id="Vector" d="M14.0003 25.6665L16.3337 22.7498L14.0003 15.1665L11.667 22.7498L14.0003 25.6665Z" fill="white"/>
</g>
<path id="Ellipse 494" d="M29 22.5C29 26.0899 26.0899 29 22.5 29C18.9101 29 16 26.0899 16 22.5C16 18.9101 18.9101 16 22.5 16C26.0899 16 29 18.9101 29 22.5Z" fill="#1F79FF"/>
<path id="Ellipse 494 (Stroke)" fill-rule="evenodd" clip-rule="evenodd" d="M22.5 28C25.5376 28 28 25.5376 28 22.5C28 19.4624 25.5376 17 22.5 17C19.4624 17 17 19.4624 17 22.5C17 25.5376 19.4624 28 22.5 28ZM22.5 29C26.0899 29 29 26.0899 29 22.5C29 18.9101 26.0899 16 22.5 16C18.9101 16 16 18.9101 16 22.5C16 26.0899 18.9101 29 22.5 29Z" fill="white"/>
<path id="Polygon 16" d="M22.5 19L24.6651 21.25H20.3349L22.5 19Z" fill="white"/>
<path id="Line 219 (Stroke)" fill-rule="evenodd" clip-rule="evenodd" d="M21.8504 25L21.8504 21L23.1504 21L23.1504 25L21.8504 25Z" fill="white"/>
</g>
</g>
<defs>
<clipPath id="clip0_2891_3814">
<rect width="28" height="28" fill="white"/>
</clipPath>
</defs>
</svg>
