<svg width="28" height="28" viewBox="0 0 28 28" fill="none" xmlns="http://www.w3.org/2000/svg">
<g id="Frame 4214">
<g id="Group 4278">
<rect id="Rectangle 2469" x="4" y="4.5" width="20" height="23" rx="1" fill="#F58E24"/>
<path id="Rectangle 2470" d="M7.23047 3.78521C7.23047 3.34338 7.58864 2.98521 8.03047 2.98521H9.93047C10.3723 2.98521 10.7305 2.62703 10.7305 2.18521V1.3C10.7305 0.858172 11.0886 0.5 11.5305 0.5H16.9305C17.3723 0.5 17.7305 0.858172 17.7305 1.3V2.18521C17.7305 2.62703 18.0886 2.98521 18.5305 2.98521H20.4305C20.8723 2.98521 21.2305 3.34338 21.2305 3.78521V6.16154C21.2305 6.60337 20.8723 6.96154 20.4305 6.96154H8.03047C7.58864 6.96154 7.23047 6.60337 7.23047 6.16154V3.78521Z" fill="#FDE4BF"/>
<g id="Group 4285">
<path id="Vector" d="M14 15.5C15.3807 15.5 16.5 14.3807 16.5 13C16.5 11.6193 15.3807 10.5 14 10.5C12.6193 10.5 11.5 11.6193 11.5 13C11.5 14.3807 12.6193 15.5 14 15.5Z" fill="white"/>
<path id="Vector_2" d="M9 21.7382V22.1667H19V21.7382C19 20.138 19 19.338 18.7094 18.7268C18.4537 18.1892 18.0457 17.7521 17.544 17.4781C16.9735 17.1667 16.2268 17.1667 14.7333 17.1667H13.2667C11.7732 17.1667 11.0265 17.1667 10.456 17.4781C9.95426 17.7521 9.54631 18.1892 9.29065 18.7268C9 19.338 9 20.138 9 21.7382Z" fill="white"/>
</g>
</g>
</g>
</svg>
