<svg width="28" height="28" viewBox="0 0 28 28" fill="none" xmlns="http://www.w3.org/2000/svg">
<g id="Frame 4228">
<g id="Frame 2551(6)" clip-path="url(#clip0_4109_9719)">
<path id="Rectangle 794" d="M23.7497 2.40625L15.7637 2.40625L21.5902 9.0625L23.7497 11.5469L23.7497 2.40625Z" fill="#D4BDEC"/>
<path id="Rectangle 828" d="M14.5226 1L2.85742 1L2.85742 27L25.1431 27L25.1431 9.31019L14.5226 1Z" fill="#8454FD"/>
<circle id="Ellipse 492" cx="19" cy="21" r="1.5" fill="#8454FD"/>
<path id="Rectangle 825" d="M19.6289 7.49048H15.7637V9.1311H19.6289V7.49048Z" fill="#A78FF4"/>
<path id="Rectangle 829" d="M21.9893 17.2031H6.01074V18.8437H21.9893V17.2031Z" fill="#A78FF4"/>
<path id="Rectangle 830" d="M21.9893 21.6797H6.01074V23.3203H21.9893V21.6797Z" fill="#A78FF4"/>
<path id="Rectangle 827" d="M21.6222 11.4856H15.7637V13.1262H21.6222V11.4856Z" fill="#A78FF4"/>
<path id="Vector" d="M10.0462 7.78572C11.1606 7.78572 12.064 6.8823 12.064 5.76786C12.064 4.65343 11.1606 3.75 10.0462 3.75C8.93175 3.75 8.02832 4.65343 8.02832 5.76786C8.02832 6.8823 8.93175 7.78572 10.0462 7.78572Z" fill="white"/>
<path id="Vector_2" d="M6.01074 12.8209V13.1668H14.0822V12.8209C14.0822 11.5294 14.0822 10.8836 13.8476 10.3903C13.6412 9.95635 13.312 9.60354 12.907 9.38244C12.4465 9.1311 11.8438 9.1311 10.6384 9.1311H9.45456C8.24911 9.1311 7.64639 9.1311 7.18597 9.38244C6.78097 9.60354 6.45169 9.95635 6.24534 10.3903C6.01074 10.8836 6.01074 11.5294 6.01074 12.8209Z" fill="white"/>
</g>
</g>
<defs>
<clipPath id="clip0_4109_9719">
<rect width="26" height="26" fill="white" transform="translate(1 1)"/>
</clipPath>
</defs>
</svg>
