<svg width="28" height="28" viewBox="0 0 28 28" fill="none" xmlns="http://www.w3.org/2000/svg">
<g id="Frame 4215" clip-path="url(#clip0_2894_3820)">
<g id="Frame">
<g id="Group 4283">
<path id="Vector" d="M19.4997 13.3333C21.8009 13.3333 23.6663 11.4679 23.6663 9.16667C23.6663 6.86548 21.8009 5 19.4997 5C17.1985 5 15.333 6.86548 15.333 9.16667C15.333 11.4679 17.1985 13.3333 19.4997 13.3333Z" fill="#00C387"/>
<path id="Vector_2" d="M12 24.2142V24.9999H27V24.2142C27 21.2806 27 19.8138 26.5641 18.6933C26.1806 17.7077 25.5686 16.9063 24.816 16.4041C23.9603 15.8333 22.8402 15.8333 20.6 15.8333H18.4C16.1598 15.8333 15.0397 15.8333 14.184 16.4041C13.4314 16.9063 12.8195 17.7077 12.436 18.6933C12 19.8138 12 21.2806 12 24.2142Z" fill="#00C387"/>
</g>
<g id="Group 4284">
<path id="Vector_3" d="M8.49967 13.3333C10.8009 13.3333 12.6663 11.4679 12.6663 9.16667C12.6663 6.86548 10.8009 5 8.49967 5C6.19848 5 4.33301 6.86548 4.33301 9.16667C4.33301 11.4679 6.19848 13.3333 8.49967 13.3333Z" fill="#00C387"/>
<path id="Vector_4" d="M1 24.2142V24.9999H16V24.2142C16 21.2806 16 19.8138 15.5641 18.6933C15.1806 17.7077 14.5686 16.9063 13.816 16.4041C12.9603 15.8333 11.8402 15.8333 9.6 15.8333H7.4C5.1598 15.8333 4.0397 15.8333 3.18404 16.4041C2.43139 16.9063 1.81947 17.7077 1.43598 18.6933C1 19.8138 1 21.2806 1 24.2142Z" fill="#00C387"/>
</g>
<path id="Vector_5" d="M14 11.75C17.1756 11.75 19.75 9.17564 19.75 6C19.75 2.82437 17.1756 0.25 14 0.25C10.8244 0.25 8.25 2.82437 8.25 6C8.25 9.17564 10.8244 11.75 14 11.75Z" fill="#00C487" stroke="white" stroke-width="1.5" stroke-linecap="square" stroke-linejoin="round"/>
<path id="Vector_6" d="M4.25 25C4.25 25.4142 4.58579 25.75 5 25.75H23C23.4142 25.75 23.75 25.4142 23.75 25V24.0571V24.0307C23.75 22.2929 23.75 20.9535 23.6832 19.882C23.6157 18.8007 23.4779 17.9365 23.1758 17.1601L23.1758 17.1601C22.6695 15.8588 21.8473 14.7631 20.7954 14.0612L20.7954 14.0612C20.144 13.6266 19.4188 13.4326 18.5524 13.3399C17.712 13.25 16.6706 13.25 15.3627 13.25L15.32 13.25H12.68L12.6373 13.25C11.3294 13.25 10.288 13.25 9.4476 13.3399C8.5812 13.4326 7.856 13.6266 7.2046 14.0612L7.20457 14.0612C6.15267 14.7631 5.33055 15.8588 4.82421 17.1601C4.52214 17.9365 4.38432 18.8007 4.31685 19.882C4.25 20.9535 4.25 22.2929 4.25 24.0307V24.0571V25Z" fill="#00C487" stroke="white" stroke-width="1.5" stroke-linecap="square" stroke-linejoin="round"/>
</g>
</g>
<defs>
<clipPath id="clip0_2894_3820">
<rect width="28" height="28" fill="white"/>
</clipPath>
</defs>
</svg>
