<svg width="28" height="28" viewBox="0 0 28 28" fill="none" xmlns="http://www.w3.org/2000/svg">
<g id="Frame">
<path id="Vector" d="M20.417 13.9999C20.417 13.3556 20.9393 12.8333 21.5837 12.8333H23.917C24.5613 12.8333 25.0837 13.3556 25.0837 13.9999V23.9166C25.0837 24.8831 24.3002 25.6666 23.3337 25.6666H20.417V13.9999Z" fill="#D4BDEC"/>
<path id="Vector_2" d="M2.91699 4.08325C2.91699 3.11676 3.7005 2.33325 4.66699 2.33325H20.667C21.6335 2.33325 22.417 3.11676 22.417 4.08325V25.6666H4.66699C3.7005 25.6666 2.91699 24.8831 2.91699 23.9166V4.08325Z" fill="#8454FD"/>
<path id="Vector_3" d="M6.41699 7H11.0837" stroke="white" stroke-width="2" stroke-linecap="square" stroke-linejoin="round"/>
<path id="Vector_4" opacity="0.4" d="M6.41699 11.0833H13.417" stroke="white" stroke-width="2" stroke-linecap="square" stroke-linejoin="round"/>
<g id="Frame_2" clip-path="url(#clip0_4132_1920)">
<path id="Vector_5" d="M13.2083 20.7917C13.8412 20.7917 14.3542 20.2787 14.3542 19.6458C14.3542 19.013 13.8412 18.5 13.2083 18.5C12.5755 18.5 12.0625 19.013 12.0625 19.6458C12.0625 20.2787 12.5755 20.7917 13.2083 20.7917Z" fill="white"/>
<path id="Vector_6" d="M17.7913 20.7917C18.4242 20.7917 18.9372 20.2787 18.9372 19.6458C18.9372 19.013 18.4242 18.5 17.7913 18.5C17.1585 18.5 16.6455 19.013 16.6455 19.6458C16.6455 20.2787 17.1585 20.7917 17.7913 20.7917Z" fill="white"/>
<path id="Vector_7" d="M15.5003 16.2084C16.1332 16.2084 16.6462 15.6954 16.6462 15.0626C16.6462 14.4298 16.1332 13.9167 15.5003 13.9167C14.8675 13.9167 14.3545 14.4298 14.3545 15.0626C14.3545 15.6954 14.8675 16.2084 15.5003 16.2084Z" fill="white"/>
<path id="Vector_8" d="M15.5003 23.0834C15.5003 21.8178 14.4743 20.7917 13.2087 20.7917C11.943 20.7917 10.917 21.8178 10.917 23.0834" fill="white"/>
<path id="Vector_9" d="M20.0833 23.0834C20.0833 21.8178 19.0573 20.7917 17.7917 20.7917C16.526 20.7917 15.5 21.8178 15.5 23.0834" fill="white"/>
<path id="Vector_10" d="M17.7913 18.4999C17.7913 17.2343 16.7653 16.2083 15.4997 16.2083C14.234 16.2083 13.208 17.2343 13.208 18.4999" fill="white"/>
</g>
</g>
<defs>
<clipPath id="clip0_4132_1920">
<rect width="11" height="11" fill="white" transform="translate(10 13)"/>
</clipPath>
</defs>
</svg>
