<?xml version="1.0" standalone="no"?><!DOCTYPE svg PUBLIC "-//W3C//DTD SVG 1.1//EN" "http://www.w3.org/Graphics/SVG/1.1/DTD/svg11.dtd"><svg class="icon" width="200px" height="200.00px" viewBox="0 0 1024 1024" version="1.1" xmlns="http://www.w3.org/2000/svg"><path d="M512 166.272a345.6 345.6 0 1 0 0 691.2 345.6 345.6 0 0 0 0-691.2z m-422.4 345.6a422.4 422.4 0 1 1 844.8 0 422.4 422.4 0 0 1-844.8 0z" fill="#002851" /><path d="M593.28 503.36A72.64 72.64 0 1 1 520.704 430.72c11.84 0-1.536-5.056 8.32 0L768 256 593.28 489.984c5.12 9.92 0 1.536 0 13.376z m-116.224 0a43.584 43.584 0 1 0 87.168 0 43.584 43.584 0 0 0-87.168 0z" fill="#002851" /><path d="M512 480a32 32 0 1 0 0 64 32 32 0 0 0 0-64zM416 512a96 96 0 1 1 192 0 96 96 0 0 1-192 0z" fill="#002851" /></svg>