<svg width="18" height="18" viewBox="0 0 18 18" fill="none" xmlns="http://www.w3.org/2000/svg">
<g id="Group 127">
<g id="Frame" clip-path="url(#clip0_2434_6858)">
<path id="Vector" d="M8.25 3V7.5C8.25 8.32841 6.73898 9 4.875 9C3.01104 9 1.5 8.32841 1.5 7.5V3" stroke="#5C6677" stroke-width="1.2" stroke-linejoin="round"/>
<path id="Vector_2" d="M8.25 5.25C8.25 6.07841 6.73898 6.75 4.875 6.75C3.01104 6.75 1.5 6.07841 1.5 5.25" stroke="#5C6677" stroke-width="1.2" stroke-linejoin="round"/>
<path id="Vector_3" d="M8.25 3C8.25 3.82841 6.73898 4.5 4.875 4.5C3.01104 4.5 1.5 3.82841 1.5 3C1.5 2.17157 3.01104 1.5 4.875 1.5C6.73898 1.5 8.25 2.17157 8.25 3Z" stroke="#5C6677" stroke-width="1.2" stroke-linejoin="round"/>
<path id="Vector_4" d="M16.5 10.5V15C16.5 15.8284 14.989 16.5 13.125 16.5C11.261 16.5 9.75 15.8284 9.75 15V10.5" stroke="#5C6677" stroke-width="1.2" stroke-linejoin="round"/>
<path id="Vector_5" d="M16.5 12.75C16.5 13.5784 14.989 14.25 13.125 14.25C11.261 14.25 9.75 13.5784 9.75 12.75" stroke="#5C6677" stroke-width="1.2" stroke-linejoin="round"/>
<path id="Vector_6" d="M16.5 10.5C16.5 11.3284 14.989 12 13.125 12C11.261 12 9.75 11.3284 9.75 10.5C9.75 9.67159 11.261 9 13.125 9C14.989 9 16.5 9.67159 16.5 10.5Z" stroke="#5C6677" stroke-width="1.2" stroke-linejoin="round"/>
<path id="Vector_7" d="M12 2.25H14.25C15.0784 2.25 15.75 2.92157 15.75 3.75V6" stroke="#5C6677" stroke-width="1.2" stroke-linejoin="round"/>
<path id="Vector_8" d="M6 15.75H3.75C2.92157 15.75 2.25 15.0784 2.25 14.25V12" stroke="#5C6677" stroke-width="1.2" stroke-linejoin="round"/>
</g>
</g>
<defs>
<clipPath id="clip0_2434_6858">
<rect width="18" height="18" fill="white"/>
</clipPath>
</defs>
</svg>
