<svg width="40" height="40" viewBox="0 0 40 40" fill="none" xmlns="http://www.w3.org/2000/svg">
    <g id="&#230;&#137;&#139;&#230;&#156;&#186;" clip-path="url(#clip0_2365_711)">
        <circle id="Ellipse 414" cx="20" cy="20" r="20" fill="currentColor" />
        <g id="Frame">
            <path id="Vector"
                d="M10.2907 19.7732C10.2907 19.9842 10.3532 20.1904 10.4704 20.3658C10.5876 20.5412 10.7542 20.6779 10.9491 20.7587C11.1441 20.8394 11.3585 20.8605 11.5654 20.8194C11.7724 20.7782 11.9624 20.6766 12.1116 20.5275C12.2608 20.3783 12.3624 20.1882 12.4035 19.9813C12.4447 19.7744 12.4235 19.5599 12.3428 19.365C12.2621 19.1701 12.1254 19.0035 11.95 18.8863C11.7745 18.7691 11.5683 18.7065 11.3573 18.7065C11.2173 18.7065 11.0786 18.7341 10.9491 18.7877C10.8197 18.8413 10.7021 18.9199 10.6031 19.019C10.504 19.118 10.4255 19.2356 10.3719 19.365C10.3183 19.4944 10.2907 19.6331 10.2907 19.7732ZM10.2773 27.2399C10.2773 27.4508 10.3399 27.6571 10.4571 27.8325C10.5743 28.0079 10.7409 28.1446 10.9358 28.2253C11.1307 28.3061 11.3452 28.3272 11.5521 28.286C11.759 28.2449 11.9491 28.1433 12.0983 27.9941C12.2474 27.8449 12.349 27.6549 12.3902 27.448C12.4313 27.2411 12.4102 27.0266 12.3295 26.8317C12.2487 26.6368 12.112 26.4702 11.9366 26.353C11.7612 26.2358 11.555 26.1732 11.344 26.1732C11.0611 26.1732 10.7898 26.2856 10.5898 26.4856C10.3897 26.6857 10.2773 26.957 10.2773 27.2399Z"
                fill="currentColor" />
            <path id="Vector_2"
                d="M20.0456 26.1334H20.0003C12.5336 26.1334 6.93359 23.4667 6.93359 19.9761H9.06693C9.06693 21.6507 13.2189 24.0001 20.0003 24.0001H20.0536C26.7896 24.0001 30.9336 21.6854 30.9336 20.0187H33.0669C33.0669 23.5121 27.4669 26.1334 20.0456 26.1334Z"
                fill="currentColor" />
            <path id="Vector_3"
                d="M20.0324 33.3332H19.9764C16.6324 33.3332 13.4724 32.7652 11.0777 31.7492C8.39506 30.6105 6.91772 28.9865 6.93372 27.1758L6.96039 12.7758C6.96039 9.28784 12.5604 6.6665 19.9817 6.6665H20.0377C23.3817 6.6665 26.5417 7.2345 28.9364 8.2505C31.6191 9.38917 33.0964 11.0132 33.0937 12.8238L33.0671 27.2238C33.0484 30.7118 27.4671 33.3332 20.0324 33.3332ZM19.9657 8.79984C13.2244 8.79984 9.08306 11.1145 9.08039 12.7812L9.05372 27.1812C9.05372 28.0505 10.1204 29.0238 11.9124 29.7838C14.0457 30.6905 16.9151 31.1945 19.9791 31.1998H20.0351C26.7764 31.1998 30.9177 28.8852 30.9204 27.2185L30.9471 12.8185C30.9471 11.9492 29.8804 10.9758 28.0884 10.2158C25.9551 9.30917 23.0857 8.80517 20.0217 8.79984H19.9657Z"
                fill="currentColor" />
            <path id="Vector_4"
                d="M20.0563 18.9332H20.0003C12.5496 18.9332 6.93359 16.2665 6.93359 12.7758C6.93359 9.28517 12.5469 6.6665 19.9683 6.6665H20.0243C23.3683 6.6665 26.5283 7.2345 28.9229 8.2505C31.6056 9.38917 33.0829 11.0132 33.0803 12.8238C33.0776 14.6345 31.5949 16.2505 28.9043 17.3812C26.5229 18.3838 23.3816 18.9332 20.0563 18.9332ZM19.9683 8.79984C13.2243 8.79984 9.08293 11.1145 9.08026 12.7812C9.07759 14.4478 13.2323 16.7998 20.0003 16.7998H20.0536C23.0989 16.7998 25.9469 16.3092 28.0723 15.4158C29.8669 14.6665 30.9336 13.6905 30.9469 12.8212C30.9469 11.9518 29.8803 10.9785 28.0883 10.2185C25.9549 9.31184 23.0856 8.80784 20.0216 8.8025L19.9683 8.79984Z"
                fill="currentColor" />
        </g>
    </g>
    <defs>
        <clipPath id="clip0_2365_711">
            <rect width="40" height="40" fill="white" />
        </clipPath>
    </defs>
</svg>