<svg width="14" height="14" viewBox="0 0 14 14" fill="none" xmlns="http://www.w3.org/2000/svg">
<g id="&#230;&#149;&#176;&#230;&#141;&#174;&#229;&#144;&#136;&#229;&#185;&#182;" clip-path="url(#clip0_2272_7125)">
<path id="Vector" d="M4.08334 8.16666L1.45834 8.16666C1.29726 8.16666 1.16667 8.29724 1.16667 8.45833L1.16667 12.5417C1.16667 12.7027 1.29726 12.8333 1.45834 12.8333L12.5417 12.8333C12.7028 12.8333 12.8333 12.7027 12.8333 12.5417L12.8333 8.45833C12.8333 8.29724 12.7028 8.16666 12.5417 8.16666L9.91667 8.16666" stroke="#002851"/>
<path id="Vector_2" d="M9.91667 5.83333L12.5417 5.83333C12.7028 5.83333 12.8333 5.70275 12.8333 5.54166L12.8333 1.45833C12.8333 1.29724 12.7028 1.16666 12.5417 1.16666L1.45834 1.16666C1.29726 1.16666 1.16667 1.29724 1.16667 1.45833L1.16667 5.54166C1.16667 5.70275 1.29726 5.83333 1.45834 5.83333L4.08334 5.83333" stroke="#002851"/>
<path id="Vector_3" d="M7 5.83333L7 1.16666" stroke="#002851"/>
<path id="Vector_4" d="M7 12.5417L7 8.16666" stroke="#002851"/>
<path id="Vector_5" d="M8.40537 4.44836L7.94133 4.9124L7.01325 5.84045L6.08517 4.9124L5.62112 4.44836" stroke="#002851" stroke-linejoin="round"/>
<path id="Vector_6" d="M8.40537 9.51562L7.94133 9.05158L7.01325 8.1235L6.08517 9.05158L5.62112 9.51562" stroke="#002851" stroke-linejoin="round"/>
</g>
<defs>
<clipPath id="clip0_2272_7125">
<rect width="14" height="14" fill="white"/>
</clipPath>
</defs>
</svg>
