<?xml version="1.0" standalone="no"?><!DOCTYPE svg PUBLIC "-//W3C//DTD SVG 1.1//EN" "http://www.w3.org/Graphics/SVG/1.1/DTD/svg11.dtd"><svg t="1676451655438" class="icon" viewBox="0 0 1077 1024" version="1.1" xmlns="http://www.w3.org/2000/svg" p-id="1738" xmlns:xlink="http://www.w3.org/1999/xlink" width="210.3515625" height="200"><path d="M139.436574 1023.998721a138.792734 138.792734 0 1 1 138.153136-138.792734A138.792734 138.792734 0 0 1 139.436574 1023.998721z m0-212.986085a74.832949 74.832949 0 1 0 74.193351 74.193351 74.193351 74.193351 0 0 0-74.193351-74.193351zM139.436574 277.588027a138.792734 138.792734 0 1 1 138.153136-138.153137 138.792734 138.792734 0 0 1-138.153136 138.153137z m0-212.986085a74.832949 74.832949 0 1 0 74.193351 74.832948A74.832949 74.832949 0 0 0 139.436574 64.601942zM139.436574 651.113173A138.792734 138.792734 0 1 1 277.58971 512.320439a138.792734 138.792734 0 0 1-138.153136 138.792734z m0-213.625683A74.832949 74.832949 0 1 0 213.629925 512.320439a74.832949 74.832949 0 0 0-74.193351-74.832949zM1045.107134 544.300331H459.2355a31.979893 31.979893 0 0 1 0-63.959785h585.871634a31.979893 31.979893 0 0 1 0 63.959785zM1045.107134 917.185879H459.2355a31.979893 31.979893 0 0 1-31.979892-31.979892 31.979893 31.979893 0 0 1 31.979892-31.979893h585.871634a31.979893 31.979893 0 0 1 31.979892 31.979893 31.979893 31.979893 0 0 1-31.979892 31.979892zM1045.107134 171.414783H459.2355a31.979893 31.979893 0 0 1-31.979892-31.979893 31.979893 31.979893 0 0 1 31.979892-31.979892h585.871634a31.979893 31.979893 0 0 1 31.979892 31.979892 31.979893 31.979893 0 0 1-31.979892 31.979893z" p-id="1739"></path></svg>