<?xml version="1.0" standalone="no"?><!DOCTYPE svg PUBLIC "-//W3C//DTD SVG 1.1//EN" "http://www.w3.org/Graphics/SVG/1.1/DTD/svg11.dtd"><svg t="1674982695205" class="icon" viewBox="0 0 1024 1024" version="1.1" xmlns="http://www.w3.org/2000/svg" p-id="1872" xmlns:xlink="http://www.w3.org/1999/xlink" width="200" height="200"><path d="M905.846154 1024h-787.692308A118.153846 118.153846 0 0 1 0 905.846154v-787.692308A118.153846 118.153846 0 0 1 118.153846 0h787.692308A118.153846 118.153846 0 0 1 1024 118.153846v787.692308a118.153846 118.153846 0 0 1-118.153846 118.153846zM118.153846 78.769231a39.384615 39.384615 0 0 0-39.384615 39.384615v787.692308a39.384615 39.384615 0 0 0 39.384615 39.384615h787.692308a39.384615 39.384615 0 0 0 39.384615-39.384615v-787.692308a39.384615 39.384615 0 0 0-39.384615-39.384615z" p-id="1873"></path><path d="M669.538462 551.384615h-315.076924a39.384615 39.384615 0 0 1 0-78.76923h315.076924a39.384615 39.384615 0 0 1 0 78.76923zM774.301538 315.076923H249.698462a39.384615 39.384615 0 0 1 0-78.769231h524.603076a39.384615 39.384615 0 0 1 0 78.769231zM774.301538 787.692308H249.698462a39.384615 39.384615 0 0 1 0-78.769231h524.603076a39.384615 39.384615 0 0 1 0 78.769231z" p-id="1874"></path></svg>