<?xml version="1.0" standalone="no"?><!DOCTYPE svg PUBLIC "-//W3C//DTD SVG 1.1//EN" "http://www.w3.org/Graphics/SVG/1.1/DTD/svg11.dtd"><svg t="1750752489159" class="icon" viewBox="0 0 1024 1024" version="1.1" xmlns="http://www.w3.org/2000/svg" p-id="4599" xmlns:xlink="http://www.w3.org/1999/xlink" width="200" height="200"><path d="M328.299 435.675c11.494 11.489 11.676 30.002 0.547 41.714l-0.547 0.561-143.757 143.691c-59.637 59.61-59.637 156.256 0 215.866 59.04 59.013 154.398 59.603 214.165 1.77l1.8-1.77 143.758-143.69c11.68-11.675 30.615-11.675 42.295 0 11.494 11.488 11.676 30.001 0.547 41.713l-0.547 0.561-143.758 143.69c-82.996 82.958-217.559 82.958-300.555 0-82.166-82.127-82.988-214.773-2.465-297.911l2.465-2.504 143.757-143.69c11.68-11.675 30.616-11.675 42.295 0z m-2.498-164.031l0.567 0.54 427.9 418.503c11.805 11.547 12.01 30.473 0.459 42.273-11.368 11.613-29.887 11.996-41.725 1l-0.567-0.54-427.9-418.503c-11.805-11.547-12.01-30.473-0.459-42.273 11.369-11.613 29.888-11.996 41.725-1z m556.952-127.426c82.166 82.128 82.988 214.774 2.465 297.912l-2.465 2.504-143.757 143.69c-11.68 11.675-30.616 11.675-42.295 0-11.494-11.488-11.676-30.001-0.547-41.713l0.547-0.561 143.757-143.691c59.637-59.61 59.637-156.256 0-215.866-59.04-59.013-154.398-59.603-214.165-1.77l-1.8 1.77-143.758 143.69c-11.68 11.675-30.615 11.675-42.295 0-11.494-11.488-11.676-30.001-0.547-41.713l0.547-0.561 143.758-143.69c82.996-82.958 217.559-82.958 300.555 0z" fill="#333333" p-id="4600"></path></svg>