<svg width="16" height="16" viewBox="0 0 16 16" fill="none" xmlns="http://www.w3.org/2000/svg">
<g id="&#230;&#148;&#190;&#229;&#164;&#167;">
<g id="Group 3263">
<path id="Ellipse 475 (Stroke)" fill-rule="evenodd" clip-rule="evenodd" d="M12.8 7C12.8 3.79675 10.2033 1.2 7 1.2C3.79675 1.2 1.2 3.79675 1.2 7C1.2 10.2033 3.79675 12.8 7 12.8C10.2033 12.8 12.8 10.2033 12.8 7ZM14 7C14 3.13401 10.866 -4.74968e-07 7 -3.0598e-07C3.13401 -1.36992e-07 -4.74968e-07 3.13401 -3.0598e-07 7C-1.36992e-07 10.866 3.13401 14 7 14C10.866 14 14 10.866 14 7Z" fill="#333333"/>
<path id="Line 173 (Stroke)" fill-rule="evenodd" clip-rule="evenodd" d="M14.5347 15.3841L10.9991 11.8485L11.8477 11L15.3832 14.5355L14.5347 15.3841Z" fill="#333333"/>
<path id="+" d="M6.33887 7.66016H4.66895V6.57617H6.33887V4.9209H7.47168V6.57617H9.14648V7.66016H7.47168V9.40332H6.33887V7.66016Z" fill="#2778FF"/>
</g>
</g>
</svg>
