<?xml version="1.0" standalone="no"?><!DOCTYPE svg PUBLIC "-//W3C//DTD SVG 1.1//EN" "http://www.w3.org/Graphics/SVG/1.1/DTD/svg11.dtd"><svg t="1674982721052" class="icon" viewBox="0 0 1024 1024" version="1.1" xmlns="http://www.w3.org/2000/svg" p-id="2723" xmlns:xlink="http://www.w3.org/1999/xlink" width="200" height="200"><path d="M925.215348 1023.821256H98.427165A92.915243 92.915243 0 0 1 0 937.205351V86.794649A92.915243 92.915243 0 0 1 98.427165 0.178744h826.788183A92.915243 92.915243 0 0 1 1023.642513 86.794649v850.410702a92.915243 92.915243 0 0 1-98.427165 86.615905zM78.741732 86.794649v850.410702a25.197354 25.197354 0 0 0 19.685433 7.874174h826.788183a25.197354 25.197354 0 0 0 19.685433-7.874174V86.794649a22.835102 22.835102 0 0 0-19.685433-7.874174H98.427165a22.835102 22.835102 0 0 0-19.685433 7.874174z" p-id="2724"></path><path d="M590.562988 315.145671h-314.966927a39.370866 39.370866 0 0 1 0-78.741732h314.966927a39.370866 39.370866 0 0 1 0 78.741732zM748.046451 551.370866h-472.45039a39.370866 39.370866 0 0 1 0-78.741732h472.45039a39.370866 39.370866 0 0 1 0 78.741732zM748.046451 787.596061h-472.45039a39.370866 39.370866 0 0 1 0-78.741732h472.45039a39.370866 39.370866 0 0 1 0 78.741732z" p-id="2725"></path></svg>