<?xml version="1.0" standalone="no"?><!DOCTYPE svg PUBLIC "-//W3C//DTD SVG 1.1//EN" "http://www.w3.org/Graphics/SVG/1.1/DTD/svg11.dtd"><svg xmlns="http://www.w3.org/2000/svg" fill="none" viewBox="0 0 48 54" class="x-biz-file-thumb size-normal fx-upload-file-thumb"><path d="M34.6.1H6C2.7.1 0 2.795 0 6.089V48.01C0 51.305 2.7 54 6 54h36c3.3 0 6-2.695 6-5.989V13.375L34.6.1Z" fill="#3F85FF"></path><path d="M47.9 13.375h-7.4c-3.3 0-6-2.695-6-5.989V0l13.4 13.375Z" fill="#8FB8FF"></path><path d="M15.184 35.128c-.888 0-1.676-.216-2.364-.648-.688-.432-1.224-1.036-1.608-1.812-.384-.776-.576-1.668-.576-2.676 0-1.008.192-1.9.576-2.676.384-.776.92-1.38 1.608-1.812.688-.432 1.476-.648 2.364-.648.888 0 1.676.216 2.364.648a4.27 4.27 0 0 1 1.608 1.812c.384.776.576 1.668.576 2.676 0 1.008-.192 1.9-.576 2.676a4.27 4.27 0 0 1-1.608 1.812c-.688.432-1.476.648-2.364.648Zm0-1.536c.52 0 .984-.148 1.392-.444.408-.304.724-.728.948-1.272.224-.552.336-1.18.336-1.884 0-.712-.112-1.34-.336-1.884-.224-.544-.54-.964-.948-1.26a2.27 2.27 0 0 0-1.392-.456c-.52 0-.984.152-1.392.456-.4.296-.712.716-.936 1.26-.224.544-.336 1.172-.336 1.884 0 .704.112 1.332.336 1.884.224.544.536.968.936 1.272a2.31 2.31 0 0 0 1.392.444Zm7.996-6.996v2.496h3.827v1.584H23.18v4.284h-1.884v-9.948h5.988v1.584H23.18Zm13.859 3.396c0 1-.18 1.876-.54 2.628a4.014 4.014 0 0 1-1.548 1.728c-.664.408-1.444.612-2.34.612h-3.804v-9.948h3.804c.896 0 1.676.208 2.34.624.672.408 1.188.988 1.548 1.74.36.752.54 1.624.54 2.616Zm-1.872 0c0-1.04-.256-1.864-.768-2.472-.512-.616-1.224-.924-2.136-.924H30.69v6.792h1.572c.912 0 1.624-.304 2.136-.912.512-.616.768-1.444.768-2.484Z" fill="#fff"></path></svg>