<svg width="28" height="28" viewBox="0 0 28 28" fill="none" xmlns="http://www.w3.org/2000/svg">
<g id="Frame">
<g id="Group 427318766">
<path id="Vector" d="M27 11.9451V24.6433V26.1519C27 26.3434 26.8433 26.5001 26.6519 26.5001H1.34814C1.15666 26.5001 1 26.3434 1 26.1519V4.57617C1 4.3847 1.15666 4.22804 1.34814 4.22804H6.39612C6.49185 4.22804 6.57019 4.14971 6.57019 4.05397V2.54248C6.57019 2.44674 6.64852 2.36841 6.74425 2.36841H8.25285C8.34858 2.36841 8.42691 2.44674 8.42691 2.54248V4.05397C8.42691 4.14971 8.50524 4.22804 8.60098 4.22804H19.3932C19.489 4.22804 19.5673 4.14971 19.5673 4.05397V2.54248C19.5673 2.44674 19.6456 2.36841 19.7414 2.36841H21.2499C21.3457 2.36841 21.424 2.44674 21.424 2.54248V4.05397C21.424 4.14971 21.5023 4.22804 21.5981 4.22804H26.6432C26.8346 4.22804 26.9913 4.3847 26.9913 4.57617V11.9451H27Z" fill="#1F79FF"/>
<path id="Vector_2" d="M4.17407 18.1883H13.1154C13.2111 18.1883 13.2894 18.1099 13.2894 18.0142V16.5056C13.2894 16.4099 13.2111 16.3315 13.1154 16.3315H4.17407C4.07833 16.3315 4 16.4099 4 16.5056V18.0142C4 18.1099 4.07833 18.1883 4.17407 18.1883ZM4.17407 21.8959H11.1154C11.2111 21.8959 11.2894 21.8176 11.2894 21.7219V20.2133C11.2894 20.1175 11.2111 20.0392 11.1154 20.0392H4.17407C4.07833 20.0392 4 20.1175 4 20.2133V21.7219C4 21.8176 4.07833 21.8959 4.17407 21.8959Z" fill="white"/>
<path id="Vector_3" d="M18.433 19.2561L17.4931 18.0666C17.4321 17.9912 17.3248 17.9796 17.2494 18.0376L16.0657 18.9747C15.9903 19.0356 15.9787 19.1429 16.0367 19.2184L18.2358 21.9976L18.2387 22.0005L23.9278 17.5009C24.0032 17.44 24.0148 17.3326 23.9568 17.2572L23.0197 16.0735C22.9588 15.9981 22.8515 15.9865 22.776 16.0445L18.6796 19.2851C18.6042 19.3431 18.494 19.3315 18.433 19.2561Z" fill="white"/>
<rect id="Rectangle 34624131" x="1" y="10.7639" width="25.9942" height="1.63392" fill="white"/>
<rect id="Rectangle 34624132" x="9" y="2" width="5" height="3" transform="rotate(90 9 2)" fill="#99C1FF"/>
<rect id="Rectangle 34624133" x="22" y="2" width="5" height="3" transform="rotate(90 22 2)" fill="#99C1FF"/>
</g>
</g>
</svg>
