<svg width="40" height="40" viewBox="0 0 40 40" fill="none" xmlns="http://www.w3.org/2000/svg">
<g id="&#230;&#137;&#139;&#230;&#156;&#186;" clip-path="url(#clip0_2365_751)">
<circle id="Ellipse 414" cx="20" cy="20" r="20" fill="#F5F8FF"/>
<g id="Frame">
<path id="Vector" d="M24.296 21.9259H15.259C14.8146 21.9259 14.3701 22.3703 14.3701 22.8148C14.3701 23.2592 14.8146 23.7036 15.259 23.7036H24.296C24.7405 23.7036 25.1849 23.2592 25.1849 22.8148C25.1849 22.3703 24.7405 21.9259 24.296 21.9259ZM15.259 19.9999H19.5553C19.9997 19.9999 20.4442 19.5555 20.4442 19.1111C20.4442 18.6666 20.1479 18.2222 19.5553 18.2222H15.259C14.8146 18.2222 14.3701 18.6666 14.3701 19.1111C14.3701 19.5555 14.8146 19.9999 15.259 19.9999ZM24.296 25.6296H15.259C14.8146 25.6296 14.3701 26.074 14.3701 26.5185C14.3701 26.9629 14.8146 27.4074 15.259 27.4074H24.296C24.7405 27.4074 25.1849 26.9629 25.1849 26.5185C25.1849 25.9259 24.7405 25.6296 24.296 25.6296Z" fill="#2778FF"/>
<path id="Vector_2" d="M29.9264 15.5554V15.4073V15.2592L23.2597 8.44434H23.1115H12.8893C11.4078 8.44434 10.2227 9.62952 10.2227 11.111V29.3332C10.2227 30.8147 11.4078 31.9999 12.8893 31.9999H27.2597C28.7412 31.9999 29.9264 30.8147 29.9264 29.3332V27.2592C29.9264 26.8147 29.4819 26.3703 29.0375 26.3703C28.593 26.3703 28.1486 26.8147 28.1486 27.2592V29.3332C28.1486 29.7777 27.7041 30.2221 27.2597 30.2221H12.8893C12.4449 30.2221 12.0004 29.7777 12.0004 29.3332V10.6666C12.0004 10.2221 12.4449 9.77767 12.8893 9.77767H21.6301V15.7036C21.6301 16.148 22.0745 16.5925 22.519 16.5925H28.2967V22.8147C28.2967 23.2592 28.7412 23.7036 29.1856 23.7036C29.6301 23.7036 30.0745 23.2592 30.0745 22.8147L29.9264 15.5554C29.9264 15.7036 29.9264 15.7036 29.9264 15.5554ZM23.4078 14.8147V11.111L26.9634 14.8147H23.4078Z" fill="#2778FF"/>
</g>
</g>
<defs>
<clipPath id="clip0_2365_751">
<rect width="40" height="40" fill="white"/>
</clipPath>
</defs>
</svg>
