<svg width="20" height="20" viewBox="0 0 20 20" fill="none" xmlns="http://www.w3.org/2000/svg">
<g id="&#231;&#189;&#145;&#229;&#133;&#179;">
<path id="Vector" d="M8.33341 4.16667C8.33341 5.08714 9.07961 5.83333 10.0001 5.83333C10.9206 5.83333 11.6667 5.08714 11.6667 4.16667C11.6667 3.24619 10.9206 2.5 10.0001 2.5C9.07961 2.5 8.33341 3.24619 8.33341 4.16667Z" stroke="#2778FF"/>
<path id="Vector_2" d="M14.1667 15.8327C14.1667 16.7532 14.9129 17.4993 15.8333 17.4993C16.7538 17.4993 17.5 16.7532 17.5 15.8327C17.5 14.9122 16.7538 14.166 15.8333 14.166C14.9129 14.166 14.1667 14.9122 14.1667 15.8327Z" stroke="#93BCFF"/>
<path id="Vector_3" d="M8.33341 15.8327C8.33341 16.7532 9.07961 17.4993 10.0001 17.4993C10.9206 17.4993 11.6667 16.7532 11.6667 15.8327C11.6667 14.9122 10.9206 14.166 10.0001 14.166C9.07961 14.166 8.33341 14.9122 8.33341 15.8327Z" stroke="#2778FF"/>
<path id="Vector_4" d="M2.49992 15.8327C2.49992 16.7532 3.24611 17.4993 4.16659 17.4993C5.08706 17.4993 5.83325 16.7532 5.83325 15.8327C5.83325 14.9122 5.08706 14.166 4.16659 14.166C3.24611 14.166 2.49992 14.9122 2.49992 15.8327Z" stroke="#93BCFF"/>
<path id="Vector_5" d="M4.16658 14.166L4.16658 9.16602L15.8333 9.16602L15.8333 14.166" stroke="#93BCFF" stroke-linecap="round" stroke-linejoin="round"/>
<path id="Vector_6" d="M10 5.83398L10 14.1673" stroke="#2778FF" stroke-linecap="round" stroke-linejoin="round"/>
</g>
</svg>
