<svg width="28" height="28" viewBox="0 0 28 28" fill="none" xmlns="http://www.w3.org/2000/svg">
<g id="Frame">
<path id="Vector" d="M27.0468 22.5017C26.6122 22.2119 21.4399 17.9017 21.1502 17.5395C20.9454 17.3687 20.6918 17.2673 20.4258 17.2498H11.8126C11.1679 17.2498 10.4435 17.3946 10.4435 18.5464C10.4461 18.9296 10.5855 19.2993 10.8365 19.5888C11.0875 19.8783 11.4337 20.0687 11.8126 20.1256C12.537 20.2705 14.3263 20.4154 15.623 20.4879C16.0576 20.4879 15.623 20.7776 15.623 20.7776L13.9713 21.857H8.21954C8.21954 21.857 5.829 20.1981 4.33672 19.1187C1.82303 17.4671 0.888549 19.1187 0.888549 19.1187C0.888549 19.1187 0.598787 19.691 0.888549 20.0532C2.25768 21.205 7.06773 25.2255 7.4082 25.5152C7.51956 25.599 7.64888 25.6556 7.78592 25.6808C7.92296 25.7059 8.06397 25.6989 8.1978 25.6601H18.1439C18.6149 25.7 19.0647 25.8734 19.4406 26.1599L21.382 27.7392C22.1716 28.3114 22.6062 27.7392 22.6062 27.7392L27.0468 23.1826C27.0468 23.1826 27.4815 22.7842 27.0468 22.5017Z" fill="#1F79FF"/>
<path id="Vector_2" d="M6.16238 1.00171H19.4625C19.6324 1.0017 19.8007 1.0353 19.9576 1.10055C20.1145 1.1658 20.257 1.26143 20.3768 1.38193C20.4966 1.50244 20.5915 1.64544 20.6559 1.80272C20.7202 1.96 20.7529 2.12845 20.7519 2.29839V11.7881C20.7552 12.0017 20.7044 12.2126 20.6044 12.4013C20.5043 12.59 20.3582 12.7503 20.1796 12.8675L12.9935 17.5399L5.5901 12.8675C5.41151 12.7503 5.26541 12.59 5.16536 12.4013C5.06531 12.2126 5.01456 12.0017 5.01782 11.7881V2.29839C4.98799 2.13461 4.99569 1.96619 5.04033 1.8058C5.08498 1.64542 5.16542 1.49725 5.27559 1.37244C5.38576 1.24762 5.5228 1.14941 5.6764 1.0852C5.83 1.02099 5.99616 0.992441 6.16238 1.00171Z" fill="#1F79FF"/>
<g id="Vector_3">
<path d="M10.4715 12.2016H15.3757H15.3902C15.4977 12.2016 15.6042 12.1804 15.7035 12.1393C15.8028 12.0981 15.893 12.0378 15.9691 11.9618C16.0451 11.8858 16.1054 11.7956 16.1465 11.6962C16.1876 11.5969 16.2088 11.4905 16.2088 11.383C16.2088 11.2755 16.1876 11.169 16.1465 11.0697C16.1054 10.9704 16.0451 10.8802 15.9691 10.8042C15.893 10.7282 15.8028 10.6679 15.7035 10.6267C15.6042 10.5856 15.4977 10.5644 15.3902 10.5644H10.4715C10.2544 10.5644 10.0462 10.6507 9.89269 10.8042C9.73918 10.9577 9.65294 11.1659 9.65294 11.383C9.65294 11.6001 9.73918 11.8083 9.89269 11.9618C10.0462 12.1153 10.2544 12.2016 10.4715 12.2016Z" fill="white"/>
<path d="M8.81987 8.92001H16.9912C17.1003 8.92632 17.2096 8.90947 17.3117 8.87057C17.4139 8.83167 17.5067 8.77159 17.584 8.69428C17.6613 8.61697 17.7214 8.52418 17.7603 8.42201C17.7992 8.31983 17.8161 8.21058 17.8098 8.10143C17.8161 7.99228 17.7992 7.88303 17.7603 7.78086C17.7214 7.67868 17.6613 7.58589 17.584 7.50858C17.5067 7.43128 17.4139 7.3712 17.3117 7.33229C17.2096 7.29339 17.1003 7.27654 16.9912 7.28285H8.81987C8.71072 7.27654 8.60147 7.29339 8.4993 7.33229C8.39712 7.3712 8.30433 7.43128 8.22703 7.50858C8.14972 7.58589 8.08964 7.67868 8.05073 7.78086C8.01183 7.88303 7.99498 7.99228 8.00129 8.10143C7.99498 8.21058 8.01183 8.31983 8.05073 8.42201C8.08964 8.52418 8.14972 8.61697 8.22703 8.69428C8.30433 8.77159 8.39712 8.83167 8.4993 8.87057C8.60147 8.90947 8.71072 8.92632 8.81987 8.92001Z" fill="white"/>
<path d="M8.81987 5.63845H16.9912V5.6457C17.101 5.65211 17.2109 5.63509 17.3136 5.59575C17.4163 5.55642 17.5095 5.49568 17.5869 5.41757C17.6643 5.33946 17.7242 5.24576 17.7627 5.14271C17.8011 5.03966 17.8171 4.92961 17.8098 4.81987C17.8161 4.71072 17.7992 4.60147 17.7603 4.4993C17.7214 4.39712 17.6613 4.30433 17.584 4.22703C17.5067 4.14972 17.4139 4.08964 17.3117 4.05073C17.2096 4.01183 17.1003 3.99498 16.9912 4.00129H8.81987C8.71072 3.99498 8.60147 4.01183 8.4993 4.05073C8.39712 4.08964 8.30433 4.14972 8.22703 4.22703C8.14972 4.30433 8.08964 4.39712 8.05073 4.4993C8.01183 4.60147 7.99498 4.71072 8.00129 4.81987C7.99498 4.92902 8.01183 5.03827 8.05073 5.14045C8.08964 5.24262 8.14972 5.33541 8.22703 5.41272C8.30433 5.49003 8.39712 5.55011 8.4993 5.58901C8.60147 5.62792 8.71072 5.64476 8.81987 5.63845Z" fill="white"/>
</g>
</g>
</svg>
