<svg width="16" height="16" viewBox="0 0 16 16" fill="none" xmlns="http://www.w3.org/2000/svg">
<g id="Group">
<g id="Group 3293">
<path id="Vector" d="M15.3 8.59998C15.4592 8.59998 15.6118 8.53676 15.7243 8.42424C15.8368 8.31172 15.9 8.15911 15.9 7.99998C15.9 7.84085 15.8368 7.68823 15.7243 7.57571C15.6118 7.46319 15.4592 7.39998 15.3 7.39998L0.700026 7.39998C0.540895 7.39998 0.388283 7.46319 0.275761 7.57571C0.163239 7.68823 0.100025 7.84085 0.100025 7.99998C0.100025 8.15911 0.163239 8.31172 0.275761 8.42424C0.388283 8.53676 0.540895 8.59998 0.700026 8.59998L15.3 8.59998Z" fill="#333333"/>
<path id="Rectangle 2118" d="M6.6 15C6.82091 15 7 14.8209 7 14.6L7 1.4C7 1.17909 6.82091 1 6.6 1L2.4 1C2.17909 1 2 1.17909 2 1.4L2 14.6C2 14.8209 2.17909 15 2.4 15L6.6 15Z" fill="white"/>
<path id="Rectangle 2118 (Stroke)" fill-rule="evenodd" clip-rule="evenodd" d="M5.8 13.8L3.2 13.8L3.2 2.2L5.8 2.2L5.8 13.8ZM7 14.6C7 14.8209 6.82091 15 6.6 15L2.4 15C2.17909 15 2 14.8209 2 14.6L2 1.4C2 1.17909 2.17909 1 2.4 1L6.6 1C6.82091 1 7 1.17909 7 1.4L7 14.6Z" fill="#333333"/>
<path id="Rectangle 2119" d="M13.6 12C13.8209 12 14 11.8209 14 11.6L14 4.4C14 4.17909 13.8209 4 13.6 4L9.4 4C9.17909 4 9 4.17909 9 4.4L9 11.6C9 11.8209 9.17909 12 9.4 12L13.6 12Z" fill="white"/>
<path id="Rectangle 2119 (Stroke)" fill-rule="evenodd" clip-rule="evenodd" d="M12.8 10.8L10.2 10.8L10.2 5.2L12.8 5.2L12.8 10.8ZM14 11.6C14 11.8209 13.8209 12 13.6 12L9.4 12C9.17909 12 9 11.8209 9 11.6L9 4.4C9 4.17909 9.17909 4 9.4 4L13.6 4C13.8209 4 14 4.17909 14 4.4L14 11.6Z" fill="#2778FF"/>
</g>
</g>
</svg>
