<svg width="16" height="16" viewBox="0 0 16 16" fill="none" xmlns="http://www.w3.org/2000/svg">
<g id="Frame" clip-path="url(#clip0_2292_12657)">
<path id="Rectangle 2119 (Stroke)" fill-rule="evenodd" clip-rule="evenodd" d="M6.7 10.7485L9.3 10.7485L9.3 5.25153L6.7 5.25153L6.7 10.7485ZM5.5 11.5338C5.5 11.7506 5.67909 11.9264 5.9 11.9264L10.1 11.9264C10.3209 11.9264 10.5 11.7506 10.5 11.5338L10.5 4.46625C10.5 4.24941 10.3209 4.07362 10.1 4.07362L5.9 4.07362C5.67909 4.07362 5.5 4.24941 5.5 4.46625L5.5 11.5338Z" fill="#2778FF"/>
<path id="Rectangle 2118 (Stroke)" fill-rule="evenodd" clip-rule="evenodd" d="M2.8 13.8L1.2 13.8L1.2 2.2L2.8 2.2L2.8 13.8ZM4 14.6C4 14.8209 3.82091 15 3.6 15L0.4 15C0.179086 15 -2.13558e-09 14.8209 -4.76995e-09 14.6L-1.62178e-07 1.4C-1.64813e-07 1.17909 0.179086 1 0.4 1L3.6 1C3.82091 1 4 1.17909 4 1.4L4 14.6Z" fill="#333333"/>
<path id="Rectangle 2118 (Stroke)_2" fill-rule="evenodd" clip-rule="evenodd" d="M14.8 13.8L13.2 13.8L13.2 2.2L14.8 2.2L14.8 13.8ZM16 14.6C16 14.8209 15.8209 15 15.6 15L12.4 15C12.1791 15 12 14.8209 12 14.6L12 1.4C12 1.17909 12.1791 1 12.4 1L15.6 1C15.8209 1 16 1.17909 16 1.4L16 14.6Z" fill="#333333"/>
</g>
<defs>
<clipPath id="clip0_2292_12657">
<rect width="16" height="16" fill="white" transform="matrix(-1 0 0 1 16 0)"/>
</clipPath>
</defs>
</svg>
