<svg width="28" height="28" viewBox="0 0 28 28" fill="none" xmlns="http://www.w3.org/2000/svg">
<g id="&#231;&#131;&#173;&#231;&#130;&#185;&#229;&#186;&#148;&#231;&#148;&#168;&#229;&#143;&#145;&#229;&#184;&#131;" clip-path="url(#clip0_6295_1893)">
<path id="Polygon 30" d="M13 0.57735C13.6188 0.220085 14.3812 0.220085 15 0.57735L25.1244 6.42265C25.7432 6.77992 26.1244 7.44017 26.1244 8.1547V19.8453C26.1244 20.5598 25.7432 21.2201 25.1244 21.5774L15 27.4226C14.3812 27.7799 13.6188 27.7799 13 27.4226L2.87564 21.5774C2.25684 21.2201 1.87564 20.5598 1.87564 19.8453V8.1547C1.87564 7.44017 2.25684 6.77992 2.87564 6.42265L13 0.57735Z" fill="#1F79FF"/>
<path id="Vector" d="M14 21C17.3137 21 20 18.3511 20 15.0835C20 14.2814 19.8904 13.5179 19.6558 12.7909C19.5203 12.3711 19.4107 12.1706 19.2497 11.7842C19.0888 11.3978 18.8746 11.0716 18.6307 10.7434C18.3869 10.4153 17.9118 9.77005 17.5829 9.64049C17.5829 10.149 16.5838 11.9251 16.2003 12.0144C15.8167 12.1036 16.4837 10.1469 15.6341 8.80851C14.7843 7.47008 13.4105 6.59147 13.4105 7.19291C13.4105 7.79434 13.0304 8.80421 12.6474 9.30487C12.2645 9.8055 11.6435 10.2356 11.211 10.4376C10.7785 10.6397 10.9351 9.42619 10.6105 9.64049C10.2833 9.85649 9.81819 10.4582 9.57363 10.8358C8.7175 12.1579 8 13.4497 8 15.0835C8 18.3511 10.6863 21 14 21Z" fill="white"/>
</g>
<defs>
<clipPath id="clip0_6295_1893">
<rect width="28" height="28" fill="white"/>
</clipPath>
</defs>
</svg>
