<?xml version="1.0" standalone="no"?><!DOCTYPE svg PUBLIC "-//W3C//DTD SVG 1.1//EN" "http://www.w3.org/Graphics/SVG/1.1/DTD/svg11.dtd"><svg class="icon" width="200px" height="195.42px" viewBox="0 0 1048 1024" version="1.1" xmlns="http://www.w3.org/2000/svg"><path d="M97.792 471.296V704H55.616V512.32H54.272l-54.4 34.752v-38.656l57.792-37.12h40.128zM156.8 704v-30.464l80.832-79.168c7.68-7.808 14.144-14.72 19.264-20.8 5.184-6.08 9.024-11.968 11.648-17.664a43.52 43.52 0 0 0 3.84-18.176 33.28 33.28 0 0 0-18.752-31.168 44.352 44.352 0 0 0-19.84-4.288 40.96 40.96 0 0 0-20.16 4.8 32.832 32.832 0 0 0-13.44 13.312 42.752 42.752 0 0 0-4.608 20.544H155.52c0-14.72 3.392-27.584 10.112-38.528 6.72-10.88 16-19.328 27.84-25.344 11.904-5.952 25.536-8.96 40.96-8.96 15.552 0 29.248 2.88 41.088 8.768 11.84 5.76 20.992 13.824 27.52 23.936 6.592 10.176 9.856 21.76 9.856 34.816 0 8.704-1.664 17.28-4.992 25.6a109.056 109.056 0 0 1-17.6 28.032c-8.32 10.24-20.032 22.592-35.136 37.12l-40.128 40.832v1.6h101.376V704H156.864z m224.576 2.56a24.32 24.32 0 0 1-17.728-7.36 23.552 23.552 0 0 1-7.296-17.728 23.296 23.296 0 0 1 7.296-17.472 24.32 24.32 0 0 1 17.728-7.296c6.656 0 12.416 2.432 17.344 7.296a23.872 23.872 0 0 1 4.032 30.08 26.112 26.112 0 0 1-9.152 9.152 23.68 23.68 0 0 1-12.224 3.264z m144.384-238.464c11.136 0.064 21.952 2.048 32.448 5.888 10.624 3.84 20.16 10.048 28.672 18.624 8.448 8.576 15.232 20.096 20.224 34.432 4.992 14.4 7.488 32.256 7.488 53.44a200.32 200.32 0 0 1-6.4 53.632 119.04 119.04 0 0 1-18.24 39.808c-8 10.816-17.536 19.072-28.8 24.704a82.56 82.56 0 0 1-37.76 8.576c-14.72 0-27.776-2.88-39.168-8.64a73.472 73.472 0 0 1-40.192-57.984h41.472c2.112 9.28 6.4 16.64 12.928 22.08a38.08 38.08 0 0 0 24.96 8.064c16.064 0 28.544-7.04 37.248-21.056 8.704-14.016 13.056-33.472 13.056-58.368H572.16a59.776 59.776 0 0 1-14.4 17.28 65.664 65.664 0 0 1-20.16 11.008c-7.424 2.56-15.296 3.84-23.68 3.84a70.4 70.4 0 0 1-36.736-9.792 71.36 71.36 0 0 1-25.792-26.816 80 80 0 0 1-9.6-38.976c0-15.104 3.52-28.736 10.496-40.768 7.04-12.16 16.832-21.696 29.44-28.608a87.04 87.04 0 0 1 44.096-10.368z m0.064 34.112a42.752 42.752 0 0 0-37.632 22.144 46.08 46.08 0 0 0-5.504 22.592c0 8.32 1.92 15.744 5.568 22.528a41.408 41.408 0 0 0 37.12 21.952 41.92 41.92 0 0 0 31.04-13.312 46.272 46.272 0 0 0 12.608-31.488c0-7.936-1.92-15.36-5.696-22.08a43.904 43.904 0 0 0-15.36-16.256 40.448 40.448 0 0 0-22.144-6.08z m209.344 204.992c-16.896 0-31.872-2.88-44.992-8.576a74.88 74.88 0 0 1-30.72-23.232 54.72 54.72 0 0 1-10.88-33.792 55.872 55.872 0 0 1 6.4-26.88 60.032 60.032 0 0 1 17.472-20.48 56.448 56.448 0 0 1 24.768-10.56v-1.6a49.28 49.28 0 0 1-29.12-18.304 52.8 52.8 0 0 1-10.88-33.28 52.992 52.992 0 0 1 9.984-32.064c6.784-9.408 16-16.768 27.712-22.144 11.776-5.44 25.152-8.192 40.256-8.192 14.912 0 28.16 2.752 39.872 8.192 11.776 5.376 20.992 12.8 27.712 22.144a53.12 53.12 0 0 1 10.24 32c0 12.608-3.712 23.68-11.264 33.28a49.088 49.088 0 0 1-28.736 18.368v1.6a60.032 60.032 0 0 1 42.048 31.04 56.064 56.064 0 0 1 6.592 26.88 54.912 54.912 0 0 1-11.136 33.792 74.88 74.88 0 0 1-30.72 23.232 110.272 110.272 0 0 1-44.608 8.576z m0-32.512a54.144 54.144 0 0 0 22.72-4.48 34.432 34.432 0 0 0 20.48-31.616 35.264 35.264 0 0 0-5.76-19.584 38.08 38.08 0 0 0-15.36-13.504 48.128 48.128 0 0 0-22.08-4.928 49.152 49.152 0 0 0-22.272 4.928 38.912 38.912 0 0 0-15.488 13.44 34.56 34.56 0 0 0-5.44 19.712 33.152 33.152 0 0 0 20.224 31.488 54.016 54.016 0 0 0 22.976 4.48z m0-106.048c7.104 0 13.44-1.408 18.88-4.288a32.896 32.896 0 0 0 17.92-29.888 33.216 33.216 0 0 0-4.736-17.536 30.784 30.784 0 0 0-12.992-11.648 41.6 41.6 0 0 0-19.072-4.224 42.88 42.88 0 0 0-19.456 4.224 30.784 30.784 0 0 0-17.344 29.184 33.152 33.152 0 0 0 4.48 17.856c3.2 5.056 7.616 9.088 13.12 12.032a41.472 41.472 0 0 0 19.2 4.288zM867.584 704l99.008-195.904v-1.6h-114.944v-35.2h158.528v35.968L911.36 704h-43.776z" fill="#002851" /><path d="M24.32 128h704v128H24.32V128z" fill="#002851" /></svg>