<svg width="14" height="14" viewBox="0 0 14 14" fill="none" xmlns="http://www.w3.org/2000/svg">
<g id="Frame">
<path id="Vector" d="M5.25 3.79167C5.25 3.14735 4.72765 2.625 4.08333 2.625C3.43901 2.625 2.91666 3.14735 2.91666 3.79167C2.91666 4.43599 3.43901 4.95833 4.08333 4.95833C4.72765 4.95833 5.25 4.43599 5.25 3.79167Z" stroke="#002851" stroke-linejoin="round"/>
<path id="Vector_2" d="M10.7917 3.79167C10.7917 3.14735 10.2693 2.625 9.625 2.625C8.98068 2.625 8.45834 3.14735 8.45834 3.79167C8.45834 4.43599 8.98068 4.95833 9.625 4.95833C10.2693 4.95833 10.7917 4.43599 10.7917 3.79167Z" stroke="#002851" stroke-linejoin="round"/>
<path id="Vector_3" d="M1.16666 3.79166H2.91666" stroke="#002851"/>
<path id="Vector_4" d="M5.25 3.79166H8.45833" stroke="#002851"/>
<path id="Vector_5" d="M10.7917 3.79166H12.8333" stroke="#002851"/>
<path id="Vector_6" d="M2.91666 8.45834L1.16666 10.2083L2.91666 11.9583" stroke="#002851" stroke-linejoin="round"/>
<path id="Vector_7" d="M1.16666 10.2083H12.8333" stroke="#002851" stroke-linejoin="round"/>
</g>
</svg>
