<?xml version="1.0" standalone="no"?>
<!DOCTYPE svg PUBLIC "-//W3C//DTD SVG 1.1//EN" "http://www.w3.org/Graphics/SVG/1.1/DTD/svg11.dtd"><svg t="1718242157204"
    class="icon" viewBox="0 0 1024 1024" version="1.1" xmlns="http://www.w3.org/2000/svg" p-id="3425"
    xmlns:xlink="http://www.w3.org/1999/xlink" width="200" height="200">
    <path
        d="M614.4 256a252.928 252.928 0 0 0-102.4 21.504A252.928 252.928 0 0 0 409.6 256a256 256 0 0 0 0 512 252.928 252.928 0 0 0 102.4-21.504 252.928 252.928 0 0 0 102.4 21.504 256 256 0 0 0 0-512z m-159.744 455.68A189.952 189.952 0 0 1 409.6 716.8a204.8 204.8 0 0 1 0-409.6 189.952 189.952 0 0 1 45.056 5.12 256 256 0 0 0 0 399.36zM614.4 716.8a189.952 189.952 0 0 1-45.056-5.12 256 256 0 0 0 0-399.36A189.952 189.952 0 0 1 614.4 307.2a204.8 204.8 0 0 1 0 409.6z"
        p-id="3426"></path>
</svg>