<svg width="28" height="28" viewBox="0 0 28 28" fill="none" xmlns="http://www.w3.org/2000/svg">
<g id="Frame 4222">
<rect id="Rectangle 34624139" x="2" y="2" width="24" height="3" fill="#00C387"/>
<path id="Rectangle 34624140" d="M5.84099 23.0574L5 23.7943V4H23V23.7943L22.159 23.0574L21.5 22.48L20.841 23.0574L19 24.6704L17.159 23.0574L16.5 22.48L15.841 23.0574L14 24.6704L12.159 23.0574L11.5 22.48L10.841 23.0574L9 24.6704L7.15901 23.0574L6.5 22.48L5.84099 23.0574Z" fill="#00C387" stroke="#00C387" stroke-width="2"/>
<path id="Vector" opacity="0.6" d="M13.309 15.6845V14.0033H11.6906C11.5075 14.0033 11.3318 13.9306 11.2023 13.801C11.0728 13.6715 11 13.4958 11 13.3127C11 13.1295 11.0728 12.9538 11.2023 12.8243C11.3318 12.6948 11.5075 12.622 11.6906 12.622H13.309L13.309 11.592H11.6915C11.5083 11.592 11.3326 11.5193 11.2031 11.3898C11.0736 11.2602 11.0008 11.0846 11.0008 10.9014C11.0008 10.7182 11.0736 10.5426 11.2031 10.4131C11.3326 10.2835 11.5083 10.2108 11.6915 10.2108H13.3669L12.9672 9.81192L11.336 8.17886C11.2065 8.04935 11.1338 7.8737 11.1338 7.69055C11.1338 7.5074 11.2065 7.33176 11.336 7.20224C11.4655 7.07275 11.6412 7 11.8243 7C12.0075 7 12.1831 7.07275 12.3126 7.20224L14.0015 8.89055L15.6887 7.2025C15.8182 7.07301 15.9939 7.00026 16.177 7.00026C16.3602 7.00026 16.5358 7.07301 16.6653 7.2025C16.7295 7.26661 16.7803 7.34272 16.815 7.42648C16.8497 7.51024 16.8676 7.60002 16.8676 7.69068C16.8676 7.78135 16.8497 7.87112 16.815 7.95489C16.7803 8.03865 16.7295 8.11476 16.6653 8.17886L14.6345 10.2108H16.3094C16.4 10.2107 16.4899 10.2286 16.5736 10.2633C16.6574 10.2979 16.7336 10.3488 16.7977 10.4129C16.8618 10.477 16.9127 10.5531 16.9474 10.6369C16.9821 10.7207 17 10.8105 17 10.9011C17 11.0843 16.9272 11.26 16.7977 11.3895C16.6682 11.519 16.4925 11.5918 16.3094 11.5918H14.6913L14.6913 12.6218H16.3093C16.4925 12.6218 16.6682 12.6945 16.7977 12.8241C16.9272 12.9536 17 13.1293 17 13.3124C17 13.4956 16.9272 13.6713 16.7977 13.8008C16.6682 13.9303 16.4925 14.0031 16.3093 14.0031H14.6913V15.6843C14.6913 15.8674 14.6185 16.0431 14.489 16.1726C14.3595 16.3021 14.1838 16.3749 14.0006 16.3749C13.9099 16.375 13.82 16.3573 13.7361 16.3226C13.6522 16.288 13.5759 16.2372 13.5117 16.1731C13.4475 16.109 13.3965 16.0328 13.3617 15.949C13.3269 15.8651 13.309 15.7753 13.309 15.6845Z" fill="white"/>
<path id="Rectangle 829" d="M21 18.1797H15V19.8203H21V18.1797Z" fill="white"/>
<path id="Rectangle 830" d="M18.8203 22L18.8203 16L17.1797 16L17.1797 22L18.8203 22Z" fill="white"/>
</g>
</svg>
