<svg width="28" height="28" viewBox="0 0 28 28" fill="none" xmlns="http://www.w3.org/2000/svg">
<g id="Frame 4221">
<rect id="Rectangle 34624139" x="2" y="2" width="24" height="3" fill="#00C387"/>
<path id="Rectangle 34624140" d="M5.84099 23.0574L5 23.7943V4H23V23.7943L22.159 23.0574L21.5 22.48L20.841 23.0574L19 24.6704L17.159 23.0574L16.5 22.48L15.841 23.0574L14 24.6704L12.159 23.0574L11.5 22.48L10.841 23.0574L9 24.6704L7.15901 23.0574L6.5 22.48L5.84099 23.0574Z" fill="#00C387" stroke="#00C387" stroke-width="2"/>
<path id="Vector" d="M13.309 17.6845V16.0033H11.6906C11.5075 16.0033 11.3318 15.9306 11.2023 15.801C11.0728 15.6715 11 15.4958 11 15.3127C11 15.1295 11.0728 14.9538 11.2023 14.8243C11.3318 14.6948 11.5075 14.622 11.6906 14.622H13.309L13.309 13.592H11.6915C11.5083 13.592 11.3326 13.5193 11.2031 13.3898C11.0736 13.2602 11.0008 13.0846 11.0008 12.9014C11.0008 12.7182 11.0736 12.5426 11.2031 12.4131C11.3326 12.2835 11.5083 12.2108 11.6915 12.2108H13.3669L12.9672 11.8119L11.336 10.1789C11.2065 10.0493 11.1338 9.8737 11.1338 9.69055C11.1338 9.5074 11.2065 9.33176 11.336 9.20224C11.4655 9.07275 11.6412 9 11.8243 9C12.0075 9 12.1831 9.07275 12.3126 9.20224L14.0015 10.8905L15.6887 9.2025C15.8182 9.07301 15.9939 9.00026 16.177 9.00026C16.3602 9.00026 16.5358 9.07301 16.6653 9.2025C16.7295 9.26661 16.7803 9.34272 16.815 9.42648C16.8497 9.51024 16.8676 9.60002 16.8676 9.69068C16.8676 9.78135 16.8497 9.87112 16.815 9.95489C16.7803 10.0386 16.7295 10.1148 16.6653 10.1789L14.6345 12.2108H16.3094C16.4 12.2107 16.4899 12.2286 16.5736 12.2633C16.6574 12.2979 16.7336 12.3488 16.7977 12.4129C16.8618 12.477 16.9127 12.5531 16.9474 12.6369C16.9821 12.7207 17 12.8105 17 12.9011C17 13.0843 16.9272 13.26 16.7977 13.3895C16.6682 13.519 16.4925 13.5918 16.3094 13.5918H14.6913L14.6913 14.6218H16.3093C16.4925 14.6218 16.6682 14.6945 16.7977 14.8241C16.9272 14.9536 17 15.1293 17 15.3124C17 15.4956 16.9272 15.6713 16.7977 15.8008C16.6682 15.9303 16.4925 16.0031 16.3093 16.0031H14.6913V17.6843C14.6913 17.8674 14.6185 18.0431 14.489 18.1726C14.3595 18.3021 14.1838 18.3749 14.0006 18.3749C13.9099 18.375 13.82 18.3573 13.7361 18.3226C13.6522 18.288 13.5759 18.2372 13.5117 18.1731C13.4475 18.109 13.3965 18.0328 13.3617 17.949C13.3269 17.8651 13.309 17.7753 13.309 17.6845Z" fill="white"/>
</g>
</svg>
