<svg width="28" height="28" viewBox="0 0 28 28" fill="none" xmlns="http://www.w3.org/2000/svg">
<g id="Frame 2551(6)" clip-path="url(#clip0_4199_2751)">
<path id="Vector" d="M13.3158 20.8421C13.3158 24.2431 10.5589 27 7.15792 27C3.757 27 1 24.2431 1 20.8421C1 17.4412 3.757 14.6842 7.15792 14.6842H11.2632H13.3158V16.7369V20.8421ZM14.6843 20.8421C14.6843 24.2431 17.4412 27 20.8422 27C24.2431 27 27.0001 24.2431 27.0001 20.8421C27.0001 17.4412 24.2431 14.6842 20.8422 14.6842H16.7369H14.6843V16.7369V20.8421ZM13.3158 7.15789C13.3158 3.75693 10.5589 1 7.15792 1C3.757 1 1 3.75693 1 7.15789C1 10.5589 3.757 13.3158 7.15792 13.3158H11.2632H13.3158V11.2631V7.15789ZM14.6843 7.15789C14.6843 3.75693 17.4412 1 20.8422 1C24.2431 1 27.0001 3.75697 27.0001 7.15789C27.0001 10.5588 24.2431 13.3158 20.8422 13.3158H16.7369H14.6843V11.2631V7.15789Z" fill="#00C387"/>
<path id="Vector_2" d="M23 26C24.3807 26 25.6307 25.4404 26.5355 24.5355C27.4404 23.6307 28 22.3807 28 21C28 19.6193 27.4404 18.3693 26.5355 17.4645C25.6307 16.5596 24.3807 16 23 16C21.6193 16 20.3693 16.5596 19.4645 17.4645C18.5596 18.3693 18 19.6193 18 21C18 22.3807 18.5596 23.6307 19.4645 24.5355C20.3693 25.4404 21.6193 26 23 26Z" fill="#00C387" stroke="white" stroke-linejoin="round"/>
<path id="Vector_3" d="M21.5 21.5L22.5935 22.7317L25.7805 20" stroke="white" stroke-width="1.5" stroke-linecap="square" stroke-linejoin="round"/>
</g>
<defs>
<clipPath id="clip0_4199_2751">
<rect width="28" height="28" fill="white"/>
</clipPath>
</defs>
</svg>
