<svg width="16" height="16" viewBox="0 0 16 16" fill="none" xmlns="http://www.w3.org/2000/svg">
<g id="Group">
<g id="Group 3293">
<path id="Rectangle 2118 (Stroke)" fill-rule="evenodd" clip-rule="evenodd" d="M3.2 10.2V12.8H14.8V10.2H3.2ZM2.4 9C2.17909 9 2 9.17909 2 9.4V13.6C2 13.8209 2.17909 14 2.4 14H15.6C15.8209 14 16 13.8209 16 13.6V9.4C16 9.17909 15.8209 9 15.6 9H2.4Z" fill="#333333"/>
<path id="Rectangle 2119 (Stroke)" fill-rule="evenodd" clip-rule="evenodd" d="M3.2 3.2V5.8H8.8V3.2H3.2ZM2.4 2C2.17909 2 2 2.17909 2 2.4V6.6C2 6.82091 2.17909 7 2.4 7H9.6C9.82091 7 10 6.82091 10 6.6V2.4C10 2.17909 9.82091 2 9.6 2H2.4Z" fill="#2778FF"/>
<path id="Vector" d="M0 0.699975C0 0.540846 0.0632136 0.388233 0.175735 0.275712C0.288257 0.16319 0.44087 0.0999756 0.6 0.0999756C0.75913 0.0999756 0.911743 0.16319 1.02426 0.275712C1.13679 0.388233 1.2 0.540846 1.2 0.699975V15.3C1.2 15.4591 1.13679 15.6117 1.02426 15.7242C0.911743 15.8368 0.75913 15.9 0.6 15.9C0.44087 15.9 0.288257 15.8368 0.175735 15.7242C0.0632136 15.6117 0 15.4591 0 15.3V0.699975Z" fill="#333333"/>
</g>
</g>
</svg>
