<?xml version="1.0" standalone="no"?>
<!DOCTYPE svg PUBLIC "-//W3C//DTD SVG 1.1//EN" "http://www.w3.org/Graphics/SVG/1.1/DTD/svg11.dtd"><svg t="1718241877643"
    class="icon" viewBox="0 0 1568 1024" version="1.1" xmlns="http://www.w3.org/2000/svg" p-id="2378"
    xmlns:xlink="http://www.w3.org/1999/xlink" width="306.25" height="200">
    <path
        d="M1055.744 0c-101.888 0-199.68 29.44-283.904 85.76l-0.256-0.256-14.08 10.24-7.424 5.12C674.304 52.224 583.936 24.32 487.424 24.32 218.112 24.32 0 242.688 0 512s218.112 487.68 487.68 487.68c96.512 0 186.88-28.16 262.656-76.544l7.424 5.12 14.08 10.24 0.256-0.256c84.224 56.064 181.76 85.76 283.904 85.76 282.368 0 512-229.632 512-512S1338.112 0 1055.744 0z m-235.008 190.208c2.048 2.048 3.84 4.096 5.888 6.4 1.28 1.28 2.304 2.56 3.328 3.584 2.816 3.072 5.888 6.4 8.448 9.728 0.768 1.024 1.792 2.048 2.56 2.816 2.304 2.56 4.352 5.12 6.4 7.68 1.28 1.536 2.304 2.816 3.328 4.352 1.792 2.304 3.328 4.096 4.864 6.4 1.28 1.792 2.56 3.072 3.584 4.864l4.352 5.888 3.584 5.12c1.536 2.048 2.56 3.84 4.096 5.888 1.28 1.792 2.56 3.328 3.328 5.376 1.28 2.048 2.56 3.84 3.84 5.888 1.28 1.792 2.304 3.584 3.328 5.376l3.584 5.888c1.28 2.048 2.304 3.584 3.072 5.632 1.28 2.048 2.304 3.84 3.328 6.144 1.024 2.048 2.048 3.84 3.072 5.632 1.024 2.048 2.304 4.096 3.072 6.144l2.816 5.888 3.072 6.144c1.024 2.048 2.048 3.84 2.56 5.888 1.024 2.304 2.048 4.096 2.816 6.4 1.024 2.048 1.792 3.84 2.56 5.888 1.024 2.304 1.792 4.096 2.56 6.4 0.768 2.048 1.792 3.84 2.56 6.144s1.792 4.352 2.56 6.4l2.304 6.144c0.768 2.304 1.536 4.352 2.56 6.656l2.304 6.144 2.304 6.656c0.768 2.048 1.28 4.096 2.048 6.144 0.768 2.304 1.28 4.352 2.048 6.912 0.512 2.048 1.28 4.096 1.792 6.144 0.768 2.304 1.28 4.608 1.792 6.912l1.536 6.144 1.536 6.912 1.536 6.144c0.512 2.56 1.024 4.608 1.536 7.168 0.512 2.048 0.768 4.096 1.28 6.144 0.512 2.56 0.768 4.864 1.28 7.424 0.256 2.048 0.768 4.096 1.024 6.144 0.256 2.56 0.768 4.864 1.024 7.424 0.256 2.048 0.512 3.84 0.768 6.144l0.768 7.68c0.256 2.048 0.512 3.84 0.512 5.888l0.768 7.936c0.256 1.792 0.256 3.584 0.512 5.376 0.256 2.816 0.256 6.144 0.512 8.96 0 1.536 0.256 2.816 0.256 4.352 0.256 4.608 0.256 8.96 0.256 13.568 0 4.608 0 8.96-0.256 13.568 0 1.536-0.256 2.816-0.256 4.352 0 2.816-0.256 6.144-0.512 8.96 0 1.792-0.256 3.584-0.512 5.376l-0.768 7.936c-0.256 2.048-0.512 3.84-0.512 5.888l-0.768 7.68c-0.256 2.048-0.512 3.84-0.768 6.144-0.256 2.56-0.768 4.864-1.024 7.424-0.256 2.048-0.768 4.096-1.024 6.144-0.512 2.56-0.768 4.864-1.28 7.424-0.512 2.048-0.768 4.096-1.28 6.144-0.512 2.56-1.024 4.608-1.536 7.168l-1.536 6.144-1.536 6.912-1.536 6.144c-0.512 2.304-1.28 4.608-1.792 6.912-0.512 2.048-1.28 4.096-1.792 6.144-0.768 2.304-1.28 4.352-2.048 6.912-0.768 2.048-1.28 4.096-2.048 6.144l-2.304 6.656-2.304 6.144c-0.768 2.304-1.536 4.352-2.56 6.656l-2.304 6.144c-0.768 2.304-1.792 4.352-2.56 6.4s-1.792 3.84-2.56 6.144c-1.024 2.304-1.792 4.096-2.56 6.4-1.024 2.048-1.792 3.84-2.56 5.888-1.024 2.304-2.048 4.096-2.816 6.4-1.024 2.048-2.048 3.84-2.56 5.888l-3.072 6.144-2.048 2.816c-1.024 2.048-2.304 4.096-3.072 6.144s-2.048 3.84-3.072 5.632c-1.28 2.048-2.304 3.84-3.328 6.144-1.024 2.048-2.304 3.584-3.072 5.632l-3.584 5.888c-1.28 1.792-2.304 3.584-3.328 5.376-1.28 2.048-2.56 3.84-3.84 5.888-1.28 1.792-2.304 3.584-3.328 5.376-1.28 2.048-2.56 3.84-4.096 5.888l-3.584 5.12-4.352 5.888c-1.28 1.792-2.56 3.072-3.584 4.864-1.792 2.304-3.072 4.096-4.864 6.4-1.28 1.536-2.304 2.816-3.328 4.352-2.304 2.56-4.352 5.12-6.656 7.68-0.768 1.024-1.536 1.792-2.304 2.56-2.816 3.328-5.888 6.656-8.704 9.728-1.28 1.28-2.304 2.56-3.328 3.584-2.048 2.304-3.84 4.096-5.888 6.4-1.28 1.536-2.56 2.56-3.84 3.84l-5.632 5.632c-1.536 1.536-2.816 2.56-4.352 4.096-2.048 1.792-3.584 3.328-5.632 5.376-1.536 1.536-2.816 2.56-4.352 4.096-2.048 1.792-3.584 3.328-5.632 4.864-1.536 1.536-3.072 2.56-4.608 3.84-2.048 1.792-3.84 3.072-5.632 4.864-1.792 1.28-3.072 2.56-4.864 3.84-1.536 1.28-2.816 2.304-4.352 3.328-112.384-86.784-178.944-222.464-178.944-365.312s66.56-278.528 179.2-366.08c1.536 1.28 2.816 2.304 4.352 3.328 1.792 1.28 3.072 2.56 4.864 3.84a51.2 51.2 0 0 1 5.632 4.864l4.608 3.84c2.048 1.792 3.584 3.328 5.632 4.864 1.536 1.536 2.816 2.56 4.352 4.096 2.048 1.792 3.584 3.328 5.632 5.376 1.536 1.536 2.816 2.56 4.352 4.096l5.632 5.632c-1.024 1.024 3.072 4.864 3.072 4.864z m235.008 785.152c-86.272 0-169.472-23.296-242.432-68.352l4.864-4.096c1.28-1.024 2.56-2.304 3.584-3.072 2.816-2.56 5.888-5.12 8.448-7.68 0.512-0.512 1.28-1.024 2.048-1.792l10.24-9.472 2.816-2.816c2.56-2.304 4.608-4.608 7.168-7.168l3.584-3.584c2.048-2.304 4.096-4.096 6.144-6.4 1.28-1.28 2.56-2.56 3.584-4.096l5.888-6.656c1.28-1.536 2.56-2.56 3.584-4.096 2.048-2.56 3.84-4.608 5.888-7.168 1.024-1.28 2.048-2.56 3.072-3.584 2.56-3.072 5.12-6.4 7.68-9.472 0.256-0.512 0.768-0.768 1.024-1.28 2.816-3.584 5.632-7.424 8.192-11.264 1.024-1.28 1.792-2.56 2.56-3.584 2.048-2.56 3.584-5.12 5.632-7.68l2.816-4.352c1.792-2.56 3.072-4.864 4.864-7.424 1.024-1.536 2.048-3.072 2.816-4.608 1.536-2.56 3.072-4.864 4.608-7.424 1.024-1.536 2.048-2.816 2.56-4.608 1.792-2.56 3.072-5.376 4.608-7.936l2.304-3.84A510.2592 510.2592 0 0 0 998.912 512c0-82.688-20.224-164.864-58.368-237.568-2.304-4.096-4.352-8.192-6.656-12.288l-2.304-3.84c-1.536-2.56-3.072-5.376-4.608-7.936-1.024-1.536-2.048-2.816-2.56-4.608-1.024-2.56-2.816-4.864-4.352-7.424a44.544 44.544 0 0 1-2.816-4.608c-1.792-2.56-3.072-4.864-4.864-7.424l-2.816-4.352c-1.792-2.56-3.584-5.12-5.632-7.68-1.024-1.28-1.792-2.56-2.56-3.584-2.56-3.584-5.632-7.68-8.192-11.264-0.256-0.512-0.768-0.768-1.024-1.28-2.56-3.072-5.12-6.4-7.68-9.472-1.024-1.28-2.048-2.56-3.072-3.584-2.048-2.56-3.84-4.608-5.888-7.168-1.28-1.536-2.56-2.56-3.584-4.096l-5.888-6.656c-1.28-1.536-2.56-2.56-3.584-4.096-2.048-2.304-4.096-4.352-6.144-6.4l-3.84-3.584c-2.304-2.56-4.608-4.608-7.168-7.168l-2.816-2.816-10.24-9.472c-0.512-0.512-1.28-1.024-2.048-1.792l-8.448-7.68c-1.28-1.024-2.56-2.304-3.584-3.072l-4.864-4.096c72.704-44.8 155.904-68.352 242.432-68.352 255.488 0 463.36 207.616 463.36 463.36s-207.872 463.36-463.36 463.36z"
        p-id="2379"></path>
    <path d="M558.08 511.488a377.088 196.608 90 1 0 393.216 0 377.088 196.608 90 1 0-393.216 0Z" p-id="2380"></path>
</svg>