<?xml version="1.0" standalone="no"?><!DOCTYPE svg PUBLIC "-//W3C//DTD SVG 1.1//EN" "http://www.w3.org/Graphics/SVG/1.1/DTD/svg11.dtd"><svg class="icon" width="200px" height="200.00px" viewBox="0 0 1024 1024" version="1.1" xmlns="http://www.w3.org/2000/svg"><path d="M941.696 832H155.392V118.976a9.152 9.152 0 0 0-9.152-9.152h-64a9.152 9.152 0 0 0-9.088 9.152v786.24c0 5.056 4.096 9.152 9.088 9.152h859.456a9.152 9.152 0 0 0 9.152-9.152v-64a9.152 9.152 0 0 0-9.152-9.088zM276.352 655.744a9.152 9.152 0 0 0 12.864 0l158.08-157.248 145.856 146.752a9.152 9.152 0 0 0 12.864 0l314.752-314.624a9.152 9.152 0 0 0 0-12.928l-45.248-45.248a9.152 9.152 0 0 0-12.928 0L599.744 535.04 454.144 388.608a9.152 9.152 0 0 0-12.928 0L231.168 597.376a9.152 9.152 0 0 0 0 12.928l45.184 45.44z" fill="#002851" /></svg>