<svg width="48" height="48" viewBox="0 0 48 48" fill="none" xmlns="http://www.w3.org/2000/svg">
<g id="&#231;&#179;&#187;&#231;&#187;&#159;&#230;&#168;&#161;&#230;&#157;&#191;">
<rect id="Rectangle 1849" width="48" height="48" rx="4" fill="#E4EFFF"/>
<g id="Group 4487">
<path id="Rectangle 1974" d="M3 12H45V40C45 41.1046 44.1046 42 43 42H5C3.89543 42 3 41.1046 3 40V12Z" fill="url(#paint0_linear_2557_10552)"/>
<path id="Rectangle 1976" d="M3 9C3 7.89543 3.89543 7 5 7H43C44.1046 7 45 7.89543 45 9V12H3V9Z" fill="#AAC4FF"/>
<g id="Group 4486">
<path id="Vector" d="M10.1485 10.3937C10.642 10.3937 11.0421 9.99359 11.0421 9.50006C11.0421 9.00653 10.642 8.60645 10.1485 8.60645C9.65497 8.60645 9.25488 9.00653 9.25488 9.50006C9.25488 9.99359 9.65497 10.3937 10.1485 10.3937Z" fill="white"/>
<path id="Vector_2" d="M13.7237 10.3937C14.2172 10.3937 14.6173 9.99359 14.6173 9.50006C14.6173 9.00653 14.2172 8.60645 13.7237 8.60645C13.2302 8.60645 12.8301 9.00653 12.8301 9.50006C12.8301 9.99359 13.2302 10.3937 13.7237 10.3937Z" fill="white"/>
<path id="Vector_3" d="M6.57428 10.3937C7.06781 10.3937 7.4679 9.99359 7.4679 9.50006C7.4679 9.00653 7.06781 8.60645 6.57428 8.60645C6.08075 8.60645 5.68066 9.00653 5.68066 9.50006C5.68066 9.99359 6.08075 10.3937 6.57428 10.3937Z" fill="white"/>
</g>
</g>
<g id="Frame">
<path id="Vector_4" d="M24.4805 23.1631L20.4817 19.1644C19.3174 18 17.404 18.0257 16.208 19.2217C15.012 20.4176 14.9864 22.3311 16.1507 23.4954L19.6224 26.9671" stroke="white" stroke-width="2" stroke-linejoin="round"/>
<path id="Vector_5" d="M27.3952 26.0635L30.8669 29.5352C32.0313 30.6995 32.0056 32.6129 30.8096 33.8089C29.6136 35.0049 27.7002 35.0306 26.5359 33.8662L22.5371 29.8675" stroke="white" stroke-width="2" stroke-linejoin="round"/>
<path id="Vector_6" d="M24.4229 27.4368C25.6188 26.2409 25.6445 24.3274 24.4802 23.1631" stroke="white" stroke-width="2" stroke-linejoin="round"/>
<path id="Vector_7" d="M22.5371 25.5371C21.3411 26.7331 21.3155 28.6465 22.4798 29.8108" stroke="white" stroke-width="2" stroke-linejoin="round"/>
</g>
</g>
<defs>
<linearGradient id="paint0_linear_2557_10552" x1="24" y1="12" x2="24" y2="38.7882" gradientUnits="userSpaceOnUse">
<stop stop-color="#7BA1FA"/>
<stop offset="1" stop-color="#0F53F6"/>
</linearGradient>
</defs>
</svg>
