<?xml version="1.0" standalone="no"?><!DOCTYPE svg PUBLIC "-//W3C//DTD SVG 1.1//EN" "http://www.w3.org/Graphics/SVG/1.1/DTD/svg11.dtd"><svg t="1674982713696" class="icon" viewBox="0 0 1024 1024" version="1.1" xmlns="http://www.w3.org/2000/svg" p-id="2438" xmlns:xlink="http://www.w3.org/1999/xlink" width="200" height="200"><path d="M870.381819 1023.988395H153.598066A83.966097 83.966097 0 0 1 68.266667 942.070252V81.929748A83.966097 83.966097 0 0 1 153.598066 0.011605h716.783753A83.966097 83.966097 0 0 1 955.713218 81.929748v860.140504a83.966097 83.966097 0 0 1-85.331399 81.918143zM153.598066 68.276724a15.700977 15.700977 0 0 0-17.06628 13.653024v860.140504a15.700977 15.700977 0 0 0 17.06628 13.653024h716.783753a15.700977 15.700977 0 0 0 17.06628-13.653024V81.929748a15.700977 15.700977 0 0 0-17.06628-13.653024z" p-id="2439"></path><path d="M750.91786 307.204642H238.929465a34.13256 34.13256 0 0 1 0-68.265119H750.91786a34.13256 34.13256 0 0 1 0 68.265119zM750.91786 512H238.929465a34.13256 34.13256 0 0 1 0-68.265119H750.91786a34.13256 34.13256 0 0 1 0 68.265119zM750.91786 716.795358H238.929465a34.13256 34.13256 0 0 1 0-68.265119H750.91786a34.13256 34.13256 0 0 1 0 68.265119z" p-id="2440"></path><path d="M341.327144 819.193037a34.13256 34.13256 0 0 1-34.13256-34.13256v-614.386074a34.13256 34.13256 0 0 1 68.26512 0v614.386074a34.13256 34.13256 0 0 1-34.13256 34.13256z" p-id="2441"></path></svg>