<?xml version="1.0" standalone="no"?><!DOCTYPE svg PUBLIC "-//W3C//DTD SVG 1.1//EN" "http://www.w3.org/Graphics/SVG/1.1/DTD/svg11.dtd"><svg t="1674982749174" class="icon" viewBox="0 0 1081 1024" version="1.1" xmlns="http://www.w3.org/2000/svg" p-id="3428" xmlns:xlink="http://www.w3.org/1999/xlink" width="211.1328125" height="200"><path d="M146.404193 1023.997519a146.403522 146.403522 0 1 1 146.403523-146.403523 145.576384 145.576384 0 0 1-146.403523 146.403523z m0-209.266052a62.862529 62.862529 0 0 0-62.862529 62.862529 63.689668 63.689668 0 0 0 62.862529 63.689668 64.516807 64.516807 0 0 0 63.689668-63.689668 63.689668 63.689668 0 0 0-63.689668-62.862529zM146.404193 292.807045a146.403522 146.403522 0 1 1 146.403523-146.403523 145.576384 145.576384 0 0 1-146.403523 146.403523z m0-209.266052a62.862529 62.862529 0 0 0-62.862529 62.862529 63.689668 63.689668 0 0 0 62.862529 63.689668 64.516807 64.516807 0 0 0 63.689668-63.689668 63.689668 63.689668 0 0 0-63.689668-62.862529zM146.404193 662.537974a146.403522 146.403522 0 1 1 146.403523-150.539215A145.576384 145.576384 0 0 1 146.404193 662.537974z m0-209.266051a62.862529 62.862529 0 0 0-62.862529 58.726836 63.689668 63.689668 0 0 0 62.862529 67.825361 64.516807 64.516807 0 0 0 63.689668-63.689668 63.689668 63.689668 0 0 0-63.689668-66.998222zM1034.75099 553.355687H459.889702a41.356927 41.356927 0 0 1-41.356928-41.356928 42.184066 42.184066 0 0 1 41.356928-41.356927h578.996981a41.356927 41.356927 0 0 1 41.356927 41.356927 41.356927 41.356927 0 0 1-45.49262 41.356928zM1034.75099 918.950923H459.889702a41.356927 41.356927 0 1 1 0-82.713854h578.996981a41.356927 41.356927 0 1 1 0 82.713854zM1034.75099 187.76045H459.889702a41.356927 41.356927 0 0 1-41.356928-41.356928 42.184066 42.184066 0 0 1 41.356928-41.356927h578.996981a41.356927 41.356927 0 0 1 41.356927 41.356927 41.356927 41.356927 0 0 1-45.49262 41.356928z" p-id="3429"></path></svg>