<svg width="20" height="20" viewBox="0 0 20 20" fill="none" xmlns="http://www.w3.org/2000/svg">
<g id="Frame 4204">
<g id="Group 4247">
<path id="Rectangle 2075" d="M2 2.75H18C18.1381 2.75 18.25 2.86193 18.25 3V15.3357C18.25 15.4738 18.1381 15.5857 18 15.5857H13.7221C13.3287 15.5857 12.9467 15.7183 12.6378 15.9621L10.1549 17.9222C10.0641 17.9939 9.93592 17.9939 9.8451 17.9222L7.36219 15.9621C7.05334 15.7183 6.67134 15.5857 6.27786 15.5857H2C1.86193 15.5857 1.75 15.4738 1.75 15.3357V3C1.75 2.86193 1.86193 2.75 2 2.75Z" stroke="#666666" stroke-width="1.5"/>
<path id="Vector 875" d="M7 10C7.9 10.7546 10.36 11.8111 13 10" stroke="#666666" stroke-width="1.5" stroke-linecap="round"/>
</g>
</g>
</svg>
