<?xml version="1.0" standalone="no"?><!DOCTYPE svg PUBLIC "-//W3C//DTD SVG 1.1//EN" "http://www.w3.org/Graphics/SVG/1.1/DTD/svg11.dtd"><svg class="icon" width="200px" height="200.00px" viewBox="0 0 1024 1024" version="1.1" xmlns="http://www.w3.org/2000/svg"><path d="M73.142857 109.714286h877.714286v804.571428H73.142857v-804.571428z m877.714286-73.142857H73.142857a73.142857 73.142857 0 0 0-73.142857 73.142857v804.571428a73.142857 73.142857 0 0 0 73.142857 73.142857h877.714286a73.142857 73.142857 0 0 0 73.142857-73.142857v-804.571428a73.142857 73.142857 0 0 0-73.142857-73.142857z" fill="#002851" /><path d="M614.4 270.628571H204.8v-73.142857h409.6v73.142857zM716.8 270.628571h102.4v-73.142857H716.8v73.142857zM614.4 526.628571H204.8v-73.142857h409.6v73.142857zM716.8 526.628571h102.4v-73.142857H716.8v73.142857zM614.4 782.628571H204.8v-73.142857h409.6v73.142857zM716.8 782.628571h102.4v-73.142857H716.8v73.142857z" fill="#002851" /></svg>