<svg width="28" height="28" viewBox="0 0 28 28" fill="none" xmlns="http://www.w3.org/2000/svg">
<g id="Frame 4223">
<path id="Rectangle 34624146" d="M3 1H19L25 8V27H3V1Z" fill="#1F79FF"/>
<path id="Vector" d="M14.509 21.9171L12.083 19.4912L18.7887 12.7854L21.2147 15.2113L14.509 21.9171ZM22.7783 12.5105L21.4895 11.2218C21.1755 10.9077 20.6442 10.9299 20.3028 11.2713L19.092 12.4821L21.518 14.908L22.7288 13.6973C23.07 13.3558 23.0923 12.8245 22.7783 12.5105ZM11.8577 19.8728L11 23L14.1268 22.1423L11.8577 19.8728Z" fill="white"/>
<path id="Rectangle 34624147" d="M19 1L25 8H19V1Z" fill="#99C1FF"/>
<path id="Rectangle 825" d="M16.9803 6H8V7.64062H16.9803V6Z" fill="white"/>
<path id="Rectangle 827" d="M13.8595 10.6406H8.00098V12.2812H13.8595V10.6406Z" fill="#99C1FF"/>
</g>
</svg>
