<svg width="28" height="28" viewBox="0 0 28 28" fill="none" xmlns="http://www.w3.org/2000/svg">
<g id="Frame 4232">
<path id="Rectangle 34624146" d="M3 1H19L25 8V27H3V1Z" fill="#00C387"/>
<path id="Rectangle 34624147" d="M19 1L25 8H19V1Z" fill="#BFFDD8"/>
<path id="Rectangle 830" d="M20 10H8V12H20V10Z" fill="white"/>
<path id="Rectangle 831" d="M16 15H8V17H16V15Z" fill="#BFFDD8"/>
<path id="Star 13" d="M17.8111 17.5435C17.8733 17.3644 18.1267 17.3644 18.1889 17.5435L18.8948 19.5741C18.9222 19.6531 18.996 19.7067 19.0796 19.7084L21.229 19.7522C21.4186 19.7561 21.4968 19.997 21.3457 20.1115L19.6326 21.4103C19.5659 21.4609 19.5378 21.5476 19.562 21.6276L20.1845 23.6853C20.2394 23.8668 20.0345 24.0157 19.8789 23.9074L18.1142 22.6795C18.0456 22.6317 17.9544 22.6317 17.8858 22.6795L16.1211 23.9074C15.9655 24.0157 15.7606 23.8668 15.8155 23.6853L16.438 21.6276C16.4622 21.5476 16.4341 21.4609 16.3674 21.4103L14.6543 20.1115C14.5032 19.997 14.5814 19.7561 14.771 19.7522L16.9204 19.7084C17.004 19.7067 17.0778 19.6531 17.1052 19.5741L17.8111 17.5435Z" fill="white"/>
</g>
</svg>
