<svg width="28" height="28" viewBox="0 0 28 28" fill="none" xmlns="http://www.w3.org/2000/svg">
<g id="Frame 4224">
<path id="Rectangle 34624146" d="M25 27L9 27L3 20L3 0.999998L25 1L25 27Z" fill="#1F79FF"/>
<path id="Rectangle 34624147" d="M9 27L3 20L9 20L9 27Z" fill="#99C1FF"/>
<path id="Star 13" d="M13.8111 6.54348C13.8733 6.36437 14.1267 6.36437 14.1889 6.54348L15.1299 9.25051C15.1573 9.32952 15.2311 9.3831 15.3147 9.3848L18.18 9.44319C18.3696 9.44706 18.4479 9.68796 18.2968 9.80253L16.013 11.534C15.9464 11.5845 15.9182 11.6712 15.9424 11.7512L16.7723 14.4944C16.8272 14.6759 16.6223 14.8248 16.4666 14.7164L14.1142 13.0795C14.0456 13.0317 13.9544 13.0317 13.8858 13.0795L11.5334 14.7164C11.3777 14.8248 11.1728 14.6759 11.2277 14.4944L12.0576 11.7512C12.0818 11.6712 12.0536 11.5845 11.987 11.534L9.70322 9.80253C9.55211 9.68797 9.63039 9.44706 9.81997 9.44319L12.6853 9.3848C12.7689 9.3831 12.8427 9.32952 12.8701 9.25051L13.8111 6.54348Z" fill="#99C1FF"/>
<path id="Rectangle 829" d="M22 19H14V21H22V19Z" fill="white"/>
<path id="Rectangle 830" d="M19 24L19 16L17 16L17 24L19 24Z" fill="white"/>
</g>
</svg>
