<?xml version="1.0" standalone="no"?><!DOCTYPE svg PUBLIC "-//W3C//DTD SVG 1.1//EN" "http://www.w3.org/Graphics/SVG/1.1/DTD/svg11.dtd"><svg t="1674982788910" class="icon" viewBox="0 0 1024 1024" version="1.1" xmlns="http://www.w3.org/2000/svg" p-id="4279" xmlns:xlink="http://www.w3.org/1999/xlink" width="200" height="200"><path d="M407.202781 446.584094H39.381313a39.381313 39.381313 0 0 1-39.381313-39.381313V39.381313A39.381313 39.381313 0 0 1 39.381313 0h367.821468a39.381313 39.381313 0 0 1 39.381313 39.381313v367.821468a40.16894 40.16894 0 0 1-39.381313 39.381313zM78.762627 367.821467h289.05884V78.762627H78.762627zM407.202781 1023.914149H39.381313a39.381313 39.381313 0 0 1-39.381313-39.381314V616.711368a39.381313 39.381313 0 0 1 39.381313-39.381313h367.821468a40.16894 40.16894 0 0 1 39.381313 39.381313v367.821467a39.381313 39.381313 0 0 1-39.381313 39.381314zM78.762627 945.151522h289.05884V656.092681H78.762627zM984.532835 446.584094H616.711368a40.16894 40.16894 0 0 1-39.381313-39.381313V39.381313a39.381313 39.381313 0 0 1 39.381313-39.381313h367.821467a39.381313 39.381313 0 0 1 39.381314 39.381313v367.821468a39.381313 39.381313 0 0 1-39.381314 39.381313z m-328.440154-78.762627H945.151522V78.762627H656.092681zM984.532835 1023.914149a37.018435 37.018435 0 0 1-27.566919-11.814394L656.092681 708.863641v275.669194a39.381313 39.381313 0 0 1-39.381313 39.381314 39.381313 39.381313 0 0 1-39.381313-39.381314V616.711368a45.682324 45.682324 0 0 1 0-14.964899 61.434849 61.434849 0 0 1 7.876262-11.814394l11.814394-7.876263a45.682324 45.682324 0 0 1 14.964899 0h372.547225a39.381313 39.381313 0 0 1 39.381314 39.381314 39.381313 39.381313 0 0 1-39.381314 39.381313H708.863641l300.085609 300.873235a37.806061 37.806061 0 0 1 0 55.133838 37.018435 37.018435 0 0 1-24.416415 7.088637z" p-id="4280"></path></svg>