<?xml version="1.0" standalone="no"?><!DOCTYPE svg PUBLIC "-//W3C//DTD SVG 1.1//EN" "http://www.w3.org/Graphics/SVG/1.1/DTD/svg11.dtd"><svg t="1672804013436" class="icon" viewBox="0 0 1024 1024" version="1.1" xmlns="http://www.w3.org/2000/svg" p-id="5290" width="200" height="200" xmlns:xlink="http://www.w3.org/1999/xlink"><path d="M499.8144 930.2528a14.7456 14.7456 0 0 1-6.1952-1.3824l-331.264-158.72a14.336 14.336 0 0 1-8.0896-12.9536V293.9904a14.2848 14.2848 0 0 1 20.48-12.9536l337.92 158.72a14.1824 14.1824 0 0 1 8.2432 13.1584l-6.7584 463.0528a14.2848 14.2848 0 0 1-14.336 14.1312zM182.9376 748.032l302.8992 145.3056 6.2976-431.4112-309.1968-145.3568z"  p-id="5291"></path><path d="M499.8144 930.2528a14.336 14.336 0 0 1-5.9904-27.3408l350.0032-161.792 3.1744-428.1344L512.5632 465.92a14.4384 14.4384 0 0 1-12.0832 0l-337.92-158.72a14.3872 14.3872 0 0 1-8.192-12.6976 14.1824 14.1824 0 0 1 7.68-13.0048l337.92-177.0496a14.2848 14.2848 0 0 1 12.9536 0l354.8672 173.6704h0.4096a14.5408 14.5408 0 0 1 6.7072 7.5264 7.7824 7.7824 0 0 1 0.6144 1.0752 14.3872 14.3872 0 0 1 0.512 4.1472l-3.3792 459.4176a14.3872 14.3872 0 0 1-8.2944 12.9024l-358.4 165.5808a14.0288 14.0288 0 0 1-6.144 1.4848z m-299.008-636.928L506.88 437.0432l321.3312-146.8416L506.88 133.12z"  p-id="5292"></path><path d="M499.8144 724.0704a14.6432 14.6432 0 0 1-6.4-1.4848l-162.2528-81.152a14.3872 14.3872 0 0 1-7.936-13.0048l3.3792-246.7328a14.4896 14.4896 0 0 1 7.6288-12.4928l167.2192-88.6784a14.4384 14.4384 0 0 1 12.8-0.3072l167.424 78.5408a14.3872 14.3872 0 0 1 8.2432 13.0048v243.3536a14.2848 14.2848 0 0 1-7.5264 12.5952L506.88 722.3808a14.4384 14.4384 0 0 1-7.0656 1.6896z m-147.7632-104.2432l147.5072 73.7792 161.6896-87.04V380.8256l-152.6784-71.68-153.6 81.3568zM506.368 213.4528a14.336 14.336 0 0 1-14.336-14.336V120.9344a14.336 14.336 0 1 1 28.672 0v78.1824a14.3872 14.3872 0 0 1-14.336 14.336zM171.9808 764.9792a14.336 14.336 0 0 1-7.3216-26.6752l78.1824-46.08a14.336 14.336 0 0 1 14.592 24.576L179.2 762.88a14.5408 14.5408 0 0 1-7.2192 2.0992zM855.04 762.0608a14.336 14.336 0 0 1-8.0896-2.5088L777.6256 711.68a14.336 14.336 0 0 1 16.2304-23.6032l69.4784 47.7696a14.336 14.336 0 0 1-8.1408 26.112z"  p-id="5293"></path></svg>