<svg width="28" height="28" viewBox="0 0 28 28" fill="none" xmlns="http://www.w3.org/2000/svg">
<g id="&#230;&#156;&#136;&#230;&#138;&#165;">
<g id="Group 427318766">
<path id="Vector" d="M27 11.9448V24.6431V26.1517C27 26.3432 26.8433 26.4998 26.6519 26.4998H1.34814C1.15666 26.4998 1 26.3432 1 26.1517V4.57593C1 4.38445 1.15666 4.22779 1.34814 4.22779H6.39612C6.49185 4.22779 6.57019 4.14946 6.57019 4.05373V2.54223C6.57019 2.44649 6.64852 2.36816 6.74425 2.36816H8.25285C8.34858 2.36816 8.42691 2.44649 8.42691 2.54223V4.05373C8.42691 4.14946 8.50524 4.22779 8.60098 4.22779H19.3932C19.489 4.22779 19.5673 4.14946 19.5673 4.05373V2.54223C19.5673 2.44649 19.6456 2.36816 19.7414 2.36816H21.2499C21.3457 2.36816 21.424 2.44649 21.424 2.54223V4.05373C21.424 4.14946 21.5023 4.22779 21.5981 4.22779H26.6432C26.8346 4.22779 26.9913 4.38445 26.9913 4.57593V11.9448H27Z" fill="#00C387"/>
<rect id="Rectangle 34624131" opacity="0.6" x="1" y="8.76367" width="25.9942" height="1.63392" fill="white"/>
<rect id="Rectangle 34624132" x="9" y="2" width="5" height="3" transform="rotate(90 9 2)" fill="#BFFDD8"/>
<rect id="Rectangle 34624133" x="22" y="2" width="5" height="3" transform="rotate(90 22 2)" fill="#BFFDD8"/>
<path id="31" d="M10.298 12.808C11.3247 12.808 12.1413 13.0507 12.748 13.536C13.3547 14.0307 13.658 14.7073 13.658 15.566C13.658 16.658 13.1027 17.386 11.992 17.75C12.5987 17.9367 13.0513 18.2073 13.35 18.562C13.686 18.9353 13.854 19.4207 13.854 20.018C13.854 20.942 13.532 21.698 12.888 22.286C12.2067 22.8927 11.3247 23.196 10.242 23.196C9.206 23.196 8.37067 22.93 7.736 22.398C7.036 21.81 6.644 20.9513 6.56 19.822H8.226C8.254 20.4753 8.45933 20.9747 8.842 21.32C9.19667 21.6467 9.65867 21.81 10.228 21.81C10.8533 21.81 11.3527 21.6327 11.726 21.278C12.0527 20.9513 12.216 20.5547 12.216 20.088C12.216 19.5187 12.0433 19.0987 11.698 18.828C11.3713 18.5573 10.8813 18.422 10.228 18.422H9.528V17.19H10.228C10.816 17.19 11.264 17.064 11.572 16.812C11.8707 16.56 12.02 16.1867 12.02 15.692C12.02 15.2067 11.8847 14.838 11.614 14.586C11.3247 14.334 10.8907 14.208 10.312 14.208C9.724 14.208 9.27133 14.3527 8.954 14.642C8.618 14.9313 8.422 15.3793 8.366 15.986H6.756C6.84 14.9687 7.21333 14.1847 7.876 13.634C8.492 13.0833 9.29933 12.808 10.298 12.808ZM19.7005 13.004V23H18.0625V14.978C17.4559 15.5287 16.6952 15.9347 15.7805 16.196V14.572C16.2192 14.46 16.6999 14.264 17.2225 13.984C17.7172 13.6853 18.1325 13.3587 18.4685 13.004H19.7005Z" fill="white"/>
</g>
</g>
</svg>
