<svg width="28" height="28" viewBox="0 0 28 28" fill="none" xmlns="http://www.w3.org/2000/svg">
<g id="Frame">
<g id="Group 4845">
<path id="Vector" d="M24 11.5C24 15.7548 21.3428 19.389 17.5972 20.8335H14H10.4028C6.65725 19.389 4 15.7548 4 11.5C4 5.97712 8.47712 1.5 14 1.5C19.5229 1.5 24 5.97712 24 11.5Z" fill="#FF5738" stroke="#FF5738" stroke-width="1.6" stroke-linecap="square" stroke-linejoin="round"/>
<path id="Vector_2" d="M17.5978 20.8335L17.1733 25.9269C17.1463 26.2509 16.8755 26.5 16.5504 26.5H11.4506C11.1256 26.5 10.8548 26.2509 10.8278 25.9269L10.4033 20.8335" stroke="#FF5738" stroke-width="2.5625" stroke-linecap="square" stroke-linejoin="round"/>
<path id="&#194;&#165;" d="M17.5 7.16675L15.2452 10.7562H16.8701V11.7788H14.9096V12.6619H16.8701V13.6845H14.9096V15.1667H13.0551V13.6845H11.0299V12.6619H13.0551V11.7788H11.0299V10.7562H12.6901L10.5 7.16675H12.4546L14.0559 10.3843H14.0795C14.1305 10.2638 14.211 10.0899 14.3209 9.86268L15.6455 7.16675H17.5Z" fill="white"/>
</g>
</g>
</svg>
