<svg width="28" height="28" viewBox="0 0 28 28" fill="none" xmlns="http://www.w3.org/2000/svg">
<g id="Frame 4217" clip-path="url(#clip0_4111_10006)">
<g id="Frame">
<path id="Vector" d="M25.05 0H2.95C1.87304 0 1 1.04467 1 2.33333V25.6667C1 26.9553 1.87304 28 2.95 28H25.05C26.127 28 27 26.9553 27 25.6667V2.33333C27 1.04467 26.127 0 25.05 0Z" fill="#1F79FF"/>
<path id="Vector_2" d="M13.5416 11.5084C14.5931 11.5084 15.4499 12.3511 15.4499 13.3855C15.4499 14.4198 14.5931 15.2626 13.5416 15.2626C12.49 15.2626 11.6333 14.4198 11.6333 13.3855C11.6333 12.3511 12.49 11.5084 13.5416 11.5084ZM13.5416 10.257C11.7843 10.257 10.361 11.657 10.361 13.3855C10.361 15.1139 11.7843 16.5139 13.5416 16.5139C15.2988 16.5139 16.7221 15.1139 16.7221 13.3855C16.7221 11.657 15.2988 10.257 13.5416 10.257ZM9.15046 5.66201C9.21009 5.64832 9.26178 5.70307 9.24389 5.76173L8.97951 6.5986L7.91602 9.97345C7.89813 10.0302 7.82259 10.0478 7.78085 10.0028L6.96385 9.13463C6.82073 8.98211 6.56628 9.00753 6.45695 9.18547C6.2542 9.51591 6.07529 9.862 5.92024 10.2198C5.49087 11.2209 5.27221 12.2866 5.27221 13.3855C5.27221 14.4843 5.49087 15.55 5.92223 16.5511C6.2363 17.2843 6.65574 17.9609 7.1686 18.569C7.37135 18.8095 7.35943 19.1634 7.14275 19.3922C6.88036 19.6698 6.43111 19.6561 6.18661 19.3648C4.82097 17.7419 4 15.6575 4 13.3855C4 11.4243 4.61225 9.6039 5.65785 8.09832C5.74134 7.97904 5.72742 7.81675 5.62803 7.71117L4.73947 6.7648C4.69773 6.71983 4.72158 6.64944 4.78122 6.63575L7.66356 5.99441L9.15046 5.66201ZM23.9061 9.31452C23.9657 9.30278 24.0154 9.36144 23.9955 9.41815L23.0036 12.1614L22.4947 13.5712C22.4749 13.6279 22.3993 13.6416 22.3596 13.5966L21.801 12.9514L19.4514 10.2394C19.4116 10.1944 19.4375 10.1221 19.4971 10.1123L20.5646 9.91871C20.7773 9.8796 20.8906 9.64692 20.7852 9.45921C20.4115 8.7905 19.9424 8.18044 19.3878 7.63296C18.6284 6.88603 17.7438 6.29944 16.7579 5.88882C15.7421 5.46648 14.6587 5.25139 13.5416 5.25139C12.7226 5.25139 11.9215 5.36676 11.1522 5.59553C10.8481 5.68547 10.5221 5.53882 10.3909 5.25335C10.2338 4.90922 10.4187 4.50642 10.7864 4.39888C11.6571 4.13883 12.5834 4 13.5416 4C17.3582 4 20.652 6.20558 22.1787 9.39077C22.2403 9.51787 22.3814 9.59021 22.5226 9.5648L23.9061 9.31452ZM22.2423 14.6369C22.6498 14.6369 22.95 15.0064 22.8625 15.3975C21.9262 19.6151 18.1096 22.7709 13.5416 22.7709C12.9591 22.7709 12.3886 22.7201 11.834 22.6204C11.6909 22.5949 11.5498 22.6692 11.4881 22.7983L10.9534 23.9539C10.9276 24.0086 10.852 24.0164 10.8163 23.9676L9.20811 21.7503L8.21419 20.3776C8.17841 20.3287 8.21022 20.2603 8.27184 20.2544L9.00137 20.186L12.7325 19.8321C12.7941 19.8262 12.8379 19.8868 12.812 19.9416L12.3111 21.0229C12.2217 21.2165 12.3489 21.4394 12.5636 21.4628C12.8856 21.5 13.2116 21.5176 13.5396 21.5176C14.6567 21.5176 15.7401 21.3025 16.7579 20.8782C17.7418 20.4695 18.6264 19.881 19.3878 19.1341C20.1471 18.3871 20.7435 17.517 21.1609 16.5472C21.3597 16.0857 21.5128 15.6106 21.6201 15.1257C21.6857 14.8422 21.9441 14.6369 22.2423 14.6369Z" fill="white"/>
</g>
</g>
<defs>
<clipPath id="clip0_4111_10006">
<rect width="28" height="28" fill="white"/>
</clipPath>
</defs>
</svg>
