<svg width="28" height="28" viewBox="0 0 28 28" fill="none" xmlns="http://www.w3.org/2000/svg">
<g id="Frame 2584" clip-path="url(#clip0_2888_941)">
<g id="Group">
<circle id="Ellipse 493" cx="19.5" cy="21.5" r="10.5" fill="#F5EDFF"/>
<g id="Union">
<path d="M14 0.21875C10.531 0.21875 7.71875 3.03096 7.71875 6.5C7.71875 9.96904 10.531 12.7813 14 12.7813C17.469 12.7813 20.2812 9.96904 20.2812 6.5C20.2812 3.03096 17.469 0.21875 14 0.21875Z" fill="#8454FD"/>
<path d="M14 13.9688C7.0792 13.9688 1.46875 19.5792 1.46875 26.5C1.46875 27.2076 2.04239 27.7812 2.75 27.7812H25.25C25.9576 27.7812 26.5312 27.2076 26.5312 26.5C26.5312 19.5792 20.9208 13.9688 14 13.9688Z" fill="#8454FD"/>
</g>
<path id="Vector" d="M14 26.5L16.5 23.375L14 15.25L11.5 23.375L14 26.5Z" fill="white"/>
</g>
</g>
<defs>
<clipPath id="clip0_2888_941">
<rect width="28" height="28" fill="white"/>
</clipPath>
</defs>
</svg>
