<?xml version="1.0" standalone="no"?><!DOCTYPE svg PUBLIC "-//W3C//DTD SVG 1.1//EN" "http://www.w3.org/Graphics/SVG/1.1/DTD/svg11.dtd"><svg t="1674982769486" class="icon" viewBox="0 0 1024 1024" version="1.1" xmlns="http://www.w3.org/2000/svg" p-id="3568" xmlns:xlink="http://www.w3.org/1999/xlink" width="200" height="200"><path d="M535.630769 1024H204.8a39.384615 39.384615 0 0 1-39.384615-39.384615v-708.923077a40.96 40.96 0 0 1 16.541538-32.295385l330.830769-236.307692A40.172308 40.172308 0 0 1 551.384615 3.938462a40.96 40.96 0 0 1 23.63077 35.446153v945.23077a39.384615 39.384615 0 0 1-39.384616 39.384615z m-291.446154-78.769231h252.061539V115.790769L244.184615 296.172308z" p-id="3569"></path><path d="M866.461538 1024a39.384615 39.384615 0 0 1-39.384615-39.384615v-472.615385l-315.076923-224.492308a39.384615 39.384615 0 0 1-9.452308-55.138461 40.172308 40.172308 0 0 1 55.138462-9.452308l330.830769 236.307692a40.96 40.96 0 0 1 16.541539 32.295385v496.246154A39.384615 39.384615 0 0 1 866.461538 1024z" p-id="3570"></path><path d="M984.615385 1024H39.384615a39.384615 39.384615 0 0 1 0-78.769231h945.23077a39.384615 39.384615 0 0 1 0 78.769231z" p-id="3571"></path></svg>