<?xml version="1.0" standalone="no"?><!DOCTYPE svg PUBLIC "-//W3C//DTD SVG 1.1//EN" "http://www.w3.org/Graphics/SVG/1.1/DTD/svg11.dtd"><svg t="1674982699689" class="icon" viewBox="0 0 1024 1024" version="1.1" xmlns="http://www.w3.org/2000/svg" p-id="2013" xmlns:xlink="http://www.w3.org/1999/xlink" width="200" height="200"><path d="M512 1024h-476.27907a35.72093 35.72093 0 0 1-35.72093-35.72093v-476.27907a512 512 0 1 1 512 512zM71.44186 952.55814h440.55814a440.55814 440.55814 0 1 0-440.55814-440.55814z" p-id="2014"></path><path d="M702.511628 404.837209H273.860465a35.72093 35.72093 0 0 1 0-71.44186h428.651163a35.72093 35.72093 0 0 1 0 71.44186zM702.511628 595.348837H273.860465a35.72093 35.72093 0 0 1 0-71.44186h428.651163a35.72093 35.72093 0 1 1 0 71.44186zM512 785.860465h-238.139535a35.72093 35.72093 0 0 1 0-71.44186h238.139535a35.72093 35.72093 0 0 1 0 71.44186z" p-id="2015"></path></svg>