<svg width="40" height="40" viewBox="0 0 40 40" fill="none" xmlns="http://www.w3.org/2000/svg">
    <g id="&#230;&#137;&#139;&#230;&#156;&#186;" clip-path="url(#clip0_2365_6825)">
        <circle id="Ellipse 414" cx="20" cy="20" r="20" />
        <path id="Vector"
            d="M28.6099 28.5469L28.5772 28.5165C28.7196 28.5078 28.8748 28.4924 29.0377 28.4643L29.0535 28.4616L29.0691 28.4584C29.2018 28.4312 29.3157 28.4095 29.4369 28.3864C29.5376 28.3672 29.6432 28.3471 29.7689 28.322L30.5031 28.1756L30.5695 27.43L30.5817 27.2924L30.6156 26.9117L30.3868 26.6054C30.3282 26.5269 30.2776 26.4362 30.1846 26.2695C30.1756 26.2534 30.1663 26.2367 30.1565 26.2191C30.0617 26.0495 29.9187 25.7961 29.7165 25.565L29.7165 25.565L29.7128 25.5608C29.0166 24.7741 28.2665 24.0366 27.4681 23.3537L27.4622 23.3487L27.4563 23.3437C27.1816 23.1161 26.8874 22.9329 26.6384 22.7834C26.5746 22.7451 26.5147 22.7095 26.4577 22.6756C26.2738 22.5664 26.1209 22.4756 25.9724 22.3739L25.8849 22.314L25.7868 22.2738C25.7538 22.2603 25.7219 22.2443 25.6914 22.226C25.5687 21.9452 25.4668 21.6556 25.3866 21.3597L25.3755 21.3186L25.3609 21.2785C25.0491 20.4239 24.7479 19.5043 24.4866 18.6125C24.3368 17.9674 24.1476 17.3321 23.9201 16.7101L23.9122 16.6883L23.9032 16.667C22.7863 14.0021 20.9652 11.6913 18.6351 9.98251L18.6189 9.97063L18.6023 9.95941C17.9788 9.53963 17.2927 9.22162 16.5694 9.01728L16.5194 9.00314L16.4681 8.99427C16.2333 8.9536 15.9908 8.9134 15.7533 8.87404C15.7288 8.86999 15.7044 8.86594 15.6801 8.8619C15.5817 8.76712 15.4882 8.66739 15.3999 8.56309L15.3576 8.51315L15.3092 8.46915C14.5456 7.77549 13.6189 7.28629 12.6154 7.0471L12.5932 7.04181L12.5708 7.03754C12.0987 6.94753 11.61 7.02049 11.1848 7.24447C10.7682 7.46392 10.4367 7.81561 10.2422 8.24381C9.8231 9.09364 10.0272 9.93191 10.258 10.4931C10.378 10.7849 10.523 11.0465 10.6441 11.253C10.7044 11.3559 10.7515 11.4338 10.7904 11.4981C10.8428 11.5847 10.8803 11.6467 10.9151 11.7119L10.93 11.7399L10.9467 11.767C11.147 12.0913 11.3158 12.434 11.4509 12.7904C11.4603 12.8223 11.47 12.8721 11.4847 12.9884C11.4862 13.0007 11.4879 13.0143 11.4897 13.029C11.5032 13.1392 11.5244 13.3119 11.5672 13.4924C11.7115 14.2389 11.8964 14.9769 12.1213 15.7031L12.1248 15.7146L12.1286 15.726C12.2589 16.1136 12.4191 16.4906 12.6076 16.8534L12.6738 16.9809C12.5674 17.2302 12.4784 17.4867 12.4074 17.7488C11.6623 19.6051 11.627 21.6719 12.3099 23.5537L12.3227 23.589L12.3381 23.6232C12.4369 23.8427 12.6543 24.3032 13.0136 24.6775C13.3968 25.0766 14.0787 25.4974 14.9564 25.2175C15.3041 25.1081 15.5576 24.9209 15.7444 24.7084C16.1126 25.2791 16.5436 25.8082 17.0298 26.2853C17.3419 26.6537 17.6725 27.006 18.0202 27.3409L18.0583 27.3777L18.1002 27.4102C18.1851 27.4762 18.2292 27.5189 18.3073 27.5945C18.3424 27.6285 18.3844 27.6692 18.44 27.7216C18.6138 27.8853 18.8256 28.0655 19.1783 28.3018C19.8483 28.7504 21.0473 29.414 23.5384 30.6088C23.5541 30.6177 23.5681 30.6252 23.5787 30.6309C23.6108 30.6479 23.6465 30.6658 23.6805 30.6825C23.7503 30.7167 23.8421 30.7601 23.9471 30.8089C24.1585 30.9073 24.4425 31.0366 24.7539 31.1769C25.3773 31.4578 26.1222 31.7882 26.6405 32.0141L26.6482 32.0174L26.656 32.0207C27.6062 32.4158 28.5864 32.7341 29.5874 32.9727L30.8193 33.2664V32V31.9641V31.6942L30.7023 31.4934C30.6993 31.4832 30.6948 31.4676 30.6877 31.4425L30.6847 31.4315C30.6741 31.3935 30.6562 31.3292 30.6348 31.2647C30.6099 31.1898 30.5729 31.0914 30.5167 30.9858L30.4828 30.922L30.44 30.8638L30.1071 30.4108C29.702 29.7197 29.1975 29.0917 28.6099 28.5469Z"
            stroke="#2778FF" stroke-width="2" />
    </g>
    <defs>
        <clipPath id="clip0_2365_6825">
            <rect width="40" height="40" />
        </clipPath>
    </defs>
</svg>