<svg width="16" height="16" viewBox="0 0 16 16" fill="none" xmlns="http://www.w3.org/2000/svg">
    <g id="Frame">
        <path id="Vector"
            d="M8.0625 2.125C10.2892 2.125 12.1535 3.67775 12.6313 5.75962C14.3755 5.8905 15.75 7.34725 15.75 9.125C15.75 10.9471 14.306 12.432 12.5 12.4978V12.5L11.0526 12.4978C10.889 12.5053 10.7289 12.4482 10.6069 12.3389C10.4849 12.2296 10.4107 12.0768 10.4003 11.9133C10.3898 11.7498 10.444 11.5888 10.551 11.4648C10.6581 11.3409 10.8096 11.2639 10.9729 11.2505L11 11.25V11.2459L12.4134 11.25L12.4546 11.2485C13.5803 11.2076 14.4786 10.291 14.4996 9.16525L14.5 9.125C14.5 8.02562 13.6615 7.112 12.5789 7.00962L12.5376 7.00612L11.619 6.93713L11.413 6.03925C11.0578 4.49175 9.67288 3.375 8.0625 3.375C6.46913 3.375 5.09638 4.46837 4.72363 5.9905L4.712 6.03925L4.506 6.93713L3.58725 7.00612C2.485 7.08875 1.625 8.01175 1.625 9.125C1.625 10.215 2.44775 11.1266 3.51012 11.2459L3.552 11.25H5C5.16327 11.2502 5.31998 11.3143 5.4366 11.4286C5.55322 11.5428 5.6205 11.6982 5.62405 11.8614C5.62759 12.0247 5.56712 12.1828 5.45556 12.302C5.34401 12.4212 5.19023 12.4921 5.02712 12.4994L5 12.5H3.5C1.75275 12.3721 0.375 10.9049 0.375 9.125C0.375 7.34725 1.7495 5.8905 3.49375 5.75962C3.9715 3.67775 5.83575 2.125 8.0625 2.125ZM8 5.98225C8.16576 5.98225 8.32473 6.0481 8.44194 6.16531C8.55915 6.28252 8.625 6.44149 8.625 6.60725V10.366L9.32588 9.66525C9.38364 9.60601 9.45259 9.55883 9.52874 9.52644C9.60488 9.49406 9.68669 9.47712 9.76943 9.4766C9.85218 9.47608 9.9342 9.492 10.0107 9.52343C10.0873 9.55485 10.1568 9.60116 10.2153 9.65968C10.2738 9.71819 10.3201 9.78774 10.3515 9.86428C10.383 9.94083 10.3989 10.0229 10.3983 10.1056C10.3978 10.1883 10.3809 10.2701 10.3485 10.3463C10.3161 10.4224 10.2689 10.4914 10.2096 10.5491L8.44213 12.317C8.38409 12.3751 8.31518 12.4211 8.23934 12.4525C8.1635 12.4839 8.08221 12.5001 8.00012 12.5001C7.91803 12.5001 7.83675 12.4839 7.76091 12.4525C7.68507 12.4211 7.61616 12.3751 7.55813 12.317L5.79025 10.5491C5.73101 10.4914 5.68383 10.4224 5.65144 10.3463C5.61906 10.2701 5.60212 10.1883 5.6016 10.1056C5.60108 10.0228 5.617 9.9408 5.64842 9.86426C5.67985 9.78772 5.72616 9.71818 5.78468 9.65968C5.84319 9.60117 5.91274 9.55487 5.98928 9.52345C6.06583 9.49204 6.14785 9.47613 6.23059 9.47666C6.31333 9.47719 6.39514 9.49415 6.47128 9.52654C6.54742 9.55894 6.61637 9.60613 6.67413 9.66537L7.375 10.366V6.60725C7.375 6.44149 7.44085 6.28252 7.55806 6.16531C7.67527 6.0481 7.83424 5.98225 8 5.98225Z"
            fill="currentColor" />
    </g>
</svg>