<?xml version="1.0" standalone="no"?><!DOCTYPE svg PUBLIC "-//W3C//DTD SVG 1.1//EN" "http://www.w3.org/Graphics/SVG/1.1/DTD/svg11.dtd"><svg t="1674982673317" class="icon" viewBox="0 0 1024 1024" version="1.1" xmlns="http://www.w3.org/2000/svg" p-id="1730" xmlns:xlink="http://www.w3.org/1999/xlink" width="200" height="200"><path d="M697.153488 309.581395H326.846512a35.72093 35.72093 0 0 1-35.720931-35.72093v-238.139535a35.72093 35.72093 0 0 1 35.720931-35.72093h370.306976a35.72093 35.72093 0 0 1 35.720931 35.72093v238.139535a35.72093 35.72093 0 0 1-35.720931 35.72093zM362.567442 238.139535h297.674418V71.44186h-297.674418zM406.027907 1024H35.72093a35.72093 35.72093 0 0 1-35.72093-35.72093v-238.139535a35.72093 35.72093 0 0 1 35.72093-35.72093h370.306977a35.72093 35.72093 0 0 1 35.72093 35.72093v238.139535a35.72093 35.72093 0 0 1-35.72093 35.72093zM71.44186 952.55814h297.674419v-166.697675h-297.674419zM988.27907 1024h-370.306977a35.72093 35.72093 0 0 1-35.72093-35.72093v-238.139535a35.72093 35.72093 0 0 1 35.72093-35.72093h370.306977a35.72093 35.72093 0 0 1 35.72093 35.72093v238.139535a35.72093 35.72093 0 0 1-35.72093 35.72093zM654.883721 952.55814h297.674419v-166.697675h-297.674419z" p-id="1731"></path><path d="M512 547.72093a35.72093 35.72093 0 0 1-35.72093-35.72093V297.674419a35.72093 35.72093 0 1 1 71.44186 0v214.325581a35.72093 35.72093 0 0 1-35.72093 35.72093z" p-id="1732"></path><path d="M803.125581 785.860465a35.72093 35.72093 0 0 1-35.72093-35.72093V547.72093H256.595349v202.418605a35.72093 35.72093 0 1 1-71.441861 0v-238.139535a35.72093 35.72093 0 0 1 35.720931-35.72093h582.251162a35.72093 35.72093 0 0 1 35.720931 35.72093v238.139535a35.72093 35.72093 0 0 1-35.720931 35.72093z" p-id="1733"></path></svg>