<?xml version="1.0" standalone="no"?><!DOCTYPE svg PUBLIC "-//W3C//DTD SVG 1.1//EN" "http://www.w3.org/Graphics/SVG/1.1/DTD/svg11.dtd"><svg t="1674983312946" class="icon" viewBox="0 0 1024 1024" version="1.1" xmlns="http://www.w3.org/2000/svg" p-id="4702" xmlns:xlink="http://www.w3.org/1999/xlink" width="200" height="200"><path d="M695.532308 315.076923H328.467692a39.384615 39.384615 0 0 1-39.384615-39.384615v-236.307693a39.384615 39.384615 0 0 1 39.384615-39.384615h367.064616a39.384615 39.384615 0 0 1 39.384615 39.384615v236.307693a39.384615 39.384615 0 0 1-39.384615 39.384615zM367.852308 236.307692h288.295384V78.769231H367.852308zM407.236923 1024H39.384615a39.384615 39.384615 0 0 1-39.384615-39.384615v-236.307693A39.384615 39.384615 0 0 1 39.384615 708.923077h367.852308a39.384615 39.384615 0 0 1 39.384615 39.384615v236.307693a39.384615 39.384615 0 0 1-39.384615 39.384615zM78.769231 945.230769h289.083077v-157.538461H78.769231zM984.615385 1024H616.763077a39.384615 39.384615 0 0 1-39.384615-39.384615v-236.307693a39.384615 39.384615 0 0 1 39.384615-39.384615h367.852308a39.384615 39.384615 0 0 1 39.384615 39.384615v236.307693a39.384615 39.384615 0 0 1-39.384615 39.384615z m-328.467693-78.769231H945.230769v-157.538461H656.147692z" p-id="4703"></path><path d="M512 551.384615a39.384615 39.384615 0 0 1-39.384615-39.384615V301.686154a39.384615 39.384615 0 0 1 78.76923 0V512a39.384615 39.384615 0 0 1-39.384615 39.384615z" p-id="4704"></path><path d="M801.083077 787.692308a39.384615 39.384615 0 0 1-39.384615-39.384616V551.384615H262.301538v196.923077a39.384615 39.384615 0 0 1-39.384615 39.384616 39.384615 39.384615 0 0 1-39.384615-39.384616v-236.307692a39.384615 39.384615 0 0 1 39.384615-39.384615h578.166154a39.384615 39.384615 0 0 1 39.384615 39.384615v236.307692a39.384615 39.384615 0 0 1-39.384615 39.384616z" p-id="4705"></path></svg>