<svg width="14" height="14" viewBox="0 0 14 14" fill="none" xmlns="http://www.w3.org/2000/svg">
<g id="&#232;&#190;&#147;&#229;&#135;&#186;">
<path id="Vector" d="M5.25001 3.79167C5.25001 3.14735 4.72766 2.625 4.08334 2.625C3.43902 2.625 2.91667 3.14735 2.91667 3.79167C2.91667 4.43599 3.43902 4.95833 4.08334 4.95833C4.72766 4.95833 5.25001 4.43599 5.25001 3.79167Z" stroke="#002851" stroke-linejoin="round"/>
<path id="Vector_2" d="M10.7917 3.79167C10.7917 3.14735 10.2693 2.625 9.62499 2.625C8.98067 2.625 8.45833 3.14735 8.45833 3.79167C8.45833 4.43599 8.98067 4.95833 9.62499 4.95833C10.2693 4.95833 10.7917 4.43599 10.7917 3.79167Z" stroke="#002851" stroke-linejoin="round"/>
<path id="Vector_3" d="M1.16667 3.79166H2.91667" stroke="#002851"/>
<path id="Vector_4" d="M5.25 3.79166H8.45833" stroke="#002851"/>
<path id="Vector_5" d="M10.7917 3.79166H12.8333" stroke="#002851"/>
<path id="Vector_6" d="M11.0833 8.45834L12.8333 10.2083L11.0833 11.9583" stroke="#002851" stroke-linejoin="round"/>
<path id="Vector_7" d="M12.8333 10.2083H1.16666" stroke="#002851" stroke-linejoin="round"/>
</g>
</svg>
