<?xml version="1.0" standalone="no"?><!DOCTYPE svg PUBLIC "-//W3C//DTD SVG 1.1//EN" "http://www.w3.org/Graphics/SVG/1.1/DTD/svg11.dtd"><svg t="1674982792096" class="icon" viewBox="0 0 1024 1024" version="1.1" xmlns="http://www.w3.org/2000/svg" p-id="4419" xmlns:xlink="http://www.w3.org/1999/xlink" width="200" height="200"><path d="M144.826286 1023.997639a144.823314 144.823314 0 1 1 144.823313-144.036231A144.03623 144.03623 0 0 1 144.826286 1023.997639z m0-210.151222a66.114991 66.114991 0 0 0-65.327908 66.114991 65.327908 65.327908 0 0 0 65.327908 65.327908 66.114991 66.114991 0 0 0 66.114991-65.327908 66.902074 66.902074 0 0 0-66.114991-66.114991zM512.394153 289.648989a144.823314 144.823314 0 1 1 144.03623-144.823314A144.823314 144.823314 0 0 1 512.394153 289.648989zM512.394153 79.497767a65.327908 65.327908 0 0 0-65.327908 65.327908 65.327908 65.327908 0 1 0 130.655815 0A65.327908 65.327908 0 0 0 512.394153 79.497767zM879.962019 1023.997639A144.823314 144.823314 0 1 1 1023.99825 879.961408 144.823314 144.823314 0 0 1 879.962019 1023.997639z m0-210.151222a66.902074 66.902074 0 0 0-66.114991 66.114991 66.114991 66.114991 0 0 0 66.114991 65.327908 65.327908 65.327908 0 0 0 65.327908-65.327908 66.114991 66.114991 0 0 0-65.327908-66.114991zM512.394153 1023.997639a144.823314 144.823314 0 1 1 144.03623-144.036231A144.03623 144.03623 0 0 1 512.394153 1023.997639z m0-210.151222a66.114991 66.114991 0 0 0-65.327908 66.114991 65.327908 65.327908 0 1 0 130.655815 0 66.114991 66.114991 0 0 0-65.327907-66.114991z" p-id="4420"></path><path d="M879.962019 813.846417a39.354161 39.354161 0 0 1-39.354161-39.354161v-275.479129H184.180447v275.479129a39.354161 39.354161 0 0 1-39.354161 39.354161 39.354161 39.354161 0 0 1-39.354162-39.354161v-314.833291a40.141245 40.141245 0 0 1 39.354162-39.354161h735.135733a40.141245 40.141245 0 0 1 39.354162 39.354161v314.833291a39.354161 39.354161 0 0 1-39.354162 39.354161z" p-id="4421"></path><path d="M512.394153 813.846417a39.354161 39.354161 0 0 1-39.354162-39.354161V250.294827a39.354161 39.354161 0 0 1 78.708323 0v524.197429a39.354161 39.354161 0 0 1-39.354161 39.354161z" p-id="4422"></path></svg>