<svg width="28" height="28" viewBox="0 0 28 28" fill="none" xmlns="http://www.w3.org/2000/svg">
<g id="Frame 4237">
<g id="Frame 2551(6)">
<path id="Rectangle 794" d="M23.7497 2.40625H15.7637L21.5902 9.0625L23.7497 11.5469V2.40625Z" fill="#BFDAFD"/>
<path id="Rectangle 828" d="M14.5156 1H3V27H25V1H14.5156Z" fill="#00C387"/>
<path id="Rectangle 825" d="M25 7H3V9H25V7Z" fill="white"/>
<path id="Rectangle 827" d="M10.8586 3H5V5H10.8586V3Z" fill="white"/>
<path id="Rectangle 830" d="M22 12H6V14H22V12Z" fill="#96E3C4"/>
<path id="Rectangle 831" d="M12 17H6V19H12V17Z" fill="#96E3C4"/>
<path id="Rectangle 829" d="M16 3H13V5H16V3Z" fill="white"/>
</g>
<path id="Vector" d="M17.7805 25.561C19.1006 25.561 20.2957 25.0259 21.1608 24.1608C22.0259 23.2957 22.561 22.1006 22.561 20.7805C22.561 19.4604 22.0259 18.2653 21.1608 17.4002C20.2957 16.5351 19.1006 16 17.7805 16C16.4604 16 15.2653 16.5351 14.4002 17.4002C13.5351 18.2653 13 19.4604 13 20.7805C13 22.1006 13.5351 23.2957 14.4002 24.1608C15.2653 25.0259 16.4604 25.561 17.7805 25.561Z" fill="white"/>
<path id="Vector_2" d="M15.7314 20.7806L17.3249 22.1465L20.5119 19.4148" stroke="#00C387" stroke-width="1.5" stroke-linecap="square" stroke-linejoin="round"/>
</g>
</svg>
