<svg width="28" height="28" viewBox="0 0 28 28" fill="none" xmlns="http://www.w3.org/2000/svg">
<g id="Frame 4217">
<g id="Group 427318764">
<path id="Vector 1168" d="M26 24.1429V1H10C6.68629 1 4 3.68629 4 7V26C4 27.1046 4.89087 28 5.99543 28H22.1436C24.2738 28 26 26.2731 26 24.1429Z" fill="#F58E24"/>
<path id="Vector (Stroke)" fill-rule="evenodd" clip-rule="evenodd" d="M17.8474 12.9501L14.7822 16.3985C14.6683 16.5266 14.5051 16.5999 14.3337 16.5999C14.1623 16.5999 13.9991 16.5266 13.8853 16.3985L12.1533 14.4501L13.0502 13.6528L14.3337 15.0968L16.9506 12.1528L17.8474 12.9501Z" fill="white"/>
<path id="Rectangle 34624128" d="M1 24H18.5769C18.3314 25.2158 18.8262 26.462 19.8387 27.1784L21 28H5C2.79086 28 1 26.2091 1 24Z" fill="#FDE4BF"/>
<path id="Ellipse 563 (Stroke)" fill-rule="evenodd" clip-rule="evenodd" d="M15 18C17.2091 18 19 16.2091 19 14C19 11.7909 17.2091 10 15 10C12.7909 10 11 11.7909 11 14C11 16.2091 12.7909 18 15 18ZM15 19C17.7614 19 20 16.7614 20 14C20 11.2386 17.7614 9 15 9C12.2386 9 10 11.2386 10 14C10 16.7614 12.2386 19 15 19Z" fill="white"/>
</g>
</g>
</svg>
