<?xml version="1.0" standalone="no"?><!DOCTYPE svg PUBLIC "-//W3C//DTD SVG 1.1//EN" "http://www.w3.org/Graphics/SVG/1.1/DTD/svg11.dtd"><svg t="1674982745303" class="icon" viewBox="0 0 1073 1024" version="1.1" xmlns="http://www.w3.org/2000/svg" p-id="3286" xmlns:xlink="http://www.w3.org/1999/xlink" width="209.5703125" height="200"><path d="M1032.258065 379.870968H41.290323a41.290323 41.290323 0 0 1-41.290323-41.290323V41.290323A41.290323 41.290323 0 0 1 41.290323 0h990.967742a41.290323 41.290323 0 0 1 41.290322 41.290323v297.290322a41.290323 41.290323 0 0 1-41.290322 41.290323zM82.580645 297.290323h908.387097V82.580645H82.580645zM41.290323 975.277419a40.464516 40.464516 0 0 1-28.903226-12.387096 40.464516 40.464516 0 0 1 0-57.806452L313.806452 600.36129a40.464516 40.464516 0 0 1 57.806451 0l133.780645 127.174194 170.941936-170.116129a40.464516 40.464516 0 0 1 57.806451 0l110.658065 108.180645a41.290323 41.290323 0 0 1-57.806452 59.458065l-82.580645-82.580646-169.290322 171.767742a41.290323 41.290323 0 0 1-57.806452 0L343.535484 687.070968l-272.516129 275.819355a42.116129 42.116129 0 0 1-29.729032 12.387096z" p-id="3287"></path><path d="M1032.258065 1003.354839a41.290323 41.290323 0 0 1-41.290323-41.290323v-644.129032a41.290323 41.290323 0 0 1 82.580645 0v644.129032a41.290323 41.290323 0 0 1-41.290322 41.290323zM41.290323 706.064516a41.290323 41.290323 0 0 1-41.290323-41.290322v-346.83871a41.290323 41.290323 0 0 1 41.290323-41.290323 41.290323 41.290323 0 0 1 41.290322 41.290323v346.83871a41.290323 41.290323 0 0 1-41.290322 41.290322z" p-id="3288"></path><path d="M1032.258065 1024H264.258065a42.116129 42.116129 0 0 1-41.290323-41.290323 41.290323 41.290323 0 0 1 41.290323-41.290322h768a41.290323 41.290323 0 0 1 41.290322 41.290322 41.290323 41.290323 0 0 1-41.290322 41.290323zM883.612903 231.225806H363.354839a41.290323 41.290323 0 0 1 0-82.580645h520.258064a41.290323 41.290323 0 1 1 0 82.580645zM214.709677 231.225806h-24.774193a41.290323 41.290323 0 0 1-41.290323-41.290322 41.290323 41.290323 0 0 1 41.290323-41.290323h24.774193a41.290323 41.290323 0 0 1 41.290323 41.290323 41.290323 41.290323 0 0 1-41.290323 41.290322z" p-id="3289"></path></svg>