<svg width="20" height="20" viewBox="0 0 20 20" fill="none" xmlns="http://www.w3.org/2000/svg">
<g id="Frame">
<path id="Vector" d="M8.33244 4.16667C8.33244 5.08714 9.07863 5.83333 9.9991 5.83333C10.9196 5.83333 11.6658 5.08714 11.6658 4.16667C11.6658 3.24619 10.9196 2.5 9.9991 2.5C9.07863 2.5 8.33244 3.24619 8.33244 4.16667Z" stroke="#2778FF"/>
<path id="Vector_2" d="M14.1664 15.8327C14.1664 16.7532 14.9126 17.4993 15.8331 17.4993C16.7536 17.4993 17.4998 16.7532 17.4998 15.8327C17.4998 14.9122 16.7536 14.166 15.8331 14.166C14.9126 14.166 14.1664 14.9122 14.1664 15.8327Z" stroke="#2778FF"/>
<path id="Vector_3" d="M2.50041 15.8327C2.50041 16.7532 3.2466 17.4993 4.16707 17.4993C5.08755 17.4993 5.83374 16.7532 5.83374 15.8327C5.83374 14.9122 5.08755 14.166 4.16707 14.166C3.2466 14.166 2.50041 14.9122 2.50041 15.8327Z" stroke="#2778FF"/>
<path id="Vector_4" d="M4.16707 14.166L4.16707 9.16602L15.8337 9.16602L15.8337 14.166" stroke="#2778FF" stroke-linecap="round" stroke-linejoin="round"/>
<path id="Vector_5" d="M10 6L10 9" stroke="#2778FF" stroke-linecap="round" stroke-linejoin="round"/>
</g>
</svg>
