<svg width="28" height="28" viewBox="0 0 28 28" fill="none" xmlns="http://www.w3.org/2000/svg">
<g id="Frame" clip-path="url(#clip0_4222_2093)">
<g id="Group 427318774">
<path id="Vector" d="M26.8488 26.1314C27.0183 25.7755 27.1025 25.385 27.0948 24.9909L27.0845 19.0526H19.6818C19.0722 19.0897 18.4684 18.9162 17.9714 18.5613C17.5758 18.3417 17.2618 18.0002 17.0763 17.5876C16.8759 17.1245 16.7658 16.6275 16.7517 16.1231C16.7451 15.7278 16.8214 15.3356 16.9755 14.9716C17.1297 14.6075 17.3584 14.2798 17.6468 14.0095C17.9251 13.737 18.2561 13.524 18.6195 13.3838C18.9829 13.2435 19.3711 13.1787 19.7604 13.1936H27.3305V8.79897C27.3305 8.00239 27.006 7.23598 26.436 6.68537C26.1616 6.40228 25.8331 6.17719 25.47 6.02343C25.1069 5.86968 24.7167 5.79039 24.3224 5.79028H3.00821C2.21163 5.79028 1.44465 6.11484 0.894045 6.68537C0.611162 6.95991 0.386275 7.28845 0.232717 7.65151C0.0791593 8.01457 5.52181e-05 8.40477 9.38618e-05 8.79897V24.9909C-0.00320319 25.3844 0.0803981 25.7739 0.244934 26.1314C0.390804 26.4978 0.61194 26.8295 0.894045 27.105C1.14902 27.4109 1.48725 27.6362 1.86771 27.7536C2.2236 27.9231 2.6141 28.0073 3.00821 27.9996H24.2433C24.6367 27.9996 25.0302 27.9204 25.3838 27.7536C25.7154 27.5873 26.0177 27.368 26.2788 27.1045C26.4952 26.7998 26.6917 26.4753 26.8488 26.1314Z" fill="#FF5738"/>
<path id="Vector_2" d="M22.7001 4.96456H7.97266C9.11316 4.3946 10.2537 3.74605 11.3053 3.17552L13.9895 1.71046C14.884 1.21908 15.5325 0.894521 16.1031 0.569965C16.7241 0.215154 17.4231 0.0193572 18.1381 0C18.6678 0.0139422 19.1907 0.123909 19.6811 0.324556C20.1508 0.560734 20.5662 0.892134 20.9008 1.29765L22.7001 4.96456ZM18.3055 16.123C18.3183 15.7341 18.4601 15.3605 18.7086 15.0611C18.9964 14.7937 19.3772 14.649 19.77 14.658C20.1628 14.6682 20.5273 14.8157 20.8319 15.0611C21.0972 15.3464 21.2447 15.7301 21.235 16.123C21.2253 16.5159 21.0779 16.8803 20.8319 17.1849C20.7003 17.3325 20.5351 17.4463 20.3503 17.5164C20.1654 17.5866 19.9663 17.6112 19.77 17.5881C19.3813 17.5751 19.0079 17.4333 18.7086 17.1849C18.5723 17.0449 18.4662 16.8785 18.3969 16.6958C18.3275 16.5131 18.2964 16.3182 18.3055 16.123Z" fill="#FFA494"/>
</g>
</g>
<defs>
<clipPath id="clip0_4222_2093">
<rect width="28" height="28" fill="white"/>
</clipPath>
</defs>
</svg>
