<svg width="28" height="28" viewBox="0 0 28 28" fill="none" xmlns="http://www.w3.org/2000/svg">
<g id="Frame 4219">
<g id="Group 427318764">
<path id="Vector 1168" d="M26 24.1429V1H11C7.68629 1 5 3.68629 5 7V28H22.1465C24.2768 28 26 26.2731 26 24.1429Z" fill="#1F79FF"/>
<path id="Rectangle 34624128" d="M2 23H18.5769C18.3255 24.5564 18.8891 26.1332 20.0701 27.1776L21 28H5C3.34315 28 2 26.6569 2 25V23Z" fill="#7FABF7"/>
</g>
<g id="Frame">
<path id="Vector" d="M14 13H22" stroke="white" stroke-width="1.5" stroke-linecap="square" stroke-linejoin="round"/>
<path id="Vector_2" d="M14 18H19" stroke="#7FABF7" stroke-width="1.5" stroke-linecap="square" stroke-linejoin="round"/>
<path id="Vector_3" d="M14 8H22" stroke="white" stroke-width="1.5" stroke-linecap="square" stroke-linejoin="round"/>
<path id="Vector_4" d="M10 17H8V19H10V17Z" fill="#7FABF7"/>
<path id="Vector_5" d="M10 12H8V14H10V12Z" fill="white"/>
<path id="Vector_6" d="M10 7H8V9H10V7Z" fill="white"/>
</g>
</g>
</svg>
