<svg width="28" height="28" viewBox="0 0 28 28" fill="none" xmlns="http://www.w3.org/2000/svg">
<g id="Frame">
<g id="Group 427318776">
<path id="Vector" d="M25 22.4149V2.58558C24.9981 2.1652 24.8352 1.76262 24.5467 1.4656C24.2583 1.16859 23.8676 1.00122 23.46 1H6.5375C6.13013 1.00136 5.73983 1.16885 5.45178 1.46591C5.16373 1.76297 5.00132 2.16548 5 2.58558V22.4144C5.00132 22.8345 5.16373 23.237 5.45178 23.5341C5.73983 23.8311 6.13013 23.9986 6.5375 24H23.4625C23.8699 23.9986 24.2602 23.8311 24.5482 23.5341C24.8363 23.237 24.9987 22.8345 25 22.4144V22.4149Z" fill="#7FABF7"/>
<path id="Vector_2" d="M22.1476 3.85144C22.3715 4.07559 22.4983 4.37962 22.5 4.69748L22.5 26.3026C22.5 26.3028 22.5 26.3029 22.5 26.3031C22.4988 26.6206 22.3726 26.9242 22.149 27.1485C21.9255 27.3727 21.623 27.4988 21.3077 27.5C21.3075 27.5 21.3073 27.5 21.3071 27.5H2.69288C2.69269 27.5 2.69251 27.5 2.69233 27.5C2.37695 27.4988 2.07452 27.3727 1.85105 27.1485C1.62757 26.9244 1.50122 26.6204 1.5 26.3028V4.69724C1.50122 4.37962 1.62757 4.07564 1.85105 3.85148C2.07448 3.62738 2.37683 3.50122 2.69213 3.5H21.3052C21.6209 3.5011 21.9237 3.62723 22.1476 3.85144Z" fill="#1F79FF" stroke="white"/>
<path id="Vector_3" d="M8.25782 13.2361C8.25782 13.5859 8.46647 13.8659 8.81405 13.8659H10.9714V14.7764H8.81405C8.53566 14.8461 8.25726 15.0564 8.25726 15.4062C8.25726 15.7565 8.46647 16.0366 8.81405 16.0366H10.8325V16.6664C10.8325 17.1568 11.2498 17.5769 11.7374 17.5769C12.225 17.5769 12.6429 17.1568 12.6429 16.6664V16.0371H14.8003C15.0787 15.9669 15.3571 15.7571 15.3571 15.4067C15.3571 15.057 15.1479 14.7769 14.8003 14.7769H12.6423V13.8665H14.8003C15.0787 13.7967 15.3571 13.5864 15.3571 13.2366C15.3571 12.8863 15.1479 12.6062 14.8003 12.6062H13.3386L13.4083 12.5359L15.009 9.94573C15.2879 9.5251 15.1484 8.96555 14.7306 8.68549C14.3127 8.40544 13.7565 8.54547 13.4775 8.96555L11.8769 11.5558C11.8769 11.6958 11.8072 11.7661 11.8072 11.8358C11.8072 11.6958 11.8072 11.626 11.7374 11.5558L10.1368 8.96555C9.99735 8.68549 9.71896 8.54492 9.37083 8.54492C9.02326 8.54492 8.74431 8.75523 8.60539 9.03528C8.53662 9.17718 8.5009 9.33282 8.5009 9.49051C8.5009 9.64819 8.53662 9.80383 8.60539 9.94573L10.206 12.5359L10.2763 12.6062H8.81405C8.53566 12.6765 8.25726 12.8863 8.25726 13.2366L8.25782 13.2361ZM7.28317 23.8786H16.4707C16.8885 23.8083 17.1675 23.5283 17.1675 23.1785C17.1675 22.8281 16.8188 22.4778 16.4707 22.4778H7.28317C6.86475 22.4778 6.58691 22.8281 6.58691 23.1785C6.58691 23.5283 6.93504 23.8786 7.28317 23.8786ZM7.28317 20.9375H16.4707C16.8885 20.9375 17.1675 20.5877 17.1675 20.2374C17.1675 19.8876 16.8188 19.5372 16.4707 19.5372H7.28317C6.86475 19.5372 6.58691 19.8876 6.58691 20.2374C6.58691 20.5877 6.93504 20.9375 7.28317 20.9375Z" fill="white"/>
</g>
</g>
</svg>
