<svg width="28" height="28" viewBox="0 0 28 28" fill="none" xmlns="http://www.w3.org/2000/svg">
<g id="Frame 4232">
<g id="Frame 2551(6)">
<path id="Rectangle 794" d="M23.7497 2.40625H15.7637L21.5902 9.0625L23.7497 11.5469V2.40625Z" fill="#D4BDEC"/>
<path id="Rectangle 828" d="M14.5226 1H2.85742V27H25.1431V11.3102L14.5226 1Z" fill="#8454FD"/>
<path id="Polygon 15" d="M23 21L21 24.4641L17 24.4641L15 21L17 17.5359L21 17.5359L23 21Z" fill="white"/>
<circle id="Ellipse 492" cx="19" cy="21" r="1.5" fill="#8454FD"/>
</g>
<g id="Group" opacity="0.5">
<path id="Vector" d="M11.9796 16.0585L15.5797 12.4584L14.3797 13.6584L13.1797 14.8585L11.9796 16.0585ZM11.9796 16.0585L5.97949 10.0583L9.57958 6.45825L11.9796 8.85831" stroke="#D4BDEC" stroke-width="1.5" stroke-linecap="square" stroke-linejoin="round"/>
<path id="Vector_2" d="M9.87988 10.9584L14.38 6.45825L17.9801 10.0583L15.58 12.4584L13.18 10.0583L11.3799 11.8584L9.87988 10.9584ZM9.87988 10.9584L11.9799 8.85831" stroke="#D4BDEC" stroke-width="1.5" stroke-linecap="square" stroke-linejoin="round"/>
<path id="Vector_3" d="M13.1793 14.8585L12.2793 13.9585" stroke="#D4BDEC" stroke-width="1.5" stroke-linecap="square" stroke-linejoin="round"/>
<path id="Vector_4" d="M14.3795 13.6583L13.4795 12.7583" stroke="#D4BDEC" stroke-width="1.5" stroke-linecap="square" stroke-linejoin="round"/>
</g>
</g>
</svg>
