<svg width="28" height="28" viewBox="0 0 28 28" fill="none" xmlns="http://www.w3.org/2000/svg">
<g id="Frame 4218">
<g id="Frame 2551(6)" clip-path="url(#clip0_4138_2910)">
<path id="Rectangle 794" d="M23.7497 2.40625H15.7637L21.5902 9.0625L23.7497 11.5469V2.40625Z" fill="#FDE4BF"/>
<path id="Rectangle 828" d="M14.5226 1H2.85742V29H25.1431V11.3102L14.5226 1Z" fill="#F58E24"/>
<path id="Rectangle 825" d="M16.2234 6.99976H7.24316V8.64038H16.2234V6.99976Z" fill="white"/>
<path id="Rectangle 827" d="M13.1017 12.7419H7.24316V14.3826H13.1017V12.7419Z" fill="#FDE4BF"/>
</g>
<path id="Union" fill-rule="evenodd" clip-rule="evenodd" d="M19.1366 18.7843C19.1366 19.566 18.5028 20.1998 17.7211 20.1998C16.9393 20.1998 16.3055 19.566 16.3055 18.7843C16.3055 18.0025 16.9393 17.3688 17.7211 17.3688C18.5028 17.3688 19.1366 18.0025 19.1366 18.7843ZM18.1904 21.217L18.8315 22.1847L19.3033 21.427L20.1849 21.288L19.5975 20.4015C19.2404 20.8154 18.7487 21.1099 18.1904 21.217ZM20.0407 19.6552C20.1425 19.3843 20.1982 19.0908 20.1982 18.7843C20.1982 17.4162 19.0891 16.3071 17.7211 16.3071C16.353 16.3071 15.2439 17.4162 15.2439 18.7843C15.2439 19.0908 15.2996 19.3843 15.4014 19.6552L13.9336 21.8705L15.6641 22.1435L16.5902 23.6307L17.7211 21.9239L18.8519 23.6307L19.778 22.1435L21.5085 21.8705L20.0407 19.6552ZM15.8446 20.4015L15.2572 21.288L16.1388 21.427L16.6106 22.1847L17.2517 21.217C16.6934 21.1099 16.2017 20.8154 15.8446 20.4015Z" fill="white"/>
</g>
<defs>
<clipPath id="clip0_4138_2910">
<rect width="26" height="26" fill="white" transform="translate(1 1)"/>
</clipPath>
</defs>
</svg>
