<svg width="28" height="28" viewBox="0 0 28 28" fill="none" xmlns="http://www.w3.org/2000/svg">
<g id="Frame 4225">
<g id="Group 4278">
<rect id="Rectangle 2469" x="3" y="3.5" width="22" height="24" rx="1" fill="#1F79FF"/>
<path id="Rectangle 2470" d="M7.23047 3.78521C7.23047 3.34338 7.58864 2.98521 8.03047 2.98521H9.93047C10.3723 2.98521 10.7305 2.62703 10.7305 2.18521V1.3C10.7305 0.858172 11.0886 0.5 11.5305 0.5H16.9305C17.3723 0.5 17.7305 0.858172 17.7305 1.3V2.18521C17.7305 2.62703 18.0886 2.98521 18.5305 2.98521H20.4305C20.8723 2.98521 21.2305 3.34338 21.2305 3.78521V6.16154C21.2305 6.60337 20.8723 6.96154 20.4305 6.96154H8.03047C7.58864 6.96154 7.23047 6.60337 7.23047 6.16154V3.78521Z" fill="#98C0FE"/>
</g>
<g id="Group">
<path id="Vector" d="M13.9997 22.3334L17.9997 18.3334L16.6663 19.6667L15.333 21.0001L13.9997 22.3334ZM13.9997 22.3334L7.33301 15.6667L11.333 11.6667L13.9997 14.3334" stroke="white" stroke-width="1.5" stroke-linecap="square" stroke-linejoin="round"/>
<path id="Vector_2" d="M11.666 16.6667L16.666 11.6667L20.666 15.6667L17.9993 18.3334L15.3327 15.6667L13.3327 17.6667L11.666 16.6667ZM11.666 16.6667L13.9993 14.3334" stroke="white" stroke-width="1.5" stroke-linecap="square" stroke-linejoin="round"/>
<path id="Vector_3" d="M15.333 21L14.333 20" stroke="white" stroke-width="1.5" stroke-linecap="square" stroke-linejoin="round"/>
<path id="Vector_4" d="M16.666 19.6667L15.666 18.6667" stroke="white" stroke-width="1.5" stroke-linecap="square" stroke-linejoin="round"/>
</g>
</g>
</svg>
