<?xml version="1.0" standalone="no"?><!DOCTYPE svg PUBLIC "-//W3C//DTD SVG 1.1//EN" "http://www.w3.org/Graphics/SVG/1.1/DTD/svg11.dtd"><svg class="icon" width="200px" height="200.00px" viewBox="0 0 1024 1024" version="1.1" xmlns="http://www.w3.org/2000/svg"><path d="M856 510.08H497.984V151.936a8 8 0 0 0-8-8H464a398.464 398.464 0 0 0-282.816 117.12A398.208 398.208 0 0 0 64 544a398.464 398.464 0 0 0 117.12 282.88 398.144 398.144 0 0 0 282.88 117.12 398.4 398.4 0 0 0 282.816-117.12A398.144 398.144 0 0 0 864 544v-25.984a8 8 0 0 0-8-8z m-158.272 269.76a331.648 331.648 0 0 1-235.328 96.192 329.856 329.856 0 0 1-233.216-97.216A329.856 329.856 0 0 1 132.032 544c0-88.64 34.496-172.096 97.152-234.752A329.088 329.088 0 0 1 430.08 213.76v364.288h364.288a329.344 329.344 0 0 1-96.64 201.792zM944 454.4l-2.56-28.16a397.824 397.824 0 0 0-115.2-244.608 399.36 399.36 0 0 0-245.248-115.008l-28.288-2.56a7.936 7.936 0 0 0-8.704 7.872v384.064c0 4.48 3.584 8 8 8l384-0.96a8 8 0 0 0 8-8.64z m-332.16-58.176v-256.64a332.224 332.224 0 0 1 166.4 89.856 330.176 330.176 0 0 1 89.984 166.08l-256.448 0.704z" fill="#002851" /></svg>