<svg width="28" height="28" viewBox="0 0 28 28" fill="none" xmlns="http://www.w3.org/2000/svg">
<g id="Frame 4230">
<path id="Rectangle 34624146" d="M27 25C27 26.1046 26.1046 27 25 27L3 27C1.89543 27 0.999998 26.1046 0.999998 25L0.999999 20L1 3C1 1.89543 1.89543 1 3 1L25 1C26.1046 1 27 1.89543 27 3L27 25Z" fill="#8454FD"/>
<path id="Rectangle 829" d="M10 13H4V15H10V13Z" fill="#D4BDEC"/>
<path id="Rectangle 34624148" d="M10 20H4V22H10V20Z" fill="#D4BDEC"/>
<path id="Rectangle 830" d="M4 8L10 8L10 6L4 6L4 8Z" fill="#D4BDEC"/>
<path id="Vector" d="M16.509 18.9171L14.083 16.4912L20.7887 9.7854L23.2147 12.2113L16.509 18.9171ZM24.7783 9.51048L23.4895 8.22175C23.1755 7.90772 22.6442 7.92989 22.3028 8.27131L21.092 9.48209L23.518 11.908L24.7288 10.6973C25.07 10.3558 25.0923 9.8245 24.7783 9.51048ZM13.8577 16.8728L13 20L16.1268 19.1423L13.8577 16.8728Z" fill="white"/>
</g>
</svg>
