<svg width="28" height="28" viewBox="0 0 28 28" fill="none" xmlns="http://www.w3.org/2000/svg">
<g id="Frame 2551(6)">
<g id="Group 427318777">
<path id="Vector" d="M5.51562 4.63672H23.0938C25.0273 4.63672 26.6094 6.21875 26.6094 8.15234V23.5332C26.6094 24.7637 25.6426 25.7305 24.4121 25.7305H5.51562C3.58203 25.7305 2 24.1484 2 22.2148V8.15234C2 6.21875 3.58203 4.63672 5.51562 4.63672Z" fill="#FFA494"/>
<path id="Vector_2" d="M5.51562 4.63672H23.0938C25.0273 4.63672 26.6094 6.21875 26.6094 8.15234V19.1387L23.0938 22.3027L23.0059 22.3906L19.4902 25.7305H5.51562C3.58203 25.7305 2 24.1484 2 22.2148V8.15234C2 6.21875 3.58203 4.63672 5.51562 4.63672Z" fill="#DD3E21"/>
<path id="Vector_3" d="M5.51562 3.63672H23.0938C25.0273 3.63672 26.6094 5.21875 26.6094 7.15234V19.1387H21.7754C20.5449 19.1387 19.5781 20.1055 19.5781 21.3359V25.7305H5.51562C3.58203 25.7305 2 24.1484 2 22.2148V7.15234C2 5.21875 3.58203 3.63672 5.51562 3.63672Z" fill="#FF5738"/>
<path id="Vector_4" d="M9.91667 2C10.4667 2 10.8333 2.30303 10.8333 2.75758V6.24242C10.8333 6.69697 10.4667 7 9.91667 7C9.36667 7 9 6.69697 9 6.24242V2.75758C9 2.30303 9.36667 2 9.91667 2ZM19.0833 2C19.6333 2 20 2.30303 20 2.75758V6.24242C20 6.69697 19.6333 7 19.0833 7C18.5333 7 18.1667 6.69697 18.1667 6.24242V2.75758C18.1667 2.30303 18.5333 2 19.0833 2Z" fill="#FFA494"/>
<path id="Vector_5" d="M8.15234 12.4258C8.15234 12.7754 8.29124 13.1108 8.53848 13.358C8.78572 13.6052 9.12105 13.7441 9.4707 13.7441C9.82035 13.7441 10.1557 13.6052 10.4029 13.358C10.6502 13.1108 10.7891 12.7754 10.7891 12.4258C10.7891 12.0761 10.6502 11.7408 10.4029 11.4936C10.1557 11.2463 9.82035 11.1074 9.4707 11.1074C9.12105 11.1074 8.78572 11.2463 8.53848 11.4936C8.29124 11.7408 8.15234 12.0761 8.15234 12.4258Z" fill="white"/>
<path id="Vector_6" d="M14.3047 11.5469H19.5781C20.1055 11.5469 20.457 11.8984 20.457 12.4258C20.457 12.9531 20.1055 13.3047 19.5781 13.3047H14.3047C13.7773 13.3047 13.4258 12.9531 13.4258 12.4258C13.4258 11.8984 13.7773 11.5469 14.3047 11.5469ZM14.3047 15.9414H19.5781C20.1055 15.9414 20.457 16.293 20.457 16.8203C20.457 17.3477 20.1055 17.6992 19.5781 17.6992H14.3047C13.7773 17.6992 13.4258 17.3477 13.4258 16.8203C13.4258 16.293 13.7773 15.9414 14.3047 15.9414Z" fill="white"/>
<path id="Vector_7" d="M8.15234 16.8203C8.15234 17.17 8.29124 17.5053 8.53848 17.7525C8.78572 17.9998 9.12105 18.1387 9.4707 18.1387C9.82035 18.1387 10.1557 17.9998 10.4029 17.7525C10.6502 17.5053 10.7891 17.17 10.7891 16.8203C10.7891 16.4707 10.6502 16.1353 10.4029 15.8881C10.1557 15.6409 9.82035 15.502 9.4707 15.502C9.12105 15.502 8.78572 15.6409 8.53848 15.8881C8.29124 16.1353 8.15234 16.4707 8.15234 16.8203Z" fill="white"/>
</g>
</g>
</svg>
