<?xml version="1.0" standalone="no"?><!DOCTYPE svg PUBLIC "-//W3C//DTD SVG 1.1//EN" "http://www.w3.org/Graphics/SVG/1.1/DTD/svg11.dtd"><svg t="1674982772888" class="icon" viewBox="0 0 1024 1024" version="1.1" xmlns="http://www.w3.org/2000/svg" p-id="3710" xmlns:xlink="http://www.w3.org/1999/xlink" width="200" height="200"><path d="M511.672858 452.734093a226.363833 226.363833 0 1 1 226.363833-225.649752A226.363833 226.363833 0 0 1 511.672858 452.734093zM511.672858 72.128657a154.955684 154.955684 0 1 0 154.955684 154.955684A154.955684 154.955684 0 0 0 511.672858 72.128657zM940.121753 1023.999286a35.704075 35.704075 0 0 1-35.704075-35.704075 392.74482 392.74482 0 1 0-785.48964 0 35.704075 35.704075 0 0 1-35.704075 35.704075 35.704075 35.704075 0 0 1-35.704075-35.704075 464.15297 464.15297 0 1 1 928.30594 0 35.704075 35.704075 0 0 1-35.704075 35.704075z" p-id="3711"></path><path d="M511.672858 1023.999286a34.989993 34.989993 0 0 1-27.849178-13.567548l-94.972839-118.537528a34.275912 34.275912 0 0 1-6.426733-34.275912L475.968783 549.849175a36.418156 36.418156 0 0 1 34.275912-25.706933 36.418156 36.418156 0 0 1 37.132238 25.706933L640.921608 857.618298a34.275912 34.275912 0 0 1-6.426733 32.847749l-94.972839 119.965691a34.989993 34.989993 0 0 1-27.849178 13.567548z m-55.698356-162.096499l55.698356 71.408149 55.698356-71.408149-55.698356-180.662617z" p-id="3712"></path></svg>