<?xml version="1.0" standalone="no"?><!DOCTYPE svg PUBLIC "-//W3C//DTD SVG 1.1//EN" "http://www.w3.org/Graphics/SVG/1.1/DTD/svg11.dtd"><svg t="1674982776099" class="icon" viewBox="0 0 1024 1024" version="1.1" xmlns="http://www.w3.org/2000/svg" p-id="3851" xmlns:xlink="http://www.w3.org/1999/xlink" width="200" height="200"><path d="M925.215348 1023.821256H98.427165A92.915243 92.915243 0 0 1 0 937.205351V86.794649A92.915243 92.915243 0 0 1 98.427165 0.178744h826.788183A92.915243 92.915243 0 0 1 1023.642513 86.794649v850.410702a92.915243 92.915243 0 0 1-98.427165 86.615905zM98.427165 78.920475a22.835102 22.835102 0 0 0-19.685433 7.874174v850.410702a25.197354 25.197354 0 0 0 19.685433 7.874174h826.788183a25.197354 25.197354 0 0 0 19.685433-7.874174V86.794649a22.835102 22.835102 0 0 0-19.685433-7.874174z" p-id="3852"></path><path d="M531.506689 551.370866a157.483463 157.483463 0 1 1 157.483464-157.483464 157.483463 157.483463 0 0 1-157.483464 157.483464z m0-236.225195a78.741732 78.741732 0 1 0 78.741732 78.741731 78.741732 78.741732 0 0 0-78.741732-78.741731z" p-id="3853"></path><path d="M708.675586 728.539762a39.370866 39.370866 0 0 1-39.370866-39.370866 137.798031 137.798031 0 0 0-275.596061 0 39.370866 39.370866 0 0 1-78.741732 0 216.539762 216.539762 0 0 1 433.079524 0 39.370866 39.370866 0 0 1-39.370865 39.370866z" p-id="3854"></path></svg>