<svg width="28" height="28" viewBox="0 0 28 28" fill="none" xmlns="http://www.w3.org/2000/svg">
<g id="&#228;&#186;&#167;&#229;&#147;&#129;&#229;&#138;&#168;&#230;&#128;&#129;&#229;&#143;&#145;&#229;&#184;&#131;">
<g id="Group 4847">
<path id="Vector" d="M2 7V24.75C2 25.4404 2.59695 26 3.33333 26H24.6667C25.4031 26 26 25.4404 26 24.75V7H2Z" fill="#1F79FF"/>
<path id="Vector_2" d="M26 7L22.2222 2H5.7778L2 7" fill="#99C1FF"/>
</g>
<g id="Frame">
<path id="Vector_3" d="M13.9998 21.3332C16.9454 21.3332 19.3332 18.9454 19.3332 15.9998C19.3332 13.0543 16.9454 10.6665 13.9998 10.6665C11.0543 10.6665 8.6665 13.0543 8.6665 15.9998C8.6665 18.9454 11.0543 21.3332 13.9998 21.3332Z" stroke="white" stroke-width="1.3" stroke-linejoin="round"/>
<path id="Vector_4" d="M18.5212 13.1699C19.9276 13.2927 20.8927 13.7241 21.0833 14.4353C21.4645 15.8579 18.6021 17.8609 14.69 18.9091C10.7779 19.9574 7.29756 19.6539 6.91638 18.2313C6.71667 17.486 7.40732 16.5813 8.67282 15.7382" stroke="white" stroke-width="1.3" stroke-linecap="square" stroke-linejoin="round"/>
</g>
</g>
</svg>
