<svg width="28" height="28" viewBox="0 0 28 28" fill="none" xmlns="http://www.w3.org/2000/svg">
<g id="Frame 4227">
<g id="Frame 2551(6)">
<path id="Rectangle 794" d="M23.7497 2.40625H15.7637L21.5902 9.0625L23.7497 11.5469V2.40625Z" fill="#BFDAFD"/>
<path id="Rectangle 828" d="M14.5156 1H3V27H25V1H14.5156Z" fill="#00C387"/>
<path id="Rectangle 825" d="M25 7H3V9H25V7Z" fill="white"/>
<path id="Rectangle 827" d="M10.8586 3H5V5H10.8586V3Z" fill="white"/>
<path id="Rectangle 830" d="M15 12H6V14H15V12Z" fill="#96E3C4"/>
<path id="Rectangle 831" d="M13 17H6V19H13V17Z" fill="#96E3C4"/>
<path id="Rectangle 832" d="M23 19H15V21H23V19Z" fill="white"/>
<path id="Rectangle 833" d="M20 24L20 16L18 16L18 24L20 24Z" fill="white"/>
<path id="Rectangle 829" d="M16 3H13V5H16V3Z" fill="white"/>
</g>
</g>
</svg>
