<svg width="28" height="28" viewBox="0 0 28 28" fill="none" xmlns="http://www.w3.org/2000/svg">
<g id="Frame 4227" clip-path="url(#clip0_4275_1911)">
<g id="Frame 2551(6)">
<path id="Rectangle 34624152" d="M25 2H4V15.44L25 26V2Z" fill="#FFC5BA"/>
<path id="Rectangle 34624151" d="M3 3C3 1.89543 3.89543 1 5 1H23C24.1046 1 25 1.89543 25 3V15L3 26V3Z" fill="#FF5738"/>
</g>
<path id="Rectangle 825" d="M16.9803 5.99976H8V7.64038H16.9803V5.99976Z" fill="white"/>
<path id="Rectangle 827" d="M13.8586 11.7419H8V13.3826H13.8586V11.7419Z" fill="#FFC5BA"/>
<path id="Vector" d="M23 26C25.7614 26 28 23.7614 28 21C28 18.2386 25.7614 16 23 16C20.2386 16 18 18.2386 18 21C18 23.7614 20.2386 26 23 26Z" fill="#FF5738" stroke="white" stroke-width="1.2" stroke-linejoin="round"/>
<path id="Vector_2" d="M21.4385 20.999L22.4417 22.1199L24.5615 20" stroke="white" stroke-width="1.2" stroke-linecap="square" stroke-linejoin="round"/>
</g>
<defs>
<clipPath id="clip0_4275_1911">
<rect width="28" height="28" fill="white"/>
</clipPath>
</defs>
</svg>
