<svg width="28" height="28" viewBox="0 0 28 28" fill="none" xmlns="http://www.w3.org/2000/svg">
<g id="Frame 4226">
<g id="Frame 2551(6)" clip-path="url(#clip0_2888_1026)">
<path id="Rectangle 794" d="M23.7497 2.40625H15.7637L21.5902 9.0625L23.7497 11.5469V2.40625Z" fill="#BFDAFD"/>
<path id="Rectangle 828" d="M14.5226 1H2.85742V29H25.1431V11.3102L14.5226 1Z" fill="#1F79FF"/>
<path id="Rectangle 825" d="M16.2234 6.99976H7.24316V8.64038H16.2234V6.99976Z" fill="white"/>
<path id="Rectangle 827" d="M13.1017 12.7419H7.24316V14.3826H13.1017V12.7419Z" fill="white"/>
<path id="&#194;&#165;" d="M22 16L19.7452 19.5894H21.3701V20.612H19.4096V21.4952H21.3701V22.5178H19.4096V24H17.5551V22.5178H15.5299V21.4952H17.5551V20.612H15.5299V19.5894H17.1901L15 16H16.9546L18.5559 19.2176H18.5795C18.6305 19.0971 18.711 18.9232 18.8209 18.6959L20.1455 16H22Z" fill="white"/>
</g>
</g>
<defs>
<clipPath id="clip0_2888_1026">
<rect width="26" height="26" fill="white" transform="translate(1 1)"/>
</clipPath>
</defs>
</svg>
