<svg width="28" height="28" viewBox="0 0 28 28" fill="none" xmlns="http://www.w3.org/2000/svg">
<g id="Frame">
<path id="Vector" d="M20 14.1818C20 13.5291 20.5596 13 21.25 13H23.75C24.4404 13 25 13.5291 25 14.1818V24.2273C25 25.2063 24.1606 26 23.125 26H20V14.1818Z" fill="#99C1FF"/>
<path id="Vector_2" d="M2 3.8C2 2.80589 2.78027 2 3.74277 2H21.2572C22.2198 2 23 2.80589 23 3.8V26H3.74277C2.78027 26 2 25.1941 2 24.2V3.8Z" fill="#1F79FF"/>
<path id="Vector_3" d="M6 7H10.6667" stroke="white" stroke-width="2" stroke-linecap="square" stroke-linejoin="round"/>
<path id="Vector_4" opacity="0.4" d="M6 11.0833H13" stroke="white" stroke-width="2" stroke-linecap="square" stroke-linejoin="round"/>
<path id="Vector_5" d="M13.8471 15.1L13.8472 15.1C14.0766 15.0999 14.3039 15.1451 14.5159 15.2328C14.7279 15.3206 14.9206 15.4493 15.0829 15.6115C15.2452 15.7738 15.3739 15.9664 15.4618 16.1784C15.5496 16.3904 15.5948 16.6176 15.5948 16.8471V18.2775C15.5947 18.3615 15.5613 18.442 15.5019 18.5013C15.4425 18.5607 15.362 18.5941 15.278 18.5942H13.8471C13.3838 18.5942 12.9394 18.4102 12.6117 18.0825C12.2841 17.7549 12.1 17.3105 12.1 16.8471C12.1 16.3838 12.2841 15.9394 12.6117 15.6117C12.9394 15.2841 13.3838 15.1 13.8471 15.1ZM12.8766 19.7001C13.1515 19.5165 13.4726 19.4148 13.8024 19.4063H13.8471H15.2775C15.3615 19.4064 15.442 19.4399 15.5013 19.4992C15.5607 19.5586 15.5941 19.6391 15.5942 19.7231V21.154C15.594 21.4995 15.4914 21.8371 15.2993 22.1243C15.1072 22.4115 14.8342 22.6352 14.515 22.7673C14.1957 22.8994 13.8444 22.9338 13.5056 22.8663C13.1668 22.7988 12.8556 22.6323 12.6113 22.3879C12.3671 22.1435 12.2008 21.8322 12.1335 21.4933C12.0662 21.1544 12.1008 20.8032 12.2331 20.484C12.3654 20.1649 12.5893 19.8921 12.8766 19.7001ZM18.154 15.1H18.154C18.6175 15.1 19.0619 15.2841 19.3896 15.6118C19.7173 15.9395 19.9014 16.384 19.9014 16.8474C19.9014 17.3108 19.7173 17.7553 19.3896 18.083C19.0619 18.4107 18.6175 18.5948 18.154 18.5948H16.723C16.5475 18.5948 16.4063 18.4529 16.4063 18.2782V16.8471C16.4063 16.6176 16.4515 16.3904 16.5394 16.1784C16.6272 15.9664 16.7559 15.7738 16.9182 15.6115C17.0805 15.4493 17.2732 15.3206 17.4852 15.2328C17.6973 15.1451 17.9245 15.0999 18.154 15.1ZM16.4992 19.4987C16.5586 19.4393 16.6391 19.4059 16.7231 19.4058H18.154C18.154 19.4058 18.154 19.4058 18.154 19.4058C18.4995 19.4059 18.8372 19.5084 19.1244 19.7004C19.4117 19.8924 19.6355 20.1653 19.7677 20.4845C19.8999 20.8038 19.9344 21.155 19.867 21.4939C19.7995 21.8327 19.6332 22.144 19.3889 22.3883C19.1445 22.6326 18.8333 22.799 18.4944 22.8664C18.1556 22.9338 17.8043 22.8993 17.4851 22.7671C17.1659 22.6349 16.893 22.4111 16.701 22.1239C16.509 21.8366 16.4064 21.4989 16.4063 21.1535C16.4063 21.1534 16.4063 21.1534 16.4063 21.1534V19.7225C16.4064 19.6385 16.4399 19.558 16.4992 19.4987Z" fill="white" stroke="#1F79FF" stroke-width="0.2"/>
</g>
</svg>
