<svg width="28" height="28" viewBox="0 0 28 28" fill="none" xmlns="http://www.w3.org/2000/svg">
<g id="Frame 4243">
<path id="Rectangle 34624146" d="M25 27L9 27L3 20L3 0.999998L25 1L25 27Z" fill="#F58E24"/>
<path id="Rectangle 34624147" d="M9 27L3 20L9 20L9 27Z" fill="#F9B971"/>
<g id="Frame">
<path id="Vector" d="M13.5 19.75C15.2259 19.75 16.7884 19.0504 17.9194 17.9194C19.0504 16.7884 19.75 15.2259 19.75 13.5C19.75 11.7741 19.0504 10.2116 17.9194 9.08058C16.7884 7.94956 15.2259 7.25 13.5 7.25C11.7741 7.25 10.2116 7.94956 9.08058 9.08058C7.94956 10.2116 7.25 11.7741 7.25 13.5C7.25 15.2259 7.94956 16.7884 9.08058 17.9194C10.2116 19.0504 11.7741 19.75 13.5 19.75Z" fill="white"/>
<path id="Vector_2" d="M13.5 14.9453V13.6953C14.5355 13.6953 15.375 12.8558 15.375 11.8203C15.375 10.7848 14.5355 9.94531 13.5 9.94531C12.4645 9.94531 11.625 10.7848 11.625 11.8203" stroke="#F58E24" stroke-width="1.2" stroke-linecap="square" stroke-linejoin="round"/>
<path id="Vector_3" fill-rule="evenodd" clip-rule="evenodd" d="M13.5 17.7578C13.9315 17.7578 14.2812 17.408 14.2812 16.9766C14.2812 16.5451 13.9315 16.1953 13.5 16.1953C13.0685 16.1953 12.7188 16.5451 12.7188 16.9766C12.7188 17.408 13.0685 17.7578 13.5 17.7578Z" fill="#F58E24"/>
</g>
</g>
</svg>
