<?xml version="1.0" standalone="no"?><!DOCTYPE svg PUBLIC "-//W3C//DTD SVG 1.1//EN" "http://www.w3.org/Graphics/SVG/1.1/DTD/svg11.dtd"><svg class="icon" width="200px" height="200.00px" viewBox="0 0 1024 1024" version="1.1" xmlns="http://www.w3.org/2000/svg"><path d="M986.048 380.672L533.504 51.52a36.352 36.352 0 0 0-43.008 0L37.952 380.672a36.544 36.544 0 0 0-13.248 40.96l172.864 532.48a36.608 36.608 0 0 0 34.752 25.28h559.424a36.48 36.48 0 0 0 34.752-25.216l172.928-532.608a36.864 36.864 0 0 0-13.376-40.896z m-100.8 22.72l-112.576 36.608L544.128 274.56V155.328l341.12 248.064zM459.392 575.04l-101.76 139.776-63.104-193.344 164.864 53.568zM326.528 464.448L480 353.472v160.896l-153.472-49.92zM512 611.648l107.328 147.328H404.672L512 611.648z m32.128-258.176l153.344 110.976-153.344 49.792V353.472z m20.48 221.568l164.864-53.568-63.104 193.344-101.76-139.776zM480 155.328V274.56L251.328 440l-112.64-36.608L480 155.328zM120.32 464.896l98.88 32.128 91.904 281.6-61.504 84.48-129.28-398.208z m180.352 436.8l57.472-78.848h307.84l57.408 78.848H300.672z m473.728-38.656l-61.44-84.48 91.84-281.6 98.88-32-129.28 398.08z" fill="#002851" /></svg>