<?xml version="1.0" standalone="no"?>
<!DOCTYPE svg PUBLIC "-//W3C//DTD SVG 1.1//EN" "http://www.w3.org/Graphics/SVG/1.1/DTD/svg11.dtd"><svg t="1719197213944"
    class="icon" viewBox="0 0 1024 1024" version="1.1" xmlns="http://www.w3.org/2000/svg" p-id="2784"
    xmlns:xlink="http://www.w3.org/1999/xlink" width="200" height="200">
    <path
        d="M864 64A96 96 0 0 1 960 160v704a96 96 0 0 1-96 96h-704A96 96 0 0 1 64 864v-704A96 96 0 0 1 160 64h704z m0.512 64H160a32 32 0 0 0-32 31.488V864a32 32 0 0 0 31.488 32H864a32 32 0 0 0 32-31.488V160a32 32 0 0 0-31.488-32zM512 288a32 32 0 0 1 32 32v160H704a32 32 0 0 1 0 64H544V704a32 32 0 0 1-64 0V544H320a32 32 0 0 1 0-64h160V320a32 32 0 0 1 32-32z"
        p-id="2785"></path>
</svg>