<svg width="28" height="28" viewBox="0 0 28 28" fill="none" xmlns="http://www.w3.org/2000/svg">
<g id="Frame 4219">
<g id="Group 427318764">
<path id="Vector 1168" d="M26 24.1429V1H11C7.68629 1 5 3.68629 5 7V28H22.1465C24.2768 28 26 26.2731 26 24.1429Z" fill="#1F79FF"/>
<path id="Rectangle 34624128" d="M0 23H18.5769C18.3255 24.5564 18.8891 26.1332 20.0701 27.1776L21 28H5C2.23858 28 0 25.7614 0 23Z" fill="#7FABF7"/>
</g>
<rect id="Rectangle 34624129" x="10" y="7" width="12" height="2" fill="white"/>
<rect id="Rectangle 34624130" x="10" y="13" width="6" height="2" fill="#7FABF7"/>
<path id="Vector" d="M17.6317 21.1878L15.8122 19.3684L20.8415 14.339L22.661 16.1585L17.6317 21.1878ZM23.8337 14.1329L22.8671 13.1663C22.6316 12.9308 22.2331 12.9474 21.9771 13.2035L21.069 14.1116L22.8885 15.931L23.7966 15.023C24.0525 14.7669 24.0692 14.3684 23.8337 14.1329ZM15.6433 19.6546L15 22L17.3451 21.3567L15.6433 19.6546Z" fill="white"/>
</g>
</svg>
