<svg width="28" height="28" viewBox="0 0 28 28" fill="none" xmlns="http://www.w3.org/2000/svg">
<g id="Frame 4216">
<g id="Group 4278">
<rect id="Rectangle 2469" x="3" y="4" width="22" height="24" rx="1" fill="#F58E24"/>
<path id="Rectangle 2470" d="M7 3.78521C7 3.34338 7.35817 2.98521 7.8 2.98521H9.7C10.1418 2.98521 10.5 2.62703 10.5 2.18521V1.3C10.5 0.858172 10.8582 0.5 11.3 0.5H16.7C17.1418 0.5 17.5 0.858172 17.5 1.3V2.18521C17.5 2.62703 17.8582 2.98521 18.3 2.98521H20.2C20.6418 2.98521 21 3.34338 21 3.78521V6.16154C21 6.60337 20.6418 6.96154 20.2 6.96154H7.8C7.35817 6.96154 7 6.60337 7 6.16154V3.78521Z" fill="#FDE4BF"/>
</g>
<g id="Group 427318768">
<path id="Vector" d="M11.5 14L14 16L16.5 14" stroke="white" stroke-width="1.5" stroke-linecap="square" stroke-linejoin="round"/>
<path id="Vector_2" d="M11.5 19H16.5" stroke="white" stroke-width="1.5" stroke-linecap="square" stroke-linejoin="round"/>
<path id="Vector_3" d="M14 16V21" stroke="white" stroke-width="1.5" stroke-linecap="square" stroke-linejoin="round"/>
<path id="Vector_4" d="M11.5 16H16.5" stroke="white" stroke-width="1.5" stroke-linecap="square" stroke-linejoin="round"/>
</g>
</g>
</svg>
