<svg width="28" height="28" viewBox="0 0 28 28" fill="none" xmlns="http://www.w3.org/2000/svg">
<g id="Frame 4230" clip-path="url(#clip0_4138_3254)">
<g id="Group 427318772">
<path id="Rectangle 34624155" d="M25.4849 16.5454C28.5308 13.4995 28.5308 8.56107 25.4849 5.51516C22.439 2.46924 17.5006 2.46924 14.4547 5.51516L3.00018 16.9696L14.0304 27.9999L25.4849 16.5454Z" fill="#FFA494"/>
<path id="Rectangle 34624154" d="M2.51512 16.5454C-0.530794 13.4995 -0.530797 8.56107 2.51512 5.51516C5.56103 2.46924 10.4994 2.46924 13.5453 5.51516L24.9998 16.9696L13.9696 27.9999L2.51512 16.5454Z" fill="#FF5738"/>
<path id="Rectangle 34624156" d="M12.5545 21.495C12.0859 21.0264 12.0859 20.2666 12.5545 19.798C13.0231 19.3294 13.7829 19.3294 14.2515 19.798L16.7969 22.3434L15.1 24.0404L12.5545 21.495Z" fill="white"/>
<path id="Rectangle 34624157" d="M16.7967 17.2523C16.3281 16.7837 16.3281 16.0239 16.7967 15.5553C17.2653 15.0867 18.0251 15.0867 18.4937 15.5553L21.0391 18.1008L19.3422 19.7977L16.7967 17.2523Z" fill="white"/>
</g>
</g>
<defs>
<clipPath id="clip0_4138_3254">
<rect width="28" height="28" fill="white"/>
</clipPath>
</defs>
</svg>
