<svg width="28" height="28" viewBox="0 0 28 28" fill="none" xmlns="http://www.w3.org/2000/svg">
<g id="Frame 4221">
<path id="Rectangle 34624146" d="M3 1H19L25 8V27H3V1Z" fill="#1F79FF"/>
<path id="Vector" d="M9.5 9.15625C9.5 9.35323 9.5388 9.54829 9.61418 9.73028C9.68956 9.91226 9.80005 10.0776 9.93934 10.2169C10.0786 10.3562 10.244 10.4667 10.426 10.5421C10.608 10.6175 10.803 10.6562 11 10.6562C11.197 10.6562 11.392 10.6175 11.574 10.5421C11.756 10.4667 11.9214 10.3562 12.0607 10.2169C12.1999 10.0776 12.3104 9.91226 12.3858 9.73028C12.4612 9.54829 12.5 9.35323 12.5 9.15625C12.5 8.75843 12.342 8.37689 12.0607 8.09559C11.7794 7.81429 11.3978 7.65625 11 7.65625C10.6022 7.65625 10.2206 7.81429 9.93934 8.09559C9.65804 8.37689 9.5 8.75843 9.5 9.15625Z" fill="#99C1FF"/>
<path id="Vector_2" d="M8 14C8 13.2044 8.31607 12.4413 8.87868 11.8787C9.44129 11.3161 10.2044 11 11 11C11.7956 11 12.5587 11.3161 13.1213 11.8787C13.6839 12.4413 14 13.2044 14 14" fill="#99C1FF"/>
<path id="Vector_3" d="M13.7373 13.2827C13.7373 13.611 13.802 13.9361 13.9276 14.2394C14.0532 14.5427 14.2374 14.8183 14.4695 15.0505C14.7017 15.2826 14.9773 15.4668 15.2806 15.5924C15.5839 15.7181 15.909 15.7827 16.2373 15.7827C16.5656 15.7827 16.8907 15.7181 17.194 15.5924C17.4973 15.4668 17.7729 15.2826 18.0051 15.0505C18.2372 14.8183 18.4214 14.5427 18.547 14.2394C18.6726 13.9361 18.7373 13.611 18.7373 13.2827C18.7373 12.6197 18.4739 11.9838 18.0051 11.5149C17.5362 11.0461 16.9003 10.7827 16.2373 10.7827C15.5743 10.7827 14.9384 11.0461 14.4695 11.5149C14.0007 11.9838 13.7373 12.6197 13.7373 13.2827Z" fill="white"/>
<path id="Vector_4" d="M10.9199 21.506C10.9199 20.0957 11.4802 18.7432 12.4774 17.7459C13.4746 16.7487 14.8271 16.1885 16.2374 16.1885C17.6477 16.1885 19.0002 16.7487 19.9975 17.7459C20.9947 18.7432 21.5549 20.0957 21.5549 21.506" fill="white"/>
<path id="Rectangle 34624147" d="M19 1L25 8H19V1Z" fill="#99C1FF"/>
</g>
</svg>
