<svg width="16" height="16" viewBox="0 0 16 16" fill="none" xmlns="http://www.w3.org/2000/svg">
<g id="Group">
<g id="Group 3293">
<path id="Rectangle 2118 (Stroke)" fill-rule="evenodd" clip-rule="evenodd" d="M12.8 10.2V12.8H1.2V10.2H12.8ZM13.6 9C13.8209 9 14 9.17909 14 9.4V13.6C14 13.8209 13.8209 14 13.6 14H0.4C0.179086 14 0 13.8209 0 13.6V9.4C0 9.17909 0.179086 9 0.4 9H13.6Z" fill="#333333"/>
<path id="Rectangle 2119 (Stroke)" fill-rule="evenodd" clip-rule="evenodd" d="M12.8 3.2V5.8H7.2V3.2H12.8ZM13.6 2C13.8209 2 14 2.17909 14 2.4V6.6C14 6.82091 13.8209 7 13.6 7H6.4C6.17909 7 6 6.82091 6 6.6V2.4C6 2.17909 6.17909 2 6.4 2H13.6Z" fill="#2778FF"/>
<path id="Vector" d="M16 0.699975C16 0.540846 15.9368 0.388233 15.8243 0.275712C15.7117 0.16319 15.5591 0.0999756 15.4 0.0999756C15.2409 0.0999756 15.0883 0.16319 14.9757 0.275712C14.8632 0.388233 14.8 0.540846 14.8 0.699975V15.3C14.8 15.4591 14.8632 15.6117 14.9757 15.7242C15.0883 15.8368 15.2409 15.9 15.4 15.9C15.5591 15.9 15.7117 15.8368 15.8243 15.7242C15.9368 15.6117 16 15.4591 16 15.3V0.699975Z" fill="#333333"/>
</g>
</g>
</svg>
