<?xml version="1.0" standalone="no"?><!DOCTYPE svg PUBLIC "-//W3C//DTD SVG 1.1//EN" "http://www.w3.org/Graphics/SVG/1.1/DTD/svg11.dtd"><svg t="1719561220821" class="icon" viewBox="0 0 1112 1024" version="1.1" xmlns="http://www.w3.org/2000/svg" p-id="9995" xmlns:xlink="http://www.w3.org/1999/xlink" width="217.1875" height="200"><path d="M547.867 0a72.074 72.074 0 0 1 47.087 17.849l487.011 424.116a89.073 89.073 0 0 1 0 134.8l-496.53 429.386a72.244 72.244 0 0 1-118.991-53.885l-1.36-165.058H89.243A89.413 89.413 0 0 1 0 697.965v-370.74a89.413 89.413 0 0 1 89.243-89.244h385.19l1.53-166.077A71.564 71.564 0 0 1 517.95 6.46 74.624 74.624 0 0 1 547.867 0z m-5.44 942.406L1031.82 518.8a12.749 12.749 0 0 0 0-19.378L551.777 81.594l-1.36 232.881H89.243a12.919 12.919 0 0 0-12.749 12.75v370.74a12.919 12.919 0 0 0 12.749 12.75h450.975z" p-id="9996"></path></svg>