<?xml version="1.0" standalone="no"?><!DOCTYPE svg PUBLIC "-//W3C//DTD SVG 1.1//EN" "http://www.w3.org/Graphics/SVG/1.1/DTD/svg11.dtd"><svg t="1674982724370" class="icon" viewBox="0 0 1331 1024" version="1.1" xmlns="http://www.w3.org/2000/svg" p-id="2864" xmlns:xlink="http://www.w3.org/1999/xlink" width="259.9609375" height="200"><path d="M1218.56 1024H112.64A112.64 112.64 0 0 1 0 911.36V112.64A112.64 112.64 0 0 1 112.64 0h430.08a51.2 51.2 0 0 1 51.2 51.2 51.2 51.2 0 0 1-51.2 51.2H112.64a9.216 9.216 0 0 0-10.24 10.24v798.72a10.24 10.24 0 0 0 10.24 10.24h1105.92a11.264 11.264 0 0 0 10.24-10.24v-76.8a51.2 51.2 0 1 1 102.4 0v76.8a112.64 112.64 0 0 1-112.64 112.64z" p-id="2865"></path><path d="M481.28 501.76H235.52a51.2 51.2 0 1 1 0-102.4h245.76a51.2 51.2 0 1 1 0 102.4zM972.8 747.52H235.52a51.2 51.2 0 0 1-51.2-51.2 51.2 51.2 0 0 1 51.2-51.2h737.28a51.2 51.2 0 0 1 51.2 51.2 51.2 51.2 0 0 1-51.2 51.2zM972.8 471.04a235.52 235.52 0 1 1 235.52-235.52 235.52 235.52 0 0 1-235.52 235.52z m0-368.64a133.12 133.12 0 1 0 133.12 133.12A133.12 133.12 0 0 0 972.8 102.4z" p-id="2866"></path><path d="M1280 668.672a51.2 51.2 0 0 1-46.08-28.672A307.2 307.2 0 0 0 972.8 471.04a272.384 272.384 0 0 0-212.992 78.848 51.2 51.2 0 1 1-68.608-75.776 368.64 368.64 0 0 1 281.6-102.4 409.6 409.6 0 0 1 352.256 225.28 51.2 51.2 0 0 1-45.056 74.752z" p-id="2867"></path></svg>