<svg width="28" height="28" viewBox="0 0 28 28" fill="none" xmlns="http://www.w3.org/2000/svg">
<g id="Frame 4230">
<g id="Frame 2551(6)" clip-path="url(#clip0_4199_2808)">
<path id="Rectangle 794" d="M23.7497 2.40625H15.7637L21.5902 9.0625L23.7497 11.5469V2.40625Z" fill="#BFDAFD"/>
<path id="Rectangle 828" d="M14.5226 1H2.85742V29H25.1431V11.3102L14.5226 1Z" fill="#1F79FF"/>
<path id="&#229;&#148;&#174;" d="M13.4751 12.7104V15.4615H12.6335V15.0724H8.0543V15.4615H7.20362V12.7104H13.4751ZM8.0543 14.3303H12.6335V13.4344H8.0543V14.3303ZM7.22172 9.69683C6.93213 10.0106 6.61538 10.3183 6.27149 10.6199L6 9.77828C6.91704 8.93364 7.55958 8.01961 7.9276 7.0362L8.76923 7.1991C8.69683 7.38612 8.59427 7.62142 8.46154 7.90498H10.4344C10.3077 7.63348 10.1719 7.38009 10.0271 7.1448L10.914 7C11.0166 7.21719 11.1403 7.51885 11.2851 7.90498H13.8371V8.61086H11.1855V9.11765H13.4389V9.78733H11.1855V10.267H13.457V10.9367H11.1855V11.4525H14V12.1674H7.22172V9.69683ZM10.3348 11.4525V10.9367H8.0362V11.4525H10.3348ZM10.3348 10.267V9.78733H8.0362V10.267H10.3348ZM10.3348 9.11765V8.61086H8.0543C8.04223 8.62293 8.0362 8.63198 8.0362 8.63801V9.11765H10.3348Z" fill="#BFDAFD"/>
<path id="Vector" d="M23.8987 18.4215L19.565 14.1126C19.4546 14.0029 19.1898 13.9695 19.0459 14.0295C18.902 14.0896 18.709 14.2286 18.709 14.3836V16.5191C15.4509 17.1539 12.7914 19.6357 12.0055 23.5415C11.9698 23.7189 12.1132 23.8967 12.2799 23.9685C12.3369 23.9895 12.3971 24.0001 12.4578 24C12.5793 24 12.6107 23.9427 12.6849 23.8396C14.081 21.8964 16.1052 20.9458 18.7088 20.8662V23.0012C18.7088 23.1563 18.9018 23.2961 19.0458 23.3554C19.1897 23.4147 19.4049 23.382 19.5154 23.2723L23.8739 18.9634C24.0245 18.8136 24.0494 18.571 23.8985 18.4215H23.8987Z" fill="white"/>
</g>
</g>
<defs>
<clipPath id="clip0_4199_2808">
<rect width="26" height="26" fill="white" transform="translate(1 1)"/>
</clipPath>
</defs>
</svg>
