<svg width="28" height="28" viewBox="0 0 28 28" fill="none" xmlns="http://www.w3.org/2000/svg">
<g id="Frame 4214">
<g id="Group 427318765">
<path id="Vector 1167" d="M26.7605 8.75181C25.9631 7.42272 22.7732 2 21.6568 2C16.5523 2 11.4477 2.00154 6.3432 2C5.22676 2 2.03692 7.42272 1.23947 8.75181C0.442008 10.0809 1.66478 12.7391 4.48246 13.1113C7.30015 13.4834 9.5886 11.4632 9.5886 10.9315C13.3101 14.2277 16.7126 12.1011 18.2543 10.6657C18.2543 11.1974 20.6999 13.4834 23.5175 13.1113C26.3352 12.7391 27.558 10.0809 26.7605 8.75181Z" fill="#1F79FF"/>
<path id="Rectangle 34624127" d="M25.0566 22.6681V14.7593C23.7807 15.1847 20.6334 15.4398 18.2516 13.0581C17.9681 13.767 16.7205 15.1847 13.9985 15.1847C11.2765 15.1847 10.0289 13.767 9.74541 13.0581C7.36366 15.4398 4.21636 15.1847 2.94043 14.7593V22.6681C2.94043 24.8772 4.7313 26.6681 6.94043 26.6681H21.0566C23.2657 26.6681 25.0566 24.8772 25.0566 22.6681Z" fill="#1F79FF"/>
</g>
</g>
</svg>
