<svg width="28" height="28" viewBox="0 0 28 28" fill="none" xmlns="http://www.w3.org/2000/svg">
<g id="Frame">
<g id="Group 4847">
<path id="Vector" d="M2 7V24.75C2 25.4404 2.59695 26 3.33333 26H24.6667C25.4031 26 26 25.4404 26 24.75V7H2Z" fill="#8454FD"/>
<path id="Vector_2" d="M26 7L22.2222 2H5.7778L2 7" fill="#EFE6F8"/>
</g>
<path id="Vector 1167" d="M19.8895 14.0259C19.5214 13.4303 18.0492 11 17.5339 11C15.178 11 12.822 11.0007 10.4661 11C9.95081 11 8.47858 13.4303 8.11052 14.0259C7.74247 14.6216 8.30682 15.8129 9.60729 15.9796C10.9078 16.1464 11.964 15.241 11.964 15.0028C13.6816 16.48 15.252 15.5269 15.9635 14.8836C15.9635 15.1219 17.0922 16.1464 18.3927 15.9796C19.6932 15.8129 20.2575 14.6216 19.8895 14.0259Z" fill="white"/>
<path id="Rectangle 34624127" d="M19 21V16.75C18.4231 16.9375 17 17.05 15.9231 16C15.7949 16.3125 15.2308 16.9375 14 16.9375C12.7692 16.9375 12.2051 16.3125 12.0769 16C11 17.05 9.57692 16.9375 9 16.75V21C9 21.5523 9.44772 22 10 22H18C18.5523 22 19 21.5523 19 21Z" fill="white"/>
</g>
</svg>
