<?xml version="1.0" standalone="no"?><!DOCTYPE svg PUBLIC "-//W3C//DTD SVG 1.1//EN" "http://www.w3.org/Graphics/SVG/1.1/DTD/svg11.dtd"><svg class="icon" width="200px" height="200.00px" viewBox="0 0 1024 1024" version="1.1" xmlns="http://www.w3.org/2000/svg"><path d="M941.696 832H155.392V118.976a9.152 9.152 0 0 0-9.152-9.152h-64a9.152 9.152 0 0 0-9.088 9.152v786.24c0 5.056 4.096 9.152 9.088 9.152h859.456a9.152 9.152 0 0 0 9.152-9.152v-64a9.152 9.152 0 0 0-9.152-9.088zM256 617.216a73.152 73.152 0 1 0 146.24 0 73.152 73.152 0 0 0-146.24 0z m134.848-256a54.848 54.848 0 1 0 109.696 0 54.848 54.848 0 0 0-109.696 0z m180.544 260.608a109.696 109.696 0 1 0 219.456 0 109.696 109.696 0 0 0-219.456 0z m169.152-358.848a64 64 0 1 0 128 0 64 64 0 0 0-128 0z" fill="#002851" /></svg>