<svg t="1762419729920" class="icon" viewBox="0 0 1024 1024" version="1.1" xmlns="http://www.w3.org/2000/svg" p-id="1672" width="200" height="200"><path d="M764.8 260.5c-139.3-139.3-365.1-139.3-504.3 0s-139.3 365.1 0 504.3c132.1 132.1 342.2 138.9 482.3 20.3L859 901.3c3.6 3.6 9.5 3.6 13.1 0l29.3-29.3c3.6-3.6 3.6-9.5 0-13.1L785.1 742.7c118.6-140.1 111.8-350.1-20.3-482.2zM721 721c-115.1 115.1-301.7 115.1-416.8 0s-115.1-301.7 0-416.8 301.7-115.1 416.8 0 115.1 301.7 0 416.8z" fill="currentColor" p-id="1673"></path></svg>