<svg width="28" height="28" viewBox="0 0 28 28" fill="none" xmlns="http://www.w3.org/2000/svg">
<g id="Frame 2584">
<path id="Rectangle 34624161" d="M2 2C2 0.895431 2.89543 0 4 0H24C25.1046 0 26 0.895431 26 2V26C26 27.1046 25.1046 28 24 28H4C2.89543 28 2 27.1046 2 26V2Z" fill="#1F79FF"/>
<path id="Vector" d="M19.8363 17.7896L14.8425 12.7959C15.3337 11.5406 15.0608 10.0398 14.0511 9.03008C12.9596 7.93854 11.3223 7.72023 10.0124 8.34787L12.3865 10.722L10.7219 12.3866L8.34786 10.0125C7.72024 11.3223 7.93854 12.9596 9.03007 14.0511C10.0397 15.0608 11.5406 15.3337 12.7959 14.8425L17.7896 19.8363C18.0079 20.0546 18.3627 20.0546 18.5537 19.8363L19.8363 18.5537C20.0546 18.3627 20.0546 18.008 19.8363 17.7896Z" fill="#98C0FE"/>
<path id="Polygon 25" d="M23.4 22.8952L19 25.3152L14.6 22.8952L14.6 18.1048L19 15.6848L23.4 18.1048L23.4 22.8952Z" fill="#2778FF" stroke="white" stroke-width="1.2"/>
<circle id="Ellipse 555" cx="19" cy="20.5" r="1.5" fill="white"/>
</g>
</svg>
