<svg width="28" height="28" viewBox="0 0 28 28" fill="none" xmlns="http://www.w3.org/2000/svg">
<g id="Frame 4230">
<path id="Rectangle 34624161" d="M2 5C2 3.89543 2.89543 3 4 3H24C25.1046 3 26 3.89543 26 5V26C26 27.1046 25.1046 28 24 28H4C2.89543 28 2 27.1046 2 26V5Z" fill="#F58E24"/>
<path id="Vector" d="M19.8363 18.7896L14.8425 13.7959C15.3337 12.5406 15.0608 11.0398 14.0511 10.0301C12.9596 8.93854 11.3223 8.72023 10.0124 9.34787L12.3865 11.722L10.7219 13.3866L8.34786 11.0125C7.72024 12.3223 7.93854 13.9596 9.03007 15.0511C10.0397 16.0608 11.5406 16.3337 12.7959 15.8425L17.7896 20.8363C18.0079 21.0546 18.3627 21.0546 18.5537 20.8363L19.8363 19.5537C20.0546 19.3627 20.0546 19.008 19.8363 18.7896Z" fill="#FDE4BF"/>
<circle id="Ellipse 558" cx="19" cy="20" r="4.4" fill="#F58E24" stroke="white" stroke-width="1.2"/>
<path id="Vector 880" d="M18.667 17V21H21.3337" stroke="white" stroke-width="1.2"/>
<path id="Rectangle 2470" d="M7 3.28521C7 2.84338 7.35817 2.48521 7.8 2.48521H9.7C10.1418 2.48521 10.5 2.12703 10.5 1.68521V0.8C10.5 0.358172 10.8582 0 11.3 0H16.7C17.1418 0 17.5 0.358172 17.5 0.8V1.68521C17.5 2.12703 17.8582 2.48521 18.3 2.48521H20.2C20.6418 2.48521 21 2.84338 21 3.28521V5.66154C21 6.10337 20.6418 6.46154 20.2 6.46154H7.8C7.35817 6.46154 7 6.10337 7 5.66154V3.28521Z" fill="#FDE4BF"/>
</g>
</svg>
