<svg width="28" height="28" viewBox="0 0 28 28" fill="none" xmlns="http://www.w3.org/2000/svg">
<g id="Frame 2551(6)">
<g id="Group 427318771">
<path id="Vector" d="M25.0168 13.3422L27.8793 6.39367C28.2561 5.43681 27.7215 4.65543 26.6823 4.65543H8.35283L8.19973 3.58076C8.01594 2.67453 7.18329 2 6.25289 2H1.41055C0.631535 2 0 2.62748 0 3.40147C0 4.17547 0.631535 4.80294 1.41055 4.80294H5.56971L8.25876 18.0635C6.51845 18.585 5.25042 20.1886 5.25042 22.0878C5.25042 24.4098 7.145 26.2922 9.4821 26.2922C11.8192 26.2922 13.7138 24.4098 13.7138 22.0878C13.7138 21.568 13.6143 21.0724 13.4408 20.6128H19.1513C18.9777 21.0724 18.8782 21.568 18.8782 22.0878C18.8782 24.4098 20.7728 26.2922 23.1099 26.2922C25.447 26.2922 27.3416 24.4098 27.3416 22.0878C27.3416 19.9283 25.7021 18.1512 23.5928 17.9127C23.4302 17.8477 23.2535 17.8099 23.0675 17.8099H11.0852L10.5317 15.0804H22.4529C23.487 15.0805 24.6387 14.3022 25.0168 13.3422ZM23.1099 23.4893C22.3309 23.4893 21.6994 22.8619 21.6994 22.0879C21.6994 21.3138 22.3309 20.6864 23.1099 20.6864C23.889 20.6864 24.5205 21.3139 24.5205 22.0879C24.5205 22.8618 23.889 23.4893 23.1099 23.4893ZM10.8927 22.0879C10.8927 22.8619 10.2611 23.4893 9.48213 23.4893C8.70309 23.4893 8.07159 22.8619 8.07159 22.0879C8.07159 21.3138 8.70312 20.6864 9.48213 20.6864C10.2611 20.6863 10.8927 21.3138 10.8927 22.0879Z" fill="#00C387"/>
<path id="Rectangle 34624153" d="M25.3486 7.28076H23.2363L21.1239 12.5617H23.2363L25.3486 7.28076Z" fill="white"/>
</g>
</g>
</svg>
