<?xml version="1.0" standalone="no"?><!DOCTYPE svg PUBLIC "-//W3C//DTD SVG 1.1//EN" "http://www.w3.org/Graphics/SVG/1.1/DTD/svg11.dtd"><svg class="icon" width="200px" height="200.00px" viewBox="0 0 1024 1024" version="1.1" xmlns="http://www.w3.org/2000/svg"><path d="M379.611429 443.245714a219.428571 219.428571 0 1 1 219.428571-219.428571 219.428571 219.428571 0 0 1-219.428571 219.428571z m0-370.102857a146.285714 146.285714 0 1 0 146.285714 146.285714 146.285714 146.285714 0 0 0-146.285714-146.285714zM828.708571 997.668571a37.302857 37.302857 0 0 1-36.571428-36.571428v-122.148572H670.72a36.571429 36.571429 0 0 1-36.571429-36.571428 36.571429 36.571429 0 0 1 36.571429-36.571429h121.417143V643.657143a37.302857 37.302857 0 0 1 36.571428-36.571429 36.571429 36.571429 0 0 1 36.571429 36.571429v122.148571h122.148571a36.571429 36.571429 0 0 1 36.571429 36.571429 36.571429 36.571429 0 0 1-36.571429 36.571428h-122.148571v122.148572a36.571429 36.571429 0 0 1-36.571429 36.571428zM590.994286 1024H36.571429a36.571429 36.571429 0 0 1-36.571429-36.571429v-31.451428c0-124.342857 0-186.514286 27.062857-239.177143a247.222857 247.222857 0 0 1 108.251429-108.982857A552.228571 552.228571 0 0 1 374.491429 585.142857h219.428571a36.571429 36.571429 0 0 1 36.571429 36.571429 36.571429 36.571429 0 0 1-36.571429 36.571428h-219.428571a522.24 522.24 0 0 0-206.262858 19.017143 174.08 174.08 0 0 0-73.142857 73.142857A498.102857 498.102857 0 0 0 73.142857 950.857143h517.851429a36.571429 36.571429 0 0 1 0 73.142857z" /></svg>