<?xml version="1.0" standalone="no"?><!DOCTYPE svg PUBLIC "-//W3C//DTD SVG 1.1//EN" "http://www.w3.org/Graphics/SVG/1.1/DTD/svg11.dtd"><svg class="icon" width="200px" height="200.00px" viewBox="0 0 1024 1024" version="1.1" xmlns="http://www.w3.org/2000/svg"><path d="M923.489883 869.10057H99.706549a35.204416 35.204416 0 0 1-24.643091-9.857237 34.500328 34.500328 0 0 1-10.561324-25.347179V629.006453a61.255684 61.255684 0 0 1 61.255683-60.551595h245.022735v-35.204416A155.603519 155.603519 0 0 0 346.137461 500.862379a316.839744 316.839744 0 0 1-100.684629-236.573675C245.452832 71.368504 386.974584 0.959672 520.047276 0.959672a241.502293 241.502293 0 0 1 261.920855 263.329032 299.941624 299.941624 0 0 1-95.051923 225.308262c-16.194031 17.602208-30.275798 32.388063-30.275798 42.949387v35.908505h240.798205a61.255684 61.255684 0 0 1 61.255684 60.551595v204.889701a35.204416 35.204416 0 0 1-35.204416 35.204416z m-788.578918-70.408832h753.374502V638.863689H641.150467c-54.918889 0-54.918889-42.245299-54.918889-106.317336a136.593134 136.593134 0 0 1 49.286182-91.531481 226.716439 226.716439 0 0 0 76.041539-176.726168A174.613903 174.613903 0 0 0 520.047276 71.368504a183.062963 183.062963 0 0 0-204.185613 192.9202 249.247265 249.247265 0 0 0 81.674245 188.695669 123.919544 123.919544 0 0 1 44.357565 79.56198 264.03312 264.03312 0 0 1-4.22453 63.367949 53.510712 53.510712 0 0 1-54.918889 42.949387H134.910965zM923.489883 1024H99.706549A35.204416 35.204416 0 0 1 64.502134 986.683319a35.204416 35.204416 0 0 1 35.204415-35.204416h823.783334a35.204416 35.204416 0 0 1 35.204416 35.204416 35.908504 35.908504 0 0 1-35.204416 37.316681z" /></svg>