<svg width="28" height="28" viewBox="0 0 28 28" fill="none" xmlns="http://www.w3.org/2000/svg">
<g id="Frame 4224">
<path id="Rectangle 34624146" d="M25 27L9 27L3 20L3 0.999998L25 1L25 27Z" fill="#8454FD"/>
<path id="Rectangle 34624147" d="M9 27L3 20L9 20L9 27Z" fill="#D4BDEC"/>
<path id="Star 13" d="M13.8111 4.54348C13.8733 4.36437 14.1267 4.36437 14.1889 4.54348L15.1299 7.25051C15.1573 7.32952 15.2311 7.3831 15.3147 7.3848L18.18 7.44319C18.3696 7.44706 18.4479 7.68796 18.2968 7.80253L16.013 9.53395C15.9464 9.58449 15.9182 9.67118 15.9424 9.75124L16.7723 12.4944C16.8272 12.6759 16.6223 12.8248 16.4666 12.7164L14.1142 11.0795C14.0456 11.0317 13.9544 11.0317 13.8858 11.0795L11.5334 12.7164C11.3777 12.8248 11.1728 12.6759 11.2277 12.4944L12.0576 9.75124C12.0818 9.67118 12.0536 9.58449 11.987 9.53395L9.70322 7.80253C9.55211 7.68797 9.63039 7.44706 9.81997 7.44319L12.6853 7.3848C12.7689 7.3831 12.8427 7.32952 12.8701 7.25051L13.8111 4.54348Z" fill="white"/>
<path id="Rectangle 829" d="M18 19H10V21H18V19Z" fill="#D4BDEC"/>
<path id="Rectangle 830" d="M10 17L18 17L18 15L10 15L10 17Z" fill="#D4BDEC"/>
</g>
</svg>
