<?xml version="1.0" standalone="no"?><!DOCTYPE svg PUBLIC "-//W3C//DTD SVG 1.1//EN" "http://www.w3.org/Graphics/SVG/1.1/DTD/svg11.dtd"><svg t="1679478443448" class="icon" viewBox="0 0 1024 1024" version="1.1" xmlns="http://www.w3.org/2000/svg" p-id="2571" xmlns:xlink="http://www.w3.org/1999/xlink" width="200" height="200"><path d="M512 112c-221 0-400 179-400 400s179 400 400 400 400-179 400-400-179-400-400-400z m240.4 640.4C688.2 816.6 602.8 852 512 852s-176.2-35.4-240.4-99.6S172 602.8 172 512s35.4-176.2 99.6-240.4S421.2 172 512 172s176.2 35.4 240.4 99.6S852 421.2 852 512s-35.4 176.2-99.6 240.4z" p-id="2572"></path><path d="M659.6 436.4H533.2v163.4c0 30 14.2 45 42.6 45H660c25 0 40.8-5.6 47.8-17 7.8-12 13.8-36.8 17.6-74.4l-46.8-15.6c-1.6 23-3.6 38.6-6.2 46.4-2.8 8.6-9.6 12.8-20.4 12.8h-54c-10.4-1-15.6-6.6-15.6-17v-96.6H708V319.6H529v46h130.8v70.8z" p-id="2573"></path><path d="M448.8 668.6v-73.8h61.6v-44.6h-61.6v-53.6h66.4V452h-76.8v-57.4h72.4V352h-72.4v-60H390v60.2h-73v42.6h73V452h-81.4v44.6H401v150.2c-13.2-10.2-25.6-23.4-37-39.8 3.8-26.2 6.2-53.4 7.2-81.4l-44-5.2c-2.8 66-14.6 125.4-35 178L330 732c9.2-21.8 16.8-46 23.2-72.4 16.2 20.2 35 35.2 56.8 45C439.4 717 512.2 723 628.4 723h95.2l8.6-48.4c-22.8 1.6-61 2.6-114.6 3.4-81 0-137.2-3.2-168.8-9.4z" p-id="2574"></path></svg>