<svg width="28" height="28" viewBox="0 0 28 28" fill="none" xmlns="http://www.w3.org/2000/svg">
<g id="Frame 4219">
<g id="Group 427318767">
<path id="Rectangle 34624145" d="M7 2H21L23 12H5L7 2Z" fill="#96E3C4"/>
<path id="Rectangle 34624144" d="M1 9C1 7.89543 1.89543 7 3 7H6.3915C7.08108 7 7.72202 7.35524 8.0875 7.94L8.1625 8.06C8.52798 8.64476 9.16891 9 9.85849 9H14H18.1415C18.8311 9 19.472 8.64476 19.8375 8.06L19.9125 7.94C20.278 7.35524 20.9189 7 21.6085 7H25C26.1046 7 27 7.89543 27 9V25C27 26.1046 26.1046 27 25 27H3C1.89543 27 1 26.1046 1 25V9Z" fill="#00C387"/>
<g id="Frame">
<path id="Vector" d="M14 21.25V14.25" stroke="white" stroke-width="1.5" stroke-linecap="square" stroke-linejoin="round"/>
<path id="Vector_2" d="M10.5 17.75L17.5 17.75" stroke="white" stroke-width="1.5" stroke-linecap="square" stroke-linejoin="round"/>
</g>
</g>
</g>
</svg>
