<svg width="20" height="20" viewBox="0 0 20 20" fill="none" xmlns="http://www.w3.org/2000/svg">
<g id="&#229;&#173;&#144;&#230;&#181;&#129;&#231;&#168;&#139;">
<path id="Vector 912" d="M5.5 4.5V13C5.5 15.2091 7.29086 17 9.5 17H14.5" stroke="#2778FF"/>
<path id="Vector" d="M5.5 7C6.88071 7 8 5.88071 8 4.5C8 3.11929 6.88071 2 5.5 2C4.11929 2 3 3.11929 3 4.5C3 5.88071 4.11929 7 5.5 7Z" fill="white" stroke="#2778FF"/>
<path id="Vector_2" d="M14.6667 18.3333C15.5871 18.3333 16.3333 17.5871 16.3333 16.6667C16.3333 15.7462 15.5871 15 14.6667 15C13.7462 15 13 15.7462 13 16.6667C13 17.5871 13.7462 18.3333 14.6667 18.3333Z" fill="white" stroke="#2778FF"/>
</g>
</svg>
