<?xml version="1.0" standalone="no"?><!DOCTYPE svg PUBLIC "-//W3C//DTD SVG 1.1//EN" "http://www.w3.org/Graphics/SVG/1.1/DTD/svg11.dtd"><svg t="1674982779453" class="icon" viewBox="0 0 1041 1024" version="1.1" xmlns="http://www.w3.org/2000/svg" p-id="3993" xmlns:xlink="http://www.w3.org/1999/xlink" width="203.3203125" height="200"><path d="M42.24 856.96h330.88v81.92H42.24zM81.92 704V109.44a27.52 27.52 0 0 1 27.52-27.52h815.36a28.16 28.16 0 0 1 27.52 27.52v291.84h81.92V109.44A110.08 110.08 0 0 0 924.8 0H109.44A110.08 110.08 0 0 0 0 109.44V704a110.08 110.08 0 0 0 109.44 109.44h263.68v-83.2H109.44a27.52 27.52 0 0 1-27.52-26.24z" p-id="3994"></path><path d="M991.36 704l49.28-85.12-6.4-17.28a326.4 326.4 0 0 0-64-108.16l-10.24-12.8h-97.92l-49.28-84.48-17.92-3.84a314.88 314.88 0 0 0-124.8 0l-18.56 3.84-48.64 84.48H504.96l-12.16 14.08a320 320 0 0 0-64 108.16l-5.76 17.28 49.92 83.84-48.64 84.48 5.76 17.92a308.48 308.48 0 0 0 64 107.52l12.16 14.08h96.64l48.64 85.12 18.56 3.2a307.2 307.2 0 0 0 124.8 0l17.92-3.2 49.28-85.12H960l12.16-14.08a320 320 0 0 0 64-107.52l5.76-17.92z m-40.96 92.8a256 256 0 0 1-28.8 49.28h-106.88l-53.76 92.8a282.24 282.24 0 0 1-56.96 0l-53.76-92.8H543.36a222.72 222.72 0 0 1-28.16-49.28L568.32 704l-53.12-92.16a222.72 222.72 0 0 1 28.16-49.28h106.88L704 469.76a282.24 282.24 0 0 1 56.96 0l53.76 92.8h106.88a256 256 0 0 1 28.8 49.28L896 704z" p-id="3995"></path><path d="M732.8 576a128 128 0 1 0 128 128 131.2 131.2 0 0 0-128-128z m0 179.84a48.64 48.64 0 1 1 48-51.84 48.64 48.64 0 0 1-48 49.92z" p-id="3996"></path></svg>