<svg width="28" height="28" viewBox="0 0 28 28" fill="none" xmlns="http://www.w3.org/2000/svg">
<g id="Frame 4214" clip-path="url(#clip0_4199_2272)">
<g id="Frame">
<path id="Vector" d="M14.0003 11.6667C16.2555 11.6667 18.0837 9.8385 18.0837 7.58333C18.0837 5.32817 16.2555 3.5 14.0003 3.5C11.7452 3.5 9.91699 5.32817 9.91699 7.58333C9.91699 9.8385 11.7452 11.6667 14.0003 11.6667Z" fill="#FF5738" stroke="#FF5738" stroke-width="2.5625" stroke-linecap="square" stroke-linejoin="round"/>
<path id="Vector_2" d="M7 4.23193C5.94212 4.96982 5.25 6.19574 5.25 7.58337C5.25 9.06871 6.0431 10.3688 7.2289 11.0834" stroke="#FF5738" stroke-width="2.5625" stroke-linecap="square" stroke-linejoin="round"/>
<path id="Vector_3" d="M21 4.23193C22.0579 4.96982 22.75 6.19574 22.75 7.58337C22.75 8.97095 22.0579 10.1969 21 10.9348" stroke="#FF5738" stroke-width="2.5625" stroke-linecap="square" stroke-linejoin="round"/>
<path id="Vector_4" d="M7 23.3333V24.4999H21V23.3333C21 21.1589 21 20.0717 20.6447 19.214C20.1711 18.0706 19.2627 17.1621 18.1192 16.6885C17.2616 16.3333 16.1744 16.3333 14 16.3333C11.8256 16.3333 10.7384 16.3333 9.88079 16.6885C8.73734 17.1621 7.82886 18.0706 7.35525 19.214C7 20.0717 7 21.1589 7 23.3333Z" fill="#FF5738" stroke="#FF5738" stroke-width="2.5625" stroke-linecap="square" stroke-linejoin="round"/>
<path id="Vector_5" d="M25.6662 24.5V23.8C25.6662 21.1865 25.6662 19.8797 25.1576 18.8814C24.7102 18.0033 23.9963 17.2895 23.1182 16.842" stroke="#FF5738" stroke-width="2.5625" stroke-linecap="square" stroke-linejoin="round"/>
<path id="Vector_6" d="M2.33301 24.5V23.8C2.33301 21.1865 2.33301 19.8797 2.84165 18.8814C3.28905 18.0033 4.00296 17.2895 4.88105 16.842" stroke="#FF5738" stroke-width="2.5625" stroke-linecap="square" stroke-linejoin="round"/>
</g>
</g>
<defs>
<clipPath id="clip0_4199_2272">
<rect width="28" height="28" fill="white"/>
</clipPath>
</defs>
</svg>
