<svg width="16" height="16" viewBox="0 0 16 16" fill="none" xmlns="http://www.w3.org/2000/svg">
<g id="Group">
<g id="Group 3293">
<path id="Rectangle 2118 (Stroke)" fill-rule="evenodd" clip-rule="evenodd" d="M5.8 3.2L3.2 3.2L3.2 14.8L5.8 14.8L5.8 3.2ZM7 2.4C7 2.17909 6.82091 2 6.6 2L2.4 2C2.17909 2 2 2.17909 2 2.4L2 15.6C2 15.8209 2.17909 16 2.4 16L6.6 16C6.82091 16 7 15.8209 7 15.6L7 2.4Z" fill="#333333"/>
<path id="Rectangle 2119 (Stroke)" fill-rule="evenodd" clip-rule="evenodd" d="M12.8 3.2L10.2 3.2L10.2 8.8L12.8 8.8L12.8 3.2ZM14 2.4C14 2.17909 13.8209 2 13.6 2L9.4 2C9.17909 2 9 2.17909 9 2.4L9 9.6C9 9.82091 9.17909 10 9.4 10L13.6 10C13.8209 10 14 9.82091 14 9.6L14 2.4Z" fill="#2778FF"/>
<path id="Vector" d="M15.3 6.99382e-08C15.4592 6.29824e-08 15.6118 0.0632137 15.7243 0.175736C15.8368 0.288257 15.9 0.44087 15.9 0.6C15.9 0.75913 15.8368 0.911743 15.7243 1.02426C15.6118 1.13679 15.4592 1.2 15.3 1.2L0.700026 1.2C0.540896 1.2 0.388283 1.13679 0.275761 1.02427C0.163239 0.911743 0.100025 0.759131 0.100025 0.600001C0.100025 0.440871 0.163239 0.288258 0.275761 0.175736C0.388283 0.0632143 0.540895 6.71369e-07 0.700026 6.64413e-07L15.3 6.99382e-08Z" fill="#333333"/>
</g>
</g>
</svg>
