<?xml version="1.0" standalone="no"?><!DOCTYPE svg PUBLIC "-//W3C//DTD SVG 1.1//EN" "http://www.w3.org/Graphics/SVG/1.1/DTD/svg11.dtd"><svg class="icon" width="200px" height="200.00px" viewBox="0 0 1024 1024" version="1.1" xmlns="http://www.w3.org/2000/svg"><path d="M982.200874 449.722613a41.795782 41.795782 0 0 1-41.795781-41.795782V83.591564H616.905741a41.795782 41.795782 0 0 1-41.795782-41.795782 41.795782 41.795782 0 0 1 41.795782-41.795782h365.295133a41.795782 41.795782 0 0 1 41.795782 41.795782v366.131049a41.795782 41.795782 0 0 1-41.795782 41.795782zM903.624804 1023.996656H120.371852A120.371852 120.371852 0 0 1 0 903.624804V120.371852A121.207767 121.207767 0 0 1 120.371852 0h234.892294a41.795782 41.795782 0 0 1 41.795782 41.795782 41.795782 41.795782 0 0 1-41.795782 41.795782H120.371852a36.780288 36.780288 0 0 0-36.780288 36.780288v783.252952a36.780288 36.780288 0 0 0 36.780288 36.780289h783.252952a36.780288 36.780288 0 0 0 36.780289-36.780289v-250.774691a41.795782 41.795782 0 0 1 83.591563 0v250.774691a119.535936 119.535936 0 0 1-120.371852 120.371852zM559.227562 506.564877a45.139444 45.139444 0 0 1-30.092963-11.702819 42.631698 42.631698 0 0 1 0-59.350011L929.538189 35.944372a40.123951 40.123951 0 0 1 58.514095 0 40.123951 40.123951 0 0 1 0 58.514095L585.140946 494.862058a43.467613 43.467613 0 0 1-25.913384 11.702819z" /></svg>