<svg width="28" height="28" viewBox="0 0 28 28" fill="none" xmlns="http://www.w3.org/2000/svg">
<g id="Frame 4214">
<path id="Vector" d="M23.3337 13.4166V8.16659L18.0837 2.33325H5.83366C5.18933 2.33325 4.66699 2.85559 4.66699 3.49992V24.4999C4.66699 25.1443 5.18933 25.6666 5.83366 25.6666L23.3337 25.6666" fill="#1F79FF"/>
<path id="Vector_2" d="M17.5 2.33325V8.16659H23.3333" fill="#99C1FF"/>
<path id="Rectangle 34624146" d="M3 1H19L25 8V27H3V1Z" fill="#1F79FF"/>
<path id="Rectangle 34624147" d="M19 1L25 8H19V1Z" fill="#99C1FF"/>
<path id="Rectangle 825" d="M15.2244 5.99976H6.24414V7.64038H15.2244V5.99976Z" fill="white"/>
<path id="Rectangle 827" d="M12.1027 11.7419H6.24414V13.3826H12.1027V11.7419Z" fill="#99C1FF"/>
<path id="Vector_3" d="M15.9167 18.25L13 21.1667L15.9167 24.0833" stroke="#FCFDFF" stroke-width="1.5" stroke-linecap="square" stroke-linejoin="round"/>
<path id="Vector_4" d="M14 21.1667H22.3333V16.5" stroke="#FCFDFF" stroke-width="1.5" stroke-linecap="square" stroke-linejoin="round"/>
</g>
</svg>
