<svg width="28" height="28" viewBox="0 0 28 28" fill="none" xmlns="http://www.w3.org/2000/svg">
<g id="Frame 2584" clip-path="url(#clip0_4138_2433)">
<path id="Vector" d="M10.7332 9.49409C10.0521 8.78465 9.59444 7.89073 9.41711 6.92339C9.23978 5.95604 9.35058 4.95791 9.73575 4.05301C10.1209 3.14811 10.7635 2.37632 11.5836 1.83354C12.4037 1.29076 13.3652 1.00091 14.3487 1C15.3322 0.999094 16.2942 1.28717 17.1153 1.82843C17.9365 2.3697 18.5804 3.1403 18.9673 4.04449C19.3541 4.94867 19.4668 5.9466 19.2912 6.91427C19.1157 7.88194 18.6597 8.7767 17.9799 9.48739C14.4352 14.4373 19.3717 17.7277 19.3717 17.7277H9.33471C9.33471 17.7277 14.2662 14.439 10.7332 9.49409ZM5.34566 26.2132H23.3607V27H5.34566V26.2132ZM2 21.0734C2 19.2249 3.49718 17.7277 5.33562 17.7277H23.3708C25.2126 17.7277 26.7064 19.2132 26.7064 21.0734V26.2132H2V21.0734Z" fill="#1F79FF"/>
<circle id="Ellipse 498" cx="23" cy="21" r="5.5" fill="#2778FF" stroke="white"/>
<path id="Vector 880" d="M23 18V22H25.6667" stroke="white" stroke-width="1.5"/>
</g>
<defs>
<clipPath id="clip0_4138_2433">
<rect width="28" height="28" fill="white"/>
</clipPath>
</defs>
</svg>
