<svg width="28" height="28" viewBox="0 0 28 28" fill="none" xmlns="http://www.w3.org/2000/svg">
<g id="Frame 4216">
<g id="Group 4278">
<rect id="Rectangle 2469" x="3" y="4" width="22" height="24" rx="1" fill="#F58E24"/>
<path id="Rectangle 2470" d="M7 3.78521C7 3.34338 7.35817 2.98521 7.8 2.98521H9.7C10.1418 2.98521 10.5 2.62703 10.5 2.18521V1.3C10.5 0.858172 10.8582 0.5 11.3 0.5H16.7C17.1418 0.5 17.5 0.858172 17.5 1.3V2.18521C17.5 2.62703 17.8582 2.98521 18.3 2.98521H20.2C20.6418 2.98521 21 3.34338 21 3.78521V6.16154C21 6.60337 20.6418 6.96154 20.2 6.96154H7.8C7.35817 6.96154 7 6.60337 7 6.16154V3.78521Z" fill="#FDE4BF"/>
<path id="Vector" d="M12.5058 13.9203C12.1915 13.5929 11.9802 13.1803 11.8984 12.7339C11.8166 12.2874 11.8677 11.8267 12.0455 11.4091C12.2232 10.9914 12.5198 10.6352 12.8983 10.3847C13.2768 10.1342 13.7206 10.0004 14.1745 10C14.6284 9.99958 15.0725 10.1325 15.4514 10.3824C15.8304 10.6322 16.1276 10.9878 16.3062 11.4051C16.4847 11.8225 16.5367 12.283 16.4557 12.7297C16.3747 13.1763 16.1642 13.5892 15.8505 13.9173C14.2144 16.2018 16.4928 17.7205 16.4928 17.7205H11.8604C11.8604 17.7205 14.1365 16.2026 12.5058 13.9203ZM9.54415 21.1617H18.809V22H9.54415V21.1617ZM8 19.2646C8 18.4115 8.69101 17.7205 9.53952 17.7205H18.8137C19.6637 17.7205 20.3532 18.4061 20.3532 19.2646V21.1617H8V19.2646Z" fill="white"/>
</g>
</g>
</svg>
