<?xml version="1.0" standalone="no"?><!DOCTYPE svg PUBLIC "-//W3C//DTD SVG 1.1//EN" "http://www.w3.org/Graphics/SVG/1.1/DTD/svg11.dtd"><svg t="1674982335572" class="icon" viewBox="0 0 1024 1024" version="1.1" xmlns="http://www.w3.org/2000/svg" p-id="1590" xmlns:xlink="http://www.w3.org/1999/xlink" width="200" height="200"><path d="M511.673182 452.734408a226.363991 226.363991 0 1 1 226.36399-225.649909A226.363991 226.363991 0 0 1 511.673182 452.734408zM511.673182 72.128708a154.955792 154.955792 0 1 0 154.955791 154.955791A154.955792 154.955792 0 0 0 511.673182 72.128708zM940.122375 1024a35.704099 35.704099 0 0 1-35.704099-35.704099 392.745094 392.745094 0 1 0-785.490189 0 35.704099 35.704099 0 0 1-35.704099 35.704099 35.704099 35.704099 0 0 1-35.7041-35.704099 464.153293 464.153293 0 1 1 928.306587 0 35.704099 35.704099 0 0 1-35.7041 35.704099z" p-id="1591"></path></svg>