<svg width="28" height="28" viewBox="0 0 28 28" fill="none" xmlns="http://www.w3.org/2000/svg">
<g id="Frame 4212" clip-path="url(#clip0_2888_948)">
<g id="Group 4220">
<circle id="Ellipse 493" cx="17.5" cy="19.5" r="10.5" fill="#E6EDFF"/>
<path id="Subtract" fill-rule="evenodd" clip-rule="evenodd" d="M17.75 6.34622C17.75 9.85114 14.9518 12.6924 11.5 12.6924C8.04822 12.6924 5.25 9.85114 5.25 6.34622C5.25 2.8413 8.04822 0 11.5 0C14.9518 0 17.75 2.8413 17.75 6.34622ZM-1 19.765C-1 19.3106 -0.77457 18.8858 -0.398259 18.631C5.34561 14.7428 12.5189 13.9624 18.8366 16.2897L8 27.5H1C-0.10457 27.5 -1 26.6046 -1 25.5V19.765Z" fill="#1F79FF"/>
<path id="Vector" d="M23.1253 15.2115C22.9904 15.0736 22.8126 15 22.6164 15C22.4264 15 22.2424 15.0797 22.1075 15.2115L20.8077 16.5114L23.5484 19.249L24.7716 17.8695C24.9096 17.7346 24.9831 17.5506 24.9831 17.3636C24.9831 17.1736 24.9034 16.9896 24.7716 16.8578L23.1253 15.2115ZM12 25.2394V27.977H14.7468L22.6839 19.9633L19.9432 17.2196L12 25.2394Z" fill="#1F79FF"/>
</g>
</g>
<defs>
<clipPath id="clip0_2888_948">
<rect width="28" height="28" fill="white"/>
</clipPath>
</defs>
</svg>
