<svg width="28" height="28" viewBox="0 0 28 28" fill="none" xmlns="http://www.w3.org/2000/svg">
<g id="Frame 427318769">
<g id="Frame 2551(6)">
<path id="Rectangle 794" d="M23.7497 2.40625H15.7637L21.5902 9.0625L23.7497 11.5469V2.40625Z" fill="#FFC5BA"/>
<path id="Rectangle 828" d="M14.5226 1H2.85742V27H25.1431V11.3102L14.5226 1Z" fill="#FF5738"/>
<path id="Rectangle 825" d="M16.2244 6.99976H7.24414V8.64038H16.2244V6.99976Z" fill="white"/>
<path id="Rectangle 827" d="M13.1027 12.7419H7.24414V14.3826H13.1027V12.7419Z" fill="#FFC5BA"/>
</g>
<path id="Vector" d="M18 18C19.1046 18 20 17.1046 20 16C20 14.8954 19.1046 14 18 14C16.8954 14 16 14.8954 16 16C16 17.1046 16.8954 18 18 18Z" stroke="white" stroke-width="1.5" stroke-linecap="square" stroke-linejoin="round"/>
<path id="Vector_2" d="M22 23C22 20.7909 20.2091 19 18 19C15.7909 19 14 20.7909 14 23" stroke="white" stroke-width="1.5" stroke-linecap="square" stroke-linejoin="round"/>
</g>
</svg>
