<svg width="16" height="16" viewBox="0 0 16 16" fill="none" xmlns="http://www.w3.org/2000/svg">
<g id="Group">
<g id="Group 3293">
<path id="Vector" d="M8.59998 0.699975C8.59998 0.540846 8.53676 0.388233 8.42424 0.275712C8.31172 0.16319 8.15911 0.0999756 7.99998 0.0999756C7.84085 0.0999757 7.68823 0.16319 7.57571 0.275712C7.46319 0.388234 7.39998 0.540846 7.39998 0.699976L7.39998 15.3C7.39998 15.4591 7.46319 15.6117 7.57571 15.7242C7.68823 15.8368 7.84085 15.9 7.99998 15.9C8.15911 15.9 8.31172 15.8368 8.42424 15.7242C8.53676 15.6117 8.59998 15.4591 8.59998 15.3L8.59998 0.699975Z" fill="#333333"/>
<path id="Rectangle 2118" d="M15 9.4C15 9.17909 14.8209 9 14.6 9L1.4 9C1.17909 9 1 9.17909 1 9.4L1 13.6C1 13.8209 1.17909 14 1.4 14L14.6 14C14.8209 14 15 13.8209 15 13.6L15 9.4Z" fill="white"/>
<path id="Rectangle 2118 (Stroke)" fill-rule="evenodd" clip-rule="evenodd" d="M13.8 10.2L13.8 12.8L2.2 12.8L2.2 10.2L13.8 10.2ZM14.6 9C14.8209 9 15 9.17909 15 9.4L15 13.6C15 13.8209 14.8209 14 14.6 14L1.4 14C1.17909 14 1 13.8209 1 13.6L1 9.4C1 9.17909 1.17909 9 1.4 9L14.6 9Z" fill="#333333"/>
<path id="Rectangle 2119" d="M12 2.4C12 2.17909 11.8209 2 11.6 2L4.4 2C4.17909 2 4 2.17909 4 2.4L4 6.6C4 6.82091 4.17909 7 4.4 7L11.6 7C11.8209 7 12 6.82091 12 6.6L12 2.4Z" fill="white"/>
<path id="Rectangle 2119 (Stroke)" fill-rule="evenodd" clip-rule="evenodd" d="M10.8 3.2L10.8 5.8L5.2 5.8L5.2 3.2L10.8 3.2ZM11.6 2C11.8209 2 12 2.17909 12 2.4L12 6.6C12 6.82091 11.8209 7 11.6 7L4.4 7C4.17909 7 4 6.82091 4 6.6L4 2.4C4 2.17909 4.17909 2 4.4 2L11.6 2Z" fill="#2778FF"/>
</g>
</g>
</svg>
