<svg width="16" height="16" viewBox="0 0 16 16" fill="none" xmlns="http://www.w3.org/2000/svg">
<g id="Frame" clip-path="url(#clip0_2292_12661)">
<path id="Rectangle 2119 (Stroke)" fill-rule="evenodd" clip-rule="evenodd" d="M5.25152 6.7L5.25152 9.3L10.7485 9.3L10.7485 6.7L5.25152 6.7ZM4.46625 5.5C4.2494 5.5 4.07361 5.67909 4.07361 5.9L4.07361 10.1C4.07361 10.3209 4.2494 10.5 4.46625 10.5L11.5337 10.5C11.7506 10.5 11.9264 10.3209 11.9264 10.1L11.9264 5.9C11.9264 5.67909 11.7506 5.5 11.5337 5.5L4.46625 5.5Z" fill="#2778FF"/>
<path id="Rectangle 2118 (Stroke)" fill-rule="evenodd" clip-rule="evenodd" d="M2.2 2.8L2.2 1.2L13.8 1.2L13.8 2.8L2.2 2.8ZM1.4 4C1.17909 4 1 3.82091 1 3.6L1 0.4C1 0.179086 1.17909 5.69252e-09 1.4 1.27146e-08L14.6 4.32296e-07C14.8209 4.39319e-07 15 0.179087 15 0.400001L15 3.6C15 3.82091 14.8209 4 14.6 4L1.4 4Z" fill="#333333"/>
<path id="Rectangle 2118 (Stroke)_2" fill-rule="evenodd" clip-rule="evenodd" d="M2.2 14.8L2.2 13.2L13.8 13.2L13.8 14.8L2.2 14.8ZM1.4 16C1.17909 16 1 15.8209 1 15.6L1 12.4C1 12.1791 1.17909 12 1.4 12L14.6 12C14.8209 12 15 12.1791 15 12.4L15 15.6C15 15.8209 14.8209 16 14.6 16L1.4 16Z" fill="#333333"/>
</g>
<defs>
<clipPath id="clip0_2292_12661">
<rect width="16" height="16" fill="white" transform="matrix(4.37114e-08 -1 -1 -4.37114e-08 16 16)"/>
</clipPath>
</defs>
</svg>
