<svg width="28" height="28" viewBox="0 0 28 28" fill="none" xmlns="http://www.w3.org/2000/svg">
<g id="&#229;&#145;&#168;&#230;&#138;&#165;">
<g id="Group 427318766">
<path id="Vector" d="M27 11.9448V24.6431V26.1517C27 26.3432 26.8433 26.4998 26.6519 26.4998H1.34814C1.15666 26.4998 1 26.3432 1 26.1517V4.57593C1 4.38445 1.15666 4.22779 1.34814 4.22779H6.39612C6.49185 4.22779 6.57019 4.14946 6.57019 4.05373V2.54223C6.57019 2.44649 6.64852 2.36816 6.74425 2.36816H8.25285C8.34858 2.36816 8.42691 2.44649 8.42691 2.54223V4.05373C8.42691 4.14946 8.50524 4.22779 8.60098 4.22779H19.3932C19.489 4.22779 19.5673 4.14946 19.5673 4.05373V2.54223C19.5673 2.44649 19.6456 2.36816 19.7414 2.36816H21.2499C21.3457 2.36816 21.424 2.44649 21.424 2.54223V4.05373C21.424 4.14946 21.5023 4.22779 21.5981 4.22779H26.6432C26.8346 4.22779 26.9913 4.38445 26.9913 4.57593V11.9448H27Z" fill="#1F79FF"/>
<rect id="Rectangle 34624131" opacity="0.6" x="1" y="8.76367" width="25.9942" height="1.63392" fill="white"/>
<rect id="Rectangle 34624132" x="9" y="2" width="5" height="3" transform="rotate(90 9 2)" fill="#7FABF7"/>
<rect id="Rectangle 34624133" x="22" y="2" width="5" height="3" transform="rotate(90 22 2)" fill="#7FABF7"/>
<path id="07" d="M10.2 12.808C11.3667 12.808 12.2767 13.2933 12.93 14.264C13.546 15.188 13.854 16.434 13.854 18.002C13.854 19.57 13.546 20.816 12.93 21.74C12.2673 22.7107 11.3573 23.196 10.2 23.196C9.024 23.196 8.114 22.7107 7.47 21.74C6.854 20.816 6.546 19.57 6.546 18.002C6.546 16.434 6.854 15.188 7.47 14.264C8.10467 13.2933 9.01467 12.808 10.2 12.808ZM10.2 14.194C9.39733 14.194 8.83733 14.6373 8.52 15.524C8.296 16.1213 8.184 16.9473 8.184 18.002C8.184 19.038 8.296 19.864 8.52 20.48C8.84667 21.3667 9.40667 21.81 10.2 21.81C10.984 21.81 11.544 21.3667 11.88 20.48C12.104 19.864 12.216 19.038 12.216 18.002C12.216 16.9473 12.104 16.1213 11.88 15.524C11.544 14.6373 10.984 14.194 10.2 14.194ZM15.2205 13.004H21.9825V14.32L18.4825 23H16.7465L20.3305 14.488H15.2205V13.004Z" fill="white"/>
</g>
</g>
</svg>
